%TF.GenerationSoftware,KiCad,Pcbnew,(6.0.7-1)-1*%
%TF.CreationDate,2022-08-17T11:35:41+02:00*%
%TF.ProjectId,vgascart,76676173-6361-4727-942e-6b696361645f,rev?*%
%TF.SameCoordinates,Original*%
%TF.FileFunction,Drillmap*%
%TF.FilePolarity,Positive*%
%FSLAX45Y45*%
G04 Gerber Fmt 4.5, Leading zero omitted, Abs format (unit mm)*
G04 Created by KiCad (PCBNEW (6.0.7-1)-1) date 2022-08-17 11:35:41*
%MOMM*%
%LPD*%
G01*
G04 APERTURE LIST*
%ADD10C,0.100000*%
%ADD11C,0.200000*%
%ADD12C,0.040000*%
%ADD13C,0.080000*%
%ADD14C,0.119888*%
%ADD15C,0.130000*%
%ADD16C,0.320000*%
G04 APERTURE END LIST*
D10*
X2550000Y-2250000D02*
X7150000Y-2250000D01*
X7150000Y-2250000D02*
X7150000Y-8150000D01*
X7150000Y-8150000D02*
X2550000Y-8150000D01*
X2550000Y-8150000D02*
X2550000Y-2250000D01*
D11*
D12*
X4080000Y-4230000D02*
X4120000Y-4270000D01*
X4120000Y-4230000D02*
X4080000Y-4270000D01*
X4205000Y-4980000D02*
X4245000Y-5020000D01*
X4245000Y-4980000D02*
X4205000Y-5020000D01*
X4387982Y-3787982D02*
X4427982Y-3827982D01*
X4427982Y-3787982D02*
X4387982Y-3827982D01*
X4605000Y-3705000D02*
X4645000Y-3745000D01*
X4645000Y-3705000D02*
X4605000Y-3745000D01*
X4655000Y-4530000D02*
X4695000Y-4570000D01*
X4695000Y-4530000D02*
X4655000Y-4570000D01*
X5055000Y-4605000D02*
X5095000Y-4645000D01*
X5095000Y-4605000D02*
X5055000Y-4645000D01*
X5230000Y-4830000D02*
X5270000Y-4870000D01*
X5270000Y-4830000D02*
X5230000Y-4870000D01*
X5255000Y-3655000D02*
X5295000Y-3695000D01*
X5295000Y-3655000D02*
X5255000Y-3695000D01*
X5405000Y-4105000D02*
X5445000Y-4145000D01*
X5445000Y-4105000D02*
X5405000Y-4145000D01*
X6030000Y-4680000D02*
X6070000Y-4720000D01*
X6070000Y-4680000D02*
X6030000Y-4720000D01*
D13*
X4390000Y-6185000D02*
G75*
G03*
X4390000Y-6185000I-40000J0D01*
G01*
X4640000Y-6675000D02*
G75*
G03*
X4640000Y-6675000I-40000J0D01*
G01*
X5140000Y-6675000D02*
G75*
G03*
X5140000Y-6675000I-40000J0D01*
G01*
X5406000Y-6185000D02*
G75*
G03*
X5406000Y-6185000I-40000J0D01*
G01*
X5865000Y-6175000D02*
G75*
G03*
X5865000Y-6175000I-40000J0D01*
G01*
X6627000Y-6175000D02*
G75*
G03*
X6627000Y-6175000I-40000J0D01*
G01*
D10*
X4200000Y-3170000D02*
X4200000Y-3270000D01*
X4150000Y-3220000D02*
X4250000Y-3220000D01*
D11*
X4150000Y-3170000D02*
X4150000Y-3270000D01*
X4250000Y-3170000D02*
X4250000Y-3270000D01*
X4150000Y-3270000D02*
G75*
G03*
X4250000Y-3270000I50000J0D01*
G01*
X4250000Y-3170000D02*
G75*
G03*
X4150000Y-3170000I-50000J0D01*
G01*
D10*
X4594500Y-4072500D02*
X4594500Y-4172500D01*
X4544500Y-4122500D02*
X4644500Y-4122500D01*
X4594500Y-4326500D02*
X4594500Y-4426500D01*
X4544500Y-4376500D02*
X4644500Y-4376500D01*
X4750000Y-2295000D02*
X4750000Y-2395000D01*
X4700000Y-2345000D02*
X4800000Y-2345000D01*
D11*
X4800000Y-2295000D02*
X4700000Y-2295000D01*
X4800000Y-2395000D02*
X4700000Y-2395000D01*
X4700000Y-2295000D02*
G75*
G03*
X4700000Y-2395000I0J-50000D01*
G01*
X4800000Y-2395000D02*
G75*
G03*
X4800000Y-2295000I0J50000D01*
G01*
D10*
X4750000Y-3170000D02*
X4750000Y-3270000D01*
X4700000Y-3220000D02*
X4800000Y-3220000D01*
D11*
X4800000Y-3170000D02*
X4700000Y-3170000D01*
X4800000Y-3270000D02*
X4700000Y-3270000D01*
X4700000Y-3170000D02*
G75*
G03*
X4700000Y-3270000I0J-50000D01*
G01*
X4800000Y-3270000D02*
G75*
G03*
X4800000Y-3170000I0J50000D01*
G01*
D10*
X4848500Y-4072500D02*
X4848500Y-4172500D01*
X4798500Y-4122500D02*
X4898500Y-4122500D01*
X4848500Y-4326500D02*
X4848500Y-4426500D01*
X4798500Y-4376500D02*
X4898500Y-4376500D01*
X5102500Y-4072500D02*
X5102500Y-4172500D01*
X5052500Y-4122500D02*
X5152500Y-4122500D01*
X5102500Y-4326500D02*
X5102500Y-4426500D01*
X5052500Y-4376500D02*
X5152500Y-4376500D01*
X5300000Y-3170000D02*
X5300000Y-3270000D01*
X5250000Y-3220000D02*
X5350000Y-3220000D01*
D11*
X5250000Y-3170000D02*
X5250000Y-3270000D01*
X5350000Y-3170000D02*
X5350000Y-3270000D01*
X5250000Y-3270000D02*
G75*
G03*
X5350000Y-3270000I50000J0D01*
G01*
X5350000Y-3170000D02*
G75*
G03*
X5250000Y-3170000I-50000J0D01*
G01*
D10*
X5865967Y-3520000D02*
X5865967Y-3620000D01*
X5815967Y-3570000D02*
X5915967Y-3570000D01*
X5865967Y-3749000D02*
X5865967Y-3849000D01*
X5815967Y-3799000D02*
X5915967Y-3799000D01*
X5865967Y-3978000D02*
X5865967Y-4078000D01*
X5815967Y-4028000D02*
X5915967Y-4028000D01*
X5865967Y-4207000D02*
X5865967Y-4307000D01*
X5815967Y-4257000D02*
X5915967Y-4257000D01*
X5865967Y-4436000D02*
X5865967Y-4536000D01*
X5815967Y-4486000D02*
X5915967Y-4486000D01*
X6063967Y-3405500D02*
X6063967Y-3505500D01*
X6013967Y-3455500D02*
X6113967Y-3455500D01*
X6063967Y-3634500D02*
X6063967Y-3734500D01*
X6013967Y-3684500D02*
X6113967Y-3684500D01*
X6063967Y-3863500D02*
X6063967Y-3963500D01*
X6013967Y-3913500D02*
X6113967Y-3913500D01*
X6063967Y-4092500D02*
X6063967Y-4192500D01*
X6013967Y-4142500D02*
X6113967Y-4142500D01*
X6063967Y-4321500D02*
X6063967Y-4421500D01*
X6013967Y-4371500D02*
X6113967Y-4371500D01*
X6261967Y-3520000D02*
X6261967Y-3620000D01*
X6211967Y-3570000D02*
X6311967Y-3570000D01*
X6261967Y-3749000D02*
X6261967Y-3849000D01*
X6211967Y-3799000D02*
X6311967Y-3799000D01*
X6261967Y-3978000D02*
X6261967Y-4078000D01*
X6211967Y-4028000D02*
X6311967Y-4028000D01*
X6261967Y-4207000D02*
X6261967Y-4307000D01*
X6211967Y-4257000D02*
X6311967Y-4257000D01*
X6261967Y-4436000D02*
X6261967Y-4536000D01*
X6211967Y-4486000D02*
X6311967Y-4486000D01*
D14*
X3312351Y-3527887D02*
X3312351Y-3443113D01*
X3227577Y-3443113D01*
X3227577Y-3527887D01*
X3312351Y-3527887D01*
X3312351Y-3908887D02*
X3312351Y-3824113D01*
X3227577Y-3824113D01*
X3227577Y-3908887D01*
X3312351Y-3908887D01*
X3312351Y-4289887D02*
X3312351Y-4205113D01*
X3227577Y-4205113D01*
X3227577Y-4289887D01*
X3312351Y-4289887D01*
X3312351Y-4670887D02*
X3312351Y-4586113D01*
X3227577Y-4586113D01*
X3227577Y-4670887D01*
X3312351Y-4670887D01*
X3312351Y-5051887D02*
X3312351Y-4967113D01*
X3227577Y-4967113D01*
X3227577Y-5051887D01*
X3312351Y-5051887D01*
X3312351Y-5432887D02*
X3312351Y-5348113D01*
X3227577Y-5348113D01*
X3227577Y-5432887D01*
X3312351Y-5432887D01*
X3312351Y-5813887D02*
X3312351Y-5729113D01*
X3227577Y-5729113D01*
X3227577Y-5813887D01*
X3312351Y-5813887D01*
X3312351Y-6194887D02*
X3312351Y-6110113D01*
X3227577Y-6110113D01*
X3227577Y-6194887D01*
X3312351Y-6194887D01*
X3312351Y-6575887D02*
X3312351Y-6491113D01*
X3227577Y-6491113D01*
X3227577Y-6575887D01*
X3312351Y-6575887D01*
X3312351Y-6956887D02*
X3312351Y-6872113D01*
X3227577Y-6872113D01*
X3227577Y-6956887D01*
X3312351Y-6956887D01*
X3820351Y-3337387D02*
X3820351Y-3252613D01*
X3735577Y-3252613D01*
X3735577Y-3337387D01*
X3820351Y-3337387D01*
X3820351Y-3718387D02*
X3820351Y-3633613D01*
X3735577Y-3633613D01*
X3735577Y-3718387D01*
X3820351Y-3718387D01*
X3820351Y-4099387D02*
X3820351Y-4014613D01*
X3735577Y-4014613D01*
X3735577Y-4099387D01*
X3820351Y-4099387D01*
X3820351Y-4480387D02*
X3820351Y-4395613D01*
X3735577Y-4395613D01*
X3735577Y-4480387D01*
X3820351Y-4480387D01*
X3820351Y-4861387D02*
X3820351Y-4776613D01*
X3735577Y-4776613D01*
X3735577Y-4861387D01*
X3820351Y-4861387D01*
X3820351Y-5242387D02*
X3820351Y-5157613D01*
X3735577Y-5157613D01*
X3735577Y-5242387D01*
X3820351Y-5242387D01*
X3820351Y-5623387D02*
X3820351Y-5538613D01*
X3735577Y-5538613D01*
X3735577Y-5623387D01*
X3820351Y-5623387D01*
X3820351Y-6004387D02*
X3820351Y-5919613D01*
X3735577Y-5919613D01*
X3735577Y-6004387D01*
X3820351Y-6004387D01*
X3820351Y-6385387D02*
X3820351Y-6300613D01*
X3735577Y-6300613D01*
X3735577Y-6385387D01*
X3820351Y-6385387D01*
X3820351Y-6766387D02*
X3820351Y-6681613D01*
X3735577Y-6681613D01*
X3735577Y-6766387D01*
X3820351Y-6766387D01*
X3820351Y-7147387D02*
X3820351Y-7062613D01*
X3735577Y-7062613D01*
X3735577Y-7147387D01*
X3820351Y-7147387D01*
D15*
X5820000Y-6899250D02*
X5885000Y-6834250D01*
X5820000Y-6769250D01*
X5755000Y-6834250D01*
X5820000Y-6899250D01*
X6140000Y-7829250D02*
X6205000Y-7764250D01*
X6140000Y-7699250D01*
X6075000Y-7764250D01*
X6140000Y-7829250D01*
X6260000Y-7559250D02*
X6325000Y-7494250D01*
X6260000Y-7429250D01*
X6195000Y-7494250D01*
X6260000Y-7559250D01*
X6550000Y-6849250D02*
X6615000Y-6784250D01*
X6550000Y-6719250D01*
X6485000Y-6784250D01*
X6550000Y-6849250D01*
X6940000Y-7309250D02*
X7005000Y-7244250D01*
X6940000Y-7179250D01*
X6875000Y-7244250D01*
X6940000Y-7309250D01*
D16*
X5847967Y-2591500D02*
X6167967Y-2911500D01*
X6167967Y-2591500D02*
X5847967Y-2911500D01*
X6167967Y-2751500D02*
G75*
G03*
X6167967Y-2751500I-160000J0D01*
G01*
X5847967Y-5091500D02*
X6167967Y-5411500D01*
X6167967Y-5091500D02*
X5847967Y-5411500D01*
X6167967Y-5251500D02*
G75*
G03*
X6167967Y-5251500I-160000J0D01*
G01*
D11*
X2802619Y-8465476D02*
X2802619Y-8265476D01*
X2850238Y-8265476D01*
X2878809Y-8275000D01*
X2897857Y-8294048D01*
X2907381Y-8313095D01*
X2916905Y-8351190D01*
X2916905Y-8379762D01*
X2907381Y-8417857D01*
X2897857Y-8436905D01*
X2878809Y-8455952D01*
X2850238Y-8465476D01*
X2802619Y-8465476D01*
X3002619Y-8465476D02*
X3002619Y-8332143D01*
X3002619Y-8370238D02*
X3012143Y-8351190D01*
X3021667Y-8341667D01*
X3040714Y-8332143D01*
X3059762Y-8332143D01*
X3126428Y-8465476D02*
X3126428Y-8332143D01*
X3126428Y-8265476D02*
X3116905Y-8275000D01*
X3126428Y-8284524D01*
X3135952Y-8275000D01*
X3126428Y-8265476D01*
X3126428Y-8284524D01*
X3250238Y-8465476D02*
X3231190Y-8455952D01*
X3221667Y-8436905D01*
X3221667Y-8265476D01*
X3355000Y-8465476D02*
X3335952Y-8455952D01*
X3326428Y-8436905D01*
X3326428Y-8265476D01*
X3583571Y-8465476D02*
X3583571Y-8265476D01*
X3650238Y-8408333D01*
X3716905Y-8265476D01*
X3716905Y-8465476D01*
X3897857Y-8465476D02*
X3897857Y-8360714D01*
X3888333Y-8341667D01*
X3869286Y-8332143D01*
X3831190Y-8332143D01*
X3812143Y-8341667D01*
X3897857Y-8455952D02*
X3878809Y-8465476D01*
X3831190Y-8465476D01*
X3812143Y-8455952D01*
X3802619Y-8436905D01*
X3802619Y-8417857D01*
X3812143Y-8398810D01*
X3831190Y-8389286D01*
X3878809Y-8389286D01*
X3897857Y-8379762D01*
X3993095Y-8332143D02*
X3993095Y-8532143D01*
X3993095Y-8341667D02*
X4012143Y-8332143D01*
X4050238Y-8332143D01*
X4069286Y-8341667D01*
X4078809Y-8351190D01*
X4088333Y-8370238D01*
X4088333Y-8427381D01*
X4078809Y-8446429D01*
X4069286Y-8455952D01*
X4050238Y-8465476D01*
X4012143Y-8465476D01*
X3993095Y-8455952D01*
X4174048Y-8446429D02*
X4183571Y-8455952D01*
X4174048Y-8465476D01*
X4164524Y-8455952D01*
X4174048Y-8446429D01*
X4174048Y-8465476D01*
X4174048Y-8341667D02*
X4183571Y-8351190D01*
X4174048Y-8360714D01*
X4164524Y-8351190D01*
X4174048Y-8341667D01*
X4174048Y-8360714D01*
D12*
X2505000Y-8775000D02*
X2545000Y-8815000D01*
X2545000Y-8775000D02*
X2505000Y-8815000D01*
D11*
X2840714Y-8685476D02*
X2859762Y-8685476D01*
X2878809Y-8695000D01*
X2888333Y-8704524D01*
X2897857Y-8723571D01*
X2907381Y-8761667D01*
X2907381Y-8809286D01*
X2897857Y-8847381D01*
X2888333Y-8866429D01*
X2878809Y-8875952D01*
X2859762Y-8885476D01*
X2840714Y-8885476D01*
X2821667Y-8875952D01*
X2812143Y-8866429D01*
X2802619Y-8847381D01*
X2793095Y-8809286D01*
X2793095Y-8761667D01*
X2802619Y-8723571D01*
X2812143Y-8704524D01*
X2821667Y-8695000D01*
X2840714Y-8685476D01*
X2993095Y-8866429D02*
X3002619Y-8875952D01*
X2993095Y-8885476D01*
X2983571Y-8875952D01*
X2993095Y-8866429D01*
X2993095Y-8885476D01*
X3174048Y-8752143D02*
X3174048Y-8885476D01*
X3126428Y-8675952D02*
X3078809Y-8818810D01*
X3202619Y-8818810D01*
X3316905Y-8685476D02*
X3335952Y-8685476D01*
X3355000Y-8695000D01*
X3364524Y-8704524D01*
X3374048Y-8723571D01*
X3383571Y-8761667D01*
X3383571Y-8809286D01*
X3374048Y-8847381D01*
X3364524Y-8866429D01*
X3355000Y-8875952D01*
X3335952Y-8885476D01*
X3316905Y-8885476D01*
X3297857Y-8875952D01*
X3288333Y-8866429D01*
X3278809Y-8847381D01*
X3269286Y-8809286D01*
X3269286Y-8761667D01*
X3278809Y-8723571D01*
X3288333Y-8704524D01*
X3297857Y-8695000D01*
X3316905Y-8685476D01*
X3507381Y-8685476D02*
X3526428Y-8685476D01*
X3545476Y-8695000D01*
X3555000Y-8704524D01*
X3564524Y-8723571D01*
X3574048Y-8761667D01*
X3574048Y-8809286D01*
X3564524Y-8847381D01*
X3555000Y-8866429D01*
X3545476Y-8875952D01*
X3526428Y-8885476D01*
X3507381Y-8885476D01*
X3488333Y-8875952D01*
X3478809Y-8866429D01*
X3469286Y-8847381D01*
X3459762Y-8809286D01*
X3459762Y-8761667D01*
X3469286Y-8723571D01*
X3478809Y-8704524D01*
X3488333Y-8695000D01*
X3507381Y-8685476D01*
X3659762Y-8885476D02*
X3659762Y-8752143D01*
X3659762Y-8771190D02*
X3669286Y-8761667D01*
X3688333Y-8752143D01*
X3716905Y-8752143D01*
X3735952Y-8761667D01*
X3745476Y-8780714D01*
X3745476Y-8885476D01*
X3745476Y-8780714D02*
X3755000Y-8761667D01*
X3774048Y-8752143D01*
X3802619Y-8752143D01*
X3821667Y-8761667D01*
X3831190Y-8780714D01*
X3831190Y-8885476D01*
X3926428Y-8885476D02*
X3926428Y-8752143D01*
X3926428Y-8771190D02*
X3935952Y-8761667D01*
X3955000Y-8752143D01*
X3983571Y-8752143D01*
X4002619Y-8761667D01*
X4012143Y-8780714D01*
X4012143Y-8885476D01*
X4012143Y-8780714D02*
X4021667Y-8761667D01*
X4040714Y-8752143D01*
X4069286Y-8752143D01*
X4088333Y-8761667D01*
X4097857Y-8780714D01*
X4097857Y-8885476D01*
X4488333Y-8675952D02*
X4316905Y-8933095D01*
X4745476Y-8685476D02*
X4764524Y-8685476D01*
X4783571Y-8695000D01*
X4793095Y-8704524D01*
X4802619Y-8723571D01*
X4812143Y-8761667D01*
X4812143Y-8809286D01*
X4802619Y-8847381D01*
X4793095Y-8866429D01*
X4783571Y-8875952D01*
X4764524Y-8885476D01*
X4745476Y-8885476D01*
X4726429Y-8875952D01*
X4716905Y-8866429D01*
X4707381Y-8847381D01*
X4697857Y-8809286D01*
X4697857Y-8761667D01*
X4707381Y-8723571D01*
X4716905Y-8704524D01*
X4726429Y-8695000D01*
X4745476Y-8685476D01*
X4897857Y-8866429D02*
X4907381Y-8875952D01*
X4897857Y-8885476D01*
X4888333Y-8875952D01*
X4897857Y-8866429D01*
X4897857Y-8885476D01*
X5031190Y-8685476D02*
X5050238Y-8685476D01*
X5069286Y-8695000D01*
X5078810Y-8704524D01*
X5088333Y-8723571D01*
X5097857Y-8761667D01*
X5097857Y-8809286D01*
X5088333Y-8847381D01*
X5078810Y-8866429D01*
X5069286Y-8875952D01*
X5050238Y-8885476D01*
X5031190Y-8885476D01*
X5012143Y-8875952D01*
X5002619Y-8866429D01*
X4993095Y-8847381D01*
X4983571Y-8809286D01*
X4983571Y-8761667D01*
X4993095Y-8723571D01*
X5002619Y-8704524D01*
X5012143Y-8695000D01*
X5031190Y-8685476D01*
X5288333Y-8885476D02*
X5174048Y-8885476D01*
X5231190Y-8885476D02*
X5231190Y-8685476D01*
X5212143Y-8714048D01*
X5193095Y-8733095D01*
X5174048Y-8742619D01*
X5469286Y-8685476D02*
X5374048Y-8685476D01*
X5364524Y-8780714D01*
X5374048Y-8771190D01*
X5393095Y-8761667D01*
X5440714Y-8761667D01*
X5459762Y-8771190D01*
X5469286Y-8780714D01*
X5478810Y-8799762D01*
X5478810Y-8847381D01*
X5469286Y-8866429D01*
X5459762Y-8875952D01*
X5440714Y-8885476D01*
X5393095Y-8885476D01*
X5374048Y-8875952D01*
X5364524Y-8866429D01*
X5545476Y-8685476D02*
X5678809Y-8685476D01*
X5593095Y-8885476D01*
X5745476Y-8685476D02*
X5745476Y-8723571D01*
X5821667Y-8685476D02*
X5821667Y-8723571D01*
X6116905Y-8961667D02*
X6107381Y-8952143D01*
X6088333Y-8923571D01*
X6078809Y-8904524D01*
X6069286Y-8875952D01*
X6059762Y-8828333D01*
X6059762Y-8790238D01*
X6069286Y-8742619D01*
X6078809Y-8714048D01*
X6088333Y-8695000D01*
X6107381Y-8666429D01*
X6116905Y-8656905D01*
X6297857Y-8885476D02*
X6183571Y-8885476D01*
X6240714Y-8885476D02*
X6240714Y-8685476D01*
X6221667Y-8714048D01*
X6202619Y-8733095D01*
X6183571Y-8742619D01*
X6421667Y-8685476D02*
X6440714Y-8685476D01*
X6459762Y-8695000D01*
X6469286Y-8704524D01*
X6478809Y-8723571D01*
X6488333Y-8761667D01*
X6488333Y-8809286D01*
X6478809Y-8847381D01*
X6469286Y-8866429D01*
X6459762Y-8875952D01*
X6440714Y-8885476D01*
X6421667Y-8885476D01*
X6402619Y-8875952D01*
X6393095Y-8866429D01*
X6383571Y-8847381D01*
X6374048Y-8809286D01*
X6374048Y-8761667D01*
X6383571Y-8723571D01*
X6393095Y-8704524D01*
X6402619Y-8695000D01*
X6421667Y-8685476D01*
X6726428Y-8885476D02*
X6726428Y-8685476D01*
X6812143Y-8885476D02*
X6812143Y-8780714D01*
X6802619Y-8761667D01*
X6783571Y-8752143D01*
X6755000Y-8752143D01*
X6735952Y-8761667D01*
X6726428Y-8771190D01*
X6935952Y-8885476D02*
X6916905Y-8875952D01*
X6907381Y-8866429D01*
X6897857Y-8847381D01*
X6897857Y-8790238D01*
X6907381Y-8771190D01*
X6916905Y-8761667D01*
X6935952Y-8752143D01*
X6964524Y-8752143D01*
X6983571Y-8761667D01*
X6993095Y-8771190D01*
X7002619Y-8790238D01*
X7002619Y-8847381D01*
X6993095Y-8866429D01*
X6983571Y-8875952D01*
X6964524Y-8885476D01*
X6935952Y-8885476D01*
X7116905Y-8885476D02*
X7097857Y-8875952D01*
X7088333Y-8856905D01*
X7088333Y-8685476D01*
X7269286Y-8875952D02*
X7250238Y-8885476D01*
X7212143Y-8885476D01*
X7193095Y-8875952D01*
X7183571Y-8856905D01*
X7183571Y-8780714D01*
X7193095Y-8761667D01*
X7212143Y-8752143D01*
X7250238Y-8752143D01*
X7269286Y-8761667D01*
X7278809Y-8780714D01*
X7278809Y-8799762D01*
X7183571Y-8818810D01*
X7355000Y-8875952D02*
X7374048Y-8885476D01*
X7412143Y-8885476D01*
X7431190Y-8875952D01*
X7440714Y-8856905D01*
X7440714Y-8847381D01*
X7431190Y-8828333D01*
X7412143Y-8818810D01*
X7383571Y-8818810D01*
X7364524Y-8809286D01*
X7355000Y-8790238D01*
X7355000Y-8780714D01*
X7364524Y-8761667D01*
X7383571Y-8752143D01*
X7412143Y-8752143D01*
X7431190Y-8761667D01*
X7507381Y-8961667D02*
X7516905Y-8952143D01*
X7535952Y-8923571D01*
X7545476Y-8904524D01*
X7555000Y-8875952D01*
X7564524Y-8828333D01*
X7564524Y-8790238D01*
X7555000Y-8742619D01*
X7545476Y-8714048D01*
X7535952Y-8695000D01*
X7516905Y-8666429D01*
X7507381Y-8656905D01*
D13*
X2545000Y-9059000D02*
G75*
G03*
X2545000Y-9059000I-40000J0D01*
G01*
D11*
X2840714Y-8949476D02*
X2859762Y-8949476D01*
X2878809Y-8959000D01*
X2888333Y-8968524D01*
X2897857Y-8987571D01*
X2907381Y-9025667D01*
X2907381Y-9073286D01*
X2897857Y-9111381D01*
X2888333Y-9130429D01*
X2878809Y-9139952D01*
X2859762Y-9149476D01*
X2840714Y-9149476D01*
X2821667Y-9139952D01*
X2812143Y-9130429D01*
X2802619Y-9111381D01*
X2793095Y-9073286D01*
X2793095Y-9025667D01*
X2802619Y-8987571D01*
X2812143Y-8968524D01*
X2821667Y-8959000D01*
X2840714Y-8949476D01*
X2993095Y-9130429D02*
X3002619Y-9139952D01*
X2993095Y-9149476D01*
X2983571Y-9139952D01*
X2993095Y-9130429D01*
X2993095Y-9149476D01*
X3116905Y-9035190D02*
X3097857Y-9025667D01*
X3088333Y-9016143D01*
X3078809Y-8997095D01*
X3078809Y-8987571D01*
X3088333Y-8968524D01*
X3097857Y-8959000D01*
X3116905Y-8949476D01*
X3155000Y-8949476D01*
X3174048Y-8959000D01*
X3183571Y-8968524D01*
X3193095Y-8987571D01*
X3193095Y-8997095D01*
X3183571Y-9016143D01*
X3174048Y-9025667D01*
X3155000Y-9035190D01*
X3116905Y-9035190D01*
X3097857Y-9044714D01*
X3088333Y-9054238D01*
X3078809Y-9073286D01*
X3078809Y-9111381D01*
X3088333Y-9130429D01*
X3097857Y-9139952D01*
X3116905Y-9149476D01*
X3155000Y-9149476D01*
X3174048Y-9139952D01*
X3183571Y-9130429D01*
X3193095Y-9111381D01*
X3193095Y-9073286D01*
X3183571Y-9054238D01*
X3174048Y-9044714D01*
X3155000Y-9035190D01*
X3316905Y-8949476D02*
X3335952Y-8949476D01*
X3355000Y-8959000D01*
X3364524Y-8968524D01*
X3374048Y-8987571D01*
X3383571Y-9025667D01*
X3383571Y-9073286D01*
X3374048Y-9111381D01*
X3364524Y-9130429D01*
X3355000Y-9139952D01*
X3335952Y-9149476D01*
X3316905Y-9149476D01*
X3297857Y-9139952D01*
X3288333Y-9130429D01*
X3278809Y-9111381D01*
X3269286Y-9073286D01*
X3269286Y-9025667D01*
X3278809Y-8987571D01*
X3288333Y-8968524D01*
X3297857Y-8959000D01*
X3316905Y-8949476D01*
X3507381Y-8949476D02*
X3526428Y-8949476D01*
X3545476Y-8959000D01*
X3555000Y-8968524D01*
X3564524Y-8987571D01*
X3574048Y-9025667D01*
X3574048Y-9073286D01*
X3564524Y-9111381D01*
X3555000Y-9130429D01*
X3545476Y-9139952D01*
X3526428Y-9149476D01*
X3507381Y-9149476D01*
X3488333Y-9139952D01*
X3478809Y-9130429D01*
X3469286Y-9111381D01*
X3459762Y-9073286D01*
X3459762Y-9025667D01*
X3469286Y-8987571D01*
X3478809Y-8968524D01*
X3488333Y-8959000D01*
X3507381Y-8949476D01*
X3659762Y-9149476D02*
X3659762Y-9016143D01*
X3659762Y-9035190D02*
X3669286Y-9025667D01*
X3688333Y-9016143D01*
X3716905Y-9016143D01*
X3735952Y-9025667D01*
X3745476Y-9044714D01*
X3745476Y-9149476D01*
X3745476Y-9044714D02*
X3755000Y-9025667D01*
X3774048Y-9016143D01*
X3802619Y-9016143D01*
X3821667Y-9025667D01*
X3831190Y-9044714D01*
X3831190Y-9149476D01*
X3926428Y-9149476D02*
X3926428Y-9016143D01*
X3926428Y-9035190D02*
X3935952Y-9025667D01*
X3955000Y-9016143D01*
X3983571Y-9016143D01*
X4002619Y-9025667D01*
X4012143Y-9044714D01*
X4012143Y-9149476D01*
X4012143Y-9044714D02*
X4021667Y-9025667D01*
X4040714Y-9016143D01*
X4069286Y-9016143D01*
X4088333Y-9025667D01*
X4097857Y-9044714D01*
X4097857Y-9149476D01*
X4488333Y-8939952D02*
X4316905Y-9197095D01*
X4745476Y-8949476D02*
X4764524Y-8949476D01*
X4783571Y-8959000D01*
X4793095Y-8968524D01*
X4802619Y-8987571D01*
X4812143Y-9025667D01*
X4812143Y-9073286D01*
X4802619Y-9111381D01*
X4793095Y-9130429D01*
X4783571Y-9139952D01*
X4764524Y-9149476D01*
X4745476Y-9149476D01*
X4726429Y-9139952D01*
X4716905Y-9130429D01*
X4707381Y-9111381D01*
X4697857Y-9073286D01*
X4697857Y-9025667D01*
X4707381Y-8987571D01*
X4716905Y-8968524D01*
X4726429Y-8959000D01*
X4745476Y-8949476D01*
X4897857Y-9130429D02*
X4907381Y-9139952D01*
X4897857Y-9149476D01*
X4888333Y-9139952D01*
X4897857Y-9130429D01*
X4897857Y-9149476D01*
X5031190Y-8949476D02*
X5050238Y-8949476D01*
X5069286Y-8959000D01*
X5078810Y-8968524D01*
X5088333Y-8987571D01*
X5097857Y-9025667D01*
X5097857Y-9073286D01*
X5088333Y-9111381D01*
X5078810Y-9130429D01*
X5069286Y-9139952D01*
X5050238Y-9149476D01*
X5031190Y-9149476D01*
X5012143Y-9139952D01*
X5002619Y-9130429D01*
X4993095Y-9111381D01*
X4983571Y-9073286D01*
X4983571Y-9025667D01*
X4993095Y-8987571D01*
X5002619Y-8968524D01*
X5012143Y-8959000D01*
X5031190Y-8949476D01*
X5164524Y-8949476D02*
X5288333Y-8949476D01*
X5221667Y-9025667D01*
X5250238Y-9025667D01*
X5269286Y-9035190D01*
X5278810Y-9044714D01*
X5288333Y-9063762D01*
X5288333Y-9111381D01*
X5278810Y-9130429D01*
X5269286Y-9139952D01*
X5250238Y-9149476D01*
X5193095Y-9149476D01*
X5174048Y-9139952D01*
X5164524Y-9130429D01*
X5478810Y-9149476D02*
X5364524Y-9149476D01*
X5421667Y-9149476D02*
X5421667Y-8949476D01*
X5402619Y-8978048D01*
X5383571Y-8997095D01*
X5364524Y-9006619D01*
X5659762Y-8949476D02*
X5564524Y-8949476D01*
X5555000Y-9044714D01*
X5564524Y-9035190D01*
X5583571Y-9025667D01*
X5631190Y-9025667D01*
X5650238Y-9035190D01*
X5659762Y-9044714D01*
X5669286Y-9063762D01*
X5669286Y-9111381D01*
X5659762Y-9130429D01*
X5650238Y-9139952D01*
X5631190Y-9149476D01*
X5583571Y-9149476D01*
X5564524Y-9139952D01*
X5555000Y-9130429D01*
X5745476Y-8949476D02*
X5745476Y-8987571D01*
X5821667Y-8949476D02*
X5821667Y-8987571D01*
X6116905Y-9225667D02*
X6107381Y-9216143D01*
X6088333Y-9187571D01*
X6078809Y-9168524D01*
X6069286Y-9139952D01*
X6059762Y-9092333D01*
X6059762Y-9054238D01*
X6069286Y-9006619D01*
X6078809Y-8978048D01*
X6088333Y-8959000D01*
X6107381Y-8930429D01*
X6116905Y-8920905D01*
X6278809Y-8949476D02*
X6240714Y-8949476D01*
X6221667Y-8959000D01*
X6212143Y-8968524D01*
X6193095Y-8997095D01*
X6183571Y-9035190D01*
X6183571Y-9111381D01*
X6193095Y-9130429D01*
X6202619Y-9139952D01*
X6221667Y-9149476D01*
X6259762Y-9149476D01*
X6278809Y-9139952D01*
X6288333Y-9130429D01*
X6297857Y-9111381D01*
X6297857Y-9063762D01*
X6288333Y-9044714D01*
X6278809Y-9035190D01*
X6259762Y-9025667D01*
X6221667Y-9025667D01*
X6202619Y-9035190D01*
X6193095Y-9044714D01*
X6183571Y-9063762D01*
X6535952Y-9149476D02*
X6535952Y-8949476D01*
X6621667Y-9149476D02*
X6621667Y-9044714D01*
X6612143Y-9025667D01*
X6593095Y-9016143D01*
X6564524Y-9016143D01*
X6545476Y-9025667D01*
X6535952Y-9035190D01*
X6745476Y-9149476D02*
X6726428Y-9139952D01*
X6716905Y-9130429D01*
X6707381Y-9111381D01*
X6707381Y-9054238D01*
X6716905Y-9035190D01*
X6726428Y-9025667D01*
X6745476Y-9016143D01*
X6774048Y-9016143D01*
X6793095Y-9025667D01*
X6802619Y-9035190D01*
X6812143Y-9054238D01*
X6812143Y-9111381D01*
X6802619Y-9130429D01*
X6793095Y-9139952D01*
X6774048Y-9149476D01*
X6745476Y-9149476D01*
X6926428Y-9149476D02*
X6907381Y-9139952D01*
X6897857Y-9120905D01*
X6897857Y-8949476D01*
X7078809Y-9139952D02*
X7059762Y-9149476D01*
X7021667Y-9149476D01*
X7002619Y-9139952D01*
X6993095Y-9120905D01*
X6993095Y-9044714D01*
X7002619Y-9025667D01*
X7021667Y-9016143D01*
X7059762Y-9016143D01*
X7078809Y-9025667D01*
X7088333Y-9044714D01*
X7088333Y-9063762D01*
X6993095Y-9082810D01*
X7164524Y-9139952D02*
X7183571Y-9149476D01*
X7221667Y-9149476D01*
X7240714Y-9139952D01*
X7250238Y-9120905D01*
X7250238Y-9111381D01*
X7240714Y-9092333D01*
X7221667Y-9082810D01*
X7193095Y-9082810D01*
X7174048Y-9073286D01*
X7164524Y-9054238D01*
X7164524Y-9044714D01*
X7174048Y-9025667D01*
X7193095Y-9016143D01*
X7221667Y-9016143D01*
X7240714Y-9025667D01*
X7316905Y-9225667D02*
X7326428Y-9216143D01*
X7345476Y-9187571D01*
X7355000Y-9168524D01*
X7364524Y-9139952D01*
X7374048Y-9092333D01*
X7374048Y-9054238D01*
X7364524Y-9006619D01*
X7355000Y-8978048D01*
X7345476Y-8959000D01*
X7326428Y-8930429D01*
X7316905Y-8920905D01*
D10*
X2495000Y-9273000D02*
X2495000Y-9373000D01*
X2445000Y-9323000D02*
X2545000Y-9323000D01*
D11*
X2907381Y-9413476D02*
X2793095Y-9413476D01*
X2850238Y-9413476D02*
X2850238Y-9213476D01*
X2831190Y-9242048D01*
X2812143Y-9261095D01*
X2793095Y-9270619D01*
X2993095Y-9394429D02*
X3002619Y-9403952D01*
X2993095Y-9413476D01*
X2983571Y-9403952D01*
X2993095Y-9394429D01*
X2993095Y-9413476D01*
X3126428Y-9213476D02*
X3145476Y-9213476D01*
X3164524Y-9223000D01*
X3174048Y-9232524D01*
X3183571Y-9251571D01*
X3193095Y-9289667D01*
X3193095Y-9337286D01*
X3183571Y-9375381D01*
X3174048Y-9394429D01*
X3164524Y-9403952D01*
X3145476Y-9413476D01*
X3126428Y-9413476D01*
X3107381Y-9403952D01*
X3097857Y-9394429D01*
X3088333Y-9375381D01*
X3078809Y-9337286D01*
X3078809Y-9289667D01*
X3088333Y-9251571D01*
X3097857Y-9232524D01*
X3107381Y-9223000D01*
X3126428Y-9213476D01*
X3316905Y-9213476D02*
X3335952Y-9213476D01*
X3355000Y-9223000D01*
X3364524Y-9232524D01*
X3374048Y-9251571D01*
X3383571Y-9289667D01*
X3383571Y-9337286D01*
X3374048Y-9375381D01*
X3364524Y-9394429D01*
X3355000Y-9403952D01*
X3335952Y-9413476D01*
X3316905Y-9413476D01*
X3297857Y-9403952D01*
X3288333Y-9394429D01*
X3278809Y-9375381D01*
X3269286Y-9337286D01*
X3269286Y-9289667D01*
X3278809Y-9251571D01*
X3288333Y-9232524D01*
X3297857Y-9223000D01*
X3316905Y-9213476D01*
X3507381Y-9213476D02*
X3526428Y-9213476D01*
X3545476Y-9223000D01*
X3555000Y-9232524D01*
X3564524Y-9251571D01*
X3574048Y-9289667D01*
X3574048Y-9337286D01*
X3564524Y-9375381D01*
X3555000Y-9394429D01*
X3545476Y-9403952D01*
X3526428Y-9413476D01*
X3507381Y-9413476D01*
X3488333Y-9403952D01*
X3478809Y-9394429D01*
X3469286Y-9375381D01*
X3459762Y-9337286D01*
X3459762Y-9289667D01*
X3469286Y-9251571D01*
X3478809Y-9232524D01*
X3488333Y-9223000D01*
X3507381Y-9213476D01*
X3659762Y-9413476D02*
X3659762Y-9280143D01*
X3659762Y-9299190D02*
X3669286Y-9289667D01*
X3688333Y-9280143D01*
X3716905Y-9280143D01*
X3735952Y-9289667D01*
X3745476Y-9308714D01*
X3745476Y-9413476D01*
X3745476Y-9308714D02*
X3755000Y-9289667D01*
X3774048Y-9280143D01*
X3802619Y-9280143D01*
X3821667Y-9289667D01*
X3831190Y-9308714D01*
X3831190Y-9413476D01*
X3926428Y-9413476D02*
X3926428Y-9280143D01*
X3926428Y-9299190D02*
X3935952Y-9289667D01*
X3955000Y-9280143D01*
X3983571Y-9280143D01*
X4002619Y-9289667D01*
X4012143Y-9308714D01*
X4012143Y-9413476D01*
X4012143Y-9308714D02*
X4021667Y-9289667D01*
X4040714Y-9280143D01*
X4069286Y-9280143D01*
X4088333Y-9289667D01*
X4097857Y-9308714D01*
X4097857Y-9413476D01*
X4488333Y-9203952D02*
X4316905Y-9461095D01*
X4745476Y-9213476D02*
X4764524Y-9213476D01*
X4783571Y-9223000D01*
X4793095Y-9232524D01*
X4802619Y-9251571D01*
X4812143Y-9289667D01*
X4812143Y-9337286D01*
X4802619Y-9375381D01*
X4793095Y-9394429D01*
X4783571Y-9403952D01*
X4764524Y-9413476D01*
X4745476Y-9413476D01*
X4726429Y-9403952D01*
X4716905Y-9394429D01*
X4707381Y-9375381D01*
X4697857Y-9337286D01*
X4697857Y-9289667D01*
X4707381Y-9251571D01*
X4716905Y-9232524D01*
X4726429Y-9223000D01*
X4745476Y-9213476D01*
X4897857Y-9394429D02*
X4907381Y-9403952D01*
X4897857Y-9413476D01*
X4888333Y-9403952D01*
X4897857Y-9394429D01*
X4897857Y-9413476D01*
X5031190Y-9213476D02*
X5050238Y-9213476D01*
X5069286Y-9223000D01*
X5078810Y-9232524D01*
X5088333Y-9251571D01*
X5097857Y-9289667D01*
X5097857Y-9337286D01*
X5088333Y-9375381D01*
X5078810Y-9394429D01*
X5069286Y-9403952D01*
X5050238Y-9413476D01*
X5031190Y-9413476D01*
X5012143Y-9403952D01*
X5002619Y-9394429D01*
X4993095Y-9375381D01*
X4983571Y-9337286D01*
X4983571Y-9289667D01*
X4993095Y-9251571D01*
X5002619Y-9232524D01*
X5012143Y-9223000D01*
X5031190Y-9213476D01*
X5164524Y-9213476D02*
X5288333Y-9213476D01*
X5221667Y-9289667D01*
X5250238Y-9289667D01*
X5269286Y-9299190D01*
X5278810Y-9308714D01*
X5288333Y-9327762D01*
X5288333Y-9375381D01*
X5278810Y-9394429D01*
X5269286Y-9403952D01*
X5250238Y-9413476D01*
X5193095Y-9413476D01*
X5174048Y-9403952D01*
X5164524Y-9394429D01*
X5383571Y-9413476D02*
X5421667Y-9413476D01*
X5440714Y-9403952D01*
X5450238Y-9394429D01*
X5469286Y-9365857D01*
X5478810Y-9327762D01*
X5478810Y-9251571D01*
X5469286Y-9232524D01*
X5459762Y-9223000D01*
X5440714Y-9213476D01*
X5402619Y-9213476D01*
X5383571Y-9223000D01*
X5374048Y-9232524D01*
X5364524Y-9251571D01*
X5364524Y-9299190D01*
X5374048Y-9318238D01*
X5383571Y-9327762D01*
X5402619Y-9337286D01*
X5440714Y-9337286D01*
X5459762Y-9327762D01*
X5469286Y-9318238D01*
X5478810Y-9299190D01*
X5650238Y-9280143D02*
X5650238Y-9413476D01*
X5602619Y-9203952D02*
X5555000Y-9346810D01*
X5678809Y-9346810D01*
X5745476Y-9213476D02*
X5745476Y-9251571D01*
X5821667Y-9213476D02*
X5821667Y-9251571D01*
X6116905Y-9489667D02*
X6107381Y-9480143D01*
X6088333Y-9451571D01*
X6078809Y-9432524D01*
X6069286Y-9403952D01*
X6059762Y-9356333D01*
X6059762Y-9318238D01*
X6069286Y-9270619D01*
X6078809Y-9242048D01*
X6088333Y-9223000D01*
X6107381Y-9194429D01*
X6116905Y-9184905D01*
X6183571Y-9232524D02*
X6193095Y-9223000D01*
X6212143Y-9213476D01*
X6259762Y-9213476D01*
X6278809Y-9223000D01*
X6288333Y-9232524D01*
X6297857Y-9251571D01*
X6297857Y-9270619D01*
X6288333Y-9299190D01*
X6174048Y-9413476D01*
X6297857Y-9413476D01*
X6488333Y-9413476D02*
X6374048Y-9413476D01*
X6431190Y-9413476D02*
X6431190Y-9213476D01*
X6412143Y-9242048D01*
X6393095Y-9261095D01*
X6374048Y-9270619D01*
X6726428Y-9413476D02*
X6726428Y-9213476D01*
X6812143Y-9413476D02*
X6812143Y-9308714D01*
X6802619Y-9289667D01*
X6783571Y-9280143D01*
X6755000Y-9280143D01*
X6735952Y-9289667D01*
X6726428Y-9299190D01*
X6935952Y-9413476D02*
X6916905Y-9403952D01*
X6907381Y-9394429D01*
X6897857Y-9375381D01*
X6897857Y-9318238D01*
X6907381Y-9299190D01*
X6916905Y-9289667D01*
X6935952Y-9280143D01*
X6964524Y-9280143D01*
X6983571Y-9289667D01*
X6993095Y-9299190D01*
X7002619Y-9318238D01*
X7002619Y-9375381D01*
X6993095Y-9394429D01*
X6983571Y-9403952D01*
X6964524Y-9413476D01*
X6935952Y-9413476D01*
X7116905Y-9413476D02*
X7097857Y-9403952D01*
X7088333Y-9384905D01*
X7088333Y-9213476D01*
X7269286Y-9403952D02*
X7250238Y-9413476D01*
X7212143Y-9413476D01*
X7193095Y-9403952D01*
X7183571Y-9384905D01*
X7183571Y-9308714D01*
X7193095Y-9289667D01*
X7212143Y-9280143D01*
X7250238Y-9280143D01*
X7269286Y-9289667D01*
X7278809Y-9308714D01*
X7278809Y-9327762D01*
X7183571Y-9346810D01*
X7355000Y-9403952D02*
X7374048Y-9413476D01*
X7412143Y-9413476D01*
X7431190Y-9403952D01*
X7440714Y-9384905D01*
X7440714Y-9375381D01*
X7431190Y-9356333D01*
X7412143Y-9346810D01*
X7383571Y-9346810D01*
X7364524Y-9337286D01*
X7355000Y-9318238D01*
X7355000Y-9308714D01*
X7364524Y-9289667D01*
X7383571Y-9280143D01*
X7412143Y-9280143D01*
X7431190Y-9289667D01*
X7678809Y-9337286D02*
X7831190Y-9337286D01*
X7755000Y-9413476D02*
X7755000Y-9261095D01*
X8164524Y-9280143D02*
X8164524Y-9413476D01*
X8116905Y-9203952D02*
X8069286Y-9346810D01*
X8193095Y-9346810D01*
X8412143Y-9403952D02*
X8431190Y-9413476D01*
X8469286Y-9413476D01*
X8488333Y-9403952D01*
X8497857Y-9384905D01*
X8497857Y-9375381D01*
X8488333Y-9356333D01*
X8469286Y-9346810D01*
X8440714Y-9346810D01*
X8421667Y-9337286D01*
X8412143Y-9318238D01*
X8412143Y-9308714D01*
X8421667Y-9289667D01*
X8440714Y-9280143D01*
X8469286Y-9280143D01*
X8488333Y-9289667D01*
X8612143Y-9413476D02*
X8593095Y-9403952D01*
X8583571Y-9384905D01*
X8583571Y-9213476D01*
X8716905Y-9413476D02*
X8697857Y-9403952D01*
X8688333Y-9394429D01*
X8678810Y-9375381D01*
X8678810Y-9318238D01*
X8688333Y-9299190D01*
X8697857Y-9289667D01*
X8716905Y-9280143D01*
X8745476Y-9280143D01*
X8764524Y-9289667D01*
X8774048Y-9299190D01*
X8783571Y-9318238D01*
X8783571Y-9375381D01*
X8774048Y-9394429D01*
X8764524Y-9403952D01*
X8745476Y-9413476D01*
X8716905Y-9413476D01*
X8840714Y-9280143D02*
X8916905Y-9280143D01*
X8869286Y-9213476D02*
X8869286Y-9384905D01*
X8878810Y-9403952D01*
X8897857Y-9413476D01*
X8916905Y-9413476D01*
X8974048Y-9403952D02*
X8993095Y-9413476D01*
X9031190Y-9413476D01*
X9050238Y-9403952D01*
X9059762Y-9384905D01*
X9059762Y-9375381D01*
X9050238Y-9356333D01*
X9031190Y-9346810D01*
X9002619Y-9346810D01*
X8983571Y-9337286D01*
X8974048Y-9318238D01*
X8974048Y-9308714D01*
X8983571Y-9289667D01*
X9002619Y-9280143D01*
X9031190Y-9280143D01*
X9050238Y-9289667D01*
X9126429Y-9489667D02*
X9135952Y-9480143D01*
X9155000Y-9451571D01*
X9164524Y-9432524D01*
X9174048Y-9403952D01*
X9183571Y-9356333D01*
X9183571Y-9318238D01*
X9174048Y-9270619D01*
X9164524Y-9242048D01*
X9155000Y-9223000D01*
X9135952Y-9194429D01*
X9126429Y-9184905D01*
D14*
X2527443Y-9629387D02*
X2527443Y-9544613D01*
X2442669Y-9544613D01*
X2442669Y-9629387D01*
X2527443Y-9629387D01*
D11*
X2907381Y-9677476D02*
X2793095Y-9677476D01*
X2850238Y-9677476D02*
X2850238Y-9477476D01*
X2831190Y-9506048D01*
X2812143Y-9525095D01*
X2793095Y-9534619D01*
X2993095Y-9658429D02*
X3002619Y-9667952D01*
X2993095Y-9677476D01*
X2983571Y-9667952D01*
X2993095Y-9658429D01*
X2993095Y-9677476D01*
X3193095Y-9677476D02*
X3078809Y-9677476D01*
X3135952Y-9677476D02*
X3135952Y-9477476D01*
X3116905Y-9506048D01*
X3097857Y-9525095D01*
X3078809Y-9534619D01*
X3288333Y-9677476D02*
X3326428Y-9677476D01*
X3345476Y-9667952D01*
X3355000Y-9658429D01*
X3374048Y-9629857D01*
X3383571Y-9591762D01*
X3383571Y-9515571D01*
X3374048Y-9496524D01*
X3364524Y-9487000D01*
X3345476Y-9477476D01*
X3307381Y-9477476D01*
X3288333Y-9487000D01*
X3278809Y-9496524D01*
X3269286Y-9515571D01*
X3269286Y-9563190D01*
X3278809Y-9582238D01*
X3288333Y-9591762D01*
X3307381Y-9601286D01*
X3345476Y-9601286D01*
X3364524Y-9591762D01*
X3374048Y-9582238D01*
X3383571Y-9563190D01*
X3478809Y-9677476D02*
X3516905Y-9677476D01*
X3535952Y-9667952D01*
X3545476Y-9658429D01*
X3564524Y-9629857D01*
X3574048Y-9591762D01*
X3574048Y-9515571D01*
X3564524Y-9496524D01*
X3555000Y-9487000D01*
X3535952Y-9477476D01*
X3497857Y-9477476D01*
X3478809Y-9487000D01*
X3469286Y-9496524D01*
X3459762Y-9515571D01*
X3459762Y-9563190D01*
X3469286Y-9582238D01*
X3478809Y-9591762D01*
X3497857Y-9601286D01*
X3535952Y-9601286D01*
X3555000Y-9591762D01*
X3564524Y-9582238D01*
X3574048Y-9563190D01*
X3659762Y-9677476D02*
X3659762Y-9544143D01*
X3659762Y-9563190D02*
X3669286Y-9553667D01*
X3688333Y-9544143D01*
X3716905Y-9544143D01*
X3735952Y-9553667D01*
X3745476Y-9572714D01*
X3745476Y-9677476D01*
X3745476Y-9572714D02*
X3755000Y-9553667D01*
X3774048Y-9544143D01*
X3802619Y-9544143D01*
X3821667Y-9553667D01*
X3831190Y-9572714D01*
X3831190Y-9677476D01*
X3926428Y-9677476D02*
X3926428Y-9544143D01*
X3926428Y-9563190D02*
X3935952Y-9553667D01*
X3955000Y-9544143D01*
X3983571Y-9544143D01*
X4002619Y-9553667D01*
X4012143Y-9572714D01*
X4012143Y-9677476D01*
X4012143Y-9572714D02*
X4021667Y-9553667D01*
X4040714Y-9544143D01*
X4069286Y-9544143D01*
X4088333Y-9553667D01*
X4097857Y-9572714D01*
X4097857Y-9677476D01*
X4488333Y-9467952D02*
X4316905Y-9725095D01*
X4745476Y-9477476D02*
X4764524Y-9477476D01*
X4783571Y-9487000D01*
X4793095Y-9496524D01*
X4802619Y-9515571D01*
X4812143Y-9553667D01*
X4812143Y-9601286D01*
X4802619Y-9639381D01*
X4793095Y-9658429D01*
X4783571Y-9667952D01*
X4764524Y-9677476D01*
X4745476Y-9677476D01*
X4726429Y-9667952D01*
X4716905Y-9658429D01*
X4707381Y-9639381D01*
X4697857Y-9601286D01*
X4697857Y-9553667D01*
X4707381Y-9515571D01*
X4716905Y-9496524D01*
X4726429Y-9487000D01*
X4745476Y-9477476D01*
X4897857Y-9658429D02*
X4907381Y-9667952D01*
X4897857Y-9677476D01*
X4888333Y-9667952D01*
X4897857Y-9658429D01*
X4897857Y-9677476D01*
X5031190Y-9477476D02*
X5050238Y-9477476D01*
X5069286Y-9487000D01*
X5078810Y-9496524D01*
X5088333Y-9515571D01*
X5097857Y-9553667D01*
X5097857Y-9601286D01*
X5088333Y-9639381D01*
X5078810Y-9658429D01*
X5069286Y-9667952D01*
X5050238Y-9677476D01*
X5031190Y-9677476D01*
X5012143Y-9667952D01*
X5002619Y-9658429D01*
X4993095Y-9639381D01*
X4983571Y-9601286D01*
X4983571Y-9553667D01*
X4993095Y-9515571D01*
X5002619Y-9496524D01*
X5012143Y-9487000D01*
X5031190Y-9477476D01*
X5269286Y-9544143D02*
X5269286Y-9677476D01*
X5221667Y-9467952D02*
X5174048Y-9610810D01*
X5297857Y-9610810D01*
X5355000Y-9477476D02*
X5488333Y-9477476D01*
X5402619Y-9677476D01*
X5555000Y-9496524D02*
X5564524Y-9487000D01*
X5583571Y-9477476D01*
X5631190Y-9477476D01*
X5650238Y-9487000D01*
X5659762Y-9496524D01*
X5669286Y-9515571D01*
X5669286Y-9534619D01*
X5659762Y-9563190D01*
X5545476Y-9677476D01*
X5669286Y-9677476D01*
X5745476Y-9477476D02*
X5745476Y-9515571D01*
X5821667Y-9477476D02*
X5821667Y-9515571D01*
X6116905Y-9753667D02*
X6107381Y-9744143D01*
X6088333Y-9715571D01*
X6078809Y-9696524D01*
X6069286Y-9667952D01*
X6059762Y-9620333D01*
X6059762Y-9582238D01*
X6069286Y-9534619D01*
X6078809Y-9506048D01*
X6088333Y-9487000D01*
X6107381Y-9458429D01*
X6116905Y-9448905D01*
X6183571Y-9496524D02*
X6193095Y-9487000D01*
X6212143Y-9477476D01*
X6259762Y-9477476D01*
X6278809Y-9487000D01*
X6288333Y-9496524D01*
X6297857Y-9515571D01*
X6297857Y-9534619D01*
X6288333Y-9563190D01*
X6174048Y-9677476D01*
X6297857Y-9677476D01*
X6488333Y-9677476D02*
X6374048Y-9677476D01*
X6431190Y-9677476D02*
X6431190Y-9477476D01*
X6412143Y-9506048D01*
X6393095Y-9525095D01*
X6374048Y-9534619D01*
X6726428Y-9677476D02*
X6726428Y-9477476D01*
X6812143Y-9677476D02*
X6812143Y-9572714D01*
X6802619Y-9553667D01*
X6783571Y-9544143D01*
X6755000Y-9544143D01*
X6735952Y-9553667D01*
X6726428Y-9563190D01*
X6935952Y-9677476D02*
X6916905Y-9667952D01*
X6907381Y-9658429D01*
X6897857Y-9639381D01*
X6897857Y-9582238D01*
X6907381Y-9563190D01*
X6916905Y-9553667D01*
X6935952Y-9544143D01*
X6964524Y-9544143D01*
X6983571Y-9553667D01*
X6993095Y-9563190D01*
X7002619Y-9582238D01*
X7002619Y-9639381D01*
X6993095Y-9658429D01*
X6983571Y-9667952D01*
X6964524Y-9677476D01*
X6935952Y-9677476D01*
X7116905Y-9677476D02*
X7097857Y-9667952D01*
X7088333Y-9648905D01*
X7088333Y-9477476D01*
X7269286Y-9667952D02*
X7250238Y-9677476D01*
X7212143Y-9677476D01*
X7193095Y-9667952D01*
X7183571Y-9648905D01*
X7183571Y-9572714D01*
X7193095Y-9553667D01*
X7212143Y-9544143D01*
X7250238Y-9544143D01*
X7269286Y-9553667D01*
X7278809Y-9572714D01*
X7278809Y-9591762D01*
X7183571Y-9610810D01*
X7355000Y-9667952D02*
X7374048Y-9677476D01*
X7412143Y-9677476D01*
X7431190Y-9667952D01*
X7440714Y-9648905D01*
X7440714Y-9639381D01*
X7431190Y-9620333D01*
X7412143Y-9610810D01*
X7383571Y-9610810D01*
X7364524Y-9601286D01*
X7355000Y-9582238D01*
X7355000Y-9572714D01*
X7364524Y-9553667D01*
X7383571Y-9544143D01*
X7412143Y-9544143D01*
X7431190Y-9553667D01*
X7507381Y-9753667D02*
X7516905Y-9744143D01*
X7535952Y-9715571D01*
X7545476Y-9696524D01*
X7555000Y-9667952D01*
X7564524Y-9620333D01*
X7564524Y-9582238D01*
X7555000Y-9534619D01*
X7545476Y-9506048D01*
X7535952Y-9487000D01*
X7516905Y-9458429D01*
X7507381Y-9448905D01*
D15*
X2480000Y-9916000D02*
X2545000Y-9851000D01*
X2480000Y-9786000D01*
X2415000Y-9851000D01*
X2480000Y-9916000D01*
D11*
X2907381Y-9941476D02*
X2793095Y-9941476D01*
X2850238Y-9941476D02*
X2850238Y-9741476D01*
X2831190Y-9770048D01*
X2812143Y-9789095D01*
X2793095Y-9798619D01*
X2993095Y-9922429D02*
X3002619Y-9931952D01*
X2993095Y-9941476D01*
X2983571Y-9931952D01*
X2993095Y-9922429D01*
X2993095Y-9941476D01*
X3069286Y-9741476D02*
X3193095Y-9741476D01*
X3126428Y-9817667D01*
X3155000Y-9817667D01*
X3174048Y-9827190D01*
X3183571Y-9836714D01*
X3193095Y-9855762D01*
X3193095Y-9903381D01*
X3183571Y-9922429D01*
X3174048Y-9931952D01*
X3155000Y-9941476D01*
X3097857Y-9941476D01*
X3078809Y-9931952D01*
X3069286Y-9922429D01*
X3316905Y-9741476D02*
X3335952Y-9741476D01*
X3355000Y-9751000D01*
X3364524Y-9760524D01*
X3374048Y-9779571D01*
X3383571Y-9817667D01*
X3383571Y-9865286D01*
X3374048Y-9903381D01*
X3364524Y-9922429D01*
X3355000Y-9931952D01*
X3335952Y-9941476D01*
X3316905Y-9941476D01*
X3297857Y-9931952D01*
X3288333Y-9922429D01*
X3278809Y-9903381D01*
X3269286Y-9865286D01*
X3269286Y-9817667D01*
X3278809Y-9779571D01*
X3288333Y-9760524D01*
X3297857Y-9751000D01*
X3316905Y-9741476D01*
X3507381Y-9741476D02*
X3526428Y-9741476D01*
X3545476Y-9751000D01*
X3555000Y-9760524D01*
X3564524Y-9779571D01*
X3574048Y-9817667D01*
X3574048Y-9865286D01*
X3564524Y-9903381D01*
X3555000Y-9922429D01*
X3545476Y-9931952D01*
X3526428Y-9941476D01*
X3507381Y-9941476D01*
X3488333Y-9931952D01*
X3478809Y-9922429D01*
X3469286Y-9903381D01*
X3459762Y-9865286D01*
X3459762Y-9817667D01*
X3469286Y-9779571D01*
X3478809Y-9760524D01*
X3488333Y-9751000D01*
X3507381Y-9741476D01*
X3659762Y-9941476D02*
X3659762Y-9808143D01*
X3659762Y-9827190D02*
X3669286Y-9817667D01*
X3688333Y-9808143D01*
X3716905Y-9808143D01*
X3735952Y-9817667D01*
X3745476Y-9836714D01*
X3745476Y-9941476D01*
X3745476Y-9836714D02*
X3755000Y-9817667D01*
X3774048Y-9808143D01*
X3802619Y-9808143D01*
X3821667Y-9817667D01*
X3831190Y-9836714D01*
X3831190Y-9941476D01*
X3926428Y-9941476D02*
X3926428Y-9808143D01*
X3926428Y-9827190D02*
X3935952Y-9817667D01*
X3955000Y-9808143D01*
X3983571Y-9808143D01*
X4002619Y-9817667D01*
X4012143Y-9836714D01*
X4012143Y-9941476D01*
X4012143Y-9836714D02*
X4021667Y-9817667D01*
X4040714Y-9808143D01*
X4069286Y-9808143D01*
X4088333Y-9817667D01*
X4097857Y-9836714D01*
X4097857Y-9941476D01*
X4488333Y-9731952D02*
X4316905Y-9989095D01*
X4745476Y-9741476D02*
X4764524Y-9741476D01*
X4783571Y-9751000D01*
X4793095Y-9760524D01*
X4802619Y-9779571D01*
X4812143Y-9817667D01*
X4812143Y-9865286D01*
X4802619Y-9903381D01*
X4793095Y-9922429D01*
X4783571Y-9931952D01*
X4764524Y-9941476D01*
X4745476Y-9941476D01*
X4726429Y-9931952D01*
X4716905Y-9922429D01*
X4707381Y-9903381D01*
X4697857Y-9865286D01*
X4697857Y-9817667D01*
X4707381Y-9779571D01*
X4716905Y-9760524D01*
X4726429Y-9751000D01*
X4745476Y-9741476D01*
X4897857Y-9922429D02*
X4907381Y-9931952D01*
X4897857Y-9941476D01*
X4888333Y-9931952D01*
X4897857Y-9922429D01*
X4897857Y-9941476D01*
X5031190Y-9741476D02*
X5050238Y-9741476D01*
X5069286Y-9751000D01*
X5078810Y-9760524D01*
X5088333Y-9779571D01*
X5097857Y-9817667D01*
X5097857Y-9865286D01*
X5088333Y-9903381D01*
X5078810Y-9922429D01*
X5069286Y-9931952D01*
X5050238Y-9941476D01*
X5031190Y-9941476D01*
X5012143Y-9931952D01*
X5002619Y-9922429D01*
X4993095Y-9903381D01*
X4983571Y-9865286D01*
X4983571Y-9817667D01*
X4993095Y-9779571D01*
X5002619Y-9760524D01*
X5012143Y-9751000D01*
X5031190Y-9741476D01*
X5278810Y-9741476D02*
X5183571Y-9741476D01*
X5174048Y-9836714D01*
X5183571Y-9827190D01*
X5202619Y-9817667D01*
X5250238Y-9817667D01*
X5269286Y-9827190D01*
X5278810Y-9836714D01*
X5288333Y-9855762D01*
X5288333Y-9903381D01*
X5278810Y-9922429D01*
X5269286Y-9931952D01*
X5250238Y-9941476D01*
X5202619Y-9941476D01*
X5183571Y-9931952D01*
X5174048Y-9922429D01*
X5478810Y-9941476D02*
X5364524Y-9941476D01*
X5421667Y-9941476D02*
X5421667Y-9741476D01*
X5402619Y-9770048D01*
X5383571Y-9789095D01*
X5364524Y-9798619D01*
X5555000Y-9760524D02*
X5564524Y-9751000D01*
X5583571Y-9741476D01*
X5631190Y-9741476D01*
X5650238Y-9751000D01*
X5659762Y-9760524D01*
X5669286Y-9779571D01*
X5669286Y-9798619D01*
X5659762Y-9827190D01*
X5545476Y-9941476D01*
X5669286Y-9941476D01*
X5745476Y-9741476D02*
X5745476Y-9779571D01*
X5821667Y-9741476D02*
X5821667Y-9779571D01*
X6116905Y-10017667D02*
X6107381Y-10008143D01*
X6088333Y-9979571D01*
X6078809Y-9960524D01*
X6069286Y-9931952D01*
X6059762Y-9884333D01*
X6059762Y-9846238D01*
X6069286Y-9798619D01*
X6078809Y-9770048D01*
X6088333Y-9751000D01*
X6107381Y-9722429D01*
X6116905Y-9712905D01*
X6288333Y-9741476D02*
X6193095Y-9741476D01*
X6183571Y-9836714D01*
X6193095Y-9827190D01*
X6212143Y-9817667D01*
X6259762Y-9817667D01*
X6278809Y-9827190D01*
X6288333Y-9836714D01*
X6297857Y-9855762D01*
X6297857Y-9903381D01*
X6288333Y-9922429D01*
X6278809Y-9931952D01*
X6259762Y-9941476D01*
X6212143Y-9941476D01*
X6193095Y-9931952D01*
X6183571Y-9922429D01*
X6535952Y-9941476D02*
X6535952Y-9741476D01*
X6621667Y-9941476D02*
X6621667Y-9836714D01*
X6612143Y-9817667D01*
X6593095Y-9808143D01*
X6564524Y-9808143D01*
X6545476Y-9817667D01*
X6535952Y-9827190D01*
X6745476Y-9941476D02*
X6726428Y-9931952D01*
X6716905Y-9922429D01*
X6707381Y-9903381D01*
X6707381Y-9846238D01*
X6716905Y-9827190D01*
X6726428Y-9817667D01*
X6745476Y-9808143D01*
X6774048Y-9808143D01*
X6793095Y-9817667D01*
X6802619Y-9827190D01*
X6812143Y-9846238D01*
X6812143Y-9903381D01*
X6802619Y-9922429D01*
X6793095Y-9931952D01*
X6774048Y-9941476D01*
X6745476Y-9941476D01*
X6926428Y-9941476D02*
X6907381Y-9931952D01*
X6897857Y-9912905D01*
X6897857Y-9741476D01*
X7078809Y-9931952D02*
X7059762Y-9941476D01*
X7021667Y-9941476D01*
X7002619Y-9931952D01*
X6993095Y-9912905D01*
X6993095Y-9836714D01*
X7002619Y-9817667D01*
X7021667Y-9808143D01*
X7059762Y-9808143D01*
X7078809Y-9817667D01*
X7088333Y-9836714D01*
X7088333Y-9855762D01*
X6993095Y-9874810D01*
X7164524Y-9931952D02*
X7183571Y-9941476D01*
X7221667Y-9941476D01*
X7240714Y-9931952D01*
X7250238Y-9912905D01*
X7250238Y-9903381D01*
X7240714Y-9884333D01*
X7221667Y-9874810D01*
X7193095Y-9874810D01*
X7174048Y-9865286D01*
X7164524Y-9846238D01*
X7164524Y-9836714D01*
X7174048Y-9817667D01*
X7193095Y-9808143D01*
X7221667Y-9808143D01*
X7240714Y-9817667D01*
X7316905Y-10017667D02*
X7326428Y-10008143D01*
X7345476Y-9979571D01*
X7355000Y-9960524D01*
X7364524Y-9931952D01*
X7374048Y-9884333D01*
X7374048Y-9846238D01*
X7364524Y-9798619D01*
X7355000Y-9770048D01*
X7345476Y-9751000D01*
X7326428Y-9722429D01*
X7316905Y-9712905D01*
X2345000Y-10015000D02*
X2545000Y-10215000D01*
X2545000Y-10015000D02*
X2345000Y-10215000D01*
X2545000Y-10115000D02*
G75*
G03*
X2545000Y-10115000I-100000J0D01*
G01*
X2783571Y-10005476D02*
X2907381Y-10005476D01*
X2840714Y-10081667D01*
X2869286Y-10081667D01*
X2888333Y-10091190D01*
X2897857Y-10100714D01*
X2907381Y-10119762D01*
X2907381Y-10167381D01*
X2897857Y-10186429D01*
X2888333Y-10195952D01*
X2869286Y-10205476D01*
X2812143Y-10205476D01*
X2793095Y-10195952D01*
X2783571Y-10186429D01*
X2993095Y-10186429D02*
X3002619Y-10195952D01*
X2993095Y-10205476D01*
X2983571Y-10195952D01*
X2993095Y-10186429D01*
X2993095Y-10205476D01*
X3078809Y-10024524D02*
X3088333Y-10015000D01*
X3107381Y-10005476D01*
X3155000Y-10005476D01*
X3174048Y-10015000D01*
X3183571Y-10024524D01*
X3193095Y-10043571D01*
X3193095Y-10062619D01*
X3183571Y-10091190D01*
X3069286Y-10205476D01*
X3193095Y-10205476D01*
X3316905Y-10005476D02*
X3335952Y-10005476D01*
X3355000Y-10015000D01*
X3364524Y-10024524D01*
X3374048Y-10043571D01*
X3383571Y-10081667D01*
X3383571Y-10129286D01*
X3374048Y-10167381D01*
X3364524Y-10186429D01*
X3355000Y-10195952D01*
X3335952Y-10205476D01*
X3316905Y-10205476D01*
X3297857Y-10195952D01*
X3288333Y-10186429D01*
X3278809Y-10167381D01*
X3269286Y-10129286D01*
X3269286Y-10081667D01*
X3278809Y-10043571D01*
X3288333Y-10024524D01*
X3297857Y-10015000D01*
X3316905Y-10005476D01*
X3507381Y-10005476D02*
X3526428Y-10005476D01*
X3545476Y-10015000D01*
X3555000Y-10024524D01*
X3564524Y-10043571D01*
X3574048Y-10081667D01*
X3574048Y-10129286D01*
X3564524Y-10167381D01*
X3555000Y-10186429D01*
X3545476Y-10195952D01*
X3526428Y-10205476D01*
X3507381Y-10205476D01*
X3488333Y-10195952D01*
X3478809Y-10186429D01*
X3469286Y-10167381D01*
X3459762Y-10129286D01*
X3459762Y-10081667D01*
X3469286Y-10043571D01*
X3478809Y-10024524D01*
X3488333Y-10015000D01*
X3507381Y-10005476D01*
X3659762Y-10205476D02*
X3659762Y-10072143D01*
X3659762Y-10091190D02*
X3669286Y-10081667D01*
X3688333Y-10072143D01*
X3716905Y-10072143D01*
X3735952Y-10081667D01*
X3745476Y-10100714D01*
X3745476Y-10205476D01*
X3745476Y-10100714D02*
X3755000Y-10081667D01*
X3774048Y-10072143D01*
X3802619Y-10072143D01*
X3821667Y-10081667D01*
X3831190Y-10100714D01*
X3831190Y-10205476D01*
X3926428Y-10205476D02*
X3926428Y-10072143D01*
X3926428Y-10091190D02*
X3935952Y-10081667D01*
X3955000Y-10072143D01*
X3983571Y-10072143D01*
X4002619Y-10081667D01*
X4012143Y-10100714D01*
X4012143Y-10205476D01*
X4012143Y-10100714D02*
X4021667Y-10081667D01*
X4040714Y-10072143D01*
X4069286Y-10072143D01*
X4088333Y-10081667D01*
X4097857Y-10100714D01*
X4097857Y-10205476D01*
X4488333Y-9995952D02*
X4316905Y-10253095D01*
X4745476Y-10005476D02*
X4764524Y-10005476D01*
X4783571Y-10015000D01*
X4793095Y-10024524D01*
X4802619Y-10043571D01*
X4812143Y-10081667D01*
X4812143Y-10129286D01*
X4802619Y-10167381D01*
X4793095Y-10186429D01*
X4783571Y-10195952D01*
X4764524Y-10205476D01*
X4745476Y-10205476D01*
X4726429Y-10195952D01*
X4716905Y-10186429D01*
X4707381Y-10167381D01*
X4697857Y-10129286D01*
X4697857Y-10081667D01*
X4707381Y-10043571D01*
X4716905Y-10024524D01*
X4726429Y-10015000D01*
X4745476Y-10005476D01*
X4897857Y-10186429D02*
X4907381Y-10195952D01*
X4897857Y-10205476D01*
X4888333Y-10195952D01*
X4897857Y-10186429D01*
X4897857Y-10205476D01*
X5097857Y-10205476D02*
X4983571Y-10205476D01*
X5040714Y-10205476D02*
X5040714Y-10005476D01*
X5021667Y-10034048D01*
X5002619Y-10053095D01*
X4983571Y-10062619D01*
X5174048Y-10024524D02*
X5183571Y-10015000D01*
X5202619Y-10005476D01*
X5250238Y-10005476D01*
X5269286Y-10015000D01*
X5278810Y-10024524D01*
X5288333Y-10043571D01*
X5288333Y-10062619D01*
X5278810Y-10091190D01*
X5164524Y-10205476D01*
X5288333Y-10205476D01*
X5459762Y-10005476D02*
X5421667Y-10005476D01*
X5402619Y-10015000D01*
X5393095Y-10024524D01*
X5374048Y-10053095D01*
X5364524Y-10091190D01*
X5364524Y-10167381D01*
X5374048Y-10186429D01*
X5383571Y-10195952D01*
X5402619Y-10205476D01*
X5440714Y-10205476D01*
X5459762Y-10195952D01*
X5469286Y-10186429D01*
X5478810Y-10167381D01*
X5478810Y-10119762D01*
X5469286Y-10100714D01*
X5459762Y-10091190D01*
X5440714Y-10081667D01*
X5402619Y-10081667D01*
X5383571Y-10091190D01*
X5374048Y-10100714D01*
X5364524Y-10119762D01*
X5602619Y-10005476D02*
X5621667Y-10005476D01*
X5640714Y-10015000D01*
X5650238Y-10024524D01*
X5659762Y-10043571D01*
X5669286Y-10081667D01*
X5669286Y-10129286D01*
X5659762Y-10167381D01*
X5650238Y-10186429D01*
X5640714Y-10195952D01*
X5621667Y-10205476D01*
X5602619Y-10205476D01*
X5583571Y-10195952D01*
X5574048Y-10186429D01*
X5564524Y-10167381D01*
X5555000Y-10129286D01*
X5555000Y-10081667D01*
X5564524Y-10043571D01*
X5574048Y-10024524D01*
X5583571Y-10015000D01*
X5602619Y-10005476D01*
X5745476Y-10005476D02*
X5745476Y-10043571D01*
X5821667Y-10005476D02*
X5821667Y-10043571D01*
X6116905Y-10281667D02*
X6107381Y-10272143D01*
X6088333Y-10243571D01*
X6078809Y-10224524D01*
X6069286Y-10195952D01*
X6059762Y-10148333D01*
X6059762Y-10110238D01*
X6069286Y-10062619D01*
X6078809Y-10034048D01*
X6088333Y-10015000D01*
X6107381Y-9986429D01*
X6116905Y-9976905D01*
X6183571Y-10024524D02*
X6193095Y-10015000D01*
X6212143Y-10005476D01*
X6259762Y-10005476D01*
X6278809Y-10015000D01*
X6288333Y-10024524D01*
X6297857Y-10043571D01*
X6297857Y-10062619D01*
X6288333Y-10091190D01*
X6174048Y-10205476D01*
X6297857Y-10205476D01*
X6535952Y-10205476D02*
X6535952Y-10005476D01*
X6621667Y-10205476D02*
X6621667Y-10100714D01*
X6612143Y-10081667D01*
X6593095Y-10072143D01*
X6564524Y-10072143D01*
X6545476Y-10081667D01*
X6535952Y-10091190D01*
X6745476Y-10205476D02*
X6726428Y-10195952D01*
X6716905Y-10186429D01*
X6707381Y-10167381D01*
X6707381Y-10110238D01*
X6716905Y-10091190D01*
X6726428Y-10081667D01*
X6745476Y-10072143D01*
X6774048Y-10072143D01*
X6793095Y-10081667D01*
X6802619Y-10091190D01*
X6812143Y-10110238D01*
X6812143Y-10167381D01*
X6802619Y-10186429D01*
X6793095Y-10195952D01*
X6774048Y-10205476D01*
X6745476Y-10205476D01*
X6926428Y-10205476D02*
X6907381Y-10195952D01*
X6897857Y-10176905D01*
X6897857Y-10005476D01*
X7078809Y-10195952D02*
X7059762Y-10205476D01*
X7021667Y-10205476D01*
X7002619Y-10195952D01*
X6993095Y-10176905D01*
X6993095Y-10100714D01*
X7002619Y-10081667D01*
X7021667Y-10072143D01*
X7059762Y-10072143D01*
X7078809Y-10081667D01*
X7088333Y-10100714D01*
X7088333Y-10119762D01*
X6993095Y-10138810D01*
X7164524Y-10195952D02*
X7183571Y-10205476D01*
X7221667Y-10205476D01*
X7240714Y-10195952D01*
X7250238Y-10176905D01*
X7250238Y-10167381D01*
X7240714Y-10148333D01*
X7221667Y-10138810D01*
X7193095Y-10138810D01*
X7174048Y-10129286D01*
X7164524Y-10110238D01*
X7164524Y-10100714D01*
X7174048Y-10081667D01*
X7193095Y-10072143D01*
X7221667Y-10072143D01*
X7240714Y-10081667D01*
X7316905Y-10281667D02*
X7326428Y-10272143D01*
X7345476Y-10243571D01*
X7355000Y-10224524D01*
X7364524Y-10195952D01*
X7374048Y-10148333D01*
X7374048Y-10110238D01*
X7364524Y-10062619D01*
X7355000Y-10034048D01*
X7345476Y-10015000D01*
X7326428Y-9986429D01*
X7316905Y-9976905D01*
M02*
