%TF.GenerationSoftware,KiCad,Pcbnew,(6.0.5-0)*%
%TF.CreationDate,2022-06-06T23:04:22+02:00*%
%TF.ProjectId,vgascart,76676173-6361-4727-942e-6b696361645f,rev?*%
%TF.SameCoordinates,Original*%
%TF.FileFunction,Legend,Top*%
%TF.FilePolarity,Positive*%
%FSLAX46Y46*%
G04 Gerber Fmt 4.6, Leading zero omitted, Abs format (unit mm)*
G04 Created by KiCad (PCBNEW (6.0.5-0)) date 2022-06-06 23:04:22*
%MOMM*%
%LPD*%
G01*
G04 APERTURE LIST*
%ADD10C,0.300000*%
%ADD11C,0.150000*%
%ADD12C,0.304800*%
%ADD13C,0.120000*%
%ADD14C,0.381000*%
%ADD15C,0.127000*%
%ADD16O,4.100000X3.100000*%
%ADD17C,1.600000*%
%ADD18O,1.600000X1.600000*%
%ADD19C,3.200000*%
%ADD20R,1.700000X1.700000*%
%ADD21O,1.700000X1.700000*%
%ADD22C,1.998980*%
%ADD23C,3.000000*%
%ADD24O,4.000000X2.200000*%
%ADD25O,2.200000X4.000000*%
%ADD26R,4.000000X2.200000*%
%ADD27C,4.000000*%
%ADD28R,1.600000X1.600000*%
G04 APERTURE END LIST*
D10*
X31857142Y-74471071D02*
X31857142Y-72971071D01*
X32500000Y-74471071D02*
X32500000Y-73685357D01*
X32428571Y-73542500D01*
X32285714Y-73471071D01*
X32071428Y-73471071D01*
X31928571Y-73542500D01*
X31857142Y-73613928D01*
X33000000Y-73471071D02*
X33571428Y-73471071D01*
X33214285Y-72971071D02*
X33214285Y-74256785D01*
X33285714Y-74399642D01*
X33428571Y-74471071D01*
X33571428Y-74471071D01*
X33857142Y-73471071D02*
X34428571Y-73471071D01*
X34071428Y-72971071D02*
X34071428Y-74256785D01*
X34142857Y-74399642D01*
X34285714Y-74471071D01*
X34428571Y-74471071D01*
X34928571Y-73471071D02*
X34928571Y-74971071D01*
X34928571Y-73542500D02*
X35071428Y-73471071D01*
X35357142Y-73471071D01*
X35500000Y-73542500D01*
X35571428Y-73613928D01*
X35642857Y-73756785D01*
X35642857Y-74185357D01*
X35571428Y-74328214D01*
X35500000Y-74399642D01*
X35357142Y-74471071D01*
X35071428Y-74471071D01*
X34928571Y-74399642D01*
X36214285Y-74399642D02*
X36357142Y-74471071D01*
X36642857Y-74471071D01*
X36785714Y-74399642D01*
X36857142Y-74256785D01*
X36857142Y-74185357D01*
X36785714Y-74042500D01*
X36642857Y-73971071D01*
X36428571Y-73971071D01*
X36285714Y-73899642D01*
X36214285Y-73756785D01*
X36214285Y-73685357D01*
X36285714Y-73542500D01*
X36428571Y-73471071D01*
X36642857Y-73471071D01*
X36785714Y-73542500D01*
X37500000Y-74328214D02*
X37571428Y-74399642D01*
X37500000Y-74471071D01*
X37428571Y-74399642D01*
X37500000Y-74328214D01*
X37500000Y-74471071D01*
X37500000Y-73542500D02*
X37571428Y-73613928D01*
X37500000Y-73685357D01*
X37428571Y-73613928D01*
X37500000Y-73542500D01*
X37500000Y-73685357D01*
X39285714Y-72899642D02*
X38000000Y-74828214D01*
X40857142Y-72899642D02*
X39571428Y-74828214D01*
X41214285Y-73471071D02*
X41500000Y-74471071D01*
X41785714Y-73756785D01*
X42071428Y-74471071D01*
X42357142Y-73471071D01*
X42785714Y-73471071D02*
X43071428Y-74471071D01*
X43357142Y-73756785D01*
X43642857Y-74471071D01*
X43928571Y-73471071D01*
X44357142Y-73471071D02*
X44642857Y-74471071D01*
X44928571Y-73756785D01*
X45214285Y-74471071D01*
X45500000Y-73471071D01*
X46071428Y-74328214D02*
X46142857Y-74399642D01*
X46071428Y-74471071D01*
X46000000Y-74399642D01*
X46071428Y-74328214D01*
X46071428Y-74471071D01*
X46642857Y-73471071D02*
X47000000Y-74471071D01*
X47357142Y-73471071D02*
X47000000Y-74471071D01*
X46857142Y-74828214D01*
X46785714Y-74899642D01*
X46642857Y-74971071D01*
X48142857Y-74471071D02*
X48000000Y-74399642D01*
X47928571Y-74328214D01*
X47857142Y-74185357D01*
X47857142Y-73756785D01*
X47928571Y-73613928D01*
X48000000Y-73542500D01*
X48142857Y-73471071D01*
X48357142Y-73471071D01*
X48500000Y-73542500D01*
X48571428Y-73613928D01*
X48642857Y-73756785D01*
X48642857Y-74185357D01*
X48571428Y-74328214D01*
X48500000Y-74399642D01*
X48357142Y-74471071D01*
X48142857Y-74471071D01*
X49928571Y-73471071D02*
X49928571Y-74471071D01*
X49285714Y-73471071D02*
X49285714Y-74256785D01*
X49357142Y-74399642D01*
X49500000Y-74471071D01*
X49714285Y-74471071D01*
X49857142Y-74399642D01*
X49928571Y-74328214D01*
X50428571Y-73471071D02*
X51000000Y-73471071D01*
X50642857Y-72971071D02*
X50642857Y-74256785D01*
X50714285Y-74399642D01*
X50857142Y-74471071D01*
X51000000Y-74471071D01*
X52142857Y-73471071D02*
X52142857Y-74471071D01*
X51500000Y-73471071D02*
X51500000Y-74256785D01*
X51571428Y-74399642D01*
X51714285Y-74471071D01*
X51928571Y-74471071D01*
X52071428Y-74399642D01*
X52142857Y-74328214D01*
X52857142Y-74471071D02*
X52857142Y-72971071D01*
X52857142Y-73542500D02*
X53000000Y-73471071D01*
X53285714Y-73471071D01*
X53428571Y-73542500D01*
X53500000Y-73613928D01*
X53571428Y-73756785D01*
X53571428Y-74185357D01*
X53500000Y-74328214D01*
X53428571Y-74399642D01*
X53285714Y-74471071D01*
X53000000Y-74471071D01*
X52857142Y-74399642D01*
X54785714Y-74399642D02*
X54642857Y-74471071D01*
X54357142Y-74471071D01*
X54214285Y-74399642D01*
X54142857Y-74256785D01*
X54142857Y-73685357D01*
X54214285Y-73542500D01*
X54357142Y-73471071D01*
X54642857Y-73471071D01*
X54785714Y-73542500D01*
X54857142Y-73685357D01*
X54857142Y-73828214D01*
X54142857Y-73971071D01*
X55500000Y-74328214D02*
X55571428Y-74399642D01*
X55500000Y-74471071D01*
X55428571Y-74399642D01*
X55500000Y-74328214D01*
X55500000Y-74471071D01*
X56857142Y-74399642D02*
X56714285Y-74471071D01*
X56428571Y-74471071D01*
X56285714Y-74399642D01*
X56214285Y-74328214D01*
X56142857Y-74185357D01*
X56142857Y-73756785D01*
X56214285Y-73613928D01*
X56285714Y-73542500D01*
X56428571Y-73471071D01*
X56714285Y-73471071D01*
X56857142Y-73542500D01*
X57714285Y-74471071D02*
X57571428Y-74399642D01*
X57500000Y-74328214D01*
X57428571Y-74185357D01*
X57428571Y-73756785D01*
X57500000Y-73613928D01*
X57571428Y-73542500D01*
X57714285Y-73471071D01*
X57928571Y-73471071D01*
X58071428Y-73542500D01*
X58142857Y-73613928D01*
X58214285Y-73756785D01*
X58214285Y-74185357D01*
X58142857Y-74328214D01*
X58071428Y-74399642D01*
X57928571Y-74471071D01*
X57714285Y-74471071D01*
X58857142Y-74471071D02*
X58857142Y-73471071D01*
X58857142Y-73613928D02*
X58928571Y-73542500D01*
X59071428Y-73471071D01*
X59285714Y-73471071D01*
X59428571Y-73542500D01*
X59500000Y-73685357D01*
X59500000Y-74471071D01*
X59500000Y-73685357D02*
X59571428Y-73542500D01*
X59714285Y-73471071D01*
X59928571Y-73471071D01*
X60071428Y-73542500D01*
X60142857Y-73685357D01*
X60142857Y-74471071D01*
X35499999Y-75314642D02*
X34214285Y-77243214D01*
X36642857Y-76814642D02*
X36499999Y-76886071D01*
X36214285Y-76886071D01*
X36071428Y-76814642D01*
X35999999Y-76743214D01*
X35928571Y-76600357D01*
X35928571Y-76171785D01*
X35999999Y-76028928D01*
X36071428Y-75957500D01*
X36214285Y-75886071D01*
X36499999Y-75886071D01*
X36642857Y-75957500D01*
X38357142Y-75314642D02*
X37071428Y-77243214D01*
X38785714Y-76814642D02*
X38999999Y-76886071D01*
X39357142Y-76886071D01*
X39499999Y-76814642D01*
X39571428Y-76743214D01*
X39642857Y-76600357D01*
X39642857Y-76457500D01*
X39571428Y-76314642D01*
X39499999Y-76243214D01*
X39357142Y-76171785D01*
X39071428Y-76100357D01*
X38928571Y-76028928D01*
X38857142Y-75957500D01*
X38785714Y-75814642D01*
X38785714Y-75671785D01*
X38857142Y-75528928D01*
X38928571Y-75457500D01*
X39071428Y-75386071D01*
X39428571Y-75386071D01*
X39642857Y-75457500D01*
X40285714Y-76886071D02*
X40285714Y-75886071D01*
X40285714Y-75386071D02*
X40214285Y-75457500D01*
X40285714Y-75528928D01*
X40357142Y-75457500D01*
X40285714Y-75386071D01*
X40285714Y-75528928D01*
X40999999Y-76886071D02*
X40999999Y-75886071D01*
X40999999Y-76028928D02*
X41071428Y-75957500D01*
X41214285Y-75886071D01*
X41428571Y-75886071D01*
X41571428Y-75957500D01*
X41642857Y-76100357D01*
X41642857Y-76886071D01*
X41642857Y-76100357D02*
X41714285Y-75957500D01*
X41857142Y-75886071D01*
X42071428Y-75886071D01*
X42214285Y-75957500D01*
X42285714Y-76100357D01*
X42285714Y-76886071D01*
X43214285Y-76886071D02*
X43071428Y-76814642D01*
X42999999Y-76743214D01*
X42928571Y-76600357D01*
X42928571Y-76171785D01*
X42999999Y-76028928D01*
X43071428Y-75957500D01*
X43214285Y-75886071D01*
X43428571Y-75886071D01*
X43571428Y-75957500D01*
X43642857Y-76028928D01*
X43714285Y-76171785D01*
X43714285Y-76600357D01*
X43642857Y-76743214D01*
X43571428Y-76814642D01*
X43428571Y-76886071D01*
X43214285Y-76886071D01*
X44357142Y-75886071D02*
X44357142Y-76886071D01*
X44357142Y-76028928D02*
X44428571Y-75957500D01*
X44571428Y-75886071D01*
X44785714Y-75886071D01*
X44928571Y-75957500D01*
X44999999Y-76100357D01*
X44999999Y-76886071D01*
X45714285Y-76886071D02*
X45714285Y-75386071D01*
X46571428Y-76886071D02*
X45928571Y-76028928D01*
X46571428Y-75386071D02*
X45714285Y-76243214D01*
X47428571Y-76886071D02*
X47285714Y-76814642D01*
X47214285Y-76743214D01*
X47142857Y-76600357D01*
X47142857Y-76171785D01*
X47214285Y-76028928D01*
X47285714Y-75957500D01*
X47428571Y-75886071D01*
X47642857Y-75886071D01*
X47785714Y-75957500D01*
X47857142Y-76028928D01*
X47928571Y-76171785D01*
X47928571Y-76600357D01*
X47857142Y-76743214D01*
X47785714Y-76814642D01*
X47642857Y-76886071D01*
X47428571Y-76886071D01*
X48428571Y-75886071D02*
X48714285Y-76886071D01*
X48999999Y-76171785D01*
X49285714Y-76886071D01*
X49571428Y-75886071D01*
X50785714Y-76886071D02*
X50785714Y-76100357D01*
X50714285Y-75957500D01*
X50571428Y-75886071D01*
X50285714Y-75886071D01*
X50142857Y-75957500D01*
X50785714Y-76814642D02*
X50642857Y-76886071D01*
X50285714Y-76886071D01*
X50142857Y-76814642D01*
X50071428Y-76671785D01*
X50071428Y-76528928D01*
X50142857Y-76386071D01*
X50285714Y-76314642D01*
X50642857Y-76314642D01*
X50785714Y-76243214D01*
X51714285Y-76886071D02*
X51571428Y-76814642D01*
X51499999Y-76671785D01*
X51499999Y-75386071D01*
X52857142Y-76814642D02*
X52714285Y-76886071D01*
X52428571Y-76886071D01*
X52285714Y-76814642D01*
X52214285Y-76671785D01*
X52214285Y-76100357D01*
X52285714Y-75957500D01*
X52428571Y-75886071D01*
X52714285Y-75886071D01*
X52857142Y-75957500D01*
X52928571Y-76100357D01*
X52928571Y-76243214D01*
X52214285Y-76386071D01*
X53428571Y-75886071D02*
X53714285Y-76886071D01*
X54000000Y-76171785D01*
X54285714Y-76886071D01*
X54571428Y-75886071D01*
X55071428Y-76814642D02*
X55214285Y-76886071D01*
X55499999Y-76886071D01*
X55642857Y-76814642D01*
X55714285Y-76671785D01*
X55714285Y-76600357D01*
X55642857Y-76457500D01*
X55499999Y-76386071D01*
X55285714Y-76386071D01*
X55142857Y-76314642D01*
X55071428Y-76171785D01*
X55071428Y-76100357D01*
X55142857Y-75957500D01*
X55285714Y-75886071D01*
X55499999Y-75886071D01*
X55642857Y-75957500D01*
X56357142Y-76886071D02*
X56357142Y-75386071D01*
X56499999Y-76314642D02*
X56928571Y-76886071D01*
X56928571Y-75886071D02*
X56357142Y-76457500D01*
X57571428Y-76886071D02*
X57571428Y-75886071D01*
X57571428Y-75386071D02*
X57499999Y-75457500D01*
X57571428Y-75528928D01*
X57642857Y-75457500D01*
X57571428Y-75386071D01*
X57571428Y-75528928D01*
D11*
%TO.C,L1*%
X48413333Y-59832380D02*
X47937142Y-59832380D01*
X47937142Y-58832380D01*
X49270476Y-59832380D02*
X48699047Y-59832380D01*
X48984761Y-59832380D02*
X48984761Y-58832380D01*
X48889523Y-58975238D01*
X48794285Y-59070476D01*
X48699047Y-59118095D01*
%TO.C,C1*%
X48333333Y-64607142D02*
X48285714Y-64654761D01*
X48142857Y-64702380D01*
X48047619Y-64702380D01*
X47904761Y-64654761D01*
X47809523Y-64559523D01*
X47761904Y-64464285D01*
X47714285Y-64273809D01*
X47714285Y-64130952D01*
X47761904Y-63940476D01*
X47809523Y-63845238D01*
X47904761Y-63750000D01*
X48047619Y-63702380D01*
X48142857Y-63702380D01*
X48285714Y-63750000D01*
X48333333Y-63797619D01*
X49285714Y-64702380D02*
X48714285Y-64702380D01*
X49000000Y-64702380D02*
X49000000Y-63702380D01*
X48904761Y-63845238D01*
X48809523Y-63940476D01*
X48714285Y-63988095D01*
%TO.C,J8*%
X45476190Y-38857142D02*
X45428571Y-38904761D01*
X45285714Y-38952380D01*
X45190476Y-38952380D01*
X45047619Y-38904761D01*
X44952380Y-38809523D01*
X44904761Y-38714285D01*
X44857142Y-38523809D01*
X44857142Y-38380952D01*
X44904761Y-38190476D01*
X44952380Y-38095238D01*
X45047619Y-38000000D01*
X45190476Y-37952380D01*
X45285714Y-37952380D01*
X45428571Y-38000000D01*
X45476190Y-38047619D01*
X46047619Y-38952380D02*
X45952380Y-38904761D01*
X45904761Y-38857142D01*
X45857142Y-38761904D01*
X45857142Y-38476190D01*
X45904761Y-38380952D01*
X45952380Y-38333333D01*
X46047619Y-38285714D01*
X46190476Y-38285714D01*
X46285714Y-38333333D01*
X46333333Y-38380952D01*
X46380952Y-38476190D01*
X46380952Y-38761904D01*
X46333333Y-38857142D01*
X46285714Y-38904761D01*
X46190476Y-38952380D01*
X46047619Y-38952380D01*
X46809523Y-38952380D02*
X46809523Y-38285714D01*
X46809523Y-38380952D02*
X46857142Y-38333333D01*
X46952380Y-38285714D01*
X47095238Y-38285714D01*
X47190476Y-38333333D01*
X47238095Y-38428571D01*
X47238095Y-38952380D01*
X47238095Y-38428571D02*
X47285714Y-38333333D01*
X47380952Y-38285714D01*
X47523809Y-38285714D01*
X47619047Y-38333333D01*
X47666666Y-38428571D01*
X47666666Y-38952380D01*
X48142857Y-38285714D02*
X48142857Y-39285714D01*
X48142857Y-38333333D02*
X48238095Y-38285714D01*
X48428571Y-38285714D01*
X48523809Y-38333333D01*
X48571428Y-38380952D01*
X48619047Y-38476190D01*
X48619047Y-38761904D01*
X48571428Y-38857142D01*
X48523809Y-38904761D01*
X48428571Y-38952380D01*
X48238095Y-38952380D01*
X48142857Y-38904761D01*
X49761904Y-37904761D02*
X48904761Y-39190476D01*
X50047619Y-38904761D02*
X50190476Y-38952380D01*
X50428571Y-38952380D01*
X50523809Y-38904761D01*
X50571428Y-38857142D01*
X50619047Y-38761904D01*
X50619047Y-38666666D01*
X50571428Y-38571428D01*
X50523809Y-38523809D01*
X50428571Y-38476190D01*
X50238095Y-38428571D01*
X50142857Y-38380952D01*
X50095238Y-38333333D01*
X50047619Y-38238095D01*
X50047619Y-38142857D01*
X50095238Y-38047619D01*
X50142857Y-38000000D01*
X50238095Y-37952380D01*
X50476190Y-37952380D01*
X50619047Y-38000000D01*
X50952380Y-38285714D02*
X51190476Y-38952380D01*
X51428571Y-38285714D02*
X51190476Y-38952380D01*
X51095238Y-39190476D01*
X51047619Y-39238095D01*
X50952380Y-39285714D01*
X51809523Y-38285714D02*
X51809523Y-38952380D01*
X51809523Y-38380952D02*
X51857142Y-38333333D01*
X51952380Y-38285714D01*
X52095238Y-38285714D01*
X52190476Y-38333333D01*
X52238095Y-38428571D01*
X52238095Y-38952380D01*
X53142857Y-38904761D02*
X53047619Y-38952380D01*
X52857142Y-38952380D01*
X52761904Y-38904761D01*
X52714285Y-38857142D01*
X52666666Y-38761904D01*
X52666666Y-38476190D01*
X52714285Y-38380952D01*
X52761904Y-38333333D01*
X52857142Y-38285714D01*
X53047619Y-38285714D01*
X53142857Y-38333333D01*
D12*
%TO.C,J4*%
X24565108Y-52508000D02*
X25653680Y-52508000D01*
X25871394Y-52580571D01*
X26016537Y-52725714D01*
X26089108Y-52943428D01*
X26089108Y-53088571D01*
X25073108Y-51129142D02*
X26089108Y-51129142D01*
X24492537Y-51492000D02*
X25581108Y-51854857D01*
X25581108Y-50911428D01*
X41022857Y-56789714D02*
X41095428Y-56572000D01*
X41095428Y-56209142D01*
X41022857Y-56064000D01*
X40950285Y-55991428D01*
X40805142Y-55918857D01*
X40660000Y-55918857D01*
X40514857Y-55991428D01*
X40442285Y-56064000D01*
X40369714Y-56209142D01*
X40297142Y-56499428D01*
X40224571Y-56644571D01*
X40152000Y-56717142D01*
X40006857Y-56789714D01*
X39861714Y-56789714D01*
X39716571Y-56717142D01*
X39644000Y-56644571D01*
X39571428Y-56499428D01*
X39571428Y-56136571D01*
X39644000Y-55918857D01*
X40950285Y-54394857D02*
X41022857Y-54467428D01*
X41095428Y-54685142D01*
X41095428Y-54830285D01*
X41022857Y-55048000D01*
X40877714Y-55193142D01*
X40732571Y-55265714D01*
X40442285Y-55338285D01*
X40224571Y-55338285D01*
X39934285Y-55265714D01*
X39789142Y-55193142D01*
X39644000Y-55048000D01*
X39571428Y-54830285D01*
X39571428Y-54685142D01*
X39644000Y-54467428D01*
X39716571Y-54394857D01*
X40660000Y-53814285D02*
X40660000Y-53088571D01*
X41095428Y-53959428D02*
X39571428Y-53451428D01*
X41095428Y-52943428D01*
X41095428Y-51564571D02*
X40369714Y-52072571D01*
X41095428Y-52435428D02*
X39571428Y-52435428D01*
X39571428Y-51854857D01*
X39644000Y-51709714D01*
X39716571Y-51637142D01*
X39861714Y-51564571D01*
X40079428Y-51564571D01*
X40224571Y-51637142D01*
X40297142Y-51709714D01*
X40369714Y-51854857D01*
X40369714Y-52435428D01*
X39571428Y-51129142D02*
X39571428Y-50258285D01*
X41095428Y-50693714D02*
X39571428Y-50693714D01*
X40514857Y-49750285D02*
X40514857Y-48589142D01*
X40297142Y-47355428D02*
X40297142Y-47863428D01*
X41095428Y-47863428D02*
X39571428Y-47863428D01*
X39571428Y-47137714D01*
D11*
%TO.C,J5*%
X52714693Y-18303150D02*
X53429980Y-18303150D01*
X53573037Y-18350836D01*
X53668409Y-18446208D01*
X53716095Y-18589265D01*
X53716095Y-18684637D01*
X52714693Y-17349434D02*
X52714693Y-17826292D01*
X53191551Y-17873978D01*
X53143865Y-17826292D01*
X53096179Y-17730920D01*
X53096179Y-17492491D01*
X53143865Y-17397120D01*
X53191551Y-17349434D01*
X53286922Y-17301748D01*
X53525351Y-17301748D01*
X53620723Y-17349434D01*
X53668409Y-17397120D01*
X53716095Y-17492491D01*
X53716095Y-17730920D01*
X53668409Y-17826292D01*
X53620723Y-17873978D01*
%TO.C,J7*%
X68666666Y-64994880D02*
X68666666Y-65709166D01*
X68619047Y-65852023D01*
X68523809Y-65947261D01*
X68380952Y-65994880D01*
X68285714Y-65994880D01*
X69047619Y-64994880D02*
X69714285Y-64994880D01*
X69285714Y-65994880D01*
%TO.C,J6*%
X55532049Y-40348333D02*
X56246335Y-40348333D01*
X56389192Y-40395952D01*
X56484430Y-40491190D01*
X56532049Y-40634047D01*
X56532049Y-40729285D01*
X55532049Y-39443571D02*
X55532049Y-39634047D01*
X55579669Y-39729285D01*
X55627288Y-39776904D01*
X55770145Y-39872142D01*
X55960621Y-39919761D01*
X56341573Y-39919761D01*
X56436811Y-39872142D01*
X56484430Y-39824523D01*
X56532049Y-39729285D01*
X56532049Y-39538809D01*
X56484430Y-39443571D01*
X56436811Y-39395952D01*
X56341573Y-39348333D01*
X56103478Y-39348333D01*
X56008240Y-39395952D01*
X55960621Y-39443571D01*
X55913002Y-39538809D01*
X55913002Y-39729285D01*
X55960621Y-39824523D01*
X56008240Y-39872142D01*
X56103478Y-39919761D01*
%TO.C,R2*%
X61893333Y-59832380D02*
X61560000Y-59356190D01*
X61321904Y-59832380D02*
X61321904Y-58832380D01*
X61702857Y-58832380D01*
X61798095Y-58880000D01*
X61845714Y-58927619D01*
X61893333Y-59022857D01*
X61893333Y-59165714D01*
X61845714Y-59260952D01*
X61798095Y-59308571D01*
X61702857Y-59356190D01*
X61321904Y-59356190D01*
X62274285Y-58927619D02*
X62321904Y-58880000D01*
X62417142Y-58832380D01*
X62655238Y-58832380D01*
X62750476Y-58880000D01*
X62798095Y-58927619D01*
X62845714Y-59022857D01*
X62845714Y-59118095D01*
X62798095Y-59260952D01*
X62226666Y-59832380D01*
X62845714Y-59832380D01*
D13*
%TO.C,L1*%
X45160000Y-60380000D02*
X45160000Y-63320000D01*
X45160000Y-63320000D02*
X52000000Y-63320000D01*
X52000000Y-60380000D02*
X45160000Y-60380000D01*
X44540000Y-61850000D02*
X45160000Y-61850000D01*
X52000000Y-63320000D02*
X52000000Y-60380000D01*
X52620000Y-61850000D02*
X52000000Y-61850000D01*
%TO.C,C1*%
X45380000Y-68120000D02*
X51620000Y-68120000D01*
X45380000Y-65380000D02*
X51620000Y-65380000D01*
X51620000Y-67675000D02*
X51620000Y-68120000D01*
X45380000Y-67675000D02*
X45380000Y-68120000D01*
X45380000Y-65380000D02*
X45380000Y-65825000D01*
X51620000Y-65380000D02*
X51620000Y-65825000D01*
%TO.C,J8*%
X52355000Y-39895000D02*
X52355000Y-41225000D01*
X52355000Y-42495000D02*
X52355000Y-45095000D01*
X49755000Y-42495000D02*
X52355000Y-42495000D01*
X49755000Y-39895000D02*
X49755000Y-42495000D01*
X49755000Y-39895000D02*
X44615000Y-39895000D01*
X44615000Y-39895000D02*
X44615000Y-45095000D01*
X51025000Y-39895000D02*
X52355000Y-39895000D01*
X52355000Y-45095000D02*
X44615000Y-45095000D01*
D14*
%TO.C,J4*%
X31897000Y-24949000D02*
X28849000Y-24949000D01*
X31897000Y-28632000D02*
X39009000Y-28632000D01*
X28849000Y-79051000D02*
X28849000Y-24949000D01*
X31897000Y-79051000D02*
X28849000Y-79051000D01*
X31897000Y-24949000D02*
X31897000Y-79051000D01*
X21991000Y-28632000D02*
X28849000Y-28632000D01*
X21991000Y-28632000D02*
X21991000Y-75876000D01*
X21991000Y-75876000D02*
X28849000Y-75876000D01*
X39009000Y-28632000D02*
X39009000Y-75876000D01*
X31897000Y-26600000D02*
X28849000Y-26600000D01*
X31897000Y-77400000D02*
X28849000Y-77400000D01*
X39009000Y-75876000D02*
X31897000Y-75876000D01*
D15*
%TO.C,J5*%
X43350000Y-14750000D02*
X43350000Y-22750000D01*
X42200000Y-22750000D02*
X42200000Y-25850000D01*
X43350000Y-22750000D02*
X42200000Y-22750000D01*
X51650000Y-22750000D02*
X51650000Y-14750000D01*
X51650000Y-14750000D02*
X43350000Y-14750000D01*
D13*
%TO.C,J7*%
X65000000Y-65792500D02*
X65500000Y-66342500D01*
D11*
X71300000Y-66842500D02*
X71300000Y-78642500D01*
X56800000Y-78642500D02*
X56800000Y-66842500D01*
X74900000Y-75542500D02*
X74900000Y-69342500D01*
X71300000Y-78642500D02*
X63550000Y-78642500D01*
X59200000Y-78642500D02*
X56800000Y-78642500D01*
X59500000Y-66842500D02*
X63250000Y-66842500D01*
D13*
X66000000Y-65792500D02*
X65000000Y-65792500D01*
D11*
X56800000Y-66842500D02*
X56900000Y-66842500D01*
X74900000Y-69342500D02*
X71300000Y-69342500D01*
D13*
X65500000Y-66342500D02*
X66000000Y-65792500D01*
D11*
X67750000Y-66842500D02*
X71300000Y-66842500D01*
X71300000Y-75542500D02*
X74900000Y-75542500D01*
D13*
%TO.C,J6*%
X57019669Y-55500000D02*
X57019669Y-24530000D01*
X56558344Y-35700000D02*
X56125331Y-35950000D01*
X56125331Y-35450000D02*
X56558344Y-35700000D01*
X56125331Y-35950000D02*
X56125331Y-35450000D01*
X70909669Y-55500000D02*
X57019669Y-55500000D01*
X57019669Y-24530000D02*
X70909669Y-24530000D01*
%TO.C,R2*%
X58790000Y-60380000D02*
X65330000Y-60380000D01*
X58790000Y-62790000D02*
X58790000Y-63120000D01*
X65330000Y-63120000D02*
X65330000Y-62790000D01*
X58790000Y-63120000D02*
X65330000Y-63120000D01*
X65330000Y-60380000D02*
X65330000Y-60710000D01*
X58790000Y-60710000D02*
X58790000Y-60380000D01*
%TD*%
D16*
%TO.C,J4*%
X30700660Y-25500180D03*
X30700660Y-78499820D03*
%TD*%
%LPC*%
D17*
%TO.C,L1*%
X43500000Y-61850000D03*
D18*
X53660000Y-61850000D03*
%TD*%
D19*
%TO.C,REF\u002A\u002A*%
X48500000Y-52000000D03*
%TD*%
D17*
%TO.C,C1*%
X46000000Y-66750000D03*
X51000000Y-66750000D03*
%TD*%
D20*
%TO.C,J8*%
X51025000Y-41225000D03*
D21*
X51025000Y-43765000D03*
X48485000Y-41225000D03*
X48485000Y-43765000D03*
X45945000Y-41225000D03*
X45945000Y-43765000D03*
%TD*%
D16*
%TO.C,J4*%
X30700660Y-25500180D03*
X30700660Y-78499820D03*
D22*
X37779640Y-71050000D03*
X32699640Y-69145000D03*
X37779640Y-67240000D03*
X32699640Y-65335000D03*
X37779640Y-63430000D03*
X32699640Y-61525000D03*
X37779640Y-59620000D03*
X32699640Y-57715000D03*
X37779640Y-55810000D03*
X32699640Y-53905000D03*
X37779640Y-52000000D03*
X32699640Y-50095000D03*
X37779640Y-48190000D03*
X32699640Y-46285000D03*
X37779640Y-44380000D03*
X32699640Y-42475000D03*
X37779640Y-40570000D03*
X32699640Y-38665000D03*
X37779640Y-36760000D03*
X32699640Y-34855000D03*
X37779640Y-32950000D03*
%TD*%
D23*
%TO.C,J5*%
X47500000Y-23450000D03*
X53000000Y-32200000D03*
X42000000Y-32200000D03*
X47500000Y-32200000D03*
%TD*%
D24*
%TO.C,J7*%
X61400000Y-77642500D03*
X62600000Y-74942500D03*
D25*
X69400000Y-72442500D03*
D26*
X65500000Y-67842500D03*
D25*
X58200000Y-68342500D03*
%TD*%
D27*
%TO.C,J6*%
X60079669Y-27515000D03*
X60079669Y-52515000D03*
D28*
X58659669Y-35700000D03*
D17*
X58659669Y-37990000D03*
X58659669Y-40280000D03*
X58659669Y-42570000D03*
X58659669Y-44860000D03*
X60639669Y-34555000D03*
X60639669Y-36845000D03*
X60639669Y-39135000D03*
X60639669Y-41425000D03*
X60639669Y-43715000D03*
X62619669Y-35700000D03*
X62619669Y-37990000D03*
X62619669Y-40280000D03*
X62619669Y-42570000D03*
X62619669Y-44860000D03*
%TD*%
%TO.C,R2*%
X58250000Y-61750000D03*
D18*
X65870000Y-61750000D03*
%TD*%
M02*
