%TF.GenerationSoftware,KiCad,Pcbnew,(6.0.5-0)*%
%TF.CreationDate,2022-06-06T23:04:22+02:00*%
%TF.ProjectId,vgascart,76676173-6361-4727-942e-6b696361645f,rev?*%
%TF.SameCoordinates,Original*%
%TF.FileFunction,Soldermask,Top*%
%TF.FilePolarity,Negative*%
%FSLAX46Y46*%
G04 Gerber Fmt 4.6, Leading zero omitted, Abs format (unit mm)*
G04 Created by KiCad (PCBNEW (6.0.5-0)) date 2022-06-06 23:04:22*
%MOMM*%
%LPD*%
G01*
G04 APERTURE LIST*
%ADD10C,1.600000*%
%ADD11O,1.600000X1.600000*%
%ADD12C,3.200000*%
%ADD13R,1.700000X1.700000*%
%ADD14O,1.700000X1.700000*%
%ADD15O,4.100000X3.100000*%
%ADD16C,1.998980*%
%ADD17C,3.000000*%
%ADD18O,4.000000X2.200000*%
%ADD19O,2.200000X4.000000*%
%ADD20R,4.000000X2.200000*%
%ADD21C,4.000000*%
%ADD22R,1.600000X1.600000*%
G04 APERTURE END LIST*
D10*
%TO.C,L1*%
X43500000Y-61850000D03*
D11*
X53660000Y-61850000D03*
%TD*%
D12*
%TO.C,REF\u002A\u002A*%
X48500000Y-52000000D03*
%TD*%
D10*
%TO.C,C1*%
X46000000Y-66750000D03*
X51000000Y-66750000D03*
%TD*%
D13*
%TO.C,J8*%
X51025000Y-41225000D03*
D14*
X51025000Y-43765000D03*
X48485000Y-41225000D03*
X48485000Y-43765000D03*
X45945000Y-41225000D03*
X45945000Y-43765000D03*
%TD*%
D15*
%TO.C,J4*%
X30700660Y-25500180D03*
X30700660Y-78499820D03*
D16*
X37779640Y-71050000D03*
X32699640Y-69145000D03*
X37779640Y-67240000D03*
X32699640Y-65335000D03*
X37779640Y-63430000D03*
X32699640Y-61525000D03*
X37779640Y-59620000D03*
X32699640Y-57715000D03*
X37779640Y-55810000D03*
X32699640Y-53905000D03*
X37779640Y-52000000D03*
X32699640Y-50095000D03*
X37779640Y-48190000D03*
X32699640Y-46285000D03*
X37779640Y-44380000D03*
X32699640Y-42475000D03*
X37779640Y-40570000D03*
X32699640Y-38665000D03*
X37779640Y-36760000D03*
X32699640Y-34855000D03*
X37779640Y-32950000D03*
%TD*%
D17*
%TO.C,J5*%
X47500000Y-23450000D03*
X53000000Y-32200000D03*
X42000000Y-32200000D03*
X47500000Y-32200000D03*
%TD*%
D18*
%TO.C,J7*%
X61400000Y-77642500D03*
X62600000Y-74942500D03*
D19*
X69400000Y-72442500D03*
D20*
X65500000Y-67842500D03*
D19*
X58200000Y-68342500D03*
%TD*%
D21*
%TO.C,J6*%
X60079669Y-27515000D03*
X60079669Y-52515000D03*
D22*
X58659669Y-35700000D03*
D10*
X58659669Y-37990000D03*
X58659669Y-40280000D03*
X58659669Y-42570000D03*
X58659669Y-44860000D03*
X60639669Y-34555000D03*
X60639669Y-36845000D03*
X60639669Y-39135000D03*
X60639669Y-41425000D03*
X60639669Y-43715000D03*
X62619669Y-35700000D03*
X62619669Y-37990000D03*
X62619669Y-40280000D03*
X62619669Y-42570000D03*
X62619669Y-44860000D03*
%TD*%
%TO.C,R2*%
X58250000Y-61750000D03*
D11*
X65870000Y-61750000D03*
%TD*%
M02*
