%TF.GenerationSoftware,KiCad,Pcbnew,(6.0.7-1)-1*%
%TF.CreationDate,2022-08-17T11:35:41+02:00*%
%TF.ProjectId,vgascart,76676173-6361-4727-942e-6b696361645f,rev?*%
%TF.SameCoordinates,Original*%
%TF.FileFunction,Drillmap*%
%TF.FilePolarity,Positive*%
%FSLAX45Y45*%
G04 Gerber Fmt 4.5, Leading zero omitted, Abs format (unit mm)*
G04 Created by KiCad (PCBNEW (6.0.7-1)-1) date 2022-08-17 11:35:41*
%MOMM*%
%LPD*%
G01*
G04 APERTURE LIST*
%ADD10C,0.100000*%
%ADD11C,0.200000*%
%ADD12C,0.300000*%
%ADD13C,0.320000*%
G04 APERTURE END LIST*
D10*
X2550000Y-2250000D02*
X7150000Y-2250000D01*
X7150000Y-2250000D02*
X7150000Y-8150000D01*
X7150000Y-8150000D02*
X2550000Y-8150000D01*
X2550000Y-8150000D02*
X2550000Y-2250000D01*
D11*
D12*
X2920066Y-2400018D02*
X3220066Y-2700018D01*
X3220066Y-2400018D02*
X2920066Y-2700018D01*
D11*
X3120066Y-2400018D02*
X3020066Y-2400018D01*
X3120066Y-2700018D02*
X3020066Y-2700018D01*
X3020066Y-2400018D02*
G75*
G03*
X3020066Y-2700018I0J-150000D01*
G01*
X3120066Y-2700018D02*
G75*
G03*
X3120066Y-2400018I0J150000D01*
G01*
D12*
X2920066Y-7699982D02*
X3220066Y-7999982D01*
X3220066Y-7699982D02*
X2920066Y-7999982D01*
D11*
X3120066Y-7699982D02*
X3020066Y-7699982D01*
X3120066Y-7999982D02*
X3020066Y-7999982D01*
X3020066Y-7699982D02*
G75*
G03*
X3020066Y-7999982I0J-150000D01*
G01*
X3120066Y-7999982D02*
G75*
G03*
X3120066Y-7699982I0J150000D01*
G01*
D13*
X5010000Y-5200000D02*
G75*
G03*
X5010000Y-5200000I-160000J0D01*
G01*
D11*
X2802619Y-8465476D02*
X2802619Y-8265476D01*
X2850238Y-8265476D01*
X2878809Y-8275000D01*
X2897857Y-8294048D01*
X2907381Y-8313095D01*
X2916905Y-8351190D01*
X2916905Y-8379762D01*
X2907381Y-8417857D01*
X2897857Y-8436905D01*
X2878809Y-8455952D01*
X2850238Y-8465476D01*
X2802619Y-8465476D01*
X3002619Y-8465476D02*
X3002619Y-8332143D01*
X3002619Y-8370238D02*
X3012143Y-8351190D01*
X3021667Y-8341667D01*
X3040714Y-8332143D01*
X3059762Y-8332143D01*
X3126428Y-8465476D02*
X3126428Y-8332143D01*
X3126428Y-8265476D02*
X3116905Y-8275000D01*
X3126428Y-8284524D01*
X3135952Y-8275000D01*
X3126428Y-8265476D01*
X3126428Y-8284524D01*
X3250238Y-8465476D02*
X3231190Y-8455952D01*
X3221667Y-8436905D01*
X3221667Y-8265476D01*
X3355000Y-8465476D02*
X3335952Y-8455952D01*
X3326428Y-8436905D01*
X3326428Y-8265476D01*
X3583571Y-8465476D02*
X3583571Y-8265476D01*
X3650238Y-8408333D01*
X3716905Y-8265476D01*
X3716905Y-8465476D01*
X3897857Y-8465476D02*
X3897857Y-8360714D01*
X3888333Y-8341667D01*
X3869286Y-8332143D01*
X3831190Y-8332143D01*
X3812143Y-8341667D01*
X3897857Y-8455952D02*
X3878809Y-8465476D01*
X3831190Y-8465476D01*
X3812143Y-8455952D01*
X3802619Y-8436905D01*
X3802619Y-8417857D01*
X3812143Y-8398810D01*
X3831190Y-8389286D01*
X3878809Y-8389286D01*
X3897857Y-8379762D01*
X3993095Y-8332143D02*
X3993095Y-8532143D01*
X3993095Y-8341667D02*
X4012143Y-8332143D01*
X4050238Y-8332143D01*
X4069286Y-8341667D01*
X4078809Y-8351190D01*
X4088333Y-8370238D01*
X4088333Y-8427381D01*
X4078809Y-8446429D01*
X4069286Y-8455952D01*
X4050238Y-8465476D01*
X4012143Y-8465476D01*
X3993095Y-8455952D01*
X4174048Y-8446429D02*
X4183571Y-8455952D01*
X4174048Y-8465476D01*
X4164524Y-8455952D01*
X4174048Y-8446429D01*
X4174048Y-8465476D01*
X4174048Y-8341667D02*
X4183571Y-8351190D01*
X4174048Y-8360714D01*
X4164524Y-8351190D01*
X4174048Y-8341667D01*
X4174048Y-8360714D01*
X2345000Y-8695000D02*
X2545000Y-8895000D01*
X2545000Y-8695000D02*
X2345000Y-8895000D01*
X2783571Y-8685476D02*
X2907381Y-8685476D01*
X2840714Y-8761667D01*
X2869286Y-8761667D01*
X2888333Y-8771190D01*
X2897857Y-8780714D01*
X2907381Y-8799762D01*
X2907381Y-8847381D01*
X2897857Y-8866429D01*
X2888333Y-8875952D01*
X2869286Y-8885476D01*
X2812143Y-8885476D01*
X2793095Y-8875952D01*
X2783571Y-8866429D01*
X2993095Y-8866429D02*
X3002619Y-8875952D01*
X2993095Y-8885476D01*
X2983571Y-8875952D01*
X2993095Y-8866429D01*
X2993095Y-8885476D01*
X3126428Y-8685476D02*
X3145476Y-8685476D01*
X3164524Y-8695000D01*
X3174048Y-8704524D01*
X3183571Y-8723571D01*
X3193095Y-8761667D01*
X3193095Y-8809286D01*
X3183571Y-8847381D01*
X3174048Y-8866429D01*
X3164524Y-8875952D01*
X3145476Y-8885476D01*
X3126428Y-8885476D01*
X3107381Y-8875952D01*
X3097857Y-8866429D01*
X3088333Y-8847381D01*
X3078809Y-8809286D01*
X3078809Y-8761667D01*
X3088333Y-8723571D01*
X3097857Y-8704524D01*
X3107381Y-8695000D01*
X3126428Y-8685476D01*
X3316905Y-8685476D02*
X3335952Y-8685476D01*
X3355000Y-8695000D01*
X3364524Y-8704524D01*
X3374048Y-8723571D01*
X3383571Y-8761667D01*
X3383571Y-8809286D01*
X3374048Y-8847381D01*
X3364524Y-8866429D01*
X3355000Y-8875952D01*
X3335952Y-8885476D01*
X3316905Y-8885476D01*
X3297857Y-8875952D01*
X3288333Y-8866429D01*
X3278809Y-8847381D01*
X3269286Y-8809286D01*
X3269286Y-8761667D01*
X3278809Y-8723571D01*
X3288333Y-8704524D01*
X3297857Y-8695000D01*
X3316905Y-8685476D01*
X3507381Y-8685476D02*
X3526428Y-8685476D01*
X3545476Y-8695000D01*
X3555000Y-8704524D01*
X3564524Y-8723571D01*
X3574048Y-8761667D01*
X3574048Y-8809286D01*
X3564524Y-8847381D01*
X3555000Y-8866429D01*
X3545476Y-8875952D01*
X3526428Y-8885476D01*
X3507381Y-8885476D01*
X3488333Y-8875952D01*
X3478809Y-8866429D01*
X3469286Y-8847381D01*
X3459762Y-8809286D01*
X3459762Y-8761667D01*
X3469286Y-8723571D01*
X3478809Y-8704524D01*
X3488333Y-8695000D01*
X3507381Y-8685476D01*
X3659762Y-8885476D02*
X3659762Y-8752143D01*
X3659762Y-8771190D02*
X3669286Y-8761667D01*
X3688333Y-8752143D01*
X3716905Y-8752143D01*
X3735952Y-8761667D01*
X3745476Y-8780714D01*
X3745476Y-8885476D01*
X3745476Y-8780714D02*
X3755000Y-8761667D01*
X3774048Y-8752143D01*
X3802619Y-8752143D01*
X3821667Y-8761667D01*
X3831190Y-8780714D01*
X3831190Y-8885476D01*
X3926428Y-8885476D02*
X3926428Y-8752143D01*
X3926428Y-8771190D02*
X3935952Y-8761667D01*
X3955000Y-8752143D01*
X3983571Y-8752143D01*
X4002619Y-8761667D01*
X4012143Y-8780714D01*
X4012143Y-8885476D01*
X4012143Y-8780714D02*
X4021667Y-8761667D01*
X4040714Y-8752143D01*
X4069286Y-8752143D01*
X4088333Y-8761667D01*
X4097857Y-8780714D01*
X4097857Y-8885476D01*
X4488333Y-8675952D02*
X4316905Y-8933095D01*
X4745476Y-8685476D02*
X4764524Y-8685476D01*
X4783571Y-8695000D01*
X4793095Y-8704524D01*
X4802619Y-8723571D01*
X4812143Y-8761667D01*
X4812143Y-8809286D01*
X4802619Y-8847381D01*
X4793095Y-8866429D01*
X4783571Y-8875952D01*
X4764524Y-8885476D01*
X4745476Y-8885476D01*
X4726429Y-8875952D01*
X4716905Y-8866429D01*
X4707381Y-8847381D01*
X4697857Y-8809286D01*
X4697857Y-8761667D01*
X4707381Y-8723571D01*
X4716905Y-8704524D01*
X4726429Y-8695000D01*
X4745476Y-8685476D01*
X4897857Y-8866429D02*
X4907381Y-8875952D01*
X4897857Y-8885476D01*
X4888333Y-8875952D01*
X4897857Y-8866429D01*
X4897857Y-8885476D01*
X5097857Y-8885476D02*
X4983571Y-8885476D01*
X5040714Y-8885476D02*
X5040714Y-8685476D01*
X5021667Y-8714048D01*
X5002619Y-8733095D01*
X4983571Y-8742619D01*
X5288333Y-8885476D02*
X5174048Y-8885476D01*
X5231190Y-8885476D02*
X5231190Y-8685476D01*
X5212143Y-8714048D01*
X5193095Y-8733095D01*
X5174048Y-8742619D01*
X5402619Y-8771190D02*
X5383571Y-8761667D01*
X5374048Y-8752143D01*
X5364524Y-8733095D01*
X5364524Y-8723571D01*
X5374048Y-8704524D01*
X5383571Y-8695000D01*
X5402619Y-8685476D01*
X5440714Y-8685476D01*
X5459762Y-8695000D01*
X5469286Y-8704524D01*
X5478810Y-8723571D01*
X5478810Y-8733095D01*
X5469286Y-8752143D01*
X5459762Y-8761667D01*
X5440714Y-8771190D01*
X5402619Y-8771190D01*
X5383571Y-8780714D01*
X5374048Y-8790238D01*
X5364524Y-8809286D01*
X5364524Y-8847381D01*
X5374048Y-8866429D01*
X5383571Y-8875952D01*
X5402619Y-8885476D01*
X5440714Y-8885476D01*
X5459762Y-8875952D01*
X5469286Y-8866429D01*
X5478810Y-8847381D01*
X5478810Y-8809286D01*
X5469286Y-8790238D01*
X5459762Y-8780714D01*
X5440714Y-8771190D01*
X5669286Y-8885476D02*
X5555000Y-8885476D01*
X5612143Y-8885476D02*
X5612143Y-8685476D01*
X5593095Y-8714048D01*
X5574048Y-8733095D01*
X5555000Y-8742619D01*
X5745476Y-8685476D02*
X5745476Y-8723571D01*
X5821667Y-8685476D02*
X5821667Y-8723571D01*
X6116905Y-8961667D02*
X6107381Y-8952143D01*
X6088333Y-8923571D01*
X6078809Y-8904524D01*
X6069286Y-8875952D01*
X6059762Y-8828333D01*
X6059762Y-8790238D01*
X6069286Y-8742619D01*
X6078809Y-8714048D01*
X6088333Y-8695000D01*
X6107381Y-8666429D01*
X6116905Y-8656905D01*
X6231190Y-8685476D02*
X6250238Y-8685476D01*
X6269286Y-8695000D01*
X6278809Y-8704524D01*
X6288333Y-8723571D01*
X6297857Y-8761667D01*
X6297857Y-8809286D01*
X6288333Y-8847381D01*
X6278809Y-8866429D01*
X6269286Y-8875952D01*
X6250238Y-8885476D01*
X6231190Y-8885476D01*
X6212143Y-8875952D01*
X6202619Y-8866429D01*
X6193095Y-8847381D01*
X6183571Y-8809286D01*
X6183571Y-8761667D01*
X6193095Y-8723571D01*
X6202619Y-8704524D01*
X6212143Y-8695000D01*
X6231190Y-8685476D01*
X6535952Y-8885476D02*
X6535952Y-8685476D01*
X6621667Y-8885476D02*
X6621667Y-8780714D01*
X6612143Y-8761667D01*
X6593095Y-8752143D01*
X6564524Y-8752143D01*
X6545476Y-8761667D01*
X6535952Y-8771190D01*
X6745476Y-8885476D02*
X6726428Y-8875952D01*
X6716905Y-8866429D01*
X6707381Y-8847381D01*
X6707381Y-8790238D01*
X6716905Y-8771190D01*
X6726428Y-8761667D01*
X6745476Y-8752143D01*
X6774048Y-8752143D01*
X6793095Y-8761667D01*
X6802619Y-8771190D01*
X6812143Y-8790238D01*
X6812143Y-8847381D01*
X6802619Y-8866429D01*
X6793095Y-8875952D01*
X6774048Y-8885476D01*
X6745476Y-8885476D01*
X6926428Y-8885476D02*
X6907381Y-8875952D01*
X6897857Y-8856905D01*
X6897857Y-8685476D01*
X7078809Y-8875952D02*
X7059762Y-8885476D01*
X7021667Y-8885476D01*
X7002619Y-8875952D01*
X6993095Y-8856905D01*
X6993095Y-8780714D01*
X7002619Y-8761667D01*
X7021667Y-8752143D01*
X7059762Y-8752143D01*
X7078809Y-8761667D01*
X7088333Y-8780714D01*
X7088333Y-8799762D01*
X6993095Y-8818810D01*
X7164524Y-8875952D02*
X7183571Y-8885476D01*
X7221667Y-8885476D01*
X7240714Y-8875952D01*
X7250238Y-8856905D01*
X7250238Y-8847381D01*
X7240714Y-8828333D01*
X7221667Y-8818810D01*
X7193095Y-8818810D01*
X7174048Y-8809286D01*
X7164524Y-8790238D01*
X7164524Y-8780714D01*
X7174048Y-8761667D01*
X7193095Y-8752143D01*
X7221667Y-8752143D01*
X7240714Y-8761667D01*
X7488333Y-8809286D02*
X7640714Y-8809286D01*
X7564524Y-8885476D02*
X7564524Y-8733095D01*
X7878809Y-8704524D02*
X7888333Y-8695000D01*
X7907381Y-8685476D01*
X7955000Y-8685476D01*
X7974048Y-8695000D01*
X7983571Y-8704524D01*
X7993095Y-8723571D01*
X7993095Y-8742619D01*
X7983571Y-8771190D01*
X7869286Y-8885476D01*
X7993095Y-8885476D01*
X8221667Y-8875952D02*
X8240714Y-8885476D01*
X8278809Y-8885476D01*
X8297857Y-8875952D01*
X8307381Y-8856905D01*
X8307381Y-8847381D01*
X8297857Y-8828333D01*
X8278809Y-8818810D01*
X8250238Y-8818810D01*
X8231190Y-8809286D01*
X8221667Y-8790238D01*
X8221667Y-8780714D01*
X8231190Y-8761667D01*
X8250238Y-8752143D01*
X8278809Y-8752143D01*
X8297857Y-8761667D01*
X8421667Y-8885476D02*
X8402619Y-8875952D01*
X8393095Y-8856905D01*
X8393095Y-8685476D01*
X8526429Y-8885476D02*
X8507381Y-8875952D01*
X8497857Y-8866429D01*
X8488333Y-8847381D01*
X8488333Y-8790238D01*
X8497857Y-8771190D01*
X8507381Y-8761667D01*
X8526429Y-8752143D01*
X8555000Y-8752143D01*
X8574048Y-8761667D01*
X8583571Y-8771190D01*
X8593095Y-8790238D01*
X8593095Y-8847381D01*
X8583571Y-8866429D01*
X8574048Y-8875952D01*
X8555000Y-8885476D01*
X8526429Y-8885476D01*
X8650238Y-8752143D02*
X8726429Y-8752143D01*
X8678810Y-8685476D02*
X8678810Y-8856905D01*
X8688333Y-8875952D01*
X8707381Y-8885476D01*
X8726429Y-8885476D01*
X8783571Y-8875952D02*
X8802619Y-8885476D01*
X8840714Y-8885476D01*
X8859762Y-8875952D01*
X8869286Y-8856905D01*
X8869286Y-8847381D01*
X8859762Y-8828333D01*
X8840714Y-8818810D01*
X8812143Y-8818810D01*
X8793095Y-8809286D01*
X8783571Y-8790238D01*
X8783571Y-8780714D01*
X8793095Y-8761667D01*
X8812143Y-8752143D01*
X8840714Y-8752143D01*
X8859762Y-8761667D01*
X8935952Y-8961667D02*
X8945476Y-8952143D01*
X8964524Y-8923571D01*
X8974048Y-8904524D01*
X8983571Y-8875952D01*
X8993095Y-8828333D01*
X8993095Y-8790238D01*
X8983571Y-8742619D01*
X8974048Y-8714048D01*
X8964524Y-8695000D01*
X8945476Y-8666429D01*
X8935952Y-8656905D01*
X9297857Y-8961667D02*
X9288333Y-8952143D01*
X9269286Y-8923571D01*
X9259762Y-8904524D01*
X9250238Y-8875952D01*
X9240714Y-8828333D01*
X9240714Y-8790238D01*
X9250238Y-8742619D01*
X9259762Y-8714048D01*
X9269286Y-8695000D01*
X9288333Y-8666429D01*
X9297857Y-8656905D01*
X9374048Y-8752143D02*
X9374048Y-8885476D01*
X9374048Y-8771190D02*
X9383571Y-8761667D01*
X9402619Y-8752143D01*
X9431190Y-8752143D01*
X9450238Y-8761667D01*
X9459762Y-8780714D01*
X9459762Y-8885476D01*
X9583571Y-8885476D02*
X9564524Y-8875952D01*
X9555000Y-8866429D01*
X9545476Y-8847381D01*
X9545476Y-8790238D01*
X9555000Y-8771190D01*
X9564524Y-8761667D01*
X9583571Y-8752143D01*
X9612143Y-8752143D01*
X9631190Y-8761667D01*
X9640714Y-8771190D01*
X9650238Y-8790238D01*
X9650238Y-8847381D01*
X9640714Y-8866429D01*
X9631190Y-8875952D01*
X9612143Y-8885476D01*
X9583571Y-8885476D01*
X9707381Y-8752143D02*
X9783571Y-8752143D01*
X9735952Y-8685476D02*
X9735952Y-8856905D01*
X9745476Y-8875952D01*
X9764524Y-8885476D01*
X9783571Y-8885476D01*
X10002619Y-8752143D02*
X10002619Y-8952143D01*
X10002619Y-8761667D02*
X10021667Y-8752143D01*
X10059762Y-8752143D01*
X10078810Y-8761667D01*
X10088333Y-8771190D01*
X10097857Y-8790238D01*
X10097857Y-8847381D01*
X10088333Y-8866429D01*
X10078810Y-8875952D01*
X10059762Y-8885476D01*
X10021667Y-8885476D01*
X10002619Y-8875952D01*
X10212143Y-8885476D02*
X10193095Y-8875952D01*
X10183571Y-8856905D01*
X10183571Y-8685476D01*
X10374048Y-8885476D02*
X10374048Y-8780714D01*
X10364524Y-8761667D01*
X10345476Y-8752143D01*
X10307381Y-8752143D01*
X10288333Y-8761667D01*
X10374048Y-8875952D02*
X10355000Y-8885476D01*
X10307381Y-8885476D01*
X10288333Y-8875952D01*
X10278810Y-8856905D01*
X10278810Y-8837857D01*
X10288333Y-8818810D01*
X10307381Y-8809286D01*
X10355000Y-8809286D01*
X10374048Y-8799762D01*
X10440714Y-8752143D02*
X10516905Y-8752143D01*
X10469286Y-8685476D02*
X10469286Y-8856905D01*
X10478810Y-8875952D01*
X10497857Y-8885476D01*
X10516905Y-8885476D01*
X10659762Y-8875952D02*
X10640714Y-8885476D01*
X10602619Y-8885476D01*
X10583571Y-8875952D01*
X10574048Y-8856905D01*
X10574048Y-8780714D01*
X10583571Y-8761667D01*
X10602619Y-8752143D01*
X10640714Y-8752143D01*
X10659762Y-8761667D01*
X10669286Y-8780714D01*
X10669286Y-8799762D01*
X10574048Y-8818810D01*
X10840714Y-8885476D02*
X10840714Y-8685476D01*
X10840714Y-8875952D02*
X10821667Y-8885476D01*
X10783571Y-8885476D01*
X10764524Y-8875952D01*
X10755000Y-8866429D01*
X10745476Y-8847381D01*
X10745476Y-8790238D01*
X10755000Y-8771190D01*
X10764524Y-8761667D01*
X10783571Y-8752143D01*
X10821667Y-8752143D01*
X10840714Y-8761667D01*
X10916905Y-8961667D02*
X10926429Y-8952143D01*
X10945476Y-8923571D01*
X10955000Y-8904524D01*
X10964524Y-8875952D01*
X10974048Y-8828333D01*
X10974048Y-8790238D01*
X10964524Y-8742619D01*
X10955000Y-8714048D01*
X10945476Y-8695000D01*
X10926429Y-8666429D01*
X10916905Y-8656905D01*
X2545000Y-9115000D02*
G75*
G03*
X2545000Y-9115000I-100000J0D01*
G01*
X2783571Y-9005476D02*
X2907381Y-9005476D01*
X2840714Y-9081667D01*
X2869286Y-9081667D01*
X2888333Y-9091190D01*
X2897857Y-9100714D01*
X2907381Y-9119762D01*
X2907381Y-9167381D01*
X2897857Y-9186429D01*
X2888333Y-9195952D01*
X2869286Y-9205476D01*
X2812143Y-9205476D01*
X2793095Y-9195952D01*
X2783571Y-9186429D01*
X2993095Y-9186429D02*
X3002619Y-9195952D01*
X2993095Y-9205476D01*
X2983571Y-9195952D01*
X2993095Y-9186429D01*
X2993095Y-9205476D01*
X3078809Y-9024524D02*
X3088333Y-9015000D01*
X3107381Y-9005476D01*
X3155000Y-9005476D01*
X3174048Y-9015000D01*
X3183571Y-9024524D01*
X3193095Y-9043571D01*
X3193095Y-9062619D01*
X3183571Y-9091190D01*
X3069286Y-9205476D01*
X3193095Y-9205476D01*
X3316905Y-9005476D02*
X3335952Y-9005476D01*
X3355000Y-9015000D01*
X3364524Y-9024524D01*
X3374048Y-9043571D01*
X3383571Y-9081667D01*
X3383571Y-9129286D01*
X3374048Y-9167381D01*
X3364524Y-9186429D01*
X3355000Y-9195952D01*
X3335952Y-9205476D01*
X3316905Y-9205476D01*
X3297857Y-9195952D01*
X3288333Y-9186429D01*
X3278809Y-9167381D01*
X3269286Y-9129286D01*
X3269286Y-9081667D01*
X3278809Y-9043571D01*
X3288333Y-9024524D01*
X3297857Y-9015000D01*
X3316905Y-9005476D01*
X3507381Y-9005476D02*
X3526428Y-9005476D01*
X3545476Y-9015000D01*
X3555000Y-9024524D01*
X3564524Y-9043571D01*
X3574048Y-9081667D01*
X3574048Y-9129286D01*
X3564524Y-9167381D01*
X3555000Y-9186429D01*
X3545476Y-9195952D01*
X3526428Y-9205476D01*
X3507381Y-9205476D01*
X3488333Y-9195952D01*
X3478809Y-9186429D01*
X3469286Y-9167381D01*
X3459762Y-9129286D01*
X3459762Y-9081667D01*
X3469286Y-9043571D01*
X3478809Y-9024524D01*
X3488333Y-9015000D01*
X3507381Y-9005476D01*
X3659762Y-9205476D02*
X3659762Y-9072143D01*
X3659762Y-9091190D02*
X3669286Y-9081667D01*
X3688333Y-9072143D01*
X3716905Y-9072143D01*
X3735952Y-9081667D01*
X3745476Y-9100714D01*
X3745476Y-9205476D01*
X3745476Y-9100714D02*
X3755000Y-9081667D01*
X3774048Y-9072143D01*
X3802619Y-9072143D01*
X3821667Y-9081667D01*
X3831190Y-9100714D01*
X3831190Y-9205476D01*
X3926428Y-9205476D02*
X3926428Y-9072143D01*
X3926428Y-9091190D02*
X3935952Y-9081667D01*
X3955000Y-9072143D01*
X3983571Y-9072143D01*
X4002619Y-9081667D01*
X4012143Y-9100714D01*
X4012143Y-9205476D01*
X4012143Y-9100714D02*
X4021667Y-9081667D01*
X4040714Y-9072143D01*
X4069286Y-9072143D01*
X4088333Y-9081667D01*
X4097857Y-9100714D01*
X4097857Y-9205476D01*
X4488333Y-8995952D02*
X4316905Y-9253095D01*
X4745476Y-9005476D02*
X4764524Y-9005476D01*
X4783571Y-9015000D01*
X4793095Y-9024524D01*
X4802619Y-9043571D01*
X4812143Y-9081667D01*
X4812143Y-9129286D01*
X4802619Y-9167381D01*
X4793095Y-9186429D01*
X4783571Y-9195952D01*
X4764524Y-9205476D01*
X4745476Y-9205476D01*
X4726429Y-9195952D01*
X4716905Y-9186429D01*
X4707381Y-9167381D01*
X4697857Y-9129286D01*
X4697857Y-9081667D01*
X4707381Y-9043571D01*
X4716905Y-9024524D01*
X4726429Y-9015000D01*
X4745476Y-9005476D01*
X4897857Y-9186429D02*
X4907381Y-9195952D01*
X4897857Y-9205476D01*
X4888333Y-9195952D01*
X4897857Y-9186429D01*
X4897857Y-9205476D01*
X5097857Y-9205476D02*
X4983571Y-9205476D01*
X5040714Y-9205476D02*
X5040714Y-9005476D01*
X5021667Y-9034048D01*
X5002619Y-9053095D01*
X4983571Y-9062619D01*
X5174048Y-9024524D02*
X5183571Y-9015000D01*
X5202619Y-9005476D01*
X5250238Y-9005476D01*
X5269286Y-9015000D01*
X5278810Y-9024524D01*
X5288333Y-9043571D01*
X5288333Y-9062619D01*
X5278810Y-9091190D01*
X5164524Y-9205476D01*
X5288333Y-9205476D01*
X5459762Y-9005476D02*
X5421667Y-9005476D01*
X5402619Y-9015000D01*
X5393095Y-9024524D01*
X5374048Y-9053095D01*
X5364524Y-9091190D01*
X5364524Y-9167381D01*
X5374048Y-9186429D01*
X5383571Y-9195952D01*
X5402619Y-9205476D01*
X5440714Y-9205476D01*
X5459762Y-9195952D01*
X5469286Y-9186429D01*
X5478810Y-9167381D01*
X5478810Y-9119762D01*
X5469286Y-9100714D01*
X5459762Y-9091190D01*
X5440714Y-9081667D01*
X5402619Y-9081667D01*
X5383571Y-9091190D01*
X5374048Y-9100714D01*
X5364524Y-9119762D01*
X5602619Y-9005476D02*
X5621667Y-9005476D01*
X5640714Y-9015000D01*
X5650238Y-9024524D01*
X5659762Y-9043571D01*
X5669286Y-9081667D01*
X5669286Y-9129286D01*
X5659762Y-9167381D01*
X5650238Y-9186429D01*
X5640714Y-9195952D01*
X5621667Y-9205476D01*
X5602619Y-9205476D01*
X5583571Y-9195952D01*
X5574048Y-9186429D01*
X5564524Y-9167381D01*
X5555000Y-9129286D01*
X5555000Y-9081667D01*
X5564524Y-9043571D01*
X5574048Y-9024524D01*
X5583571Y-9015000D01*
X5602619Y-9005476D01*
X5745476Y-9005476D02*
X5745476Y-9043571D01*
X5821667Y-9005476D02*
X5821667Y-9043571D01*
X6116905Y-9281667D02*
X6107381Y-9272143D01*
X6088333Y-9243571D01*
X6078809Y-9224524D01*
X6069286Y-9195952D01*
X6059762Y-9148333D01*
X6059762Y-9110238D01*
X6069286Y-9062619D01*
X6078809Y-9034048D01*
X6088333Y-9015000D01*
X6107381Y-8986429D01*
X6116905Y-8976905D01*
X6297857Y-9205476D02*
X6183571Y-9205476D01*
X6240714Y-9205476D02*
X6240714Y-9005476D01*
X6221667Y-9034048D01*
X6202619Y-9053095D01*
X6183571Y-9062619D01*
X6535952Y-9205476D02*
X6535952Y-9005476D01*
X6621667Y-9205476D02*
X6621667Y-9100714D01*
X6612143Y-9081667D01*
X6593095Y-9072143D01*
X6564524Y-9072143D01*
X6545476Y-9081667D01*
X6535952Y-9091190D01*
X6745476Y-9205476D02*
X6726428Y-9195952D01*
X6716905Y-9186429D01*
X6707381Y-9167381D01*
X6707381Y-9110238D01*
X6716905Y-9091190D01*
X6726428Y-9081667D01*
X6745476Y-9072143D01*
X6774048Y-9072143D01*
X6793095Y-9081667D01*
X6802619Y-9091190D01*
X6812143Y-9110238D01*
X6812143Y-9167381D01*
X6802619Y-9186429D01*
X6793095Y-9195952D01*
X6774048Y-9205476D01*
X6745476Y-9205476D01*
X6926428Y-9205476D02*
X6907381Y-9195952D01*
X6897857Y-9176905D01*
X6897857Y-9005476D01*
X7078809Y-9195952D02*
X7059762Y-9205476D01*
X7021667Y-9205476D01*
X7002619Y-9195952D01*
X6993095Y-9176905D01*
X6993095Y-9100714D01*
X7002619Y-9081667D01*
X7021667Y-9072143D01*
X7059762Y-9072143D01*
X7078809Y-9081667D01*
X7088333Y-9100714D01*
X7088333Y-9119762D01*
X6993095Y-9138810D01*
X7155000Y-9281667D02*
X7164524Y-9272143D01*
X7183571Y-9243571D01*
X7193095Y-9224524D01*
X7202619Y-9195952D01*
X7212143Y-9148333D01*
X7212143Y-9110238D01*
X7202619Y-9062619D01*
X7193095Y-9034048D01*
X7183571Y-9015000D01*
X7164524Y-8986429D01*
X7155000Y-8976905D01*
X7516905Y-9281667D02*
X7507381Y-9272143D01*
X7488333Y-9243571D01*
X7478809Y-9224524D01*
X7469286Y-9195952D01*
X7459762Y-9148333D01*
X7459762Y-9110238D01*
X7469286Y-9062619D01*
X7478809Y-9034048D01*
X7488333Y-9015000D01*
X7507381Y-8986429D01*
X7516905Y-8976905D01*
X7593095Y-9072143D02*
X7593095Y-9205476D01*
X7593095Y-9091190D02*
X7602619Y-9081667D01*
X7621667Y-9072143D01*
X7650238Y-9072143D01*
X7669286Y-9081667D01*
X7678809Y-9100714D01*
X7678809Y-9205476D01*
X7802619Y-9205476D02*
X7783571Y-9195952D01*
X7774048Y-9186429D01*
X7764524Y-9167381D01*
X7764524Y-9110238D01*
X7774048Y-9091190D01*
X7783571Y-9081667D01*
X7802619Y-9072143D01*
X7831190Y-9072143D01*
X7850238Y-9081667D01*
X7859762Y-9091190D01*
X7869286Y-9110238D01*
X7869286Y-9167381D01*
X7859762Y-9186429D01*
X7850238Y-9195952D01*
X7831190Y-9205476D01*
X7802619Y-9205476D01*
X7926428Y-9072143D02*
X8002619Y-9072143D01*
X7955000Y-9005476D02*
X7955000Y-9176905D01*
X7964524Y-9195952D01*
X7983571Y-9205476D01*
X8002619Y-9205476D01*
X8221667Y-9072143D02*
X8221667Y-9272143D01*
X8221667Y-9081667D02*
X8240714Y-9072143D01*
X8278809Y-9072143D01*
X8297857Y-9081667D01*
X8307381Y-9091190D01*
X8316905Y-9110238D01*
X8316905Y-9167381D01*
X8307381Y-9186429D01*
X8297857Y-9195952D01*
X8278809Y-9205476D01*
X8240714Y-9205476D01*
X8221667Y-9195952D01*
X8431190Y-9205476D02*
X8412143Y-9195952D01*
X8402619Y-9176905D01*
X8402619Y-9005476D01*
X8593095Y-9205476D02*
X8593095Y-9100714D01*
X8583571Y-9081667D01*
X8564524Y-9072143D01*
X8526429Y-9072143D01*
X8507381Y-9081667D01*
X8593095Y-9195952D02*
X8574048Y-9205476D01*
X8526429Y-9205476D01*
X8507381Y-9195952D01*
X8497857Y-9176905D01*
X8497857Y-9157857D01*
X8507381Y-9138810D01*
X8526429Y-9129286D01*
X8574048Y-9129286D01*
X8593095Y-9119762D01*
X8659762Y-9072143D02*
X8735952Y-9072143D01*
X8688333Y-9005476D02*
X8688333Y-9176905D01*
X8697857Y-9195952D01*
X8716905Y-9205476D01*
X8735952Y-9205476D01*
X8878810Y-9195952D02*
X8859762Y-9205476D01*
X8821667Y-9205476D01*
X8802619Y-9195952D01*
X8793095Y-9176905D01*
X8793095Y-9100714D01*
X8802619Y-9081667D01*
X8821667Y-9072143D01*
X8859762Y-9072143D01*
X8878810Y-9081667D01*
X8888333Y-9100714D01*
X8888333Y-9119762D01*
X8793095Y-9138810D01*
X9059762Y-9205476D02*
X9059762Y-9005476D01*
X9059762Y-9195952D02*
X9040714Y-9205476D01*
X9002619Y-9205476D01*
X8983571Y-9195952D01*
X8974048Y-9186429D01*
X8964524Y-9167381D01*
X8964524Y-9110238D01*
X8974048Y-9091190D01*
X8983571Y-9081667D01*
X9002619Y-9072143D01*
X9040714Y-9072143D01*
X9059762Y-9081667D01*
X9135952Y-9281667D02*
X9145476Y-9272143D01*
X9164524Y-9243571D01*
X9174048Y-9224524D01*
X9183571Y-9195952D01*
X9193095Y-9148333D01*
X9193095Y-9110238D01*
X9183571Y-9062619D01*
X9174048Y-9034048D01*
X9164524Y-9015000D01*
X9145476Y-8986429D01*
X9135952Y-8976905D01*
M02*
