M48
; DRILL file {KiCad (6.0.7-1)-1} date 2022 August 17, Wednesday 11:35:40
; FORMAT={-:-/ absolute / metric / decimal}
; #@! TF.CreationDate,2022-08-17T11:35:40+02:00
; #@! TF.GenerationSoftware,Kicad,Pcbnew,(6.0.7-1)-1
; #@! TF.FileFunction,Plated,1,2,PTH
FMAT,2
METRIC
; #@! TA.AperFunction,Plated,PTH,ViaDrill
T1C0.400
; #@! TA.AperFunction,Plated,PTH,ComponentDrill
T2C0.800
; #@! TA.AperFunction,Plated,PTH,ComponentDrill
T3C1.000
; #@! TA.AperFunction,Plated,PTH,ComponentDrill
T4C1.199
; #@! TA.AperFunction,Plated,PTH,ComponentDrill
T5C1.300
; #@! TA.AperFunction,Plated,PTH,ComponentDrill
T6C3.200
%
G90
G05
T1
X41.0Y-42.5
X42.25Y-50.0
X44.08Y-38.08
X46.25Y-37.25
X46.75Y-45.5
X50.75Y-46.25
X52.5Y-48.5
X52.75Y-36.75
X54.25Y-41.25
X60.5Y-47.0
T2
X43.5Y-61.85
X46.0Y-66.75
X51.0Y-66.75
X53.66Y-61.85
X58.25Y-61.75
X65.87Y-61.75
T3
X45.945Y-41.225
X45.945Y-43.765
X48.485Y-41.225
X48.485Y-43.765
X51.025Y-41.225
X51.025Y-43.765
X58.66Y-35.7
X58.66Y-37.99
X58.66Y-40.28
X58.66Y-42.57
X58.66Y-44.86
X60.64Y-34.555
X60.64Y-36.845
X60.64Y-39.135
X60.64Y-41.425
X60.64Y-43.715
X62.62Y-35.7
X62.62Y-37.99
X62.62Y-40.28
X62.62Y-42.57
X62.62Y-44.86
T4
X32.7Y-34.855
X32.7Y-38.665
X32.7Y-42.475
X32.7Y-46.285
X32.7Y-50.095
X32.7Y-53.905
X32.7Y-57.715
X32.7Y-61.525
X32.7Y-65.335
X32.7Y-69.145
X37.78Y-32.95
X37.78Y-36.76
X37.78Y-40.57
X37.78Y-44.38
X37.78Y-48.19
X37.78Y-52.0
X37.78Y-55.81
X37.78Y-59.62
X37.78Y-63.43
X37.78Y-67.24
X37.78Y-71.05
T5
X58.2Y-68.343
X61.4Y-77.642
X62.6Y-74.942
X65.5Y-67.843
X69.4Y-72.442
T6
X60.08Y-27.515
X60.08Y-52.515
T3
X42.0Y-31.7G85X42.0Y-32.7
G05
X48.0Y-23.45G85X47.0Y-23.45
G05
X48.0Y-32.2G85X47.0Y-32.2
G05
X53.0Y-31.7G85X53.0Y-32.7
G05
T0
M30
