%TF.GenerationSoftware,KiCad,Pcbnew,(6.0.7-1)-1*%
%TF.CreationDate,2022-08-17T11:35:27+02:00*%
%TF.ProjectId,vgascart,76676173-6361-4727-942e-6b696361645f,rev?*%
%TF.SameCoordinates,Original*%
%TF.FileFunction,Copper,L1,Top*%
%TF.FilePolarity,Positive*%
%FSLAX46Y46*%
G04 Gerber Fmt 4.6, Leading zero omitted, Abs format (unit mm)*
G04 Created by KiCad (PCBNEW (6.0.7-1)-1) date 2022-08-17 11:35:27*
%MOMM*%
%LPD*%
G01*
G04 APERTURE LIST*
%TA.AperFunction,ComponentPad*%
%ADD10C,3.000000*%
%TD*%
%TA.AperFunction,ComponentPad*%
%ADD11C,1.600000*%
%TD*%
%TA.AperFunction,ComponentPad*%
%ADD12O,1.600000X1.600000*%
%TD*%
%TA.AperFunction,ComponentPad*%
%ADD13R,1.700000X1.700000*%
%TD*%
%TA.AperFunction,ComponentPad*%
%ADD14O,1.700000X1.700000*%
%TD*%
%TA.AperFunction,WasherPad*%
%ADD15O,4.100000X3.100000*%
%TD*%
%TA.AperFunction,ComponentPad*%
%ADD16C,1.998980*%
%TD*%
%TA.AperFunction,ComponentPad*%
%ADD17O,4.000000X2.200000*%
%TD*%
%TA.AperFunction,ComponentPad*%
%ADD18O,2.200000X4.000000*%
%TD*%
%TA.AperFunction,ComponentPad*%
%ADD19R,4.000000X2.200000*%
%TD*%
%TA.AperFunction,ComponentPad*%
%ADD20C,4.000000*%
%TD*%
%TA.AperFunction,ComponentPad*%
%ADD21R,1.600000X1.600000*%
%TD*%
%TA.AperFunction,ViaPad*%
%ADD22C,0.800000*%
%TD*%
%TA.AperFunction,Conductor*%
%ADD23C,0.250000*%
%TD*%
G04 APERTURE END LIST*
D10*
%TO.P,J5,1,Ext*%
%TO.N,GND*%
X47500000Y-23450000D03*
X53000000Y-32200000D03*
X42000000Y-32200000D03*
%TO.P,J5,2,In*%
%TO.N,Net-(J5-Pad2)*%
X47500000Y-32200000D03*
%TD*%
D11*
%TO.P,L1,1,1*%
%TO.N,Net-(J4-Pad11)*%
X43500000Y-61850000D03*
D12*
%TO.P,L1,2,2*%
%TO.N,Net-(C1-Pad2)*%
X53660000Y-61850000D03*
%TD*%
D11*
%TO.P,C1,1*%
%TO.N,Net-(J4-Pad11)*%
X46000000Y-66750000D03*
%TO.P,C1,2*%
%TO.N,Net-(C1-Pad2)*%
X51000000Y-66750000D03*
%TD*%
D13*
%TO.P,J8,1,Pin_1*%
%TO.N,unconnected-(J8-Pad1)*%
X51025000Y-41225000D03*
D14*
%TO.P,J8,2,Pin_2*%
%TO.N,Net-(J8-Pad2)*%
X51025000Y-43765000D03*
%TO.P,J8,3,Pin_3*%
%TO.N,Net-(J5-Pad2)*%
X48485000Y-41225000D03*
%TO.P,J8,4,Pin_4*%
X48485000Y-43765000D03*
%TO.P,J8,5,Pin_5*%
%TO.N,Net-(J4-Pad15)*%
X45945000Y-41225000D03*
%TO.P,J8,6,Pin_6*%
%TO.N,Net-(C1-Pad2)*%
X45945000Y-43765000D03*
%TD*%
D15*
%TO.P,J4,*%
%TO.N,*%
X30700660Y-25500180D03*
X30700660Y-78499820D03*
D16*
%TO.P,J4,1,P1*%
%TO.N,Net-(J4-Pad1)*%
X37779640Y-71050000D03*
%TO.P,J4,2,P2*%
%TO.N,unconnected-(J4-Pad2)*%
X32699640Y-69145000D03*
%TO.P,J4,3,P3*%
%TO.N,Net-(J4-Pad3)*%
X37779640Y-67240000D03*
%TO.P,J4,4,P4*%
%TO.N,Net-(J4-Pad4)*%
X32699640Y-65335000D03*
%TO.P,J4,5,P5*%
%TO.N,GND*%
X37779640Y-63430000D03*
%TO.P,J4,6,P6*%
%TO.N,unconnected-(J4-Pad6)*%
X32699640Y-61525000D03*
%TO.P,J4,7,P7*%
%TO.N,Net-(J4-Pad7)*%
X37779640Y-59620000D03*
%TO.P,J4,8,P8*%
%TO.N,unconnected-(J4-Pad8)*%
X32699640Y-57715000D03*
%TO.P,J4,9,P9*%
%TO.N,GND*%
X37779640Y-55810000D03*
%TO.P,J4,10,P10*%
%TO.N,unconnected-(J4-Pad10)*%
X32699640Y-53905000D03*
%TO.P,J4,11,P11*%
%TO.N,Net-(J4-Pad11)*%
X37779640Y-52000000D03*
%TO.P,J4,12,P12*%
%TO.N,unconnected-(J4-Pad12)*%
X32699640Y-50095000D03*
%TO.P,J4,13,P13*%
%TO.N,GND*%
X37779640Y-48190000D03*
%TO.P,J4,14,P14*%
%TO.N,unconnected-(J4-Pad14)*%
X32699640Y-46285000D03*
%TO.P,J4,15,P15*%
%TO.N,Net-(J4-Pad15)*%
X37779640Y-44380000D03*
%TO.P,J4,16,P16*%
%TO.N,Net-(J4-Pad16)*%
X32699640Y-42475000D03*
%TO.P,J4,17,P17*%
%TO.N,GND*%
X37779640Y-40570000D03*
%TO.P,J4,18,P18*%
X32699640Y-38665000D03*
%TO.P,J4,19,P19*%
%TO.N,Net-(J8-Pad2)*%
X37779640Y-36760000D03*
%TO.P,J4,20,P20*%
%TO.N,unconnected-(J4-Pad20)*%
X32699640Y-34855000D03*
%TO.P,J4,21,P21*%
%TO.N,GND*%
X37779640Y-32950000D03*
%TD*%
D17*
%TO.P,J7,R*%
%TO.N,Net-(J4-Pad1)*%
X61400000Y-77642500D03*
%TO.P,J7,RN*%
%TO.N,N/C*%
X62600000Y-74942500D03*
D18*
%TO.P,J7,S*%
%TO.N,Net-(J4-Pad4)*%
X69400000Y-72442500D03*
D19*
%TO.P,J7,T*%
%TO.N,Net-(J4-Pad3)*%
X65500000Y-67842500D03*
D18*
%TO.P,J7,TN*%
%TO.N,N/C*%
X58200000Y-68342500D03*
%TD*%
D20*
%TO.P,J6,0,0*%
%TO.N,GND*%
X60079669Y-27515000D03*
X60079669Y-52515000D03*
D21*
%TO.P,J6,1*%
%TO.N,Net-(J4-Pad15)*%
X58659669Y-35700000D03*
D11*
%TO.P,J6,2*%
%TO.N,Net-(J4-Pad11)*%
X58659669Y-37990000D03*
%TO.P,J6,3*%
%TO.N,Net-(J4-Pad7)*%
X58659669Y-40280000D03*
%TO.P,J6,4*%
%TO.N,unconnected-(J6-Pad4)*%
X58659669Y-42570000D03*
%TO.P,J6,5*%
%TO.N,unconnected-(J6-Pad5)*%
X58659669Y-44860000D03*
%TO.P,J6,6*%
%TO.N,GND*%
X60639669Y-34555000D03*
%TO.P,J6,7*%
X60639669Y-36845000D03*
%TO.P,J6,8*%
X60639669Y-39135000D03*
%TO.P,J6,9*%
%TO.N,unconnected-(J6-Pad9)*%
X60639669Y-41425000D03*
%TO.P,J6,10*%
%TO.N,GND*%
X60639669Y-43715000D03*
%TO.P,J6,11*%
%TO.N,unconnected-(J6-Pad11)*%
X62619669Y-35700000D03*
%TO.P,J6,12*%
%TO.N,unconnected-(J6-Pad12)*%
X62619669Y-37990000D03*
%TO.P,J6,13*%
%TO.N,Net-(J6-Pad13)*%
X62619669Y-40280000D03*
%TO.P,J6,14*%
%TO.N,Net-(J4-Pad16)*%
X62619669Y-42570000D03*
%TO.P,J6,15*%
%TO.N,unconnected-(J6-Pad15)*%
X62619669Y-44860000D03*
%TD*%
%TO.P,R2,1*%
%TO.N,Net-(J8-Pad2)*%
X58250000Y-61750000D03*
D12*
%TO.P,R2,2*%
%TO.N,Net-(J6-Pad13)*%
X65870000Y-61750000D03*
%TD*%
D22*
%TO.N,GND*%
X46750000Y-45500000D03*
X50750000Y-46250000D03*
X54250000Y-41250000D03*
X52750000Y-36750000D03*
X60500000Y-47000000D03*
X46250000Y-37250000D03*
X41000000Y-42500000D03*
%TO.N,Net-(J4-Pad16)*%
X52500000Y-48500000D03*
%TO.N,Net-(J4-Pad15)*%
X44079820Y-38079820D03*
%TO.N,Net-(C1-Pad2)*%
X42250000Y-50000000D03*
%TD*%
D23*
%TO.N,GND*%
X60639669Y-43715000D02*
X60639669Y-46860331D01*
X60639669Y-36845000D02*
X60639669Y-39135000D01*
X60639669Y-46860331D02*
X60500000Y-47000000D01*
X60639669Y-34555000D02*
X60639669Y-36845000D01*
%TO.N,Net-(J4-Pad16)*%
X62619669Y-42570000D02*
X64500000Y-44450331D01*
X64500000Y-48500000D02*
X52500000Y-48500000D01*
X64500000Y-44450331D02*
X64500000Y-48500000D01*
%TO.N,Net-(J4-Pad7)*%
X39880000Y-59620000D02*
X37779640Y-59620000D01*
X58659669Y-40280000D02*
X51939669Y-47000000D01*
X47000000Y-47000000D02*
X41000000Y-53000000D01*
X51939669Y-47000000D02*
X47000000Y-47000000D01*
X41000000Y-58500000D02*
X39880000Y-59620000D01*
X41000000Y-53000000D02*
X41000000Y-58500000D01*
%TO.N,Net-(J4-Pad11)*%
X40000000Y-45000000D02*
X40000000Y-49779640D01*
X47010000Y-37990000D02*
X40000000Y-45000000D01*
X58659669Y-37990000D02*
X47010000Y-37990000D01*
X40000000Y-49779640D02*
X37779640Y-52000000D01*
%TO.N,Net-(J4-Pad15)*%
X44079820Y-38079820D02*
X37779640Y-44380000D01*
X58659669Y-35700000D02*
X46459640Y-35700000D01*
X46459640Y-35700000D02*
X44079820Y-38079820D01*
%TO.N,Net-(C1-Pad2)*%
X42250000Y-50000000D02*
X42250000Y-44920000D01*
X42250000Y-44920000D02*
X44790000Y-44920000D01*
X44790000Y-44920000D02*
X45945000Y-43765000D01*
%TD*%
%TA.AperFunction,Conductor*%
%TO.N,GND*%
G36*
X45453120Y-23028502D02*
G01*
X45499613Y-23082158D01*
X45509647Y-23152906D01*
X45508563Y-23160244D01*
X45487754Y-23424653D01*
X45487665Y-23433204D01*
X45502932Y-23697969D01*
X45504005Y-23706470D01*
X45555065Y-23966722D01*
X45557276Y-23974974D01*
X45643184Y-24225894D01*
X45646499Y-24233779D01*
X45765664Y-24470713D01*
X45770020Y-24478079D01*
X45899347Y-24666250D01*
X45909601Y-24674594D01*
X45923342Y-24667448D01*
X47410905Y-23179885D01*
X47473217Y-23145859D01*
X47544032Y-23150924D01*
X47589095Y-23179885D01*
X49075730Y-24666520D01*
X49087939Y-24673187D01*
X49099439Y-24664497D01*
X49196831Y-24531913D01*
X49201418Y-24524685D01*
X49327962Y-24291621D01*
X49331530Y-24283827D01*
X49425271Y-24035750D01*
X49427748Y-24027544D01*
X49486954Y-23769038D01*
X49488294Y-23760577D01*
X49512031Y-23494616D01*
X49512277Y-23489677D01*
X49512666Y-23452485D01*
X49512523Y-23447519D01*
X49494362Y-23181123D01*
X49493201Y-23172649D01*
X49490592Y-23160051D01*
X49496365Y-23089289D01*
X49539477Y-23032882D01*
X49606243Y-23008737D01*
X49613974Y-23008500D01*
X70865500Y-23008500D01*
X70933621Y-23028502D01*
X70980114Y-23082158D01*
X70991500Y-23134500D01*
X70991500Y-70614351D01*
X70971498Y-70682472D01*
X70917842Y-70728965D01*
X70847568Y-70739069D01*
X70782988Y-70709575D01*
X70758067Y-70680186D01*
X70707910Y-70598338D01*
X70705328Y-70594124D01*
X70540898Y-70401602D01*
X70348376Y-70237172D01*
X70132502Y-70104884D01*
X70127932Y-70102991D01*
X70127928Y-70102989D01*
X69903164Y-70009889D01*
X69903162Y-70009888D01*
X69898591Y-70007995D01*
X69813968Y-69987679D01*
X69657216Y-69950046D01*
X69657210Y-69950045D01*
X69652403Y-69948891D01*
X69400000Y-69929026D01*
X69147597Y-69948891D01*
X69142790Y-69950045D01*
X69142784Y-69950046D01*
X68986032Y-69987679D01*
X68901409Y-70007995D01*
X68896838Y-70009888D01*
X68896836Y-70009889D01*
X68672072Y-70102989D01*
X68672068Y-70102991D01*
X68667498Y-70104884D01*
X68451624Y-70237172D01*
X68259102Y-70401602D01*
X68094672Y-70594124D01*
X67962384Y-70809998D01*
X67960491Y-70814568D01*
X67960489Y-70814572D01*
X67943340Y-70855974D01*
X67865495Y-71043909D01*
X67864340Y-71048721D01*
X67808407Y-71281700D01*
X67806391Y-71290097D01*
X67791500Y-71479301D01*
X67791500Y-73405699D01*
X67791693Y-73408148D01*
X67791693Y-73408155D01*
X67798535Y-73495084D01*
X67806391Y-73594903D01*
X67807545Y-73599710D01*
X67807546Y-73599716D01*
X67845179Y-73756468D01*
X67865495Y-73841091D01*
X67867388Y-73845662D01*
X67867389Y-73845664D01*
X67930629Y-73998338D01*
X67962384Y-74075002D01*
X68094672Y-74290876D01*
X68259102Y-74483398D01*
X68451624Y-74647828D01*
X68667498Y-74780116D01*
X68672068Y-74782009D01*
X68672072Y-74782011D01*
X68896836Y-74875111D01*
X68901409Y-74877005D01*
X68986032Y-74897321D01*
X69142784Y-74934954D01*
X69142790Y-74934955D01*
X69147597Y-74936109D01*
X69400000Y-74955974D01*
X69652403Y-74936109D01*
X69657210Y-74934955D01*
X69657216Y-74934954D01*
X69813968Y-74897321D01*
X69898591Y-74877005D01*
X69903164Y-74875111D01*
X70127928Y-74782011D01*
X70127932Y-74782009D01*
X70132502Y-74780116D01*
X70348376Y-74647828D01*
X70540898Y-74483398D01*
X70705328Y-74290876D01*
X70758067Y-74204814D01*
X70810715Y-74157183D01*
X70880756Y-74145576D01*
X70945954Y-74173679D01*
X70985608Y-74232570D01*
X70991500Y-74270649D01*
X70991500Y-80865500D01*
X70971498Y-80933621D01*
X70917842Y-80980114D01*
X70865500Y-80991500D01*
X26134500Y-80991500D01*
X26066379Y-80971498D01*
X26019886Y-80917842D01*
X26008500Y-80865500D01*
X26008500Y-78427804D01*
X28138390Y-78427804D01*
X28138543Y-78432192D01*
X28138543Y-78432198D01*
X28144216Y-78594635D01*
X28148437Y-78715517D01*
X28198429Y-78999032D01*
X28287391Y-79272831D01*
X28413593Y-79531583D01*
X28416048Y-79535222D01*
X28416051Y-79535228D01*
X28572119Y-79766608D01*
X28572124Y-79766615D01*
X28574579Y-79770254D01*
X28767214Y-79984197D01*
X28987749Y-80169248D01*
X29231893Y-80321806D01*
X29494892Y-80438901D01*
X29771629Y-80518254D01*
X29775976Y-80518865D01*
X29775981Y-80518866D01*
X29914173Y-80538287D01*
X30056716Y-80558320D01*
X31272550Y-80558320D01*
X31274736Y-80558167D01*
X31274740Y-80558167D01*
X31483462Y-80543572D01*
X31483467Y-80543571D01*
X31487847Y-80543265D01*
X31769445Y-80483409D01*
X31773574Y-80481906D01*
X31773578Y-80481905D01*
X32035827Y-80386455D01*
X32035831Y-80386453D01*
X32039972Y-80384946D01*
X32294163Y-80249790D01*
X32401810Y-80171580D01*
X32523507Y-80083162D01*
X32523510Y-80083160D01*
X32527070Y-80080573D01*
X32626870Y-79984197D01*
X32730997Y-79883643D01*
X32731000Y-79883639D01*
X32734159Y-79880589D01*
X32820363Y-79770254D01*
X32908693Y-79657196D01*
X32911401Y-79653730D01*
X33055346Y-79404411D01*
X33056996Y-79400327D01*
X33056999Y-79400321D01*
X33161542Y-79141566D01*
X33163191Y-79137485D01*
X33232837Y-78858148D01*
X33240357Y-78786606D01*
X33262471Y-78576205D01*
X33262471Y-78576202D01*
X33262930Y-78571836D01*
X33258054Y-78432198D01*
X33253037Y-78288520D01*
X33253036Y-78288514D01*
X33252883Y-78284123D01*
X33202891Y-78000608D01*
X33113929Y-77726809D01*
X33072809Y-77642500D01*
X58886526Y-77642500D01*
X58906391Y-77894903D01*
X58965495Y-78141091D01*
X58967388Y-78145662D01*
X58967389Y-78145664D01*
X59024741Y-78284123D01*
X59062384Y-78375002D01*
X59194672Y-78590876D01*
X59359102Y-78783398D01*
X59551624Y-78947828D01*
X59767498Y-79080116D01*
X59772068Y-79082009D01*
X59772072Y-79082011D01*
X59996836Y-79175111D01*
X60001409Y-79177005D01*
X60086032Y-79197321D01*
X60242784Y-79234954D01*
X60242790Y-79234955D01*
X60247597Y-79236109D01*
X60347416Y-79243965D01*
X60434345Y-79250807D01*
X60434352Y-79250807D01*
X60436801Y-79251000D01*
X62363199Y-79251000D01*
X62365648Y-79250807D01*
X62365655Y-79250807D01*
X62452584Y-79243965D01*
X62552403Y-79236109D01*
X62557210Y-79234955D01*
X62557216Y-79234954D01*
X62713968Y-79197321D01*
X62798591Y-79177005D01*
X62803164Y-79175111D01*
X63027928Y-79082011D01*
X63027932Y-79082009D01*
X63032502Y-79080116D01*
X63248376Y-78947828D01*
X63440898Y-78783398D01*
X63605328Y-78590876D01*
X63737616Y-78375002D01*
X63775260Y-78284123D01*
X63832611Y-78145664D01*
X63832612Y-78145662D01*
X63834505Y-78141091D01*
X63893609Y-77894903D01*
X63913474Y-77642500D01*
X63893609Y-77390097D01*
X63834505Y-77143909D01*
X63825645Y-77122519D01*
X63739511Y-76914572D01*
X63739509Y-76914568D01*
X63737616Y-76909998D01*
X63627151Y-76729736D01*
X63608613Y-76661202D01*
X63630069Y-76593526D01*
X63684708Y-76548193D01*
X63724698Y-76538289D01*
X63752403Y-76536109D01*
X63757210Y-76534955D01*
X63757216Y-76534954D01*
X63913968Y-76497321D01*
X63998591Y-76477005D01*
X64003164Y-76475111D01*
X64227928Y-76382011D01*
X64227932Y-76382009D01*
X64232502Y-76380116D01*
X64448376Y-76247828D01*
X64640898Y-76083398D01*
X64805328Y-75890876D01*
X64937616Y-75675002D01*
X65034505Y-75441091D01*
X65093609Y-75194903D01*
X65113474Y-74942500D01*
X65093609Y-74690097D01*
X65083462Y-74647828D01*
X65054821Y-74528532D01*
X65034505Y-74443909D01*
X64971117Y-74290876D01*
X64939511Y-74214572D01*
X64939509Y-74214568D01*
X64937616Y-74209998D01*
X64805328Y-73994124D01*
X64640898Y-73801602D01*
X64448376Y-73637172D01*
X64232502Y-73504884D01*
X64227932Y-73502991D01*
X64227928Y-73502989D01*
X64003164Y-73409889D01*
X64003162Y-73409888D01*
X63998591Y-73407995D01*
X63913968Y-73387679D01*
X63757216Y-73350046D01*
X63757210Y-73350045D01*
X63752403Y-73348891D01*
X63652584Y-73341035D01*
X63565655Y-73334193D01*
X63565648Y-73334193D01*
X63563199Y-73334000D01*
X61636801Y-73334000D01*
X61634352Y-73334193D01*
X61634345Y-73334193D01*
X61547416Y-73341035D01*
X61447597Y-73348891D01*
X61442790Y-73350045D01*
X61442784Y-73350046D01*
X61286032Y-73387679D01*
X61201409Y-73407995D01*
X61196838Y-73409888D01*
X61196836Y-73409889D01*
X60972072Y-73502989D01*
X60972068Y-73502991D01*
X60967498Y-73504884D01*
X60751624Y-73637172D01*
X60559102Y-73801602D01*
X60394672Y-73994124D01*
X60262384Y-74209998D01*
X60260491Y-74214568D01*
X60260489Y-74214572D01*
X60228883Y-74290876D01*
X60165495Y-74443909D01*
X60145179Y-74528532D01*
X60116539Y-74647828D01*
X60106391Y-74690097D01*
X60086526Y-74942500D01*
X60106391Y-75194903D01*
X60165495Y-75441091D01*
X60262384Y-75675002D01*
X60264970Y-75679222D01*
X60372849Y-75855264D01*
X60391387Y-75923798D01*
X60369931Y-75991474D01*
X60315292Y-76036807D01*
X60275302Y-76046711D01*
X60247597Y-76048891D01*
X60242790Y-76050045D01*
X60242784Y-76050046D01*
X60103864Y-76083398D01*
X60001409Y-76107995D01*
X59996838Y-76109888D01*
X59996836Y-76109889D01*
X59772072Y-76202989D01*
X59772068Y-76202991D01*
X59767498Y-76204884D01*
X59551624Y-76337172D01*
X59359102Y-76501602D01*
X59194672Y-76694124D01*
X59062384Y-76909998D01*
X59060491Y-76914568D01*
X59060489Y-76914572D01*
X58974355Y-77122519D01*
X58965495Y-77143909D01*
X58906391Y-77390097D01*
X58886526Y-77642500D01*
X33072809Y-77642500D01*
X32987727Y-77468057D01*
X32985272Y-77464418D01*
X32985269Y-77464412D01*
X32829201Y-77233032D01*
X32829196Y-77233025D01*
X32826741Y-77229386D01*
X32634106Y-77015443D01*
X32413571Y-76830392D01*
X32169427Y-76677834D01*
X31906428Y-76560739D01*
X31629691Y-76481386D01*
X31625344Y-76480775D01*
X31625339Y-76480774D01*
X31458223Y-76457288D01*
X31344604Y-76441320D01*
X30128770Y-76441320D01*
X30126584Y-76441473D01*
X30126580Y-76441473D01*
X29917858Y-76456068D01*
X29917853Y-76456069D01*
X29913473Y-76456375D01*
X29631875Y-76516231D01*
X29627746Y-76517734D01*
X29627742Y-76517735D01*
X29365493Y-76613185D01*
X29365489Y-76613187D01*
X29361348Y-76614694D01*
X29107157Y-76749850D01*
X29103598Y-76752436D01*
X29103596Y-76752437D01*
X28880437Y-76914572D01*
X28874250Y-76919067D01*
X28871086Y-76922123D01*
X28871083Y-76922125D01*
X28670323Y-77115997D01*
X28670320Y-77116001D01*
X28667161Y-77119051D01*
X28664455Y-77122515D01*
X28664451Y-77122519D01*
X28578109Y-77233032D01*
X28489919Y-77345910D01*
X28345974Y-77595229D01*
X28344324Y-77599313D01*
X28344321Y-77599319D01*
X28328867Y-77637570D01*
X28238129Y-77862155D01*
X28168483Y-78141492D01*
X28168024Y-78145862D01*
X28168023Y-78145866D01*
X28143940Y-78375002D01*
X28138390Y-78427804D01*
X26008500Y-78427804D01*
X26008500Y-71050000D01*
X36266987Y-71050000D01*
X36285610Y-71286631D01*
X36286765Y-71291440D01*
X36332460Y-71481771D01*
X36341022Y-71517435D01*
X36342912Y-71521998D01*
X36342914Y-71522004D01*
X36429961Y-71732156D01*
X36431856Y-71736730D01*
X36555878Y-71939115D01*
X36710033Y-72119607D01*
X36890525Y-72273762D01*
X37092910Y-72397784D01*
X37097480Y-72399677D01*
X37097484Y-72399679D01*
X37307636Y-72486726D01*
X37307642Y-72486728D01*
X37312205Y-72488618D01*
X37317005Y-72489770D01*
X37317010Y-72489772D01*
X37422425Y-72515080D01*
X37543009Y-72544030D01*
X37779640Y-72562653D01*
X38016271Y-72544030D01*
X38136855Y-72515080D01*
X38242270Y-72489772D01*
X38242275Y-72489770D01*
X38247075Y-72488618D01*
X38251638Y-72486728D01*
X38251644Y-72486726D01*
X38461796Y-72399679D01*
X38461800Y-72399677D01*
X38466370Y-72397784D01*
X38668755Y-72273762D01*
X38849247Y-72119607D01*
X39003402Y-71939115D01*
X39127424Y-71736730D01*
X39129319Y-71732156D01*
X39216366Y-71522004D01*
X39216368Y-71521998D01*
X39218258Y-71517435D01*
X39226821Y-71481771D01*
X39272515Y-71291440D01*
X39273670Y-71286631D01*
X39292293Y-71050000D01*
X39273670Y-70813369D01*
X39236192Y-70657265D01*
X39219412Y-70587370D01*
X39219410Y-70587365D01*
X39218258Y-70582565D01*
X39216368Y-70578002D01*
X39216366Y-70577996D01*
X39129319Y-70367844D01*
X39129317Y-70367840D01*
X39127424Y-70363270D01*
X39003402Y-70160885D01*
X38849247Y-69980393D01*
X38668755Y-69826238D01*
X38466370Y-69702216D01*
X38461800Y-69700323D01*
X38461796Y-69700321D01*
X38251644Y-69613274D01*
X38251638Y-69613272D01*
X38247075Y-69611382D01*
X38242275Y-69610230D01*
X38242270Y-69610228D01*
X38136855Y-69584920D01*
X38016271Y-69555970D01*
X37779640Y-69537347D01*
X37543009Y-69555970D01*
X37422425Y-69584920D01*
X37317010Y-69610228D01*
X37317005Y-69610230D01*
X37312205Y-69611382D01*
X37307642Y-69613272D01*
X37307636Y-69613274D01*
X37097484Y-69700321D01*
X37097480Y-69700323D01*
X37092910Y-69702216D01*
X36890525Y-69826238D01*
X36710033Y-69980393D01*
X36555878Y-70160885D01*
X36431856Y-70363270D01*
X36429963Y-70367840D01*
X36429961Y-70367844D01*
X36342914Y-70577996D01*
X36342912Y-70578002D01*
X36341022Y-70582565D01*
X36339870Y-70587365D01*
X36339868Y-70587370D01*
X36323088Y-70657265D01*
X36285610Y-70813369D01*
X36266987Y-71050000D01*
X26008500Y-71050000D01*
X26008500Y-69145000D01*
X31186987Y-69145000D01*
X31205610Y-69381631D01*
X31222176Y-69450631D01*
X31247373Y-69555582D01*
X31261022Y-69612435D01*
X31262912Y-69616998D01*
X31262914Y-69617004D01*
X31349581Y-69826238D01*
X31351856Y-69831730D01*
X31475878Y-70034115D01*
X31630033Y-70214607D01*
X31810525Y-70368762D01*
X32012910Y-70492784D01*
X32017480Y-70494677D01*
X32017484Y-70494679D01*
X32227636Y-70581726D01*
X32227642Y-70581728D01*
X32232205Y-70583618D01*
X32237005Y-70584770D01*
X32237010Y-70584772D01*
X32342425Y-70610080D01*
X32463009Y-70639030D01*
X32699640Y-70657653D01*
X32936271Y-70639030D01*
X33056855Y-70610080D01*
X33162270Y-70584772D01*
X33162275Y-70584770D01*
X33167075Y-70583618D01*
X33171638Y-70581728D01*
X33171644Y-70581726D01*
X33381796Y-70494679D01*
X33381800Y-70494677D01*
X33386370Y-70492784D01*
X33588755Y-70368762D01*
X33769247Y-70214607D01*
X33923402Y-70034115D01*
X34047424Y-69831730D01*
X34049699Y-69826238D01*
X34136366Y-69617004D01*
X34136368Y-69616998D01*
X34138258Y-69612435D01*
X34151908Y-69555582D01*
X34177104Y-69450631D01*
X34193670Y-69381631D01*
X34199646Y-69305699D01*
X56591500Y-69305699D01*
X56606391Y-69494903D01*
X56607545Y-69499710D01*
X56607546Y-69499716D01*
X56645179Y-69656468D01*
X56665495Y-69741091D01*
X56667388Y-69745662D01*
X56667389Y-69745664D01*
X56751408Y-69948503D01*
X56762384Y-69975002D01*
X56894672Y-70190876D01*
X57059102Y-70383398D01*
X57251624Y-70547828D01*
X57467498Y-70680116D01*
X57472068Y-70682009D01*
X57472072Y-70682011D01*
X57609823Y-70739069D01*
X57701409Y-70777005D01*
X57786032Y-70797321D01*
X57942784Y-70834954D01*
X57942790Y-70834955D01*
X57947597Y-70836109D01*
X58200000Y-70855974D01*
X58452403Y-70836109D01*
X58457210Y-70834955D01*
X58457216Y-70834954D01*
X58613968Y-70797321D01*
X58698591Y-70777005D01*
X58790177Y-70739069D01*
X58927928Y-70682011D01*
X58927932Y-70682009D01*
X58932502Y-70680116D01*
X59148376Y-70547828D01*
X59340898Y-70383398D01*
X59505328Y-70190876D01*
X59637616Y-69975002D01*
X59648593Y-69948503D01*
X59732611Y-69745664D01*
X59732612Y-69745662D01*
X59734505Y-69741091D01*
X59754821Y-69656468D01*
X59792454Y-69499716D01*
X59792455Y-69499710D01*
X59793609Y-69494903D01*
X59808500Y-69305699D01*
X59808500Y-68990634D01*
X62991500Y-68990634D01*
X62998255Y-69052816D01*
X63049385Y-69189205D01*
X63136739Y-69305761D01*
X63253295Y-69393115D01*
X63389684Y-69444245D01*
X63451866Y-69451000D01*
X67548134Y-69451000D01*
X67610316Y-69444245D01*
X67746705Y-69393115D01*
X67863261Y-69305761D01*
X67950615Y-69189205D01*
X68001745Y-69052816D01*
X68008500Y-68990634D01*
X68008500Y-66694366D01*
X68001745Y-66632184D01*
X67950615Y-66495795D01*
X67863261Y-66379239D01*
X67746705Y-66291885D01*
X67610316Y-66240755D01*
X67548134Y-66234000D01*
X63451866Y-66234000D01*
X63389684Y-66240755D01*
X63253295Y-66291885D01*
X63136739Y-66379239D01*
X63049385Y-66495795D01*
X62998255Y-66632184D01*
X62991500Y-66694366D01*
X62991500Y-68990634D01*
X59808500Y-68990634D01*
X59808500Y-67379301D01*
X59793609Y-67190097D01*
X59734505Y-66943909D01*
X59694474Y-66847265D01*
X59639511Y-66714572D01*
X59639509Y-66714568D01*
X59637616Y-66709998D01*
X59505328Y-66494124D01*
X59361040Y-66325185D01*
X59344106Y-66305358D01*
X59340898Y-66301602D01*
X59334076Y-66295775D01*
X59317315Y-66281460D01*
X59148376Y-66137172D01*
X58932502Y-66004884D01*
X58927932Y-66002991D01*
X58927928Y-66002989D01*
X58703164Y-65909889D01*
X58703162Y-65909888D01*
X58698591Y-65907995D01*
X58613968Y-65887679D01*
X58457216Y-65850046D01*
X58457210Y-65850045D01*
X58452403Y-65848891D01*
X58200000Y-65829026D01*
X57947597Y-65848891D01*
X57942790Y-65850045D01*
X57942784Y-65850046D01*
X57786032Y-65887679D01*
X57701409Y-65907995D01*
X57696838Y-65909888D01*
X57696836Y-65909889D01*
X57472072Y-66002989D01*
X57472068Y-66002991D01*
X57467498Y-66004884D01*
X57251624Y-66137172D01*
X57082685Y-66281460D01*
X57065925Y-66295775D01*
X57059102Y-66301602D01*
X57055894Y-66305358D01*
X57038960Y-66325185D01*
X56894672Y-66494124D01*
X56762384Y-66709998D01*
X56760491Y-66714568D01*
X56760489Y-66714572D01*
X56705526Y-66847265D01*
X56665495Y-66943909D01*
X56606391Y-67190097D01*
X56591500Y-67379301D01*
X56591500Y-69305699D01*
X34199646Y-69305699D01*
X34212293Y-69145000D01*
X34193670Y-68908369D01*
X34156192Y-68752265D01*
X34139412Y-68682370D01*
X34139410Y-68682365D01*
X34138258Y-68677565D01*
X34136368Y-68673002D01*
X34136366Y-68672996D01*
X34049319Y-68462844D01*
X34049317Y-68462840D01*
X34047424Y-68458270D01*
X33923402Y-68255885D01*
X33769247Y-68075393D01*
X33588755Y-67921238D01*
X33386370Y-67797216D01*
X33381800Y-67795323D01*
X33381796Y-67795321D01*
X33171644Y-67708274D01*
X33171638Y-67708272D01*
X33167075Y-67706382D01*
X33162275Y-67705230D01*
X33162270Y-67705228D01*
X33056855Y-67679920D01*
X32936271Y-67650970D01*
X32699640Y-67632347D01*
X32463009Y-67650970D01*
X32342425Y-67679920D01*
X32237010Y-67705228D01*
X32237005Y-67705230D01*
X32232205Y-67706382D01*
X32227642Y-67708272D01*
X32227636Y-67708274D01*
X32017484Y-67795321D01*
X32017480Y-67795323D01*
X32012910Y-67797216D01*
X31810525Y-67921238D01*
X31630033Y-68075393D01*
X31475878Y-68255885D01*
X31351856Y-68458270D01*
X31349963Y-68462840D01*
X31349961Y-68462844D01*
X31262914Y-68672996D01*
X31262912Y-68673002D01*
X31261022Y-68677565D01*
X31259870Y-68682365D01*
X31259868Y-68682370D01*
X31243088Y-68752265D01*
X31205610Y-68908369D01*
X31186987Y-69145000D01*
X26008500Y-69145000D01*
X26008500Y-67240000D01*
X36266987Y-67240000D01*
X36285610Y-67476631D01*
X36286765Y-67481440D01*
X36327373Y-67650582D01*
X36341022Y-67707435D01*
X36342912Y-67711998D01*
X36342914Y-67712004D01*
X36429581Y-67921238D01*
X36431856Y-67926730D01*
X36555878Y-68129115D01*
X36710033Y-68309607D01*
X36890525Y-68463762D01*
X37092910Y-68587784D01*
X37097480Y-68589677D01*
X37097484Y-68589679D01*
X37307636Y-68676726D01*
X37307642Y-68676728D01*
X37312205Y-68678618D01*
X37317005Y-68679770D01*
X37317010Y-68679772D01*
X37422425Y-68705080D01*
X37543009Y-68734030D01*
X37779640Y-68752653D01*
X38016271Y-68734030D01*
X38136855Y-68705080D01*
X38242270Y-68679772D01*
X38242275Y-68679770D01*
X38247075Y-68678618D01*
X38251638Y-68676728D01*
X38251644Y-68676726D01*
X38461796Y-68589679D01*
X38461800Y-68589677D01*
X38466370Y-68587784D01*
X38668755Y-68463762D01*
X38849247Y-68309607D01*
X39003402Y-68129115D01*
X39127424Y-67926730D01*
X39129699Y-67921238D01*
X39216366Y-67712004D01*
X39216368Y-67711998D01*
X39218258Y-67707435D01*
X39231908Y-67650582D01*
X39272515Y-67481440D01*
X39273670Y-67476631D01*
X39292293Y-67240000D01*
X39273670Y-67003369D01*
X39236192Y-66847265D01*
X39219412Y-66777370D01*
X39219410Y-66777365D01*
X39218258Y-66772565D01*
X39216368Y-66768002D01*
X39216366Y-66767996D01*
X39208912Y-66750000D01*
X44686502Y-66750000D01*
X44706457Y-66978087D01*
X44707881Y-66983400D01*
X44707881Y-66983402D01*
X44761976Y-67185284D01*
X44765716Y-67199243D01*
X44768039Y-67204224D01*
X44768039Y-67204225D01*
X44860151Y-67401762D01*
X44860154Y-67401767D01*
X44862477Y-67406749D01*
X44993802Y-67594300D01*
X45155700Y-67756198D01*
X45160208Y-67759355D01*
X45160211Y-67759357D01*
X45217973Y-67799802D01*
X45343251Y-67887523D01*
X45348233Y-67889846D01*
X45348238Y-67889849D01*
X45545775Y-67981961D01*
X45550757Y-67984284D01*
X45556065Y-67985706D01*
X45556067Y-67985707D01*
X45766598Y-68042119D01*
X45766600Y-68042119D01*
X45771913Y-68043543D01*
X46000000Y-68063498D01*
X46228087Y-68043543D01*
X46233400Y-68042119D01*
X46233402Y-68042119D01*
X46443933Y-67985707D01*
X46443935Y-67985706D01*
X46449243Y-67984284D01*
X46454225Y-67981961D01*
X46651762Y-67889849D01*
X46651767Y-67889846D01*
X46656749Y-67887523D01*
X46782027Y-67799802D01*
X46839789Y-67759357D01*
X46839792Y-67759355D01*
X46844300Y-67756198D01*
X47006198Y-67594300D01*
X47137523Y-67406749D01*
X47139846Y-67401767D01*
X47139849Y-67401762D01*
X47231961Y-67204225D01*
X47231961Y-67204224D01*
X47234284Y-67199243D01*
X47238025Y-67185284D01*
X47292119Y-66983402D01*
X47292119Y-66983400D01*
X47293543Y-66978087D01*
X47313498Y-66750000D01*
X49686502Y-66750000D01*
X49706457Y-66978087D01*
X49707881Y-66983400D01*
X49707881Y-66983402D01*
X49761976Y-67185284D01*
X49765716Y-67199243D01*
X49768039Y-67204224D01*
X49768039Y-67204225D01*
X49860151Y-67401762D01*
X49860154Y-67401767D01*
X49862477Y-67406749D01*
X49993802Y-67594300D01*
X50155700Y-67756198D01*
X50160208Y-67759355D01*
X50160211Y-67759357D01*
X50217973Y-67799802D01*
X50343251Y-67887523D01*
X50348233Y-67889846D01*
X50348238Y-67889849D01*
X50545775Y-67981961D01*
X50550757Y-67984284D01*
X50556065Y-67985706D01*
X50556067Y-67985707D01*
X50766598Y-68042119D01*
X50766600Y-68042119D01*
X50771913Y-68043543D01*
X51000000Y-68063498D01*
X51228087Y-68043543D01*
X51233400Y-68042119D01*
X51233402Y-68042119D01*
X51443933Y-67985707D01*
X51443935Y-67985706D01*
X51449243Y-67984284D01*
X51454225Y-67981961D01*
X51651762Y-67889849D01*
X51651767Y-67889846D01*
X51656749Y-67887523D01*
X51782027Y-67799802D01*
X51839789Y-67759357D01*
X51839792Y-67759355D01*
X51844300Y-67756198D01*
X52006198Y-67594300D01*
X52137523Y-67406749D01*
X52139846Y-67401767D01*
X52139849Y-67401762D01*
X52231961Y-67204225D01*
X52231961Y-67204224D01*
X52234284Y-67199243D01*
X52238025Y-67185284D01*
X52292119Y-66983402D01*
X52292119Y-66983400D01*
X52293543Y-66978087D01*
X52313498Y-66750000D01*
X52293543Y-66521913D01*
X52257237Y-66386419D01*
X52235707Y-66306067D01*
X52235706Y-66306065D01*
X52234284Y-66300757D01*
X52228677Y-66288733D01*
X52139849Y-66098238D01*
X52139846Y-66098233D01*
X52137523Y-66093251D01*
X52006198Y-65905700D01*
X51844300Y-65743802D01*
X51839792Y-65740645D01*
X51839789Y-65740643D01*
X51761611Y-65685902D01*
X51656749Y-65612477D01*
X51651767Y-65610154D01*
X51651762Y-65610151D01*
X51454225Y-65518039D01*
X51454224Y-65518039D01*
X51449243Y-65515716D01*
X51443935Y-65514294D01*
X51443933Y-65514293D01*
X51233402Y-65457881D01*
X51233400Y-65457881D01*
X51228087Y-65456457D01*
X51000000Y-65436502D01*
X50771913Y-65456457D01*
X50766600Y-65457881D01*
X50766598Y-65457881D01*
X50556067Y-65514293D01*
X50556065Y-65514294D01*
X50550757Y-65515716D01*
X50545776Y-65518039D01*
X50545775Y-65518039D01*
X50348238Y-65610151D01*
X50348233Y-65610154D01*
X50343251Y-65612477D01*
X50238389Y-65685902D01*
X50160211Y-65740643D01*
X50160208Y-65740645D01*
X50155700Y-65743802D01*
X49993802Y-65905700D01*
X49862477Y-66093251D01*
X49860154Y-66098233D01*
X49860151Y-66098238D01*
X49771323Y-66288733D01*
X49765716Y-66300757D01*
X49764294Y-66306065D01*
X49764293Y-66306067D01*
X49742763Y-66386419D01*
X49706457Y-66521913D01*
X49686502Y-66750000D01*
X47313498Y-66750000D01*
X47293543Y-66521913D01*
X47257237Y-66386419D01*
X47235707Y-66306067D01*
X47235706Y-66306065D01*
X47234284Y-66300757D01*
X47228677Y-66288733D01*
X47139849Y-66098238D01*
X47139846Y-66098233D01*
X47137523Y-66093251D01*
X47006198Y-65905700D01*
X46844300Y-65743802D01*
X46839792Y-65740645D01*
X46839789Y-65740643D01*
X46761611Y-65685902D01*
X46656749Y-65612477D01*
X46651767Y-65610154D01*
X46651762Y-65610151D01*
X46454225Y-65518039D01*
X46454224Y-65518039D01*
X46449243Y-65515716D01*
X46443935Y-65514294D01*
X46443933Y-65514293D01*
X46233402Y-65457881D01*
X46233400Y-65457881D01*
X46228087Y-65456457D01*
X46000000Y-65436502D01*
X45771913Y-65456457D01*
X45766600Y-65457881D01*
X45766598Y-65457881D01*
X45556067Y-65514293D01*
X45556065Y-65514294D01*
X45550757Y-65515716D01*
X45545776Y-65518039D01*
X45545775Y-65518039D01*
X45348238Y-65610151D01*
X45348233Y-65610154D01*
X45343251Y-65612477D01*
X45238389Y-65685902D01*
X45160211Y-65740643D01*
X45160208Y-65740645D01*
X45155700Y-65743802D01*
X44993802Y-65905700D01*
X44862477Y-66093251D01*
X44860154Y-66098233D01*
X44860151Y-66098238D01*
X44771323Y-66288733D01*
X44765716Y-66300757D01*
X44764294Y-66306065D01*
X44764293Y-66306067D01*
X44742763Y-66386419D01*
X44706457Y-66521913D01*
X44686502Y-66750000D01*
X39208912Y-66750000D01*
X39129319Y-66557844D01*
X39129317Y-66557840D01*
X39127424Y-66553270D01*
X39003402Y-66350885D01*
X38849247Y-66170393D01*
X38668755Y-66016238D01*
X38466370Y-65892216D01*
X38461800Y-65890323D01*
X38461796Y-65890321D01*
X38251644Y-65803274D01*
X38251638Y-65803272D01*
X38247075Y-65801382D01*
X38242275Y-65800230D01*
X38242270Y-65800228D01*
X38136855Y-65774920D01*
X38016271Y-65745970D01*
X37779640Y-65727347D01*
X37543009Y-65745970D01*
X37422425Y-65774920D01*
X37317010Y-65800228D01*
X37317005Y-65800230D01*
X37312205Y-65801382D01*
X37307642Y-65803272D01*
X37307636Y-65803274D01*
X37097484Y-65890321D01*
X37097480Y-65890323D01*
X37092910Y-65892216D01*
X36890525Y-66016238D01*
X36710033Y-66170393D01*
X36555878Y-66350885D01*
X36431856Y-66553270D01*
X36429963Y-66557840D01*
X36429961Y-66557844D01*
X36342914Y-66767996D01*
X36342912Y-66768002D01*
X36341022Y-66772565D01*
X36339870Y-66777365D01*
X36339868Y-66777370D01*
X36323088Y-66847265D01*
X36285610Y-67003369D01*
X36266987Y-67240000D01*
X26008500Y-67240000D01*
X26008500Y-65335000D01*
X31186987Y-65335000D01*
X31205610Y-65571631D01*
X31234560Y-65692215D01*
X31247373Y-65745582D01*
X31261022Y-65802435D01*
X31262912Y-65806998D01*
X31262914Y-65807004D01*
X31349581Y-66016238D01*
X31351856Y-66021730D01*
X31475878Y-66224115D01*
X31630033Y-66404607D01*
X31810525Y-66558762D01*
X32012910Y-66682784D01*
X32017480Y-66684677D01*
X32017484Y-66684679D01*
X32227636Y-66771726D01*
X32227642Y-66771728D01*
X32232205Y-66773618D01*
X32237005Y-66774770D01*
X32237010Y-66774772D01*
X32342425Y-66800080D01*
X32463009Y-66829030D01*
X32699640Y-66847653D01*
X32936271Y-66829030D01*
X33056855Y-66800080D01*
X33162270Y-66774772D01*
X33162275Y-66774770D01*
X33167075Y-66773618D01*
X33171638Y-66771728D01*
X33171644Y-66771726D01*
X33381796Y-66684679D01*
X33381800Y-66684677D01*
X33386370Y-66682784D01*
X33588755Y-66558762D01*
X33769247Y-66404607D01*
X33923402Y-66224115D01*
X34047424Y-66021730D01*
X34049699Y-66016238D01*
X34136366Y-65807004D01*
X34136368Y-65806998D01*
X34138258Y-65802435D01*
X34151908Y-65745582D01*
X34164720Y-65692215D01*
X34193670Y-65571631D01*
X34212293Y-65335000D01*
X34193670Y-65098369D01*
X34156072Y-64941763D01*
X34139412Y-64872370D01*
X34139410Y-64872365D01*
X34138258Y-64867565D01*
X34136368Y-64863002D01*
X34136366Y-64862996D01*
X34053235Y-64662299D01*
X36912171Y-64662299D01*
X36917898Y-64669949D01*
X37088918Y-64774750D01*
X37097712Y-64779231D01*
X37307787Y-64866247D01*
X37317172Y-64869296D01*
X37538274Y-64922379D01*
X37548021Y-64923922D01*
X37774710Y-64941763D01*
X37784570Y-64941763D01*
X38011259Y-64923922D01*
X38021006Y-64922379D01*
X38242108Y-64869296D01*
X38251493Y-64866247D01*
X38461568Y-64779231D01*
X38470362Y-64774750D01*
X38637716Y-64672196D01*
X38647176Y-64661740D01*
X38643392Y-64652962D01*
X37792452Y-63802022D01*
X37778508Y-63794408D01*
X37776675Y-63794539D01*
X37770060Y-63798790D01*
X36918931Y-64649919D01*
X36912171Y-64662299D01*
X34053235Y-64662299D01*
X34049319Y-64652844D01*
X34049317Y-64652840D01*
X34047424Y-64648270D01*
X33923402Y-64445885D01*
X33769247Y-64265393D01*
X33588755Y-64111238D01*
X33386370Y-63987216D01*
X33381800Y-63985323D01*
X33381796Y-63985321D01*
X33171644Y-63898274D01*
X33171638Y-63898272D01*
X33167075Y-63896382D01*
X33162275Y-63895230D01*
X33162270Y-63895228D01*
X33056855Y-63869920D01*
X32936271Y-63840970D01*
X32699640Y-63822347D01*
X32463009Y-63840970D01*
X32342425Y-63869920D01*
X32237010Y-63895228D01*
X32237005Y-63895230D01*
X32232205Y-63896382D01*
X32227642Y-63898272D01*
X32227636Y-63898274D01*
X32017484Y-63985321D01*
X32017480Y-63985323D01*
X32012910Y-63987216D01*
X31810525Y-64111238D01*
X31630033Y-64265393D01*
X31475878Y-64445885D01*
X31351856Y-64648270D01*
X31349963Y-64652840D01*
X31349961Y-64652844D01*
X31262914Y-64862996D01*
X31262912Y-64863002D01*
X31261022Y-64867565D01*
X31259870Y-64872365D01*
X31259868Y-64872370D01*
X31243208Y-64941763D01*
X31205610Y-65098369D01*
X31186987Y-65335000D01*
X26008500Y-65335000D01*
X26008500Y-63434930D01*
X36267877Y-63434930D01*
X36285718Y-63661619D01*
X36287261Y-63671366D01*
X36340344Y-63892468D01*
X36343393Y-63901853D01*
X36430409Y-64111928D01*
X36434890Y-64120722D01*
X36537444Y-64288076D01*
X36547900Y-64297536D01*
X36556678Y-64293752D01*
X37407618Y-63442812D01*
X37413996Y-63431132D01*
X38144048Y-63431132D01*
X38144179Y-63432965D01*
X38148430Y-63439580D01*
X38999559Y-64290709D01*
X39011939Y-64297469D01*
X39019589Y-64291742D01*
X39124390Y-64120722D01*
X39128871Y-64111928D01*
X39215887Y-63901853D01*
X39218936Y-63892468D01*
X39272019Y-63671366D01*
X39273562Y-63661619D01*
X39291403Y-63434930D01*
X39291403Y-63425070D01*
X39273562Y-63198381D01*
X39272019Y-63188634D01*
X39218936Y-62967532D01*
X39215887Y-62958147D01*
X39128871Y-62748072D01*
X39124390Y-62739278D01*
X39021836Y-62571924D01*
X39011380Y-62562464D01*
X39002602Y-62566248D01*
X38151662Y-63417188D01*
X38144048Y-63431132D01*
X37413996Y-63431132D01*
X37415232Y-63428868D01*
X37415101Y-63427035D01*
X37410850Y-63420420D01*
X36559721Y-62569291D01*
X36547341Y-62562531D01*
X36539691Y-62568258D01*
X36434890Y-62739278D01*
X36430409Y-62748072D01*
X36343393Y-62958147D01*
X36340344Y-62967532D01*
X36287261Y-63188634D01*
X36285718Y-63198381D01*
X36267877Y-63425070D01*
X36267877Y-63434930D01*
X26008500Y-63434930D01*
X26008500Y-61525000D01*
X31186987Y-61525000D01*
X31205610Y-61761631D01*
X31226826Y-61850000D01*
X31256262Y-61972607D01*
X31261022Y-61992435D01*
X31262912Y-61996998D01*
X31262914Y-61997004D01*
X31349961Y-62207156D01*
X31351856Y-62211730D01*
X31475878Y-62414115D01*
X31630033Y-62594607D01*
X31810525Y-62748762D01*
X32012910Y-62872784D01*
X32017480Y-62874677D01*
X32017484Y-62874679D01*
X32227636Y-62961726D01*
X32227642Y-62961728D01*
X32232205Y-62963618D01*
X32237005Y-62964770D01*
X32237010Y-62964772D01*
X32318625Y-62984366D01*
X32463009Y-63019030D01*
X32699640Y-63037653D01*
X32936271Y-63019030D01*
X33080655Y-62984366D01*
X33162270Y-62964772D01*
X33162275Y-62964770D01*
X33167075Y-62963618D01*
X33171638Y-62961728D01*
X33171644Y-62961726D01*
X33381796Y-62874679D01*
X33381800Y-62874677D01*
X33386370Y-62872784D01*
X33588755Y-62748762D01*
X33769247Y-62594607D01*
X33923402Y-62414115D01*
X34047424Y-62211730D01*
X34049319Y-62207156D01*
X34053004Y-62198260D01*
X36912104Y-62198260D01*
X36915888Y-62207038D01*
X37766828Y-63057978D01*
X37780772Y-63065592D01*
X37782605Y-63065461D01*
X37789220Y-63061210D01*
X38640349Y-62210081D01*
X38647109Y-62197701D01*
X38641382Y-62190051D01*
X38470362Y-62085250D01*
X38461568Y-62080769D01*
X38251493Y-61993753D01*
X38242108Y-61990704D01*
X38021006Y-61937621D01*
X38011259Y-61936078D01*
X37784570Y-61918237D01*
X37774710Y-61918237D01*
X37548021Y-61936078D01*
X37538274Y-61937621D01*
X37317172Y-61990704D01*
X37307787Y-61993753D01*
X37097712Y-62080769D01*
X37088918Y-62085250D01*
X36921564Y-62187804D01*
X36912104Y-62198260D01*
X34053004Y-62198260D01*
X34136366Y-61997004D01*
X34136368Y-61996998D01*
X34138258Y-61992435D01*
X34143019Y-61972607D01*
X34172454Y-61850000D01*
X42186502Y-61850000D01*
X42206457Y-62078087D01*
X42207881Y-62083400D01*
X42207881Y-62083402D01*
X42243398Y-62215950D01*
X42265716Y-62299243D01*
X42268039Y-62304224D01*
X42268039Y-62304225D01*
X42360151Y-62501762D01*
X42360154Y-62501767D01*
X42362477Y-62506749D01*
X42493802Y-62694300D01*
X42655700Y-62856198D01*
X42660208Y-62859355D01*
X42660211Y-62859357D01*
X42703758Y-62889849D01*
X42843251Y-62987523D01*
X42848233Y-62989846D01*
X42848238Y-62989849D01*
X43045775Y-63081961D01*
X43050757Y-63084284D01*
X43056065Y-63085706D01*
X43056067Y-63085707D01*
X43266598Y-63142119D01*
X43266600Y-63142119D01*
X43271913Y-63143543D01*
X43500000Y-63163498D01*
X43728087Y-63143543D01*
X43733400Y-63142119D01*
X43733402Y-63142119D01*
X43943933Y-63085707D01*
X43943935Y-63085706D01*
X43949243Y-63084284D01*
X43954225Y-63081961D01*
X44151762Y-62989849D01*
X44151767Y-62989846D01*
X44156749Y-62987523D01*
X44296242Y-62889849D01*
X44339789Y-62859357D01*
X44339792Y-62859355D01*
X44344300Y-62856198D01*
X44506198Y-62694300D01*
X44637523Y-62506749D01*
X44639846Y-62501767D01*
X44639849Y-62501762D01*
X44731961Y-62304225D01*
X44731961Y-62304224D01*
X44734284Y-62299243D01*
X44756603Y-62215950D01*
X44792119Y-62083402D01*
X44792119Y-62083400D01*
X44793543Y-62078087D01*
X44813498Y-61850000D01*
X52346502Y-61850000D01*
X52366457Y-62078087D01*
X52367881Y-62083400D01*
X52367881Y-62083402D01*
X52403398Y-62215950D01*
X52425716Y-62299243D01*
X52428039Y-62304224D01*
X52428039Y-62304225D01*
X52520151Y-62501762D01*
X52520154Y-62501767D01*
X52522477Y-62506749D01*
X52653802Y-62694300D01*
X52815700Y-62856198D01*
X52820208Y-62859355D01*
X52820211Y-62859357D01*
X52863758Y-62889849D01*
X53003251Y-62987523D01*
X53008233Y-62989846D01*
X53008238Y-62989849D01*
X53205775Y-63081961D01*
X53210757Y-63084284D01*
X53216065Y-63085706D01*
X53216067Y-63085707D01*
X53426598Y-63142119D01*
X53426600Y-63142119D01*
X53431913Y-63143543D01*
X53660000Y-63163498D01*
X53888087Y-63143543D01*
X53893400Y-63142119D01*
X53893402Y-63142119D01*
X54103933Y-63085707D01*
X54103935Y-63085706D01*
X54109243Y-63084284D01*
X54114225Y-63081961D01*
X54311762Y-62989849D01*
X54311767Y-62989846D01*
X54316749Y-62987523D01*
X54456242Y-62889849D01*
X54499789Y-62859357D01*
X54499792Y-62859355D01*
X54504300Y-62856198D01*
X54666198Y-62694300D01*
X54797523Y-62506749D01*
X54799846Y-62501767D01*
X54799849Y-62501762D01*
X54891961Y-62304225D01*
X54891961Y-62304224D01*
X54894284Y-62299243D01*
X54916603Y-62215950D01*
X54952119Y-62083402D01*
X54952119Y-62083400D01*
X54953543Y-62078087D01*
X54973498Y-61850000D01*
X54964749Y-61750000D01*
X56936502Y-61750000D01*
X56956457Y-61978087D01*
X56957881Y-61983400D01*
X56957881Y-61983402D01*
X56960302Y-61992435D01*
X57015716Y-62199243D01*
X57018039Y-62204224D01*
X57018039Y-62204225D01*
X57110151Y-62401762D01*
X57110154Y-62401767D01*
X57112477Y-62406749D01*
X57185902Y-62511611D01*
X57224160Y-62566248D01*
X57243802Y-62594300D01*
X57405700Y-62756198D01*
X57410208Y-62759355D01*
X57410211Y-62759357D01*
X57488389Y-62814098D01*
X57593251Y-62887523D01*
X57598233Y-62889846D01*
X57598238Y-62889849D01*
X57756438Y-62963618D01*
X57800757Y-62984284D01*
X57806065Y-62985706D01*
X57806067Y-62985707D01*
X58016598Y-63042119D01*
X58016600Y-63042119D01*
X58021913Y-63043543D01*
X58250000Y-63063498D01*
X58478087Y-63043543D01*
X58483400Y-63042119D01*
X58483402Y-63042119D01*
X58693933Y-62985707D01*
X58693935Y-62985706D01*
X58699243Y-62984284D01*
X58743562Y-62963618D01*
X58901762Y-62889849D01*
X58901767Y-62889846D01*
X58906749Y-62887523D01*
X59011611Y-62814098D01*
X59089789Y-62759357D01*
X59089792Y-62759355D01*
X59094300Y-62756198D01*
X59256198Y-62594300D01*
X59275841Y-62566248D01*
X59314098Y-62511611D01*
X59387523Y-62406749D01*
X59389846Y-62401767D01*
X59389849Y-62401762D01*
X59481961Y-62204225D01*
X59481961Y-62204224D01*
X59484284Y-62199243D01*
X59539699Y-61992435D01*
X59542119Y-61983402D01*
X59542119Y-61983400D01*
X59543543Y-61978087D01*
X59563498Y-61750000D01*
X64556502Y-61750000D01*
X64576457Y-61978087D01*
X64577881Y-61983400D01*
X64577881Y-61983402D01*
X64580302Y-61992435D01*
X64635716Y-62199243D01*
X64638039Y-62204224D01*
X64638039Y-62204225D01*
X64730151Y-62401762D01*
X64730154Y-62401767D01*
X64732477Y-62406749D01*
X64805902Y-62511611D01*
X64844160Y-62566248D01*
X64863802Y-62594300D01*
X65025700Y-62756198D01*
X65030208Y-62759355D01*
X65030211Y-62759357D01*
X65108389Y-62814098D01*
X65213251Y-62887523D01*
X65218233Y-62889846D01*
X65218238Y-62889849D01*
X65376438Y-62963618D01*
X65420757Y-62984284D01*
X65426065Y-62985706D01*
X65426067Y-62985707D01*
X65636598Y-63042119D01*
X65636600Y-63042119D01*
X65641913Y-63043543D01*
X65870000Y-63063498D01*
X66098087Y-63043543D01*
X66103400Y-63042119D01*
X66103402Y-63042119D01*
X66313933Y-62985707D01*
X66313935Y-62985706D01*
X66319243Y-62984284D01*
X66363562Y-62963618D01*
X66521762Y-62889849D01*
X66521767Y-62889846D01*
X66526749Y-62887523D01*
X66631611Y-62814098D01*
X66709789Y-62759357D01*
X66709792Y-62759355D01*
X66714300Y-62756198D01*
X66876198Y-62594300D01*
X66895841Y-62566248D01*
X66934098Y-62511611D01*
X67007523Y-62406749D01*
X67009846Y-62401767D01*
X67009849Y-62401762D01*
X67101961Y-62204225D01*
X67101961Y-62204224D01*
X67104284Y-62199243D01*
X67159699Y-61992435D01*
X67162119Y-61983402D01*
X67162119Y-61983400D01*
X67163543Y-61978087D01*
X67183498Y-61750000D01*
X67163543Y-61521913D01*
X67104284Y-61300757D01*
X67100807Y-61293300D01*
X67009849Y-61098238D01*
X67009846Y-61098233D01*
X67007523Y-61093251D01*
X66876198Y-60905700D01*
X66714300Y-60743802D01*
X66709792Y-60740645D01*
X66709789Y-60740643D01*
X66560179Y-60635885D01*
X66526749Y-60612477D01*
X66521767Y-60610154D01*
X66521762Y-60610151D01*
X66324225Y-60518039D01*
X66324224Y-60518039D01*
X66319243Y-60515716D01*
X66313935Y-60514294D01*
X66313933Y-60514293D01*
X66103402Y-60457881D01*
X66103400Y-60457881D01*
X66098087Y-60456457D01*
X65870000Y-60436502D01*
X65641913Y-60456457D01*
X65636600Y-60457881D01*
X65636598Y-60457881D01*
X65426067Y-60514293D01*
X65426065Y-60514294D01*
X65420757Y-60515716D01*
X65415776Y-60518039D01*
X65415775Y-60518039D01*
X65218238Y-60610151D01*
X65218233Y-60610154D01*
X65213251Y-60612477D01*
X65179821Y-60635885D01*
X65030211Y-60740643D01*
X65030208Y-60740645D01*
X65025700Y-60743802D01*
X64863802Y-60905700D01*
X64732477Y-61093251D01*
X64730154Y-61098233D01*
X64730151Y-61098238D01*
X64639193Y-61293300D01*
X64635716Y-61300757D01*
X64576457Y-61521913D01*
X64556502Y-61750000D01*
X59563498Y-61750000D01*
X59543543Y-61521913D01*
X59484284Y-61300757D01*
X59480807Y-61293300D01*
X59389849Y-61098238D01*
X59389846Y-61098233D01*
X59387523Y-61093251D01*
X59256198Y-60905700D01*
X59094300Y-60743802D01*
X59089792Y-60740645D01*
X59089789Y-60740643D01*
X58940179Y-60635885D01*
X58906749Y-60612477D01*
X58901767Y-60610154D01*
X58901762Y-60610151D01*
X58704225Y-60518039D01*
X58704224Y-60518039D01*
X58699243Y-60515716D01*
X58693935Y-60514294D01*
X58693933Y-60514293D01*
X58483402Y-60457881D01*
X58483400Y-60457881D01*
X58478087Y-60456457D01*
X58250000Y-60436502D01*
X58021913Y-60456457D01*
X58016600Y-60457881D01*
X58016598Y-60457881D01*
X57806067Y-60514293D01*
X57806065Y-60514294D01*
X57800757Y-60515716D01*
X57795776Y-60518039D01*
X57795775Y-60518039D01*
X57598238Y-60610151D01*
X57598233Y-60610154D01*
X57593251Y-60612477D01*
X57559821Y-60635885D01*
X57410211Y-60740643D01*
X57410208Y-60740645D01*
X57405700Y-60743802D01*
X57243802Y-60905700D01*
X57112477Y-61093251D01*
X57110154Y-61098233D01*
X57110151Y-61098238D01*
X57019193Y-61293300D01*
X57015716Y-61300757D01*
X56956457Y-61521913D01*
X56936502Y-61750000D01*
X54964749Y-61750000D01*
X54953543Y-61621913D01*
X54894284Y-61400757D01*
X54847654Y-61300757D01*
X54799849Y-61198238D01*
X54799846Y-61198233D01*
X54797523Y-61193251D01*
X54703252Y-61058618D01*
X54669357Y-61010211D01*
X54669355Y-61010208D01*
X54666198Y-61005700D01*
X54504300Y-60843802D01*
X54499792Y-60840645D01*
X54499789Y-60840643D01*
X54367051Y-60747699D01*
X54316749Y-60712477D01*
X54311767Y-60710154D01*
X54311762Y-60710151D01*
X54114225Y-60618039D01*
X54114224Y-60618039D01*
X54109243Y-60615716D01*
X54103935Y-60614294D01*
X54103933Y-60614293D01*
X53893402Y-60557881D01*
X53893400Y-60557881D01*
X53888087Y-60556457D01*
X53660000Y-60536502D01*
X53431913Y-60556457D01*
X53426600Y-60557881D01*
X53426598Y-60557881D01*
X53216067Y-60614293D01*
X53216065Y-60614294D01*
X53210757Y-60615716D01*
X53205776Y-60618039D01*
X53205775Y-60618039D01*
X53008238Y-60710151D01*
X53008233Y-60710154D01*
X53003251Y-60712477D01*
X52952949Y-60747699D01*
X52820211Y-60840643D01*
X52820208Y-60840645D01*
X52815700Y-60843802D01*
X52653802Y-61005700D01*
X52650645Y-61010208D01*
X52650643Y-61010211D01*
X52616748Y-61058618D01*
X52522477Y-61193251D01*
X52520154Y-61198233D01*
X52520151Y-61198238D01*
X52472346Y-61300757D01*
X52425716Y-61400757D01*
X52366457Y-61621913D01*
X52346502Y-61850000D01*
X44813498Y-61850000D01*
X44793543Y-61621913D01*
X44734284Y-61400757D01*
X44687654Y-61300757D01*
X44639849Y-61198238D01*
X44639846Y-61198233D01*
X44637523Y-61193251D01*
X44543252Y-61058618D01*
X44509357Y-61010211D01*
X44509355Y-61010208D01*
X44506198Y-61005700D01*
X44344300Y-60843802D01*
X44339792Y-60840645D01*
X44339789Y-60840643D01*
X44207051Y-60747699D01*
X44156749Y-60712477D01*
X44151767Y-60710154D01*
X44151762Y-60710151D01*
X43954225Y-60618039D01*
X43954224Y-60618039D01*
X43949243Y-60615716D01*
X43943935Y-60614294D01*
X43943933Y-60614293D01*
X43733402Y-60557881D01*
X43733400Y-60557881D01*
X43728087Y-60556457D01*
X43500000Y-60536502D01*
X43271913Y-60556457D01*
X43266600Y-60557881D01*
X43266598Y-60557881D01*
X43056067Y-60614293D01*
X43056065Y-60614294D01*
X43050757Y-60615716D01*
X43045776Y-60618039D01*
X43045775Y-60618039D01*
X42848238Y-60710151D01*
X42848233Y-60710154D01*
X42843251Y-60712477D01*
X42792949Y-60747699D01*
X42660211Y-60840643D01*
X42660208Y-60840645D01*
X42655700Y-60843802D01*
X42493802Y-61005700D01*
X42490645Y-61010208D01*
X42490643Y-61010211D01*
X42456748Y-61058618D01*
X42362477Y-61193251D01*
X42360154Y-61198233D01*
X42360151Y-61198238D01*
X42312346Y-61300757D01*
X42265716Y-61400757D01*
X42206457Y-61621913D01*
X42186502Y-61850000D01*
X34172454Y-61850000D01*
X34193670Y-61761631D01*
X34212293Y-61525000D01*
X34193670Y-61288369D01*
X34156192Y-61132265D01*
X34139412Y-61062370D01*
X34139410Y-61062365D01*
X34138258Y-61057565D01*
X34136368Y-61053002D01*
X34136366Y-61052996D01*
X34049319Y-60842844D01*
X34049317Y-60842840D01*
X34047424Y-60838270D01*
X33923402Y-60635885D01*
X33769247Y-60455393D01*
X33588755Y-60301238D01*
X33386370Y-60177216D01*
X33381800Y-60175323D01*
X33381796Y-60175321D01*
X33171644Y-60088274D01*
X33171638Y-60088272D01*
X33167075Y-60086382D01*
X33162275Y-60085230D01*
X33162270Y-60085228D01*
X33056855Y-60059920D01*
X32936271Y-60030970D01*
X32699640Y-60012347D01*
X32463009Y-60030970D01*
X32342425Y-60059920D01*
X32237010Y-60085228D01*
X32237005Y-60085230D01*
X32232205Y-60086382D01*
X32227642Y-60088272D01*
X32227636Y-60088274D01*
X32017484Y-60175321D01*
X32017480Y-60175323D01*
X32012910Y-60177216D01*
X31810525Y-60301238D01*
X31630033Y-60455393D01*
X31475878Y-60635885D01*
X31351856Y-60838270D01*
X31349963Y-60842840D01*
X31349961Y-60842844D01*
X31262914Y-61052996D01*
X31262912Y-61053002D01*
X31261022Y-61057565D01*
X31259870Y-61062365D01*
X31259868Y-61062370D01*
X31243088Y-61132265D01*
X31205610Y-61288369D01*
X31186987Y-61525000D01*
X26008500Y-61525000D01*
X26008500Y-59620000D01*
X36266987Y-59620000D01*
X36285610Y-59856631D01*
X36286765Y-59861440D01*
X36339085Y-60079366D01*
X36341022Y-60087435D01*
X36342912Y-60091998D01*
X36342914Y-60092004D01*
X36429581Y-60301238D01*
X36431856Y-60306730D01*
X36555878Y-60509115D01*
X36710033Y-60689607D01*
X36890525Y-60843762D01*
X37092910Y-60967784D01*
X37097480Y-60969677D01*
X37097484Y-60969679D01*
X37307636Y-61056726D01*
X37307642Y-61056728D01*
X37312205Y-61058618D01*
X37317005Y-61059770D01*
X37317010Y-61059772D01*
X37422425Y-61085080D01*
X37543009Y-61114030D01*
X37779640Y-61132653D01*
X38016271Y-61114030D01*
X38136855Y-61085080D01*
X38242270Y-61059772D01*
X38242275Y-61059770D01*
X38247075Y-61058618D01*
X38251638Y-61056728D01*
X38251644Y-61056726D01*
X38461796Y-60969679D01*
X38461800Y-60969677D01*
X38466370Y-60967784D01*
X38668755Y-60843762D01*
X38849247Y-60689607D01*
X39003402Y-60509115D01*
X39123174Y-60313665D01*
X39175822Y-60266034D01*
X39230607Y-60253500D01*
X39801233Y-60253500D01*
X39812416Y-60254027D01*
X39819909Y-60255702D01*
X39827835Y-60255453D01*
X39827836Y-60255453D01*
X39887986Y-60253562D01*
X39891945Y-60253500D01*
X39919856Y-60253500D01*
X39923791Y-60253003D01*
X39923856Y-60252995D01*
X39935693Y-60252062D01*
X39967951Y-60251048D01*
X39971970Y-60250922D01*
X39979889Y-60250673D01*
X39999343Y-60245021D01*
X40018700Y-60241013D01*
X40030930Y-60239468D01*
X40030931Y-60239468D01*
X40038797Y-60238474D01*
X40046168Y-60235555D01*
X40046170Y-60235555D01*
X40079912Y-60222196D01*
X40091142Y-60218351D01*
X40125983Y-60208229D01*
X40125984Y-60208229D01*
X40133593Y-60206018D01*
X40140412Y-60201985D01*
X40140417Y-60201983D01*
X40151028Y-60195707D01*
X40168776Y-60187012D01*
X40187617Y-60179552D01*
X40223387Y-60153564D01*
X40233307Y-60147048D01*
X40264535Y-60128580D01*
X40264538Y-60128578D01*
X40271362Y-60124542D01*
X40285683Y-60110221D01*
X40300717Y-60097380D01*
X40317107Y-60085472D01*
X40345298Y-60051395D01*
X40353288Y-60042616D01*
X41392247Y-59003657D01*
X41400537Y-58996113D01*
X41407018Y-58992000D01*
X41453659Y-58942332D01*
X41456413Y-58939491D01*
X41476134Y-58919770D01*
X41478612Y-58916575D01*
X41486318Y-58907553D01*
X41511158Y-58881101D01*
X41516586Y-58875321D01*
X41526346Y-58857568D01*
X41537199Y-58841045D01*
X41544753Y-58831306D01*
X41549613Y-58825041D01*
X41567176Y-58784457D01*
X41572383Y-58773827D01*
X41593695Y-58735060D01*
X41595666Y-58727383D01*
X41595668Y-58727378D01*
X41598732Y-58715442D01*
X41605138Y-58696730D01*
X41610033Y-58685419D01*
X41613181Y-58678145D01*
X41614421Y-58670317D01*
X41614423Y-58670310D01*
X41620099Y-58634476D01*
X41622505Y-58622856D01*
X41631528Y-58587711D01*
X41631528Y-58587710D01*
X41633500Y-58580030D01*
X41633500Y-58559776D01*
X41635051Y-58540065D01*
X41636980Y-58527886D01*
X41638220Y-58520057D01*
X41634059Y-58476038D01*
X41633500Y-58464181D01*
X41633500Y-54460987D01*
X58498390Y-54460987D01*
X58507217Y-54472605D01*
X58729950Y-54634430D01*
X58736630Y-54638670D01*
X59006241Y-54786890D01*
X59013376Y-54790247D01*
X59299439Y-54903508D01*
X59306965Y-54905953D01*
X59604948Y-54982462D01*
X59612719Y-54983945D01*
X59917947Y-55022503D01*
X59925838Y-55023000D01*
X60233500Y-55023000D01*
X60241391Y-55022503D01*
X60546619Y-54983945D01*
X60554390Y-54982462D01*
X60852373Y-54905953D01*
X60859899Y-54903508D01*
X61145962Y-54790247D01*
X61153097Y-54786890D01*
X61422708Y-54638670D01*
X61429388Y-54634430D01*
X61652492Y-54472336D01*
X61660915Y-54461413D01*
X61654011Y-54448552D01*
X60092481Y-52887022D01*
X60078537Y-52879408D01*
X60076704Y-52879539D01*
X60070089Y-52883790D01*
X58505003Y-54448876D01*
X58498390Y-54460987D01*
X41633500Y-54460987D01*
X41633500Y-53314594D01*
X41653502Y-53246473D01*
X41670405Y-53225499D01*
X42763201Y-52132703D01*
X46390743Y-52132703D01*
X46391302Y-52136947D01*
X46391302Y-52136951D01*
X46392521Y-52146210D01*
X46428268Y-52417734D01*
X46429401Y-52421874D01*
X46429401Y-52421876D01*
X46441865Y-52467435D01*
X46504129Y-52695036D01*
X46505813Y-52698984D01*
X46612942Y-52950142D01*
X46616923Y-52959476D01*
X46680587Y-53065851D01*
X46727193Y-53143723D01*
X46764561Y-53206161D01*
X46944313Y-53430528D01*
X47152851Y-53628423D01*
X47386317Y-53796186D01*
X47390112Y-53798195D01*
X47390113Y-53798196D01*
X47411869Y-53809715D01*
X47640392Y-53930712D01*
X47910373Y-54029511D01*
X48191264Y-54090755D01*
X48219841Y-54093004D01*
X48414282Y-54108307D01*
X48414291Y-54108307D01*
X48416739Y-54108500D01*
X48572271Y-54108500D01*
X48574407Y-54108354D01*
X48574418Y-54108354D01*
X48782548Y-54094165D01*
X48782554Y-54094164D01*
X48786825Y-54093873D01*
X48791020Y-54093004D01*
X48791022Y-54093004D01*
X48927583Y-54064724D01*
X49068342Y-54035574D01*
X49339343Y-53939607D01*
X49594812Y-53807750D01*
X49598313Y-53805289D01*
X49598317Y-53805287D01*
X49793131Y-53668369D01*
X49830023Y-53642441D01*
X49970109Y-53512265D01*
X50037479Y-53449661D01*
X50037481Y-53449658D01*
X50040622Y-53446740D01*
X50222713Y-53224268D01*
X50372927Y-52979142D01*
X50488483Y-52715898D01*
X50514468Y-52624679D01*
X50544583Y-52518958D01*
X57566959Y-52518958D01*
X57586276Y-52825994D01*
X57587269Y-52833855D01*
X57644915Y-53136046D01*
X57646886Y-53143723D01*
X57741953Y-53436309D01*
X57744868Y-53443672D01*
X57875858Y-53722041D01*
X57879670Y-53728974D01*
X58044520Y-53988736D01*
X58049164Y-53995129D01*
X58124166Y-54085790D01*
X58136683Y-54094245D01*
X58147421Y-54088038D01*
X59707647Y-52527812D01*
X59714025Y-52516132D01*
X60444077Y-52516132D01*
X60444208Y-52517965D01*
X60448459Y-52524580D01*
X62010814Y-54086935D01*
X62024076Y-54094177D01*
X62034181Y-54086988D01*
X62110174Y-53995129D01*
X62114818Y-53988736D01*
X62279668Y-53728974D01*
X62283480Y-53722041D01*
X62414470Y-53443672D01*
X62417385Y-53436309D01*
X62512452Y-53143723D01*
X62514423Y-53136046D01*
X62572069Y-52833855D01*
X62573062Y-52825994D01*
X62592379Y-52518958D01*
X62592379Y-52511042D01*
X62573062Y-52204006D01*
X62572069Y-52196145D01*
X62514423Y-51893954D01*
X62512452Y-51886277D01*
X62417385Y-51593691D01*
X62414470Y-51586328D01*
X62283480Y-51307959D01*
X62279668Y-51301026D01*
X62114818Y-51041264D01*
X62110174Y-51034871D01*
X62035172Y-50944210D01*
X62022655Y-50935755D01*
X62011917Y-50941962D01*
X60451691Y-52502188D01*
X60444077Y-52516132D01*
X59714025Y-52516132D01*
X59715261Y-52513868D01*
X59715130Y-52512035D01*
X59710879Y-52505420D01*
X58148524Y-50943065D01*
X58135262Y-50935823D01*
X58125157Y-50943012D01*
X58049164Y-51034871D01*
X58044520Y-51041264D01*
X57879670Y-51301026D01*
X57875858Y-51307959D01*
X57744868Y-51586328D01*
X57741953Y-51593691D01*
X57646886Y-51886277D01*
X57644915Y-51893954D01*
X57587269Y-52196145D01*
X57586276Y-52204006D01*
X57566959Y-52511042D01*
X57566959Y-52518958D01*
X50544583Y-52518958D01*
X50566068Y-52443534D01*
X50567244Y-52439406D01*
X50607751Y-52154784D01*
X50607845Y-52136951D01*
X50609235Y-51871583D01*
X50609235Y-51871576D01*
X50609257Y-51867297D01*
X50571732Y-51582266D01*
X50560299Y-51540472D01*
X50540900Y-51469564D01*
X50495871Y-51304964D01*
X50413089Y-51110885D01*
X50384763Y-51044476D01*
X50384761Y-51044472D01*
X50383077Y-51040524D01*
X50235439Y-50793839D01*
X50055687Y-50569472D01*
X50054754Y-50568587D01*
X58498423Y-50568587D01*
X58505327Y-50581448D01*
X60066857Y-52142978D01*
X60080801Y-52150592D01*
X60082634Y-52150461D01*
X60089249Y-52146210D01*
X61654335Y-50581124D01*
X61660948Y-50569013D01*
X61652121Y-50557395D01*
X61429388Y-50395570D01*
X61422708Y-50391330D01*
X61153097Y-50243110D01*
X61145962Y-50239753D01*
X60859899Y-50126492D01*
X60852373Y-50124047D01*
X60554390Y-50047538D01*
X60546619Y-50046055D01*
X60241391Y-50007497D01*
X60233500Y-50007000D01*
X59925838Y-50007000D01*
X59917947Y-50007497D01*
X59612719Y-50046055D01*
X59604948Y-50047538D01*
X59306965Y-50124047D01*
X59299439Y-50126492D01*
X59013376Y-50239753D01*
X59006241Y-50243110D01*
X58736630Y-50391330D01*
X58729950Y-50395570D01*
X58506846Y-50557664D01*
X58498423Y-50568587D01*
X50054754Y-50568587D01*
X49932289Y-50452372D01*
X49850258Y-50374527D01*
X49850255Y-50374525D01*
X49847149Y-50371577D01*
X49613683Y-50203814D01*
X49605366Y-50199410D01*
X49521416Y-50154961D01*
X49359608Y-50069288D01*
X49089627Y-49970489D01*
X48808736Y-49909245D01*
X48777685Y-49906801D01*
X48585718Y-49891693D01*
X48585709Y-49891693D01*
X48583261Y-49891500D01*
X48427729Y-49891500D01*
X48425593Y-49891646D01*
X48425582Y-49891646D01*
X48217452Y-49905835D01*
X48217446Y-49905836D01*
X48213175Y-49906127D01*
X48208980Y-49906996D01*
X48208978Y-49906996D01*
X48174597Y-49914116D01*
X47931658Y-49964426D01*
X47660657Y-50060393D01*
X47405188Y-50192250D01*
X47401687Y-50194711D01*
X47401683Y-50194713D01*
X47300447Y-50265863D01*
X47169977Y-50357559D01*
X47154892Y-50371577D01*
X46988650Y-50526059D01*
X46959378Y-50553260D01*
X46777287Y-50775732D01*
X46627073Y-51020858D01*
X46511517Y-51284102D01*
X46432756Y-51560594D01*
X46392249Y-51845216D01*
X46392227Y-51849505D01*
X46392226Y-51849512D01*
X46391464Y-51995070D01*
X46390743Y-52132703D01*
X42763201Y-52132703D01*
X47225499Y-47670405D01*
X47287811Y-47636379D01*
X47314594Y-47633500D01*
X51774693Y-47633500D01*
X51842814Y-47653502D01*
X51889307Y-47707158D01*
X51899411Y-47777432D01*
X51868329Y-47843810D01*
X51765379Y-47958148D01*
X51760960Y-47963056D01*
X51665473Y-48128444D01*
X51606458Y-48310072D01*
X51586496Y-48500000D01*
X51587186Y-48506565D01*
X51589879Y-48532183D01*
X51606458Y-48689928D01*
X51665473Y-48871556D01*
X51760960Y-49036944D01*
X51765378Y-49041851D01*
X51765379Y-49041852D01*
X51849909Y-49135732D01*
X51888747Y-49178866D01*
X52043248Y-49291118D01*
X52049276Y-49293802D01*
X52049278Y-49293803D01*
X52210531Y-49365597D01*
X52217712Y-49368794D01*
X52311113Y-49388647D01*
X52398056Y-49407128D01*
X52398061Y-49407128D01*
X52404513Y-49408500D01*
X52595487Y-49408500D01*
X52601939Y-49407128D01*
X52601944Y-49407128D01*
X52688887Y-49388647D01*
X52782288Y-49368794D01*
X52789469Y-49365597D01*
X52950722Y-49293803D01*
X52950724Y-49293802D01*
X52956752Y-49291118D01*
X53079239Y-49202126D01*
X53089671Y-49194546D01*
X53111253Y-49178866D01*
X53115668Y-49173963D01*
X53120580Y-49169540D01*
X53121705Y-49170789D01*
X53175014Y-49137949D01*
X53208200Y-49133500D01*
X64428207Y-49133500D01*
X64451816Y-49135732D01*
X64452119Y-49135790D01*
X64452123Y-49135790D01*
X64459906Y-49137275D01*
X64515951Y-49133749D01*
X64523862Y-49133500D01*
X64539856Y-49133500D01*
X64555730Y-49131494D01*
X64563590Y-49130752D01*
X64591049Y-49129024D01*
X64611737Y-49127723D01*
X64611738Y-49127723D01*
X64619650Y-49127225D01*
X64627191Y-49124775D01*
X64627487Y-49124679D01*
X64650631Y-49119506D01*
X64650935Y-49119468D01*
X64650940Y-49119467D01*
X64658797Y-49118474D01*
X64666162Y-49115558D01*
X64666166Y-49115557D01*
X64711011Y-49097801D01*
X64718430Y-49095129D01*
X64771875Y-49077764D01*
X64778572Y-49073514D01*
X64778831Y-49073350D01*
X64799958Y-49062585D01*
X64800246Y-49062471D01*
X64800251Y-49062468D01*
X64807617Y-49059552D01*
X64814025Y-49054896D01*
X64814031Y-49054893D01*
X64853052Y-49026542D01*
X64859589Y-49022099D01*
X64907018Y-48992000D01*
X64912659Y-48985993D01*
X64930446Y-48970312D01*
X64930691Y-48970134D01*
X64930693Y-48970132D01*
X64937107Y-48965472D01*
X64966137Y-48930382D01*
X64972903Y-48922204D01*
X64978134Y-48916270D01*
X65011158Y-48881102D01*
X65011160Y-48881099D01*
X65016586Y-48875321D01*
X65020558Y-48868097D01*
X65033881Y-48848494D01*
X65034080Y-48848254D01*
X65034084Y-48848247D01*
X65039133Y-48842144D01*
X65063047Y-48791324D01*
X65066629Y-48784292D01*
X65093695Y-48735060D01*
X65095665Y-48727385D01*
X65095668Y-48727379D01*
X65095744Y-48727081D01*
X65103776Y-48704772D01*
X65103906Y-48704497D01*
X65103909Y-48704489D01*
X65107283Y-48697318D01*
X65117806Y-48642151D01*
X65119532Y-48634429D01*
X65131529Y-48587707D01*
X65131529Y-48587706D01*
X65133500Y-48580030D01*
X65133500Y-48571793D01*
X65135732Y-48548184D01*
X65135790Y-48547881D01*
X65135790Y-48547877D01*
X65137275Y-48540094D01*
X65133749Y-48484049D01*
X65133500Y-48476138D01*
X65133500Y-44529099D01*
X65134027Y-44517916D01*
X65135702Y-44510423D01*
X65133562Y-44442332D01*
X65133500Y-44438375D01*
X65133500Y-44410475D01*
X65132996Y-44406484D01*
X65132063Y-44394642D01*
X65130989Y-44360448D01*
X65130674Y-44350442D01*
X65125021Y-44330983D01*
X65121012Y-44311624D01*
X65120846Y-44310314D01*
X65118474Y-44291534D01*
X65115558Y-44284168D01*
X65115556Y-44284162D01*
X65102200Y-44250429D01*
X65098355Y-44239199D01*
X65088230Y-44204348D01*
X65088230Y-44204347D01*
X65086019Y-44196738D01*
X65075705Y-44179297D01*
X65067008Y-44161544D01*
X65062472Y-44150089D01*
X65059552Y-44142714D01*
X65033563Y-44106943D01*
X65027047Y-44097023D01*
X65008578Y-44065794D01*
X65004542Y-44058969D01*
X64990221Y-44044648D01*
X64977380Y-44029614D01*
X64970131Y-44019637D01*
X64965472Y-44013224D01*
X64931395Y-43985033D01*
X64922616Y-43977043D01*
X63928821Y-42983248D01*
X63894795Y-42920936D01*
X63896210Y-42861541D01*
X63911787Y-42803409D01*
X63911789Y-42803398D01*
X63913212Y-42798087D01*
X63933167Y-42570000D01*
X63913212Y-42341913D01*
X63893721Y-42269171D01*
X63855376Y-42126067D01*
X63855375Y-42126065D01*
X63853953Y-42120757D01*
X63851630Y-42115775D01*
X63759518Y-41918238D01*
X63759515Y-41918233D01*
X63757192Y-41913251D01*
X63679111Y-41801740D01*
X63629026Y-41730211D01*
X63629024Y-41730208D01*
X63625867Y-41725700D01*
X63463969Y-41563802D01*
X63459461Y-41560645D01*
X63459458Y-41560643D01*
X63413143Y-41528213D01*
X63368815Y-41472756D01*
X63361506Y-41402136D01*
X63393537Y-41338776D01*
X63413143Y-41321787D01*
X63459458Y-41289357D01*
X63459461Y-41289355D01*
X63463969Y-41286198D01*
X63625867Y-41124300D01*
X63757192Y-40936749D01*
X63759515Y-40931767D01*
X63759518Y-40931762D01*
X63851630Y-40734225D01*
X63851630Y-40734224D01*
X63853953Y-40729243D01*
X63877192Y-40642517D01*
X63911788Y-40513402D01*
X63911788Y-40513400D01*
X63913212Y-40508087D01*
X63933167Y-40280000D01*
X63913212Y-40051913D01*
X63902447Y-40011739D01*
X63855376Y-39836067D01*
X63855375Y-39836065D01*
X63853953Y-39830757D01*
X63797313Y-39709291D01*
X63759518Y-39628238D01*
X63759515Y-39628233D01*
X63757192Y-39623251D01*
X63625867Y-39435700D01*
X63463969Y-39273802D01*
X63459461Y-39270645D01*
X63459458Y-39270643D01*
X63413143Y-39238213D01*
X63368815Y-39182756D01*
X63361506Y-39112136D01*
X63393537Y-39048776D01*
X63413143Y-39031787D01*
X63459458Y-38999357D01*
X63459461Y-38999355D01*
X63463969Y-38996198D01*
X63625867Y-38834300D01*
X63757192Y-38646749D01*
X63759515Y-38641767D01*
X63759518Y-38641762D01*
X63851630Y-38444225D01*
X63851630Y-38444224D01*
X63853953Y-38439243D01*
X63858136Y-38423634D01*
X63911788Y-38223402D01*
X63911788Y-38223400D01*
X63913212Y-38218087D01*
X63933167Y-37990000D01*
X63913212Y-37761913D01*
X63861088Y-37567384D01*
X63855376Y-37546067D01*
X63855375Y-37546065D01*
X63853953Y-37540757D01*
X63840833Y-37512620D01*
X63759518Y-37338238D01*
X63759515Y-37338233D01*
X63757192Y-37333251D01*
X63644767Y-37172692D01*
X63629026Y-37150211D01*
X63629024Y-37150208D01*
X63625867Y-37145700D01*
X63463969Y-36983802D01*
X63459461Y-36980645D01*
X63459458Y-36980643D01*
X63413143Y-36948213D01*
X63368815Y-36892756D01*
X63361506Y-36822136D01*
X63393537Y-36758776D01*
X63413143Y-36741787D01*
X63459458Y-36709357D01*
X63459461Y-36709355D01*
X63463969Y-36706198D01*
X63625867Y-36544300D01*
X63637071Y-36528300D01*
X63747630Y-36370405D01*
X63757192Y-36356749D01*
X63759515Y-36351767D01*
X63759518Y-36351762D01*
X63851630Y-36154225D01*
X63851630Y-36154224D01*
X63853953Y-36149243D01*
X63872839Y-36078762D01*
X63911788Y-35933402D01*
X63911788Y-35933400D01*
X63913212Y-35928087D01*
X63933167Y-35700000D01*
X63913212Y-35471913D01*
X63897216Y-35412216D01*
X63855376Y-35256067D01*
X63855375Y-35256065D01*
X63853953Y-35250757D01*
X63840833Y-35222620D01*
X63759518Y-35048238D01*
X63759515Y-35048233D01*
X63757192Y-35043251D01*
X63625867Y-34855700D01*
X63463969Y-34693802D01*
X63459461Y-34690645D01*
X63459458Y-34690643D01*
X63349372Y-34613560D01*
X63276418Y-34562477D01*
X63271436Y-34560154D01*
X63271431Y-34560151D01*
X63073894Y-34468039D01*
X63073893Y-34468039D01*
X63068912Y-34465716D01*
X63063604Y-34464294D01*
X63063602Y-34464293D01*
X62853071Y-34407881D01*
X62853069Y-34407881D01*
X62847756Y-34406457D01*
X62619669Y-34386502D01*
X62391582Y-34406457D01*
X62386269Y-34407881D01*
X62386267Y-34407881D01*
X62175736Y-34464293D01*
X62175734Y-34464294D01*
X62170426Y-34465716D01*
X62165445Y-34468039D01*
X62165444Y-34468039D01*
X62116783Y-34490730D01*
X62046591Y-34501391D01*
X61981778Y-34472411D01*
X61942922Y-34412991D01*
X61938012Y-34387516D01*
X61933197Y-34332480D01*
X61931294Y-34321688D01*
X61874905Y-34111239D01*
X61871159Y-34100947D01*
X61779083Y-33903489D01*
X61773600Y-33893994D01*
X61737160Y-33841952D01*
X61726681Y-33833576D01*
X61713235Y-33840644D01*
X60728764Y-34825115D01*
X60666452Y-34859141D01*
X60595637Y-34854076D01*
X60550574Y-34825115D01*
X59565382Y-33839923D01*
X59553607Y-33833493D01*
X59541592Y-33842789D01*
X59505738Y-33893994D01*
X59500255Y-33903489D01*
X59408179Y-34100947D01*
X59404433Y-34111239D01*
X59354361Y-34298111D01*
X59317409Y-34358734D01*
X59253549Y-34389755D01*
X59232654Y-34391500D01*
X57811535Y-34391500D01*
X57749353Y-34398255D01*
X57612964Y-34449385D01*
X57496408Y-34536739D01*
X57409054Y-34653295D01*
X57357924Y-34789684D01*
X57351169Y-34851866D01*
X57351169Y-34940500D01*
X57331167Y-35008621D01*
X57277511Y-35055114D01*
X57225169Y-35066500D01*
X46538408Y-35066500D01*
X46527225Y-35065973D01*
X46519732Y-35064298D01*
X46511806Y-35064547D01*
X46511805Y-35064547D01*
X46451642Y-35066438D01*
X46447684Y-35066500D01*
X46419784Y-35066500D01*
X46415794Y-35067004D01*
X46403960Y-35067936D01*
X46359751Y-35069326D01*
X46352137Y-35071538D01*
X46352132Y-35071539D01*
X46340299Y-35074977D01*
X46320936Y-35078988D01*
X46300843Y-35081526D01*
X46293476Y-35084443D01*
X46293471Y-35084444D01*
X46259732Y-35097802D01*
X46248505Y-35101646D01*
X46206047Y-35113982D01*
X46199221Y-35118019D01*
X46188612Y-35124293D01*
X46170864Y-35132988D01*
X46152023Y-35140448D01*
X46145607Y-35145110D01*
X46145606Y-35145110D01*
X46116253Y-35166436D01*
X46106333Y-35172952D01*
X46075105Y-35191420D01*
X46075102Y-35191422D01*
X46068278Y-35195458D01*
X46053957Y-35209779D01*
X46038924Y-35222619D01*
X46022533Y-35234528D01*
X45996843Y-35265582D01*
X45994342Y-35268605D01*
X45986352Y-35277384D01*
X44129320Y-37134415D01*
X44067008Y-37168441D01*
X44040225Y-37171320D01*
X43984333Y-37171320D01*
X43977881Y-37172692D01*
X43977876Y-37172692D01*
X43890933Y-37191173D01*
X43797532Y-37211026D01*
X43791502Y-37213711D01*
X43791501Y-37213711D01*
X43629098Y-37286017D01*
X43629096Y-37286018D01*
X43623068Y-37288702D01*
X43468567Y-37400954D01*
X43464146Y-37405864D01*
X43464145Y-37405865D01*
X43357301Y-37524528D01*
X43340780Y-37542876D01*
X43245293Y-37708264D01*
X43186278Y-37889892D01*
X43185588Y-37896453D01*
X43185588Y-37896455D01*
X43168913Y-38055113D01*
X43141900Y-38120770D01*
X43132698Y-38131038D01*
X38357676Y-42906059D01*
X38295364Y-42940085D01*
X38239167Y-42939483D01*
X38021083Y-42887125D01*
X38021080Y-42887124D01*
X38016271Y-42885970D01*
X37779640Y-42867347D01*
X37543009Y-42885970D01*
X37437075Y-42911403D01*
X37317010Y-42940228D01*
X37317005Y-42940230D01*
X37312205Y-42941382D01*
X37307642Y-42943272D01*
X37307636Y-42943274D01*
X37097484Y-43030321D01*
X37097480Y-43030323D01*
X37092910Y-43032216D01*
X36890525Y-43156238D01*
X36710033Y-43310393D01*
X36555878Y-43490885D01*
X36431856Y-43693270D01*
X36429963Y-43697840D01*
X36429961Y-43697844D01*
X36342914Y-43907996D01*
X36342912Y-43908002D01*
X36341022Y-43912565D01*
X36339870Y-43917365D01*
X36339868Y-43917370D01*
X36316261Y-44015700D01*
X36285610Y-44143369D01*
X36266987Y-44380000D01*
X36285610Y-44616631D01*
X36310665Y-44720989D01*
X36339230Y-44839970D01*
X36341022Y-44847435D01*
X36342912Y-44851998D01*
X36342914Y-44852004D01*
X36429581Y-45061238D01*
X36431856Y-45066730D01*
X36555878Y-45269115D01*
X36710033Y-45449607D01*
X36890525Y-45603762D01*
X37092910Y-45727784D01*
X37097480Y-45729677D01*
X37097484Y-45729679D01*
X37307636Y-45816726D01*
X37307642Y-45816728D01*
X37312205Y-45818618D01*
X37317005Y-45819770D01*
X37317010Y-45819772D01*
X37422425Y-45845080D01*
X37543009Y-45874030D01*
X37779640Y-45892653D01*
X38016271Y-45874030D01*
X38136855Y-45845080D01*
X38242270Y-45819772D01*
X38242275Y-45819770D01*
X38247075Y-45818618D01*
X38251638Y-45816728D01*
X38251644Y-45816726D01*
X38461796Y-45729679D01*
X38461800Y-45729677D01*
X38466370Y-45727784D01*
X38668755Y-45603762D01*
X38849247Y-45449607D01*
X39003402Y-45269115D01*
X39127424Y-45066730D01*
X39128594Y-45063904D01*
X39176981Y-45012672D01*
X39245896Y-44995606D01*
X39313098Y-45018507D01*
X39357250Y-45074104D01*
X39366500Y-45121490D01*
X39366500Y-47449618D01*
X39346498Y-47517739D01*
X39292842Y-47564232D01*
X39222568Y-47574336D01*
X39157988Y-47544842D01*
X39128232Y-47506818D01*
X39124393Y-47499282D01*
X39021836Y-47331924D01*
X39011380Y-47322464D01*
X39002602Y-47326248D01*
X38151662Y-48177188D01*
X38144048Y-48191132D01*
X38144179Y-48192965D01*
X38148430Y-48199580D01*
X38999559Y-49050709D01*
X39011939Y-49057469D01*
X39019589Y-49051742D01*
X39124393Y-48880718D01*
X39128232Y-48873182D01*
X39176979Y-48821566D01*
X39245893Y-48804497D01*
X39313095Y-48827397D01*
X39357249Y-48882993D01*
X39366500Y-48930382D01*
X39366500Y-49465045D01*
X39346498Y-49533166D01*
X39329595Y-49554140D01*
X38357676Y-50526059D01*
X38295364Y-50560085D01*
X38239167Y-50559483D01*
X38021083Y-50507125D01*
X38021080Y-50507124D01*
X38016271Y-50505970D01*
X37779640Y-50487347D01*
X37543009Y-50505970D01*
X37459334Y-50526059D01*
X37317010Y-50560228D01*
X37317005Y-50560230D01*
X37312205Y-50561382D01*
X37307642Y-50563272D01*
X37307636Y-50563274D01*
X37097484Y-50650321D01*
X37097480Y-50650323D01*
X37092910Y-50652216D01*
X36890525Y-50776238D01*
X36710033Y-50930393D01*
X36555878Y-51110885D01*
X36431856Y-51313270D01*
X36429963Y-51317840D01*
X36429961Y-51317844D01*
X36342914Y-51527996D01*
X36342912Y-51528002D01*
X36341022Y-51532565D01*
X36339870Y-51537365D01*
X36339868Y-51537370D01*
X36326347Y-51593691D01*
X36285610Y-51763369D01*
X36266987Y-52000000D01*
X36285610Y-52236631D01*
X36286765Y-52241440D01*
X36335284Y-52443534D01*
X36341022Y-52467435D01*
X36342912Y-52471998D01*
X36342914Y-52472004D01*
X36429581Y-52681238D01*
X36431856Y-52686730D01*
X36555878Y-52889115D01*
X36710033Y-53069607D01*
X36890525Y-53223762D01*
X37092910Y-53347784D01*
X37097480Y-53349677D01*
X37097484Y-53349679D01*
X37307636Y-53436726D01*
X37307642Y-53436728D01*
X37312205Y-53438618D01*
X37317005Y-53439770D01*
X37317010Y-53439772D01*
X37422425Y-53465080D01*
X37543009Y-53494030D01*
X37779640Y-53512653D01*
X38016271Y-53494030D01*
X38136855Y-53465080D01*
X38242270Y-53439772D01*
X38242275Y-53439770D01*
X38247075Y-53438618D01*
X38251638Y-53436728D01*
X38251644Y-53436726D01*
X38461796Y-53349679D01*
X38461800Y-53349677D01*
X38466370Y-53347784D01*
X38668755Y-53223762D01*
X38849247Y-53069607D01*
X39003402Y-52889115D01*
X39127424Y-52686730D01*
X39129699Y-52681238D01*
X39216366Y-52472004D01*
X39216368Y-52471998D01*
X39218258Y-52467435D01*
X39223997Y-52443534D01*
X39272515Y-52241440D01*
X39273670Y-52236631D01*
X39292293Y-52000000D01*
X39273670Y-51763369D01*
X39272515Y-51758557D01*
X39220157Y-51540472D01*
X39223704Y-51469564D01*
X39253581Y-51421963D01*
X40392247Y-50283297D01*
X40400537Y-50275753D01*
X40407018Y-50271640D01*
X40453659Y-50221972D01*
X40456413Y-50219131D01*
X40476134Y-50199410D01*
X40478612Y-50196215D01*
X40486318Y-50187193D01*
X40511158Y-50160741D01*
X40516586Y-50154961D01*
X40526346Y-50137208D01*
X40537199Y-50120685D01*
X40544753Y-50110946D01*
X40549613Y-50104681D01*
X40567176Y-50064097D01*
X40572383Y-50053467D01*
X40593695Y-50014700D01*
X40595666Y-50007023D01*
X40595668Y-50007018D01*
X40598732Y-49995082D01*
X40605138Y-49976370D01*
X40610033Y-49965059D01*
X40613181Y-49957785D01*
X40614421Y-49949957D01*
X40614423Y-49949950D01*
X40620099Y-49914116D01*
X40622505Y-49902496D01*
X40631528Y-49867351D01*
X40631528Y-49867350D01*
X40633500Y-49859670D01*
X40633500Y-49839416D01*
X40635051Y-49819705D01*
X40636980Y-49807526D01*
X40638220Y-49799697D01*
X40634059Y-49755678D01*
X40633500Y-49743821D01*
X40633500Y-45314594D01*
X40653502Y-45246473D01*
X40670405Y-45225499D01*
X44412430Y-41483475D01*
X44474742Y-41449449D01*
X44545558Y-41454514D01*
X44602393Y-41497061D01*
X44624442Y-41544869D01*
X44644222Y-41632639D01*
X44682010Y-41725700D01*
X44716220Y-41809949D01*
X44728266Y-41839616D01*
X44765685Y-41900678D01*
X44842291Y-42025688D01*
X44844987Y-42030088D01*
X44991250Y-42198938D01*
X45067846Y-42262529D01*
X45157063Y-42336598D01*
X45163126Y-42341632D01*
X45172985Y-42347393D01*
X45236445Y-42384476D01*
X45285169Y-42436114D01*
X45298240Y-42505897D01*
X45271509Y-42571669D01*
X45231055Y-42605027D01*
X45218607Y-42611507D01*
X45214474Y-42614610D01*
X45214471Y-42614612D01*
X45044100Y-42742530D01*
X45039965Y-42745635D01*
X45036393Y-42749373D01*
X44905858Y-42885970D01*
X44885629Y-42907138D01*
X44882720Y-42911403D01*
X44882714Y-42911411D01*
X44862269Y-42941382D01*
X44759743Y-43091680D01*
X44665688Y-43294305D01*
X44605989Y-43509570D01*
X44582251Y-43731695D01*
X44582548Y-43736848D01*
X44582548Y-43736851D01*
X44592416Y-43907996D01*
X44595110Y-43954715D01*
X44596247Y-43959761D01*
X44596248Y-43959767D01*
X44628453Y-44102668D01*
X44623917Y-44173520D01*
X44594631Y-44219464D01*
X44564500Y-44249595D01*
X44502188Y-44283621D01*
X44475405Y-44286500D01*
X42321793Y-44286500D01*
X42298184Y-44284268D01*
X42297881Y-44284210D01*
X42297877Y-44284210D01*
X42290094Y-44282725D01*
X42234049Y-44286251D01*
X42226138Y-44286500D01*
X42210144Y-44286500D01*
X42194270Y-44288506D01*
X42186410Y-44289248D01*
X42158951Y-44290976D01*
X42138263Y-44292277D01*
X42138262Y-44292277D01*
X42130350Y-44292775D01*
X42122809Y-44295225D01*
X42122513Y-44295321D01*
X42099369Y-44300494D01*
X42099065Y-44300532D01*
X42099060Y-44300533D01*
X42091203Y-44301526D01*
X42083838Y-44304442D01*
X42083834Y-44304443D01*
X42038989Y-44322199D01*
X42031570Y-44324871D01*
X41978125Y-44342236D01*
X41971429Y-44346486D01*
X41971428Y-44346486D01*
X41971169Y-44346650D01*
X41950042Y-44357415D01*
X41949754Y-44357529D01*
X41949749Y-44357532D01*
X41942383Y-44360448D01*
X41935975Y-44365104D01*
X41935969Y-44365107D01*
X41896948Y-44393458D01*
X41890411Y-44397901D01*
X41842982Y-44428000D01*
X41837556Y-44433778D01*
X41837555Y-44433779D01*
X41837341Y-44434007D01*
X41819554Y-44449688D01*
X41819309Y-44449866D01*
X41819307Y-44449868D01*
X41812893Y-44454528D01*
X41807839Y-44460637D01*
X41807838Y-44460638D01*
X41777097Y-44497796D01*
X41771866Y-44503730D01*
X41738842Y-44538898D01*
X41738840Y-44538901D01*
X41733414Y-44544679D01*
X41729445Y-44551899D01*
X41716119Y-44571506D01*
X41715920Y-44571746D01*
X41715916Y-44571753D01*
X41710867Y-44577856D01*
X41704000Y-44592450D01*
X41686953Y-44628676D01*
X41683371Y-44635708D01*
X41656305Y-44684940D01*
X41654335Y-44692615D01*
X41654332Y-44692621D01*
X41654256Y-44692919D01*
X41646224Y-44715228D01*
X41646094Y-44715503D01*
X41646091Y-44715511D01*
X41642717Y-44722682D01*
X41634656Y-44764940D01*
X41632195Y-44777843D01*
X41630471Y-44785558D01*
X41616500Y-44839970D01*
X41616500Y-44848207D01*
X41614268Y-44871816D01*
X41612725Y-44879906D01*
X41613223Y-44887817D01*
X41616251Y-44935951D01*
X41616500Y-44943862D01*
X41616500Y-49297476D01*
X41596498Y-49365597D01*
X41584142Y-49381779D01*
X41510960Y-49463056D01*
X41415473Y-49628444D01*
X41356458Y-49810072D01*
X41355768Y-49816633D01*
X41355768Y-49816635D01*
X41350438Y-49867351D01*
X41336496Y-50000000D01*
X41337186Y-50006565D01*
X41352053Y-50148012D01*
X41356458Y-50189928D01*
X41415473Y-50371556D01*
X41418776Y-50377278D01*
X41418777Y-50377279D01*
X41452686Y-50436010D01*
X41510960Y-50536944D01*
X41515378Y-50541851D01*
X41515379Y-50541852D01*
X41552816Y-50583430D01*
X41638747Y-50678866D01*
X41737843Y-50750864D01*
X41780327Y-50781730D01*
X41793248Y-50791118D01*
X41799276Y-50793802D01*
X41799278Y-50793803D01*
X41961685Y-50866111D01*
X41961688Y-50866112D01*
X41967712Y-50868794D01*
X41974162Y-50870165D01*
X41974679Y-50870333D01*
X42033284Y-50910408D01*
X42060919Y-50975805D01*
X42048811Y-51045762D01*
X42024835Y-51079260D01*
X40607747Y-52496348D01*
X40599461Y-52503888D01*
X40592982Y-52508000D01*
X40587557Y-52513777D01*
X40546357Y-52557651D01*
X40543602Y-52560493D01*
X40523865Y-52580230D01*
X40521385Y-52583427D01*
X40513682Y-52592447D01*
X40483414Y-52624679D01*
X40479595Y-52631625D01*
X40479593Y-52631628D01*
X40473652Y-52642434D01*
X40462801Y-52658953D01*
X40450386Y-52674959D01*
X40447241Y-52682228D01*
X40447238Y-52682232D01*
X40432826Y-52715537D01*
X40427609Y-52726187D01*
X40406305Y-52764940D01*
X40404334Y-52772615D01*
X40404334Y-52772616D01*
X40401267Y-52784562D01*
X40394863Y-52803266D01*
X40386819Y-52821855D01*
X40385580Y-52829678D01*
X40385577Y-52829688D01*
X40379901Y-52865524D01*
X40377495Y-52877144D01*
X40374959Y-52887022D01*
X40366500Y-52919970D01*
X40366500Y-52940224D01*
X40364949Y-52959934D01*
X40361780Y-52979943D01*
X40362526Y-52987835D01*
X40365941Y-53023961D01*
X40366500Y-53035819D01*
X40366500Y-58185405D01*
X40346498Y-58253526D01*
X40329595Y-58274500D01*
X39654500Y-58949595D01*
X39592188Y-58983621D01*
X39565405Y-58986500D01*
X39230607Y-58986500D01*
X39162486Y-58966498D01*
X39123174Y-58926335D01*
X39114320Y-58911886D01*
X39003402Y-58730885D01*
X38849247Y-58550393D01*
X38837155Y-58540065D01*
X38675185Y-58401730D01*
X38668755Y-58396238D01*
X38466370Y-58272216D01*
X38461800Y-58270323D01*
X38461796Y-58270321D01*
X38251644Y-58183274D01*
X38251638Y-58183272D01*
X38247075Y-58181382D01*
X38242275Y-58180230D01*
X38242270Y-58180228D01*
X38136855Y-58154920D01*
X38016271Y-58125970D01*
X37779640Y-58107347D01*
X37543009Y-58125970D01*
X37422425Y-58154920D01*
X37317010Y-58180228D01*
X37317005Y-58180230D01*
X37312205Y-58181382D01*
X37307642Y-58183272D01*
X37307636Y-58183274D01*
X37097484Y-58270321D01*
X37097480Y-58270323D01*
X37092910Y-58272216D01*
X36890525Y-58396238D01*
X36884095Y-58401730D01*
X36722126Y-58540065D01*
X36710033Y-58550393D01*
X36555878Y-58730885D01*
X36431856Y-58933270D01*
X36429963Y-58937840D01*
X36429961Y-58937844D01*
X36342914Y-59147996D01*
X36342912Y-59148002D01*
X36341022Y-59152565D01*
X36339870Y-59157365D01*
X36339868Y-59157370D01*
X36323088Y-59227265D01*
X36285610Y-59383369D01*
X36266987Y-59620000D01*
X26008500Y-59620000D01*
X26008500Y-57715000D01*
X31186987Y-57715000D01*
X31205610Y-57951631D01*
X31206765Y-57956440D01*
X31247373Y-58125582D01*
X31261022Y-58182435D01*
X31262912Y-58186998D01*
X31262914Y-58187004D01*
X31349581Y-58396238D01*
X31351856Y-58401730D01*
X31475878Y-58604115D01*
X31630033Y-58784607D01*
X31810525Y-58938762D01*
X32012910Y-59062784D01*
X32017480Y-59064677D01*
X32017484Y-59064679D01*
X32227636Y-59151726D01*
X32227642Y-59151728D01*
X32232205Y-59153618D01*
X32237005Y-59154770D01*
X32237010Y-59154772D01*
X32342425Y-59180080D01*
X32463009Y-59209030D01*
X32699640Y-59227653D01*
X32936271Y-59209030D01*
X33056855Y-59180080D01*
X33162270Y-59154772D01*
X33162275Y-59154770D01*
X33167075Y-59153618D01*
X33171638Y-59151728D01*
X33171644Y-59151726D01*
X33381796Y-59064679D01*
X33381800Y-59064677D01*
X33386370Y-59062784D01*
X33588755Y-58938762D01*
X33769247Y-58784607D01*
X33923402Y-58604115D01*
X34047424Y-58401730D01*
X34049699Y-58396238D01*
X34136366Y-58187004D01*
X34136368Y-58186998D01*
X34138258Y-58182435D01*
X34151908Y-58125582D01*
X34192515Y-57956440D01*
X34193670Y-57951631D01*
X34212293Y-57715000D01*
X34193670Y-57478369D01*
X34156072Y-57321763D01*
X34139412Y-57252370D01*
X34139410Y-57252365D01*
X34138258Y-57247565D01*
X34136368Y-57243002D01*
X34136366Y-57242996D01*
X34053235Y-57042299D01*
X36912171Y-57042299D01*
X36917898Y-57049949D01*
X37088918Y-57154750D01*
X37097712Y-57159231D01*
X37307787Y-57246247D01*
X37317172Y-57249296D01*
X37538274Y-57302379D01*
X37548021Y-57303922D01*
X37774710Y-57321763D01*
X37784570Y-57321763D01*
X38011259Y-57303922D01*
X38021006Y-57302379D01*
X38242108Y-57249296D01*
X38251493Y-57246247D01*
X38461568Y-57159231D01*
X38470362Y-57154750D01*
X38637716Y-57052196D01*
X38647176Y-57041740D01*
X38643392Y-57032962D01*
X37792452Y-56182022D01*
X37778508Y-56174408D01*
X37776675Y-56174539D01*
X37770060Y-56178790D01*
X36918931Y-57029919D01*
X36912171Y-57042299D01*
X34053235Y-57042299D01*
X34049319Y-57032844D01*
X34049317Y-57032840D01*
X34047424Y-57028270D01*
X33923402Y-56825885D01*
X33769247Y-56645393D01*
X33588755Y-56491238D01*
X33386370Y-56367216D01*
X33381800Y-56365323D01*
X33381796Y-56365321D01*
X33171644Y-56278274D01*
X33171638Y-56278272D01*
X33167075Y-56276382D01*
X33162275Y-56275230D01*
X33162270Y-56275228D01*
X33056855Y-56249920D01*
X32936271Y-56220970D01*
X32699640Y-56202347D01*
X32463009Y-56220970D01*
X32342425Y-56249920D01*
X32237010Y-56275228D01*
X32237005Y-56275230D01*
X32232205Y-56276382D01*
X32227642Y-56278272D01*
X32227636Y-56278274D01*
X32017484Y-56365321D01*
X32017480Y-56365323D01*
X32012910Y-56367216D01*
X31810525Y-56491238D01*
X31630033Y-56645393D01*
X31475878Y-56825885D01*
X31351856Y-57028270D01*
X31349963Y-57032840D01*
X31349961Y-57032844D01*
X31262914Y-57242996D01*
X31262912Y-57243002D01*
X31261022Y-57247565D01*
X31259870Y-57252365D01*
X31259868Y-57252370D01*
X31243208Y-57321763D01*
X31205610Y-57478369D01*
X31186987Y-57715000D01*
X26008500Y-57715000D01*
X26008500Y-55814930D01*
X36267877Y-55814930D01*
X36285718Y-56041619D01*
X36287261Y-56051366D01*
X36340344Y-56272468D01*
X36343393Y-56281853D01*
X36430409Y-56491928D01*
X36434890Y-56500722D01*
X36537444Y-56668076D01*
X36547900Y-56677536D01*
X36556678Y-56673752D01*
X37407618Y-55822812D01*
X37413996Y-55811132D01*
X38144048Y-55811132D01*
X38144179Y-55812965D01*
X38148430Y-55819580D01*
X38999559Y-56670709D01*
X39011939Y-56677469D01*
X39019589Y-56671742D01*
X39124390Y-56500722D01*
X39128871Y-56491928D01*
X39215887Y-56281853D01*
X39218936Y-56272468D01*
X39272019Y-56051366D01*
X39273562Y-56041619D01*
X39291403Y-55814930D01*
X39291403Y-55805070D01*
X39273562Y-55578381D01*
X39272019Y-55568634D01*
X39218936Y-55347532D01*
X39215887Y-55338147D01*
X39128871Y-55128072D01*
X39124390Y-55119278D01*
X39021836Y-54951924D01*
X39011380Y-54942464D01*
X39002602Y-54946248D01*
X38151662Y-55797188D01*
X38144048Y-55811132D01*
X37413996Y-55811132D01*
X37415232Y-55808868D01*
X37415101Y-55807035D01*
X37410850Y-55800420D01*
X36559721Y-54949291D01*
X36547341Y-54942531D01*
X36539691Y-54948258D01*
X36434890Y-55119278D01*
X36430409Y-55128072D01*
X36343393Y-55338147D01*
X36340344Y-55347532D01*
X36287261Y-55568634D01*
X36285718Y-55578381D01*
X36267877Y-55805070D01*
X36267877Y-55814930D01*
X26008500Y-55814930D01*
X26008500Y-53905000D01*
X31186987Y-53905000D01*
X31205610Y-54141631D01*
X31206765Y-54146440D01*
X31247492Y-54316078D01*
X31261022Y-54372435D01*
X31262912Y-54376998D01*
X31262914Y-54377004D01*
X31349961Y-54587156D01*
X31351856Y-54591730D01*
X31475878Y-54794115D01*
X31630033Y-54974607D01*
X31810525Y-55128762D01*
X32012910Y-55252784D01*
X32017480Y-55254677D01*
X32017484Y-55254679D01*
X32227636Y-55341726D01*
X32227642Y-55341728D01*
X32232205Y-55343618D01*
X32237005Y-55344770D01*
X32237010Y-55344772D01*
X32342425Y-55370080D01*
X32463009Y-55399030D01*
X32699640Y-55417653D01*
X32936271Y-55399030D01*
X33056855Y-55370080D01*
X33162270Y-55344772D01*
X33162275Y-55344770D01*
X33167075Y-55343618D01*
X33171638Y-55341728D01*
X33171644Y-55341726D01*
X33381796Y-55254679D01*
X33381800Y-55254677D01*
X33386370Y-55252784D01*
X33588755Y-55128762D01*
X33769247Y-54974607D01*
X33923402Y-54794115D01*
X34047424Y-54591730D01*
X34049319Y-54587156D01*
X34053004Y-54578260D01*
X36912104Y-54578260D01*
X36915888Y-54587038D01*
X37766828Y-55437978D01*
X37780772Y-55445592D01*
X37782605Y-55445461D01*
X37789220Y-55441210D01*
X38640349Y-54590081D01*
X38647109Y-54577701D01*
X38641382Y-54570051D01*
X38470362Y-54465250D01*
X38461568Y-54460769D01*
X38251493Y-54373753D01*
X38242108Y-54370704D01*
X38021006Y-54317621D01*
X38011259Y-54316078D01*
X37784570Y-54298237D01*
X37774710Y-54298237D01*
X37548021Y-54316078D01*
X37538274Y-54317621D01*
X37317172Y-54370704D01*
X37307787Y-54373753D01*
X37097712Y-54460769D01*
X37088918Y-54465250D01*
X36921564Y-54567804D01*
X36912104Y-54578260D01*
X34053004Y-54578260D01*
X34136366Y-54377004D01*
X34136368Y-54376998D01*
X34138258Y-54372435D01*
X34151789Y-54316078D01*
X34192515Y-54146440D01*
X34193670Y-54141631D01*
X34212293Y-53905000D01*
X34193670Y-53668369D01*
X34156192Y-53512265D01*
X34139412Y-53442370D01*
X34139410Y-53442365D01*
X34138258Y-53437565D01*
X34136368Y-53433002D01*
X34136366Y-53432996D01*
X34049319Y-53222844D01*
X34049317Y-53222840D01*
X34047424Y-53218270D01*
X33923402Y-53015885D01*
X33769247Y-52835393D01*
X33588755Y-52681238D01*
X33386370Y-52557216D01*
X33381800Y-52555323D01*
X33381796Y-52555321D01*
X33171644Y-52468274D01*
X33171638Y-52468272D01*
X33167075Y-52466382D01*
X33162275Y-52465230D01*
X33162270Y-52465228D01*
X33037024Y-52435159D01*
X32936271Y-52410970D01*
X32699640Y-52392347D01*
X32463009Y-52410970D01*
X32362256Y-52435159D01*
X32237010Y-52465228D01*
X32237005Y-52465230D01*
X32232205Y-52466382D01*
X32227642Y-52468272D01*
X32227636Y-52468274D01*
X32017484Y-52555321D01*
X32017480Y-52555323D01*
X32012910Y-52557216D01*
X31810525Y-52681238D01*
X31630033Y-52835393D01*
X31475878Y-53015885D01*
X31351856Y-53218270D01*
X31349963Y-53222840D01*
X31349961Y-53222844D01*
X31262914Y-53432996D01*
X31262912Y-53433002D01*
X31261022Y-53437565D01*
X31259870Y-53442365D01*
X31259868Y-53442370D01*
X31243088Y-53512265D01*
X31205610Y-53668369D01*
X31186987Y-53905000D01*
X26008500Y-53905000D01*
X26008500Y-50095000D01*
X31186987Y-50095000D01*
X31205610Y-50331631D01*
X31219943Y-50391330D01*
X31252289Y-50526059D01*
X31261022Y-50562435D01*
X31262912Y-50566998D01*
X31262914Y-50567004D01*
X31349581Y-50776238D01*
X31351856Y-50781730D01*
X31475878Y-50984115D01*
X31630033Y-51164607D01*
X31810525Y-51318762D01*
X32012910Y-51442784D01*
X32017480Y-51444677D01*
X32017484Y-51444679D01*
X32227636Y-51531726D01*
X32227642Y-51531728D01*
X32232205Y-51533618D01*
X32237005Y-51534770D01*
X32237010Y-51534772D01*
X32327372Y-51556466D01*
X32463009Y-51589030D01*
X32699640Y-51607653D01*
X32936271Y-51589030D01*
X33071908Y-51556466D01*
X33162270Y-51534772D01*
X33162275Y-51534770D01*
X33167075Y-51533618D01*
X33171638Y-51531728D01*
X33171644Y-51531726D01*
X33381796Y-51444679D01*
X33381800Y-51444677D01*
X33386370Y-51442784D01*
X33588755Y-51318762D01*
X33769247Y-51164607D01*
X33923402Y-50984115D01*
X34047424Y-50781730D01*
X34049699Y-50776238D01*
X34136366Y-50567004D01*
X34136368Y-50566998D01*
X34138258Y-50562435D01*
X34146992Y-50526059D01*
X34179337Y-50391330D01*
X34193670Y-50331631D01*
X34212293Y-50095000D01*
X34193670Y-49858369D01*
X34156072Y-49701763D01*
X34139412Y-49632370D01*
X34139410Y-49632365D01*
X34138258Y-49627565D01*
X34136368Y-49623002D01*
X34136366Y-49622996D01*
X34053235Y-49422299D01*
X36912171Y-49422299D01*
X36917898Y-49429949D01*
X37088918Y-49534750D01*
X37097712Y-49539231D01*
X37307787Y-49626247D01*
X37317172Y-49629296D01*
X37538274Y-49682379D01*
X37548021Y-49683922D01*
X37774710Y-49701763D01*
X37784570Y-49701763D01*
X38011259Y-49683922D01*
X38021006Y-49682379D01*
X38242108Y-49629296D01*
X38251493Y-49626247D01*
X38461568Y-49539231D01*
X38470362Y-49534750D01*
X38637716Y-49432196D01*
X38647176Y-49421740D01*
X38643392Y-49412962D01*
X37792452Y-48562022D01*
X37778508Y-48554408D01*
X37776675Y-48554539D01*
X37770060Y-48558790D01*
X36918931Y-49409919D01*
X36912171Y-49422299D01*
X34053235Y-49422299D01*
X34049319Y-49412844D01*
X34049317Y-49412840D01*
X34047424Y-49408270D01*
X33923402Y-49205885D01*
X33769247Y-49025393D01*
X33588755Y-48871238D01*
X33386370Y-48747216D01*
X33381800Y-48745323D01*
X33381796Y-48745321D01*
X33171644Y-48658274D01*
X33171638Y-48658272D01*
X33167075Y-48656382D01*
X33162275Y-48655230D01*
X33162270Y-48655228D01*
X33056855Y-48629920D01*
X32936271Y-48600970D01*
X32699640Y-48582347D01*
X32463009Y-48600970D01*
X32342425Y-48629920D01*
X32237010Y-48655228D01*
X32237005Y-48655230D01*
X32232205Y-48656382D01*
X32227642Y-48658272D01*
X32227636Y-48658274D01*
X32017484Y-48745321D01*
X32017480Y-48745323D01*
X32012910Y-48747216D01*
X31810525Y-48871238D01*
X31630033Y-49025393D01*
X31475878Y-49205885D01*
X31351856Y-49408270D01*
X31349963Y-49412840D01*
X31349961Y-49412844D01*
X31262914Y-49622996D01*
X31262912Y-49623002D01*
X31261022Y-49627565D01*
X31259870Y-49632365D01*
X31259868Y-49632370D01*
X31243208Y-49701763D01*
X31205610Y-49858369D01*
X31186987Y-50095000D01*
X26008500Y-50095000D01*
X26008500Y-48194930D01*
X36267877Y-48194930D01*
X36285718Y-48421619D01*
X36287261Y-48431366D01*
X36340344Y-48652468D01*
X36343393Y-48661853D01*
X36430409Y-48871928D01*
X36434890Y-48880722D01*
X36537444Y-49048076D01*
X36547900Y-49057536D01*
X36556678Y-49053752D01*
X37407618Y-48202812D01*
X37415232Y-48188868D01*
X37415101Y-48187035D01*
X37410850Y-48180420D01*
X36559721Y-47329291D01*
X36547341Y-47322531D01*
X36539691Y-47328258D01*
X36434890Y-47499278D01*
X36430409Y-47508072D01*
X36343393Y-47718147D01*
X36340344Y-47727532D01*
X36287261Y-47948634D01*
X36285718Y-47958381D01*
X36267877Y-48185070D01*
X36267877Y-48194930D01*
X26008500Y-48194930D01*
X26008500Y-46285000D01*
X31186987Y-46285000D01*
X31205610Y-46521631D01*
X31210173Y-46540637D01*
X31247492Y-46696078D01*
X31261022Y-46752435D01*
X31262912Y-46756998D01*
X31262914Y-46757004D01*
X31349961Y-46967156D01*
X31351856Y-46971730D01*
X31475878Y-47174115D01*
X31630033Y-47354607D01*
X31810525Y-47508762D01*
X32012910Y-47632784D01*
X32017480Y-47634677D01*
X32017484Y-47634679D01*
X32227636Y-47721726D01*
X32227642Y-47721728D01*
X32232205Y-47723618D01*
X32237005Y-47724770D01*
X32237010Y-47724772D01*
X32302522Y-47740500D01*
X32463009Y-47779030D01*
X32699640Y-47797653D01*
X32936271Y-47779030D01*
X33096758Y-47740500D01*
X33162270Y-47724772D01*
X33162275Y-47724770D01*
X33167075Y-47723618D01*
X33171638Y-47721728D01*
X33171644Y-47721726D01*
X33381796Y-47634679D01*
X33381800Y-47634677D01*
X33386370Y-47632784D01*
X33588755Y-47508762D01*
X33769247Y-47354607D01*
X33923402Y-47174115D01*
X34047424Y-46971730D01*
X34049319Y-46967156D01*
X34053004Y-46958260D01*
X36912104Y-46958260D01*
X36915888Y-46967038D01*
X37766828Y-47817978D01*
X37780772Y-47825592D01*
X37782605Y-47825461D01*
X37789220Y-47821210D01*
X38640349Y-46970081D01*
X38647109Y-46957701D01*
X38641382Y-46950051D01*
X38470362Y-46845250D01*
X38461568Y-46840769D01*
X38251493Y-46753753D01*
X38242108Y-46750704D01*
X38021006Y-46697621D01*
X38011259Y-46696078D01*
X37784570Y-46678237D01*
X37774710Y-46678237D01*
X37548021Y-46696078D01*
X37538274Y-46697621D01*
X37317172Y-46750704D01*
X37307787Y-46753753D01*
X37097712Y-46840769D01*
X37088918Y-46845250D01*
X36921564Y-46947804D01*
X36912104Y-46958260D01*
X34053004Y-46958260D01*
X34136366Y-46757004D01*
X34136368Y-46756998D01*
X34138258Y-46752435D01*
X34151789Y-46696078D01*
X34189107Y-46540637D01*
X34193670Y-46521631D01*
X34212293Y-46285000D01*
X34193670Y-46048369D01*
X34156192Y-45892265D01*
X34139412Y-45822370D01*
X34139410Y-45822365D01*
X34138258Y-45817565D01*
X34136368Y-45813002D01*
X34136366Y-45812996D01*
X34049319Y-45602844D01*
X34049317Y-45602840D01*
X34047424Y-45598270D01*
X33923402Y-45395885D01*
X33769247Y-45215393D01*
X33588755Y-45061238D01*
X33386370Y-44937216D01*
X33381800Y-44935323D01*
X33381796Y-44935321D01*
X33171644Y-44848274D01*
X33171638Y-44848272D01*
X33167075Y-44846382D01*
X33162275Y-44845230D01*
X33162270Y-44845228D01*
X33012082Y-44809171D01*
X32936271Y-44790970D01*
X32699640Y-44772347D01*
X32463009Y-44790970D01*
X32387198Y-44809171D01*
X32237010Y-44845228D01*
X32237005Y-44845230D01*
X32232205Y-44846382D01*
X32227642Y-44848272D01*
X32227636Y-44848274D01*
X32017484Y-44935321D01*
X32017480Y-44935323D01*
X32012910Y-44937216D01*
X31810525Y-45061238D01*
X31630033Y-45215393D01*
X31475878Y-45395885D01*
X31351856Y-45598270D01*
X31349963Y-45602840D01*
X31349961Y-45602844D01*
X31262914Y-45812996D01*
X31262912Y-45813002D01*
X31261022Y-45817565D01*
X31259870Y-45822365D01*
X31259868Y-45822370D01*
X31243088Y-45892265D01*
X31205610Y-46048369D01*
X31186987Y-46285000D01*
X26008500Y-46285000D01*
X26008500Y-42475000D01*
X31186987Y-42475000D01*
X31205610Y-42711631D01*
X31226367Y-42798087D01*
X31258471Y-42931808D01*
X31261022Y-42942435D01*
X31262912Y-42946998D01*
X31262914Y-42947004D01*
X31349581Y-43156238D01*
X31351856Y-43161730D01*
X31475878Y-43364115D01*
X31630033Y-43544607D01*
X31810525Y-43698762D01*
X32012910Y-43822784D01*
X32017480Y-43824677D01*
X32017484Y-43824679D01*
X32227636Y-43911726D01*
X32227642Y-43911728D01*
X32232205Y-43913618D01*
X32237005Y-43914770D01*
X32237010Y-43914772D01*
X32342425Y-43940080D01*
X32463009Y-43969030D01*
X32699640Y-43987653D01*
X32936271Y-43969030D01*
X33056855Y-43940080D01*
X33162270Y-43914772D01*
X33162275Y-43914770D01*
X33167075Y-43913618D01*
X33171638Y-43911728D01*
X33171644Y-43911726D01*
X33381796Y-43824679D01*
X33381800Y-43824677D01*
X33386370Y-43822784D01*
X33588755Y-43698762D01*
X33769247Y-43544607D01*
X33923402Y-43364115D01*
X34047424Y-43161730D01*
X34049699Y-43156238D01*
X34136366Y-42947004D01*
X34136368Y-42946998D01*
X34138258Y-42942435D01*
X34140810Y-42931808D01*
X34172913Y-42798087D01*
X34193670Y-42711631D01*
X34212293Y-42475000D01*
X34193670Y-42238369D01*
X34162488Y-42108489D01*
X34139412Y-42012370D01*
X34139410Y-42012365D01*
X34138258Y-42007565D01*
X34136368Y-42003002D01*
X34136366Y-42002996D01*
X34053235Y-41802299D01*
X36912171Y-41802299D01*
X36917898Y-41809949D01*
X37088918Y-41914750D01*
X37097712Y-41919231D01*
X37307787Y-42006247D01*
X37317172Y-42009296D01*
X37538274Y-42062379D01*
X37548021Y-42063922D01*
X37774710Y-42081763D01*
X37784570Y-42081763D01*
X38011259Y-42063922D01*
X38021006Y-42062379D01*
X38242108Y-42009296D01*
X38251493Y-42006247D01*
X38461568Y-41919231D01*
X38470362Y-41914750D01*
X38637716Y-41812196D01*
X38647176Y-41801740D01*
X38643392Y-41792962D01*
X37792452Y-40942022D01*
X37778508Y-40934408D01*
X37776675Y-40934539D01*
X37770060Y-40938790D01*
X36918931Y-41789919D01*
X36912171Y-41802299D01*
X34053235Y-41802299D01*
X34049319Y-41792844D01*
X34049317Y-41792840D01*
X34047424Y-41788270D01*
X33923402Y-41585885D01*
X33769247Y-41405393D01*
X33588755Y-41251238D01*
X33386370Y-41127216D01*
X33381800Y-41125323D01*
X33381796Y-41125321D01*
X33171644Y-41038274D01*
X33171638Y-41038272D01*
X33167075Y-41036382D01*
X33162275Y-41035230D01*
X33162270Y-41035228D01*
X33056855Y-41009920D01*
X32936271Y-40980970D01*
X32699640Y-40962347D01*
X32463009Y-40980970D01*
X32342425Y-41009920D01*
X32237010Y-41035228D01*
X32237005Y-41035230D01*
X32232205Y-41036382D01*
X32227642Y-41038272D01*
X32227636Y-41038274D01*
X32017484Y-41125321D01*
X32017480Y-41125323D01*
X32012910Y-41127216D01*
X31810525Y-41251238D01*
X31630033Y-41405393D01*
X31475878Y-41585885D01*
X31351856Y-41788270D01*
X31349963Y-41792840D01*
X31349961Y-41792844D01*
X31262914Y-42002996D01*
X31262912Y-42003002D01*
X31261022Y-42007565D01*
X31259870Y-42012365D01*
X31259868Y-42012370D01*
X31236792Y-42108489D01*
X31205610Y-42238369D01*
X31186987Y-42475000D01*
X26008500Y-42475000D01*
X26008500Y-40574930D01*
X36267877Y-40574930D01*
X36285718Y-40801619D01*
X36287261Y-40811366D01*
X36340344Y-41032468D01*
X36343393Y-41041853D01*
X36430409Y-41251928D01*
X36434890Y-41260722D01*
X36537444Y-41428076D01*
X36547900Y-41437536D01*
X36556678Y-41433752D01*
X37407618Y-40582812D01*
X37413996Y-40571132D01*
X38144048Y-40571132D01*
X38144179Y-40572965D01*
X38148430Y-40579580D01*
X38999559Y-41430709D01*
X39011939Y-41437469D01*
X39019589Y-41431742D01*
X39124390Y-41260722D01*
X39128871Y-41251928D01*
X39215887Y-41041853D01*
X39218936Y-41032468D01*
X39272019Y-40811366D01*
X39273562Y-40801619D01*
X39291403Y-40574930D01*
X39291403Y-40565070D01*
X39273562Y-40338381D01*
X39272019Y-40328634D01*
X39218936Y-40107532D01*
X39215887Y-40098147D01*
X39128871Y-39888072D01*
X39124390Y-39879278D01*
X39021836Y-39711924D01*
X39011380Y-39702464D01*
X39002602Y-39706248D01*
X38151662Y-40557188D01*
X38144048Y-40571132D01*
X37413996Y-40571132D01*
X37415232Y-40568868D01*
X37415101Y-40567035D01*
X37410850Y-40560420D01*
X36559721Y-39709291D01*
X36547341Y-39702531D01*
X36539691Y-39708258D01*
X36434890Y-39879278D01*
X36430409Y-39888072D01*
X36343393Y-40098147D01*
X36340344Y-40107532D01*
X36287261Y-40328634D01*
X36285718Y-40338381D01*
X36267877Y-40565070D01*
X36267877Y-40574930D01*
X26008500Y-40574930D01*
X26008500Y-39897299D01*
X31832171Y-39897299D01*
X31837898Y-39904949D01*
X32008918Y-40009750D01*
X32017712Y-40014231D01*
X32227787Y-40101247D01*
X32237172Y-40104296D01*
X32458274Y-40157379D01*
X32468021Y-40158922D01*
X32694710Y-40176763D01*
X32704570Y-40176763D01*
X32931259Y-40158922D01*
X32941006Y-40157379D01*
X33162108Y-40104296D01*
X33171493Y-40101247D01*
X33381568Y-40014231D01*
X33390362Y-40009750D01*
X33557716Y-39907196D01*
X33567176Y-39896740D01*
X33563392Y-39887962D01*
X32712452Y-39037022D01*
X32698508Y-39029408D01*
X32696675Y-39029539D01*
X32690060Y-39033790D01*
X31838931Y-39884919D01*
X31832171Y-39897299D01*
X26008500Y-39897299D01*
X26008500Y-38669930D01*
X31187877Y-38669930D01*
X31205718Y-38896619D01*
X31207261Y-38906366D01*
X31260344Y-39127468D01*
X31263393Y-39136853D01*
X31350409Y-39346928D01*
X31354890Y-39355722D01*
X31457444Y-39523076D01*
X31467900Y-39532536D01*
X31476678Y-39528752D01*
X32327618Y-38677812D01*
X32333996Y-38666132D01*
X33064048Y-38666132D01*
X33064179Y-38667965D01*
X33068430Y-38674580D01*
X33919559Y-39525709D01*
X33931939Y-39532469D01*
X33939589Y-39526742D01*
X34044390Y-39355722D01*
X34048871Y-39346928D01*
X34052461Y-39338260D01*
X36912104Y-39338260D01*
X36915888Y-39347038D01*
X37766828Y-40197978D01*
X37780772Y-40205592D01*
X37782605Y-40205461D01*
X37789220Y-40201210D01*
X38640349Y-39350081D01*
X38647109Y-39337701D01*
X38641382Y-39330051D01*
X38470362Y-39225250D01*
X38461568Y-39220769D01*
X38251493Y-39133753D01*
X38242108Y-39130704D01*
X38021006Y-39077621D01*
X38011259Y-39076078D01*
X37784570Y-39058237D01*
X37774710Y-39058237D01*
X37548021Y-39076078D01*
X37538274Y-39077621D01*
X37317172Y-39130704D01*
X37307787Y-39133753D01*
X37097712Y-39220769D01*
X37088918Y-39225250D01*
X36921564Y-39327804D01*
X36912104Y-39338260D01*
X34052461Y-39338260D01*
X34135887Y-39136853D01*
X34138936Y-39127468D01*
X34192019Y-38906366D01*
X34193562Y-38896619D01*
X34211403Y-38669930D01*
X34211403Y-38660070D01*
X34193562Y-38433381D01*
X34192019Y-38423634D01*
X34138936Y-38202532D01*
X34135887Y-38193147D01*
X34048871Y-37983072D01*
X34044390Y-37974278D01*
X33941836Y-37806924D01*
X33931380Y-37797464D01*
X33922602Y-37801248D01*
X33071662Y-38652188D01*
X33064048Y-38666132D01*
X32333996Y-38666132D01*
X32335232Y-38663868D01*
X32335101Y-38662035D01*
X32330850Y-38655420D01*
X31479721Y-37804291D01*
X31467341Y-37797531D01*
X31459691Y-37803258D01*
X31354890Y-37974278D01*
X31350409Y-37983072D01*
X31263393Y-38193147D01*
X31260344Y-38202532D01*
X31207261Y-38423634D01*
X31205718Y-38433381D01*
X31187877Y-38660070D01*
X31187877Y-38669930D01*
X26008500Y-38669930D01*
X26008500Y-37433260D01*
X31832104Y-37433260D01*
X31835888Y-37442038D01*
X32686828Y-38292978D01*
X32700772Y-38300592D01*
X32702605Y-38300461D01*
X32709220Y-38296210D01*
X33560349Y-37445081D01*
X33567109Y-37432701D01*
X33561382Y-37425051D01*
X33390362Y-37320250D01*
X33381568Y-37315769D01*
X33171493Y-37228753D01*
X33162108Y-37225704D01*
X32941006Y-37172621D01*
X32931259Y-37171078D01*
X32704570Y-37153237D01*
X32694710Y-37153237D01*
X32468021Y-37171078D01*
X32458274Y-37172621D01*
X32237172Y-37225704D01*
X32227787Y-37228753D01*
X32017712Y-37315769D01*
X32008918Y-37320250D01*
X31841564Y-37422804D01*
X31832104Y-37433260D01*
X26008500Y-37433260D01*
X26008500Y-36760000D01*
X36266987Y-36760000D01*
X36285610Y-36996631D01*
X36287969Y-37006456D01*
X36327492Y-37171078D01*
X36341022Y-37227435D01*
X36342912Y-37231998D01*
X36342914Y-37232004D01*
X36429961Y-37442156D01*
X36431856Y-37446730D01*
X36555878Y-37649115D01*
X36710033Y-37829607D01*
X36890525Y-37983762D01*
X37092910Y-38107784D01*
X37097480Y-38109677D01*
X37097484Y-38109679D01*
X37307636Y-38196726D01*
X37307642Y-38196728D01*
X37312205Y-38198618D01*
X37317005Y-38199770D01*
X37317010Y-38199772D01*
X37415436Y-38223402D01*
X37543009Y-38254030D01*
X37779640Y-38272653D01*
X38016271Y-38254030D01*
X38143844Y-38223402D01*
X38242270Y-38199772D01*
X38242275Y-38199770D01*
X38247075Y-38198618D01*
X38251638Y-38196728D01*
X38251644Y-38196726D01*
X38461796Y-38109679D01*
X38461800Y-38109677D01*
X38466370Y-38107784D01*
X38668755Y-37983762D01*
X38849247Y-37829607D01*
X39003402Y-37649115D01*
X39127424Y-37446730D01*
X39129319Y-37442156D01*
X39216366Y-37232004D01*
X39216368Y-37231998D01*
X39218258Y-37227435D01*
X39231789Y-37171078D01*
X39271311Y-37006456D01*
X39273670Y-36996631D01*
X39292293Y-36760000D01*
X39273670Y-36523369D01*
X39234750Y-36361257D01*
X39219412Y-36297370D01*
X39219410Y-36297365D01*
X39218258Y-36292565D01*
X39216368Y-36288002D01*
X39216366Y-36287996D01*
X39129319Y-36077844D01*
X39129317Y-36077840D01*
X39127424Y-36073270D01*
X39003402Y-35870885D01*
X38849247Y-35690393D01*
X38668755Y-35536238D01*
X38466370Y-35412216D01*
X38461800Y-35410323D01*
X38461796Y-35410321D01*
X38251644Y-35323274D01*
X38251638Y-35323272D01*
X38247075Y-35321382D01*
X38242275Y-35320230D01*
X38242270Y-35320228D01*
X38136855Y-35294920D01*
X38016271Y-35265970D01*
X37779640Y-35247347D01*
X37543009Y-35265970D01*
X37422425Y-35294920D01*
X37317010Y-35320228D01*
X37317005Y-35320230D01*
X37312205Y-35321382D01*
X37307642Y-35323272D01*
X37307636Y-35323274D01*
X37097484Y-35410321D01*
X37097480Y-35410323D01*
X37092910Y-35412216D01*
X36890525Y-35536238D01*
X36710033Y-35690393D01*
X36555878Y-35870885D01*
X36431856Y-36073270D01*
X36429963Y-36077840D01*
X36429961Y-36077844D01*
X36342914Y-36287996D01*
X36342912Y-36288002D01*
X36341022Y-36292565D01*
X36339870Y-36297365D01*
X36339868Y-36297370D01*
X36324530Y-36361257D01*
X36285610Y-36523369D01*
X36266987Y-36760000D01*
X26008500Y-36760000D01*
X26008500Y-34855000D01*
X31186987Y-34855000D01*
X31205610Y-35091631D01*
X31225134Y-35172952D01*
X31247373Y-35265582D01*
X31261022Y-35322435D01*
X31262912Y-35326998D01*
X31262914Y-35327004D01*
X31349581Y-35536238D01*
X31351856Y-35541730D01*
X31475878Y-35744115D01*
X31630033Y-35924607D01*
X31633789Y-35927815D01*
X31640331Y-35933402D01*
X31810525Y-36078762D01*
X32012910Y-36202784D01*
X32017480Y-36204677D01*
X32017484Y-36204679D01*
X32227636Y-36291726D01*
X32227642Y-36291728D01*
X32232205Y-36293618D01*
X32237005Y-36294770D01*
X32237010Y-36294772D01*
X32342425Y-36320080D01*
X32463009Y-36349030D01*
X32699640Y-36367653D01*
X32936271Y-36349030D01*
X33056855Y-36320080D01*
X33162270Y-36294772D01*
X33162275Y-36294770D01*
X33167075Y-36293618D01*
X33171638Y-36291728D01*
X33171644Y-36291726D01*
X33381796Y-36204679D01*
X33381800Y-36204677D01*
X33386370Y-36202784D01*
X33588755Y-36078762D01*
X33758949Y-35933402D01*
X33765491Y-35927815D01*
X33769247Y-35924607D01*
X33923402Y-35744115D01*
X34047424Y-35541730D01*
X34049699Y-35536238D01*
X34136366Y-35327004D01*
X34136368Y-35326998D01*
X34138258Y-35322435D01*
X34151908Y-35265582D01*
X34174146Y-35172952D01*
X34193670Y-35091631D01*
X34212293Y-34855000D01*
X34193670Y-34618369D01*
X34158628Y-34472411D01*
X34139412Y-34392370D01*
X34139410Y-34392365D01*
X34138258Y-34387565D01*
X34136368Y-34383002D01*
X34136366Y-34382996D01*
X34053235Y-34182299D01*
X36912171Y-34182299D01*
X36917898Y-34189949D01*
X37088918Y-34294750D01*
X37097712Y-34299231D01*
X37307787Y-34386247D01*
X37317172Y-34389296D01*
X37538274Y-34442379D01*
X37548021Y-34443922D01*
X37774710Y-34461763D01*
X37784570Y-34461763D01*
X38011259Y-34443922D01*
X38021006Y-34442379D01*
X38242108Y-34389296D01*
X38251493Y-34386247D01*
X38461568Y-34299231D01*
X38470362Y-34294750D01*
X38637716Y-34192196D01*
X38647176Y-34181740D01*
X38643392Y-34172962D01*
X37792452Y-33322022D01*
X37778508Y-33314408D01*
X37776675Y-33314539D01*
X37770060Y-33318790D01*
X36918931Y-34169919D01*
X36912171Y-34182299D01*
X34053235Y-34182299D01*
X34049319Y-34172844D01*
X34049317Y-34172840D01*
X34047424Y-34168270D01*
X33923402Y-33965885D01*
X33769247Y-33785393D01*
X33758601Y-33776300D01*
X33664691Y-33696094D01*
X33588755Y-33631238D01*
X33386370Y-33507216D01*
X33381800Y-33505323D01*
X33381796Y-33505321D01*
X33171644Y-33418274D01*
X33171638Y-33418272D01*
X33167075Y-33416382D01*
X33162275Y-33415230D01*
X33162270Y-33415228D01*
X33056855Y-33389920D01*
X32936271Y-33360970D01*
X32699640Y-33342347D01*
X32463009Y-33360970D01*
X32342425Y-33389920D01*
X32237010Y-33415228D01*
X32237005Y-33415230D01*
X32232205Y-33416382D01*
X32227642Y-33418272D01*
X32227636Y-33418274D01*
X32017484Y-33505321D01*
X32017480Y-33505323D01*
X32012910Y-33507216D01*
X31810525Y-33631238D01*
X31734589Y-33696094D01*
X31640680Y-33776300D01*
X31630033Y-33785393D01*
X31475878Y-33965885D01*
X31351856Y-34168270D01*
X31349963Y-34172840D01*
X31349961Y-34172844D01*
X31262914Y-34382996D01*
X31262912Y-34383002D01*
X31261022Y-34387565D01*
X31259870Y-34392365D01*
X31259868Y-34392370D01*
X31240652Y-34472411D01*
X31205610Y-34618369D01*
X31186987Y-34855000D01*
X26008500Y-34855000D01*
X26008500Y-32954930D01*
X36267877Y-32954930D01*
X36285718Y-33181619D01*
X36287261Y-33191366D01*
X36340344Y-33412468D01*
X36343393Y-33421853D01*
X36430409Y-33631928D01*
X36434890Y-33640722D01*
X36537444Y-33808076D01*
X36547900Y-33817536D01*
X36556678Y-33813752D01*
X37407618Y-32962812D01*
X37413996Y-32951132D01*
X38144048Y-32951132D01*
X38144179Y-32952965D01*
X38148430Y-32959580D01*
X38999559Y-33810709D01*
X39011939Y-33817469D01*
X39019589Y-33811742D01*
X39033125Y-33789654D01*
X40775618Y-33789654D01*
X40782673Y-33799627D01*
X40813679Y-33825551D01*
X40820598Y-33830579D01*
X41045272Y-33971515D01*
X41052807Y-33975556D01*
X41294520Y-34084694D01*
X41302551Y-34087680D01*
X41556832Y-34163002D01*
X41565184Y-34164869D01*
X41827340Y-34204984D01*
X41835874Y-34205700D01*
X42101045Y-34209867D01*
X42109596Y-34209418D01*
X42372883Y-34177557D01*
X42381284Y-34175955D01*
X42637824Y-34108653D01*
X42645926Y-34105926D01*
X42890949Y-34004434D01*
X42898617Y-34000628D01*
X43127598Y-33866822D01*
X43134679Y-33862009D01*
X43214655Y-33799301D01*
X43223125Y-33787442D01*
X43216608Y-33775818D01*
X42012812Y-32572022D01*
X41998868Y-32564408D01*
X41997035Y-32564539D01*
X41990420Y-32568790D01*
X40782910Y-33776300D01*
X40775618Y-33789654D01*
X39033125Y-33789654D01*
X39124390Y-33640722D01*
X39128871Y-33631928D01*
X39215887Y-33421853D01*
X39218936Y-33412468D01*
X39272019Y-33191366D01*
X39273562Y-33181619D01*
X39291403Y-32954930D01*
X39291403Y-32945070D01*
X39273562Y-32718381D01*
X39272019Y-32708634D01*
X39218936Y-32487532D01*
X39215887Y-32478147D01*
X39128871Y-32268072D01*
X39124390Y-32259278D01*
X39077772Y-32183204D01*
X39987665Y-32183204D01*
X40002932Y-32447969D01*
X40004005Y-32456470D01*
X40055065Y-32716722D01*
X40057276Y-32724974D01*
X40143184Y-32975894D01*
X40146499Y-32983779D01*
X40265664Y-33220713D01*
X40270020Y-33228079D01*
X40399347Y-33416250D01*
X40409601Y-33424594D01*
X40423342Y-33417448D01*
X41627978Y-32212812D01*
X41634356Y-32201132D01*
X42364408Y-32201132D01*
X42364539Y-32202965D01*
X42368790Y-32209580D01*
X43575730Y-33416520D01*
X43587939Y-33423187D01*
X43599439Y-33414497D01*
X43696831Y-33281913D01*
X43701418Y-33274685D01*
X43827962Y-33041621D01*
X43831530Y-33033827D01*
X43925271Y-32785750D01*
X43927748Y-32777544D01*
X43986954Y-32519038D01*
X43988294Y-32510577D01*
X44012031Y-32244616D01*
X44012277Y-32239677D01*
X44012666Y-32202485D01*
X44012523Y-32197519D01*
X44011255Y-32178918D01*
X45486917Y-32178918D01*
X45502682Y-32452320D01*
X45503507Y-32456525D01*
X45503508Y-32456533D01*
X45524698Y-32564539D01*
X45555405Y-32721053D01*
X45556792Y-32725103D01*
X45556793Y-32725108D01*
X45635479Y-32954930D01*
X45644112Y-32980144D01*
X45767160Y-33224799D01*
X45769586Y-33228328D01*
X45769589Y-33228334D01*
X45898039Y-33415228D01*
X45922274Y-33450490D01*
X45925161Y-33453663D01*
X45925162Y-33453664D01*
X45928661Y-33457509D01*
X46106582Y-33653043D01*
X46316675Y-33828707D01*
X46320316Y-33830991D01*
X46545024Y-33971951D01*
X46545028Y-33971953D01*
X46548664Y-33974234D01*
X46616544Y-34004883D01*
X46794345Y-34085164D01*
X46794349Y-34085166D01*
X46798257Y-34086930D01*
X46802377Y-34088150D01*
X46802376Y-34088150D01*
X47056723Y-34163491D01*
X47056727Y-34163492D01*
X47060836Y-34164709D01*
X47065070Y-34165357D01*
X47065075Y-34165358D01*
X47327298Y-34205483D01*
X47327300Y-34205483D01*
X47331540Y-34206132D01*
X47470912Y-34208322D01*
X47601071Y-34210367D01*
X47601077Y-34210367D01*
X47605362Y-34210434D01*
X47877235Y-34177534D01*
X48142127Y-34108041D01*
X48146087Y-34106401D01*
X48146092Y-34106399D01*
X48268632Y-34055641D01*
X48395136Y-34003241D01*
X48631582Y-33865073D01*
X48727767Y-33789654D01*
X51775618Y-33789654D01*
X51782673Y-33799627D01*
X51813679Y-33825551D01*
X51820598Y-33830579D01*
X52045272Y-33971515D01*
X52052807Y-33975556D01*
X52294520Y-34084694D01*
X52302551Y-34087680D01*
X52556832Y-34163002D01*
X52565184Y-34164869D01*
X52827340Y-34204984D01*
X52835874Y-34205700D01*
X53101045Y-34209867D01*
X53109596Y-34209418D01*
X53372883Y-34177557D01*
X53381284Y-34175955D01*
X53637824Y-34108653D01*
X53645926Y-34105926D01*
X53890949Y-34004434D01*
X53898617Y-34000628D01*
X54127598Y-33866822D01*
X54134679Y-33862009D01*
X54214655Y-33799301D01*
X54223125Y-33787442D01*
X54216608Y-33775818D01*
X53908778Y-33467988D01*
X59918245Y-33467988D01*
X59925313Y-33481434D01*
X60626857Y-34182978D01*
X60640801Y-34190592D01*
X60642634Y-34190461D01*
X60649249Y-34186210D01*
X61354746Y-33480713D01*
X61361176Y-33468938D01*
X61351880Y-33456923D01*
X61300675Y-33421069D01*
X61291180Y-33415586D01*
X61093722Y-33323510D01*
X61083430Y-33319764D01*
X60872981Y-33263375D01*
X60862188Y-33261472D01*
X60645144Y-33242483D01*
X60634194Y-33242483D01*
X60417150Y-33261472D01*
X60406357Y-33263375D01*
X60195908Y-33319764D01*
X60185616Y-33323510D01*
X59988158Y-33415586D01*
X59978663Y-33421069D01*
X59926621Y-33457509D01*
X59918245Y-33467988D01*
X53908778Y-33467988D01*
X53012812Y-32572022D01*
X52998868Y-32564408D01*
X52997035Y-32564539D01*
X52990420Y-32568790D01*
X51782910Y-33776300D01*
X51775618Y-33789654D01*
X48727767Y-33789654D01*
X48847089Y-33696094D01*
X48888809Y-33653043D01*
X49034686Y-33502509D01*
X49037669Y-33499431D01*
X49040202Y-33495983D01*
X49040206Y-33495978D01*
X49197257Y-33282178D01*
X49199795Y-33278723D01*
X49201841Y-33274955D01*
X49328418Y-33041830D01*
X49328419Y-33041828D01*
X49330468Y-33038054D01*
X49427269Y-32781877D01*
X49488407Y-32514933D01*
X49490853Y-32487532D01*
X49512531Y-32244627D01*
X49512532Y-32244616D01*
X49512751Y-32242161D01*
X49513193Y-32200000D01*
X49512048Y-32183204D01*
X50987665Y-32183204D01*
X51002932Y-32447969D01*
X51004005Y-32456470D01*
X51055065Y-32716722D01*
X51057276Y-32724974D01*
X51143184Y-32975894D01*
X51146499Y-32983779D01*
X51265664Y-33220713D01*
X51270020Y-33228079D01*
X51399347Y-33416250D01*
X51409601Y-33424594D01*
X51423342Y-33417448D01*
X52627978Y-32212812D01*
X52634356Y-32201132D01*
X53364408Y-32201132D01*
X53364539Y-32202965D01*
X53368790Y-32209580D01*
X54575730Y-33416520D01*
X54587939Y-33423187D01*
X54599439Y-33414497D01*
X54696831Y-33281913D01*
X54701418Y-33274685D01*
X54827962Y-33041621D01*
X54831530Y-33033827D01*
X54925271Y-32785750D01*
X54927748Y-32777544D01*
X54986954Y-32519038D01*
X54988294Y-32510577D01*
X55012031Y-32244616D01*
X55012277Y-32239677D01*
X55012666Y-32202485D01*
X55012523Y-32197519D01*
X54994362Y-31931123D01*
X54993201Y-31922649D01*
X54939419Y-31662944D01*
X54937120Y-31654709D01*
X54848588Y-31404705D01*
X54845191Y-31396854D01*
X54723550Y-31161178D01*
X54719122Y-31153866D01*
X54600031Y-30984417D01*
X54589509Y-30976037D01*
X54576121Y-30983089D01*
X53372022Y-32187188D01*
X53364408Y-32201132D01*
X52634356Y-32201132D01*
X52635592Y-32198868D01*
X52635461Y-32197035D01*
X52631210Y-32190420D01*
X51423814Y-30983024D01*
X51411804Y-30976466D01*
X51400064Y-30985434D01*
X51291935Y-31135911D01*
X51287418Y-31143196D01*
X51163325Y-31377567D01*
X51159839Y-31385395D01*
X51068700Y-31634446D01*
X51066311Y-31642670D01*
X51009812Y-31901795D01*
X51008563Y-31910250D01*
X50987754Y-32174653D01*
X50987665Y-32183204D01*
X49512048Y-32183204D01*
X49511465Y-32174648D01*
X49494859Y-31931055D01*
X49494858Y-31931049D01*
X49494567Y-31926778D01*
X49439032Y-31658612D01*
X49347617Y-31400465D01*
X49222013Y-31157112D01*
X49212040Y-31142921D01*
X49067008Y-30936562D01*
X49064545Y-30933057D01*
X48878125Y-30732445D01*
X48874810Y-30729731D01*
X48874806Y-30729728D01*
X48731581Y-30612500D01*
X51776584Y-30612500D01*
X51782980Y-30623770D01*
X52987188Y-31827978D01*
X53001132Y-31835592D01*
X53002965Y-31835461D01*
X53009580Y-31831210D01*
X54216604Y-30624186D01*
X54223795Y-30611017D01*
X54216473Y-30600780D01*
X54169233Y-30562115D01*
X54162261Y-30557160D01*
X53936122Y-30418582D01*
X53928552Y-30414624D01*
X53685704Y-30308022D01*
X53677644Y-30305120D01*
X53422592Y-30232467D01*
X53414214Y-30230685D01*
X53151656Y-30193318D01*
X53143111Y-30192691D01*
X52877908Y-30191302D01*
X52869374Y-30191839D01*
X52606433Y-30226456D01*
X52598035Y-30228149D01*
X52342238Y-30298127D01*
X52334143Y-30300946D01*
X52090199Y-30404997D01*
X52082577Y-30408881D01*
X51855013Y-30545075D01*
X51847981Y-30549962D01*
X51785053Y-30600377D01*
X51776584Y-30612500D01*
X48731581Y-30612500D01*
X48669523Y-30561706D01*
X48666205Y-30558990D01*
X48432704Y-30415901D01*
X48428768Y-30414173D01*
X48185873Y-30307549D01*
X48185869Y-30307548D01*
X48181945Y-30305825D01*
X47918566Y-30230800D01*
X47914324Y-30230196D01*
X47914318Y-30230195D01*
X47713834Y-30201662D01*
X47647443Y-30192213D01*
X47503589Y-30191460D01*
X47377877Y-30190802D01*
X47377871Y-30190802D01*
X47373591Y-30190780D01*
X47369347Y-30191339D01*
X47369343Y-30191339D01*
X47250302Y-30207011D01*
X47102078Y-30226525D01*
X47097938Y-30227658D01*
X47097936Y-30227658D01*
X47025008Y-30247609D01*
X46837928Y-30298788D01*
X46833980Y-30300472D01*
X46589982Y-30404546D01*
X46589978Y-30404548D01*
X46586030Y-30406232D01*
X46566125Y-30418145D01*
X46354725Y-30544664D01*
X46354721Y-30544667D01*
X46351043Y-30546868D01*
X46137318Y-30718094D01*
X45948808Y-30916742D01*
X45789002Y-31139136D01*
X45660857Y-31381161D01*
X45659385Y-31385184D01*
X45659383Y-31385188D01*
X45612335Y-31513753D01*
X45566743Y-31638337D01*
X45508404Y-31905907D01*
X45486917Y-32178918D01*
X44011255Y-32178918D01*
X43994362Y-31931123D01*
X43993201Y-31922649D01*
X43939419Y-31662944D01*
X43937120Y-31654709D01*
X43848588Y-31404705D01*
X43845191Y-31396854D01*
X43723550Y-31161178D01*
X43719122Y-31153866D01*
X43600031Y-30984417D01*
X43589509Y-30976037D01*
X43576121Y-30983089D01*
X42372022Y-32187188D01*
X42364408Y-32201132D01*
X41634356Y-32201132D01*
X41635592Y-32198868D01*
X41635461Y-32197035D01*
X41631210Y-32190420D01*
X40423814Y-30983024D01*
X40411804Y-30976466D01*
X40400064Y-30985434D01*
X40291935Y-31135911D01*
X40287418Y-31143196D01*
X40163325Y-31377567D01*
X40159839Y-31385395D01*
X40068700Y-31634446D01*
X40066311Y-31642670D01*
X40009812Y-31901795D01*
X40008563Y-31910250D01*
X39987754Y-32174653D01*
X39987665Y-32183204D01*
X39077772Y-32183204D01*
X39021836Y-32091924D01*
X39011380Y-32082464D01*
X39002602Y-32086248D01*
X38151662Y-32937188D01*
X38144048Y-32951132D01*
X37413996Y-32951132D01*
X37415232Y-32948868D01*
X37415101Y-32947035D01*
X37410850Y-32940420D01*
X36559721Y-32089291D01*
X36547341Y-32082531D01*
X36539691Y-32088258D01*
X36434890Y-32259278D01*
X36430409Y-32268072D01*
X36343393Y-32478147D01*
X36340344Y-32487532D01*
X36287261Y-32708634D01*
X36285718Y-32718381D01*
X36267877Y-32945070D01*
X36267877Y-32954930D01*
X26008500Y-32954930D01*
X26008500Y-31718260D01*
X36912104Y-31718260D01*
X36915888Y-31727038D01*
X37766828Y-32577978D01*
X37780772Y-32585592D01*
X37782605Y-32585461D01*
X37789220Y-32581210D01*
X38640349Y-31730081D01*
X38647109Y-31717701D01*
X38641382Y-31710051D01*
X38470362Y-31605250D01*
X38461568Y-31600769D01*
X38251493Y-31513753D01*
X38242108Y-31510704D01*
X38021006Y-31457621D01*
X38011259Y-31456078D01*
X37784570Y-31438237D01*
X37774710Y-31438237D01*
X37548021Y-31456078D01*
X37538274Y-31457621D01*
X37317172Y-31510704D01*
X37307787Y-31513753D01*
X37097712Y-31600769D01*
X37088918Y-31605250D01*
X36921564Y-31707804D01*
X36912104Y-31718260D01*
X26008500Y-31718260D01*
X26008500Y-30612500D01*
X40776584Y-30612500D01*
X40782980Y-30623770D01*
X41987188Y-31827978D01*
X42001132Y-31835592D01*
X42002965Y-31835461D01*
X42009580Y-31831210D01*
X43216604Y-30624186D01*
X43223795Y-30611017D01*
X43216473Y-30600780D01*
X43169233Y-30562115D01*
X43162261Y-30557160D01*
X42936122Y-30418582D01*
X42928552Y-30414624D01*
X42685704Y-30308022D01*
X42677644Y-30305120D01*
X42422592Y-30232467D01*
X42414214Y-30230685D01*
X42151656Y-30193318D01*
X42143111Y-30192691D01*
X41877908Y-30191302D01*
X41869374Y-30191839D01*
X41606433Y-30226456D01*
X41598035Y-30228149D01*
X41342238Y-30298127D01*
X41334143Y-30300946D01*
X41090199Y-30404997D01*
X41082577Y-30408881D01*
X40855013Y-30545075D01*
X40847981Y-30549962D01*
X40785053Y-30600377D01*
X40776584Y-30612500D01*
X26008500Y-30612500D01*
X26008500Y-29460987D01*
X58498390Y-29460987D01*
X58507217Y-29472605D01*
X58729950Y-29634430D01*
X58736630Y-29638670D01*
X59006241Y-29786890D01*
X59013376Y-29790247D01*
X59299439Y-29903508D01*
X59306965Y-29905953D01*
X59604948Y-29982462D01*
X59612719Y-29983945D01*
X59917947Y-30022503D01*
X59925838Y-30023000D01*
X60233500Y-30023000D01*
X60241391Y-30022503D01*
X60546619Y-29983945D01*
X60554390Y-29982462D01*
X60852373Y-29905953D01*
X60859899Y-29903508D01*
X61145962Y-29790247D01*
X61153097Y-29786890D01*
X61422708Y-29638670D01*
X61429388Y-29634430D01*
X61652492Y-29472336D01*
X61660915Y-29461413D01*
X61654011Y-29448552D01*
X60092481Y-27887022D01*
X60078537Y-27879408D01*
X60076704Y-27879539D01*
X60070089Y-27883790D01*
X58505003Y-29448876D01*
X58498390Y-29460987D01*
X26008500Y-29460987D01*
X26008500Y-25428164D01*
X28138390Y-25428164D01*
X28138543Y-25432552D01*
X28138543Y-25432558D01*
X28143743Y-25581448D01*
X28148437Y-25715877D01*
X28198429Y-25999392D01*
X28287391Y-26273191D01*
X28289319Y-26277144D01*
X28289321Y-26277149D01*
X28345859Y-26393067D01*
X28413593Y-26531943D01*
X28416048Y-26535582D01*
X28416051Y-26535588D01*
X28572119Y-26766968D01*
X28572124Y-26766975D01*
X28574579Y-26770614D01*
X28767214Y-26984557D01*
X28987749Y-27169608D01*
X29231893Y-27322166D01*
X29494892Y-27439261D01*
X29499120Y-27440473D01*
X29499119Y-27440473D01*
X29755078Y-27513868D01*
X29771629Y-27518614D01*
X29775976Y-27519225D01*
X29775981Y-27519226D01*
X29914173Y-27538647D01*
X30056716Y-27558680D01*
X31272550Y-27558680D01*
X31274736Y-27558527D01*
X31274740Y-27558527D01*
X31483462Y-27543932D01*
X31483467Y-27543931D01*
X31487847Y-27543625D01*
X31603895Y-27518958D01*
X57566959Y-27518958D01*
X57586276Y-27825994D01*
X57587269Y-27833855D01*
X57644915Y-28136046D01*
X57646886Y-28143723D01*
X57741953Y-28436309D01*
X57744868Y-28443672D01*
X57875858Y-28722041D01*
X57879670Y-28728974D01*
X58044520Y-28988736D01*
X58049164Y-28995129D01*
X58124166Y-29085790D01*
X58136683Y-29094245D01*
X58147421Y-29088038D01*
X59707647Y-27527812D01*
X59714025Y-27516132D01*
X60444077Y-27516132D01*
X60444208Y-27517965D01*
X60448459Y-27524580D01*
X62010814Y-29086935D01*
X62024076Y-29094177D01*
X62034181Y-29086988D01*
X62110174Y-28995129D01*
X62114818Y-28988736D01*
X62279668Y-28728974D01*
X62283480Y-28722041D01*
X62414470Y-28443672D01*
X62417385Y-28436309D01*
X62512452Y-28143723D01*
X62514423Y-28136046D01*
X62572069Y-27833855D01*
X62573062Y-27825994D01*
X62592379Y-27518958D01*
X62592379Y-27511042D01*
X62573062Y-27204006D01*
X62572069Y-27196145D01*
X62514423Y-26893954D01*
X62512452Y-26886277D01*
X62417385Y-26593691D01*
X62414470Y-26586328D01*
X62283480Y-26307959D01*
X62279668Y-26301026D01*
X62114818Y-26041264D01*
X62110174Y-26034871D01*
X62035172Y-25944210D01*
X62022655Y-25935755D01*
X62011917Y-25941962D01*
X60451691Y-27502188D01*
X60444077Y-27516132D01*
X59714025Y-27516132D01*
X59715261Y-27513868D01*
X59715130Y-27512035D01*
X59710879Y-27505420D01*
X58148524Y-25943065D01*
X58135262Y-25935823D01*
X58125157Y-25943012D01*
X58049164Y-26034871D01*
X58044520Y-26041264D01*
X57879670Y-26301026D01*
X57875858Y-26307959D01*
X57744868Y-26586328D01*
X57741953Y-26593691D01*
X57646886Y-26886277D01*
X57644915Y-26893954D01*
X57587269Y-27196145D01*
X57586276Y-27204006D01*
X57566959Y-27511042D01*
X57566959Y-27518958D01*
X31603895Y-27518958D01*
X31769445Y-27483769D01*
X31773574Y-27482266D01*
X31773578Y-27482265D01*
X32035827Y-27386815D01*
X32035831Y-27386813D01*
X32039972Y-27385306D01*
X32294163Y-27250150D01*
X32357675Y-27204006D01*
X32523507Y-27083522D01*
X32523510Y-27083520D01*
X32527070Y-27080933D01*
X32626870Y-26984557D01*
X32730997Y-26884003D01*
X32731000Y-26883999D01*
X32734159Y-26880949D01*
X32820363Y-26770614D01*
X32908693Y-26657556D01*
X32911401Y-26654090D01*
X33055346Y-26404771D01*
X33056996Y-26400687D01*
X33056999Y-26400681D01*
X33161542Y-26141926D01*
X33163191Y-26137845D01*
X33232837Y-25858508D01*
X33247374Y-25720206D01*
X33262471Y-25576565D01*
X33262471Y-25576562D01*
X33262930Y-25572196D01*
X33262804Y-25568587D01*
X58498423Y-25568587D01*
X58505327Y-25581448D01*
X60066857Y-27142978D01*
X60080801Y-27150592D01*
X60082634Y-27150461D01*
X60089249Y-27146210D01*
X61654335Y-25581124D01*
X61660948Y-25569013D01*
X61652121Y-25557395D01*
X61429388Y-25395570D01*
X61422708Y-25391330D01*
X61153097Y-25243110D01*
X61145962Y-25239753D01*
X60859899Y-25126492D01*
X60852373Y-25124047D01*
X60554390Y-25047538D01*
X60546619Y-25046055D01*
X60241391Y-25007497D01*
X60233500Y-25007000D01*
X59925838Y-25007000D01*
X59917947Y-25007497D01*
X59612719Y-25046055D01*
X59604948Y-25047538D01*
X59306965Y-25124047D01*
X59299439Y-25126492D01*
X59013376Y-25239753D01*
X59006241Y-25243110D01*
X58736630Y-25391330D01*
X58729950Y-25395570D01*
X58506846Y-25557664D01*
X58498423Y-25568587D01*
X33262804Y-25568587D01*
X33262423Y-25557664D01*
X33253037Y-25288880D01*
X33253036Y-25288874D01*
X33252883Y-25284483D01*
X33247585Y-25254434D01*
X33211471Y-25049627D01*
X33209712Y-25039654D01*
X46275618Y-25039654D01*
X46282673Y-25049627D01*
X46313679Y-25075551D01*
X46320598Y-25080579D01*
X46545272Y-25221515D01*
X46552807Y-25225556D01*
X46794520Y-25334694D01*
X46802551Y-25337680D01*
X47056832Y-25413002D01*
X47065184Y-25414869D01*
X47327340Y-25454984D01*
X47335874Y-25455700D01*
X47601045Y-25459867D01*
X47609596Y-25459418D01*
X47872883Y-25427557D01*
X47881284Y-25425955D01*
X48137824Y-25358653D01*
X48145926Y-25355926D01*
X48390949Y-25254434D01*
X48398617Y-25250628D01*
X48627598Y-25116822D01*
X48634679Y-25112009D01*
X48714655Y-25049301D01*
X48723125Y-25037442D01*
X48716608Y-25025818D01*
X47512812Y-23822022D01*
X47498868Y-23814408D01*
X47497035Y-23814539D01*
X47490420Y-23818790D01*
X46282910Y-25026300D01*
X46275618Y-25039654D01*
X33209712Y-25039654D01*
X33202891Y-25000968D01*
X33113929Y-24727169D01*
X33088287Y-24674594D01*
X33018696Y-24531913D01*
X32987727Y-24468417D01*
X32985272Y-24464778D01*
X32985269Y-24464772D01*
X32829201Y-24233392D01*
X32829196Y-24233385D01*
X32826741Y-24229746D01*
X32634106Y-24015803D01*
X32413571Y-23830752D01*
X32169427Y-23678194D01*
X31906428Y-23561099D01*
X31629691Y-23481746D01*
X31625344Y-23481135D01*
X31625339Y-23481134D01*
X31458223Y-23457648D01*
X31344604Y-23441680D01*
X30128770Y-23441680D01*
X30126584Y-23441833D01*
X30126580Y-23441833D01*
X29917858Y-23456428D01*
X29917853Y-23456429D01*
X29913473Y-23456735D01*
X29631875Y-23516591D01*
X29627746Y-23518094D01*
X29627742Y-23518095D01*
X29365493Y-23613545D01*
X29365489Y-23613547D01*
X29361348Y-23615054D01*
X29107157Y-23750210D01*
X29103598Y-23752796D01*
X29103596Y-23752797D01*
X28996301Y-23830752D01*
X28874250Y-23919427D01*
X28871086Y-23922483D01*
X28871083Y-23922485D01*
X28670323Y-24116357D01*
X28670320Y-24116361D01*
X28667161Y-24119411D01*
X28664455Y-24122875D01*
X28664451Y-24122879D01*
X28510895Y-24319421D01*
X28489919Y-24346270D01*
X28417115Y-24472369D01*
X28382738Y-24531913D01*
X28345974Y-24595589D01*
X28344324Y-24599673D01*
X28344321Y-24599679D01*
X28318133Y-24664497D01*
X28238129Y-24862515D01*
X28168483Y-25141852D01*
X28168024Y-25146222D01*
X28168023Y-25146226D01*
X28139787Y-25414869D01*
X28138390Y-25428164D01*
X26008500Y-25428164D01*
X26008500Y-23134500D01*
X26028502Y-23066379D01*
X26082158Y-23019886D01*
X26134500Y-23008500D01*
X45384999Y-23008500D01*
X45453120Y-23028502D01*
G37*
%TD.AperFunction*%
%TA.AperFunction,Conductor*%
G36*
X57508396Y-38643502D02*
G01*
X57543488Y-38677229D01*
X57600525Y-38758686D01*
X57653471Y-38834300D01*
X57815369Y-38996198D01*
X57819877Y-38999355D01*
X57819880Y-38999357D01*
X57866195Y-39031787D01*
X57910523Y-39087244D01*
X57917832Y-39157864D01*
X57885801Y-39221224D01*
X57866195Y-39238213D01*
X57819880Y-39270643D01*
X57819877Y-39270645D01*
X57815369Y-39273802D01*
X57653471Y-39435700D01*
X57522146Y-39623251D01*
X57519823Y-39628233D01*
X57519820Y-39628238D01*
X57482025Y-39709291D01*
X57425385Y-39830757D01*
X57423963Y-39836065D01*
X57423962Y-39836067D01*
X57376891Y-40011739D01*
X57366126Y-40051913D01*
X57346171Y-40280000D01*
X57366126Y-40508087D01*
X57367549Y-40513398D01*
X57367551Y-40513409D01*
X57383128Y-40571541D01*
X57381439Y-40642517D01*
X57350517Y-40693248D01*
X54529057Y-43514707D01*
X51714169Y-46329595D01*
X51651857Y-46363621D01*
X51625074Y-46366500D01*
X47078763Y-46366500D01*
X47067579Y-46365973D01*
X47060091Y-46364299D01*
X47052168Y-46364548D01*
X46992033Y-46366438D01*
X46988075Y-46366500D01*
X46960144Y-46366500D01*
X46956229Y-46366995D01*
X46956225Y-46366995D01*
X46956167Y-46367003D01*
X46956138Y-46367006D01*
X46944296Y-46367939D01*
X46900110Y-46369327D01*
X46882744Y-46374372D01*
X46880658Y-46374978D01*
X46861306Y-46378986D01*
X46849068Y-46380532D01*
X46849066Y-46380533D01*
X46841203Y-46381526D01*
X46800086Y-46397806D01*
X46788885Y-46401641D01*
X46746406Y-46413982D01*
X46739587Y-46418015D01*
X46739582Y-46418017D01*
X46728971Y-46424293D01*
X46711221Y-46432990D01*
X46692383Y-46440448D01*
X46685967Y-46445109D01*
X46685966Y-46445110D01*
X46656625Y-46466428D01*
X46646701Y-46472947D01*
X46615460Y-46491422D01*
X46615455Y-46491426D01*
X46608637Y-46495458D01*
X46594313Y-46509782D01*
X46579281Y-46522621D01*
X46562893Y-46534528D01*
X46534712Y-46568593D01*
X46526722Y-46577373D01*
X43325836Y-49778259D01*
X43263524Y-49812285D01*
X43192709Y-49807220D01*
X43135873Y-49764673D01*
X43116908Y-49728101D01*
X43086568Y-49634726D01*
X43084527Y-49628444D01*
X42989040Y-49463056D01*
X42915863Y-49381785D01*
X42885147Y-49317779D01*
X42883500Y-49297476D01*
X42883500Y-45679500D01*
X42903502Y-45611379D01*
X42957158Y-45564886D01*
X43009500Y-45553500D01*
X44711233Y-45553500D01*
X44722416Y-45554027D01*
X44729909Y-45555702D01*
X44737835Y-45555453D01*
X44737836Y-45555453D01*
X44797986Y-45553562D01*
X44801945Y-45553500D01*
X44829856Y-45553500D01*
X44833791Y-45553003D01*
X44833856Y-45552995D01*
X44845693Y-45552062D01*
X44877951Y-45551048D01*
X44881970Y-45550922D01*
X44889889Y-45550673D01*
X44909343Y-45545021D01*
X44928700Y-45541013D01*
X44940930Y-45539468D01*
X44940931Y-45539468D01*
X44948797Y-45538474D01*
X44956168Y-45535555D01*
X44956170Y-45535555D01*
X44989912Y-45522196D01*
X45001142Y-45518351D01*
X45035983Y-45508229D01*
X45035984Y-45508229D01*
X45043593Y-45506018D01*
X45050412Y-45501985D01*
X45050417Y-45501983D01*
X45061028Y-45495707D01*
X45078776Y-45487012D01*
X45097617Y-45479552D01*
X45133387Y-45453564D01*
X45143307Y-45447048D01*
X45174535Y-45428580D01*
X45174538Y-45428578D01*
X45181362Y-45424542D01*
X45195683Y-45410221D01*
X45210717Y-45397380D01*
X45212775Y-45395885D01*
X45227107Y-45385472D01*
X45255298Y-45351395D01*
X45263288Y-45342616D01*
X45489549Y-45116355D01*
X45551861Y-45082329D01*
X45603762Y-45081979D01*
X45783597Y-45118567D01*
X45788772Y-45118757D01*
X45788774Y-45118757D01*
X46001673Y-45126564D01*
X46001677Y-45126564D01*
X46006837Y-45126753D01*
X46011957Y-45126097D01*
X46011959Y-45126097D01*
X46223288Y-45099025D01*
X46223289Y-45099025D01*
X46228416Y-45098368D01*
X46233366Y-45096883D01*
X46437429Y-45035661D01*
X46437434Y-45035659D01*
X46442384Y-45034174D01*
X46642994Y-44935896D01*
X46824860Y-44806173D01*
X46858805Y-44772347D01*
X46938510Y-44692919D01*
X46983096Y-44648489D01*
X47009532Y-44611700D01*
X47113453Y-44467077D01*
X47114776Y-44468028D01*
X47161645Y-44424857D01*
X47231580Y-44412625D01*
X47297026Y-44440144D01*
X47324875Y-44471994D01*
X47384987Y-44570088D01*
X47531250Y-44738938D01*
X47662490Y-44847895D01*
X47691668Y-44872119D01*
X47703126Y-44881632D01*
X47896000Y-44994338D01*
X48104692Y-45074030D01*
X48109760Y-45075061D01*
X48109763Y-45075062D01*
X48199908Y-45093402D01*
X48323597Y-45118567D01*
X48328772Y-45118757D01*
X48328774Y-45118757D01*
X48541673Y-45126564D01*
X48541677Y-45126564D01*
X48546837Y-45126753D01*
X48551957Y-45126097D01*
X48551959Y-45126097D01*
X48763288Y-45099025D01*
X48763289Y-45099025D01*
X48768416Y-45098368D01*
X48773366Y-45096883D01*
X48977429Y-45035661D01*
X48977434Y-45035659D01*
X48982384Y-45034174D01*
X49182994Y-44935896D01*
X49364860Y-44806173D01*
X49398805Y-44772347D01*
X49478510Y-44692919D01*
X49523096Y-44648489D01*
X49549532Y-44611700D01*
X49653453Y-44467077D01*
X49654776Y-44468028D01*
X49701645Y-44424857D01*
X49771580Y-44412625D01*
X49837026Y-44440144D01*
X49864875Y-44471994D01*
X49924987Y-44570088D01*
X50071250Y-44738938D01*
X50202490Y-44847895D01*
X50231668Y-44872119D01*
X50243126Y-44881632D01*
X50436000Y-44994338D01*
X50644692Y-45074030D01*
X50649760Y-45075061D01*
X50649763Y-45075062D01*
X50739908Y-45093402D01*
X50863597Y-45118567D01*
X50868772Y-45118757D01*
X50868774Y-45118757D01*
X51081673Y-45126564D01*
X51081677Y-45126564D01*
X51086837Y-45126753D01*
X51091957Y-45126097D01*
X51091959Y-45126097D01*
X51303288Y-45099025D01*
X51303289Y-45099025D01*
X51308416Y-45098368D01*
X51313366Y-45096883D01*
X51517429Y-45035661D01*
X51517434Y-45035659D01*
X51522384Y-45034174D01*
X51722994Y-44935896D01*
X51904860Y-44806173D01*
X51938805Y-44772347D01*
X52018510Y-44692919D01*
X52063096Y-44648489D01*
X52089532Y-44611700D01*
X52190435Y-44471277D01*
X52193453Y-44467077D01*
X52196636Y-44460638D01*
X52290136Y-44271453D01*
X52290137Y-44271451D01*
X52292430Y-44266811D01*
X52353504Y-44065794D01*
X52355865Y-44058023D01*
X52355865Y-44058021D01*
X52357370Y-44053069D01*
X52386529Y-43831590D01*
X52386744Y-43822784D01*
X52388074Y-43768365D01*
X52388074Y-43768361D01*
X52388156Y-43765000D01*
X52369852Y-43542361D01*
X52315431Y-43325702D01*
X52226354Y-43120840D01*
X52186906Y-43059862D01*
X52107822Y-42937617D01*
X52107820Y-42937614D01*
X52105014Y-42933277D01*
X52093785Y-42920936D01*
X51957798Y-42771488D01*
X51926746Y-42707642D01*
X51935141Y-42637143D01*
X51980317Y-42582375D01*
X52006761Y-42568706D01*
X52113297Y-42528767D01*
X52121705Y-42525615D01*
X52238261Y-42438261D01*
X52325615Y-42321705D01*
X52376745Y-42185316D01*
X52383500Y-42123134D01*
X52383500Y-40326866D01*
X52376745Y-40264684D01*
X52325615Y-40128295D01*
X52238261Y-40011739D01*
X52121705Y-39924385D01*
X51985316Y-39873255D01*
X51923134Y-39866500D01*
X50126866Y-39866500D01*
X50064684Y-39873255D01*
X49928295Y-39924385D01*
X49811739Y-40011739D01*
X49724385Y-40128295D01*
X49721233Y-40136703D01*
X49679919Y-40246907D01*
X49637277Y-40303671D01*
X49570716Y-40328371D01*
X49501367Y-40313163D01*
X49468743Y-40287476D01*
X49418151Y-40231875D01*
X49418142Y-40231866D01*
X49414670Y-40228051D01*
X49410619Y-40224852D01*
X49410615Y-40224848D01*
X49243414Y-40092800D01*
X49243410Y-40092798D01*
X49239359Y-40089598D01*
X49043789Y-39981638D01*
X49038920Y-39979914D01*
X49038916Y-39979912D01*
X48838087Y-39908795D01*
X48838083Y-39908794D01*
X48833212Y-39907069D01*
X48828119Y-39906162D01*
X48828116Y-39906161D01*
X48618373Y-39868800D01*
X48618367Y-39868799D01*
X48613284Y-39867894D01*
X48539452Y-39866992D01*
X48395081Y-39865228D01*
X48395079Y-39865228D01*
X48389911Y-39865165D01*
X48169091Y-39898955D01*
X47956756Y-39968357D01*
X47758607Y-40071507D01*
X47754474Y-40074610D01*
X47754471Y-40074612D01*
X47584100Y-40202530D01*
X47579965Y-40205635D01*
X47540525Y-40246907D01*
X47486280Y-40303671D01*
X47425629Y-40367138D01*
X47318201Y-40524621D01*
X47263293Y-40569621D01*
X47192768Y-40577792D01*
X47129021Y-40546538D01*
X47108324Y-40522054D01*
X47027822Y-40397617D01*
X47027820Y-40397614D01*
X47025014Y-40393277D01*
X46874670Y-40228051D01*
X46870619Y-40224852D01*
X46870615Y-40224848D01*
X46703414Y-40092800D01*
X46703410Y-40092798D01*
X46699359Y-40089598D01*
X46503789Y-39981638D01*
X46498920Y-39979914D01*
X46498916Y-39979912D01*
X46298087Y-39908795D01*
X46298083Y-39908794D01*
X46293212Y-39907069D01*
X46272639Y-39903404D01*
X46209085Y-39871768D01*
X46172721Y-39810791D01*
X46175096Y-39739834D01*
X46205642Y-39690263D01*
X47235500Y-38660405D01*
X47297812Y-38626379D01*
X47324595Y-38623500D01*
X57440275Y-38623500D01*
X57508396Y-38643502D01*
G37*
%TD.AperFunction*%
%TA.AperFunction,Conductor*%
G36*
X57281748Y-42657991D02*
G01*
X57338584Y-42700538D01*
X57363237Y-42765066D01*
X57366126Y-42798087D01*
X57367550Y-42803400D01*
X57367550Y-42803402D01*
X57404175Y-42940085D01*
X57425385Y-43019243D01*
X57427708Y-43024224D01*
X57427708Y-43024225D01*
X57519820Y-43221762D01*
X57519823Y-43221767D01*
X57522146Y-43226749D01*
X57653471Y-43414300D01*
X57815369Y-43576198D01*
X57819877Y-43579355D01*
X57819880Y-43579357D01*
X57866195Y-43611787D01*
X57910523Y-43667244D01*
X57917832Y-43737864D01*
X57885801Y-43801224D01*
X57866195Y-43818213D01*
X57819880Y-43850643D01*
X57819877Y-43850645D01*
X57815369Y-43853802D01*
X57653471Y-44015700D01*
X57650314Y-44020208D01*
X57650312Y-44020211D01*
X57618395Y-44065794D01*
X57522146Y-44203251D01*
X57519823Y-44208233D01*
X57519820Y-44208238D01*
X57427708Y-44405775D01*
X57425385Y-44410757D01*
X57423963Y-44416065D01*
X57423962Y-44416067D01*
X57379137Y-44583356D01*
X57366126Y-44631913D01*
X57346171Y-44860000D01*
X57366126Y-45088087D01*
X57367550Y-45093400D01*
X57367550Y-45093402D01*
X57414633Y-45269115D01*
X57425385Y-45309243D01*
X57427708Y-45314224D01*
X57427708Y-45314225D01*
X57519820Y-45511762D01*
X57519823Y-45511767D01*
X57522146Y-45516749D01*
X57555852Y-45564886D01*
X57642051Y-45687990D01*
X57653471Y-45704300D01*
X57815369Y-45866198D01*
X57819877Y-45869355D01*
X57819880Y-45869357D01*
X57898058Y-45924098D01*
X58002920Y-45997523D01*
X58007902Y-45999846D01*
X58007907Y-45999849D01*
X58205444Y-46091961D01*
X58210426Y-46094284D01*
X58215734Y-46095706D01*
X58215736Y-46095707D01*
X58426267Y-46152119D01*
X58426269Y-46152119D01*
X58431582Y-46153543D01*
X58659669Y-46173498D01*
X58887756Y-46153543D01*
X58893069Y-46152119D01*
X58893071Y-46152119D01*
X59103602Y-46095707D01*
X59103604Y-46095706D01*
X59108912Y-46094284D01*
X59113894Y-46091961D01*
X59311431Y-45999849D01*
X59311436Y-45999846D01*
X59316418Y-45997523D01*
X59421280Y-45924098D01*
X59499458Y-45869357D01*
X59499461Y-45869355D01*
X59503969Y-45866198D01*
X59665867Y-45704300D01*
X59677288Y-45687990D01*
X59763486Y-45564886D01*
X59797192Y-45516749D01*
X59799515Y-45511767D01*
X59799518Y-45511762D01*
X59891630Y-45314225D01*
X59891630Y-45314224D01*
X59893953Y-45309243D01*
X59904706Y-45269115D01*
X59951788Y-45093402D01*
X59951788Y-45093400D01*
X59953212Y-45088087D01*
X59958541Y-45027178D01*
X59984405Y-44961060D01*
X60041908Y-44919420D01*
X60112796Y-44915480D01*
X60137312Y-44923965D01*
X60185616Y-44946490D01*
X60195908Y-44950236D01*
X60406357Y-45006625D01*
X60417150Y-45008528D01*
X60634194Y-45027517D01*
X60645144Y-45027517D01*
X60862188Y-45008528D01*
X60872981Y-45006625D01*
X61083430Y-44950236D01*
X61093722Y-44946490D01*
X61142026Y-44923965D01*
X61212217Y-44913304D01*
X61277030Y-44942284D01*
X61315887Y-45001703D01*
X61320797Y-45027178D01*
X61326126Y-45088087D01*
X61327550Y-45093400D01*
X61327550Y-45093402D01*
X61374633Y-45269115D01*
X61385385Y-45309243D01*
X61387708Y-45314224D01*
X61387708Y-45314225D01*
X61479820Y-45511762D01*
X61479823Y-45511767D01*
X61482146Y-45516749D01*
X61515852Y-45564886D01*
X61602051Y-45687990D01*
X61613471Y-45704300D01*
X61775369Y-45866198D01*
X61779877Y-45869355D01*
X61779880Y-45869357D01*
X61858058Y-45924098D01*
X61962920Y-45997523D01*
X61967902Y-45999846D01*
X61967907Y-45999849D01*
X62165444Y-46091961D01*
X62170426Y-46094284D01*
X62175734Y-46095706D01*
X62175736Y-46095707D01*
X62386267Y-46152119D01*
X62386269Y-46152119D01*
X62391582Y-46153543D01*
X62619669Y-46173498D01*
X62847756Y-46153543D01*
X62853069Y-46152119D01*
X62853071Y-46152119D01*
X63063602Y-46095707D01*
X63063604Y-46095706D01*
X63068912Y-46094284D01*
X63073894Y-46091961D01*
X63271431Y-45999849D01*
X63271436Y-45999846D01*
X63276418Y-45997523D01*
X63381280Y-45924098D01*
X63459458Y-45869357D01*
X63459461Y-45869355D01*
X63463969Y-45866198D01*
X63625867Y-45704300D01*
X63629028Y-45699786D01*
X63637288Y-45687990D01*
X63692746Y-45643662D01*
X63763365Y-45636354D01*
X63826725Y-45668386D01*
X63862709Y-45729587D01*
X63866500Y-45760262D01*
X63866500Y-47740500D01*
X63846498Y-47808621D01*
X63792842Y-47855114D01*
X63740500Y-47866500D01*
X53208200Y-47866500D01*
X53140079Y-47846498D01*
X53120853Y-47830157D01*
X53120580Y-47830460D01*
X53115668Y-47826037D01*
X53111253Y-47821134D01*
X53000270Y-47740500D01*
X52962094Y-47712763D01*
X52962093Y-47712762D01*
X52956752Y-47708882D01*
X52950724Y-47706198D01*
X52950722Y-47706197D01*
X52788319Y-47633891D01*
X52788318Y-47633891D01*
X52782288Y-47631206D01*
X52688887Y-47611353D01*
X52601944Y-47592872D01*
X52601939Y-47592872D01*
X52595487Y-47591500D01*
X52548263Y-47591500D01*
X52480142Y-47571498D01*
X52433649Y-47517842D01*
X52423545Y-47447568D01*
X52453039Y-47382988D01*
X52459168Y-47376405D01*
X57148621Y-42686952D01*
X57210933Y-42652926D01*
X57281748Y-42657991D01*
G37*
%TD.AperFunction*%
%TA.AperFunction,Conductor*%
G36*
X57293290Y-36353502D02*
G01*
X57339783Y-36407158D01*
X57351169Y-36459500D01*
X57351169Y-36548134D01*
X57357924Y-36610316D01*
X57409054Y-36746705D01*
X57496408Y-36863261D01*
X57612964Y-36950615D01*
X57619914Y-36953221D01*
X57669508Y-37002926D01*
X57684522Y-37072317D01*
X57655631Y-37143540D01*
X57653471Y-37145700D01*
X57650319Y-37150202D01*
X57650317Y-37150204D01*
X57543488Y-37302771D01*
X57488031Y-37347099D01*
X57440275Y-37356500D01*
X47088767Y-37356500D01*
X47077584Y-37355973D01*
X47070091Y-37354298D01*
X47062165Y-37354547D01*
X47062164Y-37354547D01*
X47002014Y-37356438D01*
X46998055Y-37356500D01*
X46970144Y-37356500D01*
X46966210Y-37356997D01*
X46966209Y-37356997D01*
X46966144Y-37357005D01*
X46954307Y-37357938D01*
X46922049Y-37358952D01*
X46918030Y-37359078D01*
X46910111Y-37359327D01*
X46890657Y-37364979D01*
X46871300Y-37368987D01*
X46859070Y-37370532D01*
X46859069Y-37370532D01*
X46851203Y-37371526D01*
X46843832Y-37374445D01*
X46843830Y-37374445D01*
X46810088Y-37387804D01*
X46798858Y-37391649D01*
X46764017Y-37401771D01*
X46764016Y-37401771D01*
X46756407Y-37403982D01*
X46749588Y-37408015D01*
X46749583Y-37408017D01*
X46738972Y-37414293D01*
X46721224Y-37422988D01*
X46702383Y-37430448D01*
X46695967Y-37435110D01*
X46695966Y-37435110D01*
X46666613Y-37456436D01*
X46656693Y-37462952D01*
X46625465Y-37481420D01*
X46625462Y-37481422D01*
X46618638Y-37485458D01*
X46604317Y-37499779D01*
X46589284Y-37512619D01*
X46572893Y-37524528D01*
X46552984Y-37548594D01*
X46544702Y-37558605D01*
X46536712Y-37567384D01*
X39607747Y-44496348D01*
X39599461Y-44503888D01*
X39592982Y-44508000D01*
X39587557Y-44513777D01*
X39546357Y-44557651D01*
X39543602Y-44560493D01*
X39523865Y-44580230D01*
X39521385Y-44583427D01*
X39513679Y-44592450D01*
X39499404Y-44607651D01*
X39438191Y-44643616D01*
X39367251Y-44640777D01*
X39309108Y-44600036D01*
X39282220Y-44534328D01*
X39281943Y-44511511D01*
X39286795Y-44449866D01*
X39292293Y-44380000D01*
X39273670Y-44143369D01*
X39264925Y-44106943D01*
X39220157Y-43920473D01*
X39223704Y-43849565D01*
X39253581Y-43801964D01*
X44030320Y-39025225D01*
X44092632Y-38991199D01*
X44119415Y-38988320D01*
X44175307Y-38988320D01*
X44181759Y-38986948D01*
X44181764Y-38986948D01*
X44268707Y-38968467D01*
X44362108Y-38948614D01*
X44368139Y-38945929D01*
X44530542Y-38873623D01*
X44530544Y-38873622D01*
X44536572Y-38870938D01*
X44691073Y-38758686D01*
X44770989Y-38669930D01*
X44814441Y-38621672D01*
X44814442Y-38621671D01*
X44818860Y-38616764D01*
X44914347Y-38451376D01*
X44973362Y-38269748D01*
X44975136Y-38252875D01*
X44990385Y-38107784D01*
X44990727Y-38104526D01*
X45017740Y-38038870D01*
X45026942Y-38028602D01*
X46685140Y-36370405D01*
X46747452Y-36336379D01*
X46774235Y-36333500D01*
X57225169Y-36333500D01*
X57293290Y-36353502D01*
G37*
%TD.AperFunction*%
%TD*%
M02*
