%TF.GenerationSoftware,KiCad,Pcbnew,(6.0.7-1)-1*%
%TF.CreationDate,2022-08-17T11:35:28+02:00*%
%TF.ProjectId,vgascart,76676173-6361-4727-942e-6b696361645f,rev?*%
%TF.SameCoordinates,Original*%
%TF.FileFunction,Legend,Top*%
%TF.FilePolarity,Positive*%
%FSLAX46Y46*%
G04 Gerber Fmt 4.6, Leading zero omitted, Abs format (unit mm)*
G04 Created by KiCad (PCBNEW (6.0.7-1)-1) date 2022-08-17 11:35:28*
%MOMM*%
%LPD*%
G01*
G04 APERTURE LIST*
%ADD10C,0.150000*%
%ADD11C,0.014000*%
%ADD12C,0.300000*%
%ADD13C,0.127000*%
%ADD14C,0.120000*%
%ADD15C,0.381000*%
%ADD16O,4.100000X3.100000*%
%ADD17C,3.000000*%
%ADD18C,1.600000*%
%ADD19O,1.600000X1.600000*%
%ADD20C,3.200000*%
%ADD21R,1.700000X1.700000*%
%ADD22O,1.700000X1.700000*%
%ADD23C,1.998980*%
%ADD24O,4.000000X2.200000*%
%ADD25O,2.200000X4.000000*%
%ADD26R,4.000000X2.200000*%
%ADD27C,4.000000*%
%ADD28R,1.600000X1.600000*%
G04 APERTURE END LIST*
D10*
X43238095Y-77885476D02*
X43142857Y-77837857D01*
X42952380Y-77837857D01*
X42857142Y-77885476D01*
X42761904Y-77980714D01*
X42714285Y-78075952D01*
X42714285Y-78266428D01*
X42761904Y-78361666D01*
X42857142Y-78456904D01*
X42952380Y-78504523D01*
X43142857Y-78504523D01*
X43238095Y-78456904D01*
X43047619Y-77504523D02*
X42809523Y-77552142D01*
X42571428Y-77695000D01*
X42428571Y-77933095D01*
X42380952Y-78171190D01*
X42428571Y-78409285D01*
X42571428Y-78647380D01*
X42809523Y-78790238D01*
X43047619Y-78837857D01*
X43285714Y-78790238D01*
X43523809Y-78647380D01*
X43666666Y-78409285D01*
X43714285Y-78171190D01*
X43666666Y-77933095D01*
X43523809Y-77695000D01*
X43285714Y-77552142D01*
X43047619Y-77504523D01*
X44857142Y-77742619D02*
X44904761Y-77695000D01*
X44999999Y-77647380D01*
X45238095Y-77647380D01*
X45333333Y-77695000D01*
X45380952Y-77742619D01*
X45428571Y-77837857D01*
X45428571Y-77933095D01*
X45380952Y-78075952D01*
X44809523Y-78647380D01*
X45428571Y-78647380D01*
X46047619Y-77647380D02*
X46142857Y-77647380D01*
X46238095Y-77695000D01*
X46285714Y-77742619D01*
X46333333Y-77837857D01*
X46380952Y-78028333D01*
X46380952Y-78266428D01*
X46333333Y-78456904D01*
X46285714Y-78552142D01*
X46238095Y-78599761D01*
X46142857Y-78647380D01*
X46047619Y-78647380D01*
X45952380Y-78599761D01*
X45904761Y-78552142D01*
X45857142Y-78456904D01*
X45809523Y-78266428D01*
X45809523Y-78028333D01*
X45857142Y-77837857D01*
X45904761Y-77742619D01*
X45952380Y-77695000D01*
X46047619Y-77647380D01*
X46761904Y-77742619D02*
X46809523Y-77695000D01*
X46904761Y-77647380D01*
X47142857Y-77647380D01*
X47238095Y-77695000D01*
X47285714Y-77742619D01*
X47333333Y-77837857D01*
X47333333Y-77933095D01*
X47285714Y-78075952D01*
X46714285Y-78647380D01*
X47333333Y-78647380D01*
X47714285Y-77742619D02*
X47761904Y-77695000D01*
X47857142Y-77647380D01*
X48095238Y-77647380D01*
X48190476Y-77695000D01*
X48238095Y-77742619D01*
X48285714Y-77837857D01*
X48285714Y-77933095D01*
X48238095Y-78075952D01*
X47666666Y-78647380D01*
X48285714Y-78647380D01*
X49428571Y-78599761D02*
X49571428Y-78647380D01*
X49809523Y-78647380D01*
X49904761Y-78599761D01*
X49952380Y-78552142D01*
X50000000Y-78456904D01*
X50000000Y-78361666D01*
X49952380Y-78266428D01*
X49904761Y-78218809D01*
X49809523Y-78171190D01*
X49619047Y-78123571D01*
X49523809Y-78075952D01*
X49476190Y-78028333D01*
X49428571Y-77933095D01*
X49428571Y-77837857D01*
X49476190Y-77742619D01*
X49523809Y-77695000D01*
X49619047Y-77647380D01*
X49857142Y-77647380D01*
X50000000Y-77695000D01*
X50428571Y-78647380D02*
X50428571Y-77980714D01*
X50428571Y-77647380D02*
X50380952Y-77695000D01*
X50428571Y-77742619D01*
X50476190Y-77695000D01*
X50428571Y-77647380D01*
X50428571Y-77742619D01*
X50904761Y-78647380D02*
X50904761Y-77980714D01*
X50904761Y-78075952D02*
X50952380Y-78028333D01*
X51047619Y-77980714D01*
X51190476Y-77980714D01*
X51285714Y-78028333D01*
X51333333Y-78123571D01*
X51333333Y-78647380D01*
X51333333Y-78123571D02*
X51380952Y-78028333D01*
X51476190Y-77980714D01*
X51619047Y-77980714D01*
X51714285Y-78028333D01*
X51761904Y-78123571D01*
X51761904Y-78647380D01*
X52380952Y-78647380D02*
X52285714Y-78599761D01*
X52238095Y-78552142D01*
X52190476Y-78456904D01*
X52190476Y-78171190D01*
X52238095Y-78075952D01*
X52285714Y-78028333D01*
X52380952Y-77980714D01*
X52523809Y-77980714D01*
X52619047Y-78028333D01*
X52666666Y-78075952D01*
X52714285Y-78171190D01*
X52714285Y-78456904D01*
X52666666Y-78552142D01*
X52619047Y-78599761D01*
X52523809Y-78647380D01*
X52380952Y-78647380D01*
X53142857Y-77980714D02*
X53142857Y-78647380D01*
X53142857Y-78075952D02*
X53190476Y-78028333D01*
X53285714Y-77980714D01*
X53428571Y-77980714D01*
X53523809Y-78028333D01*
X53571428Y-78123571D01*
X53571428Y-78647380D01*
X44047619Y-80257380D02*
X44047619Y-79257380D01*
X44619047Y-80257380D02*
X44190476Y-79685952D01*
X44619047Y-79257380D02*
X44047619Y-79828809D01*
X45190476Y-80257380D02*
X45095238Y-80209761D01*
X45047619Y-80162142D01*
X45000000Y-80066904D01*
X45000000Y-79781190D01*
X45047619Y-79685952D01*
X45095238Y-79638333D01*
X45190476Y-79590714D01*
X45333333Y-79590714D01*
X45428571Y-79638333D01*
X45476190Y-79685952D01*
X45523809Y-79781190D01*
X45523809Y-80066904D01*
X45476190Y-80162142D01*
X45428571Y-80209761D01*
X45333333Y-80257380D01*
X45190476Y-80257380D01*
X45857142Y-79590714D02*
X46047619Y-80257380D01*
X46238095Y-79781190D01*
X46428571Y-80257380D01*
X46619047Y-79590714D01*
X47428571Y-80257380D02*
X47428571Y-79733571D01*
X47380952Y-79638333D01*
X47285714Y-79590714D01*
X47095238Y-79590714D01*
X46999999Y-79638333D01*
X47428571Y-80209761D02*
X47333333Y-80257380D01*
X47095238Y-80257380D01*
X46999999Y-80209761D01*
X46952380Y-80114523D01*
X46952380Y-80019285D01*
X46999999Y-79924047D01*
X47095238Y-79876428D01*
X47333333Y-79876428D01*
X47428571Y-79828809D01*
X48047619Y-80257380D02*
X47952380Y-80209761D01*
X47904761Y-80114523D01*
X47904761Y-79257380D01*
X48809523Y-80209761D02*
X48714285Y-80257380D01*
X48523809Y-80257380D01*
X48428571Y-80209761D01*
X48380952Y-80114523D01*
X48380952Y-79733571D01*
X48428571Y-79638333D01*
X48523809Y-79590714D01*
X48714285Y-79590714D01*
X48809523Y-79638333D01*
X48857142Y-79733571D01*
X48857142Y-79828809D01*
X48380952Y-79924047D01*
X49190476Y-79590714D02*
X49380952Y-80257380D01*
X49571428Y-79781190D01*
X49761904Y-80257380D01*
X49952380Y-79590714D01*
X50285714Y-80209761D02*
X50380952Y-80257380D01*
X50571428Y-80257380D01*
X50666666Y-80209761D01*
X50714285Y-80114523D01*
X50714285Y-80066904D01*
X50666666Y-79971666D01*
X50571428Y-79924047D01*
X50428571Y-79924047D01*
X50333333Y-79876428D01*
X50285714Y-79781190D01*
X50285714Y-79733571D01*
X50333333Y-79638333D01*
X50428571Y-79590714D01*
X50571428Y-79590714D01*
X50666666Y-79638333D01*
X51142857Y-80257380D02*
X51142857Y-79257380D01*
X51238095Y-79876428D02*
X51523809Y-80257380D01*
X51523809Y-79590714D02*
X51142857Y-79971666D01*
X51952380Y-80257380D02*
X51952380Y-79590714D01*
X51952380Y-79257380D02*
X51904761Y-79305000D01*
X51952380Y-79352619D01*
X51999999Y-79305000D01*
X51952380Y-79257380D01*
X51952380Y-79352619D01*
D11*
G36*
X45635874Y-68727737D02*
G01*
X45638715Y-68727850D01*
X45641552Y-68727993D01*
X45644383Y-68728168D01*
X45647207Y-68728373D01*
X45650023Y-68728610D01*
X45652830Y-68728878D01*
X45655626Y-68729178D01*
X45658410Y-68729509D01*
X45690833Y-68733322D01*
X45722803Y-68737869D01*
X45754300Y-68743235D01*
X45785307Y-68749505D01*
X45815803Y-68756762D01*
X45845771Y-68765091D01*
X45875190Y-68774575D01*
X45904043Y-68785300D01*
X45932309Y-68797348D01*
X45959971Y-68810804D01*
X45987008Y-68825753D01*
X46013403Y-68842278D01*
X46039135Y-68860463D01*
X46064187Y-68880393D01*
X46088538Y-68902152D01*
X46112171Y-68925823D01*
X46126374Y-68942238D01*
X46139803Y-68959498D01*
X46152444Y-68977547D01*
X46164282Y-68996329D01*
X46175304Y-69015787D01*
X46185495Y-69035867D01*
X46203328Y-69077665D01*
X46217666Y-69121275D01*
X46228396Y-69166250D01*
X46235404Y-69212142D01*
X46238575Y-69258503D01*
X46238687Y-69281720D01*
X46237796Y-69304886D01*
X46235890Y-69327946D01*
X46232954Y-69350844D01*
X46228973Y-69373522D01*
X46223933Y-69395927D01*
X46217820Y-69418001D01*
X46210620Y-69439689D01*
X46202319Y-69460935D01*
X46192902Y-69481683D01*
X46182354Y-69501876D01*
X46170663Y-69521460D01*
X46157813Y-69540377D01*
X46143791Y-69558572D01*
X46128581Y-69575990D01*
X46112171Y-69592573D01*
X46092591Y-69611017D01*
X46072738Y-69628826D01*
X46052598Y-69645973D01*
X46032156Y-69662431D01*
X46011400Y-69678173D01*
X45990315Y-69693171D01*
X45968889Y-69707399D01*
X45947107Y-69720830D01*
X45924957Y-69733435D01*
X45902423Y-69745189D01*
X45879494Y-69756064D01*
X45856155Y-69766032D01*
X45832393Y-69775067D01*
X45808193Y-69783142D01*
X45783544Y-69790230D01*
X45758430Y-69796302D01*
X45738183Y-69800028D01*
X45717738Y-69802926D01*
X45697113Y-69805081D01*
X45676327Y-69806577D01*
X45655401Y-69807497D01*
X45634352Y-69807927D01*
X45591963Y-69807650D01*
X45506557Y-69804903D01*
X45463845Y-69803779D01*
X45421329Y-69803718D01*
X45399708Y-69803423D01*
X45378587Y-69801884D01*
X45357943Y-69799156D01*
X45337755Y-69795297D01*
X45318001Y-69790364D01*
X45298660Y-69784414D01*
X45279709Y-69777503D01*
X45261127Y-69769689D01*
X45242893Y-69761028D01*
X45224984Y-69751578D01*
X45207379Y-69741396D01*
X45190056Y-69730537D01*
X45172994Y-69719060D01*
X45156170Y-69707022D01*
X45139563Y-69694478D01*
X45123151Y-69681487D01*
X45104571Y-69665884D01*
X45087028Y-69649644D01*
X45070516Y-69632781D01*
X45055029Y-69615307D01*
X45040562Y-69597236D01*
X45027110Y-69578582D01*
X45014667Y-69559358D01*
X45003228Y-69539579D01*
X44992788Y-69519257D01*
X44983340Y-69498405D01*
X44974880Y-69477038D01*
X44967402Y-69455169D01*
X44960901Y-69432812D01*
X44955371Y-69409979D01*
X44950807Y-69386686D01*
X44947203Y-69362944D01*
X44944298Y-69337030D01*
X44942543Y-69311382D01*
X44941961Y-69286005D01*
X44942571Y-69260905D01*
X44944398Y-69236088D01*
X44947461Y-69211558D01*
X44951783Y-69187320D01*
X44957386Y-69163382D01*
X44964290Y-69139747D01*
X44972519Y-69116421D01*
X44982094Y-69093410D01*
X44993036Y-69070719D01*
X45005367Y-69048354D01*
X45019109Y-69026320D01*
X45034283Y-69004622D01*
X45050912Y-68983266D01*
X45064649Y-68967268D01*
X45078766Y-68951906D01*
X45093251Y-68937168D01*
X45108095Y-68923040D01*
X45123286Y-68909509D01*
X45138814Y-68896560D01*
X45154667Y-68884181D01*
X45170835Y-68872358D01*
X45187306Y-68861078D01*
X45204071Y-68850327D01*
X45221118Y-68840092D01*
X45238436Y-68830358D01*
X45256014Y-68821114D01*
X45273842Y-68812344D01*
X45291909Y-68804037D01*
X45310204Y-68796177D01*
X45325568Y-68790485D01*
X45341093Y-68785193D01*
X45356764Y-68780264D01*
X45372568Y-68775664D01*
X45404521Y-68767309D01*
X45436844Y-68759845D01*
X45567651Y-68733235D01*
X45576030Y-68731770D01*
X45584488Y-68730508D01*
X45593007Y-68729458D01*
X45601567Y-68728630D01*
X45610152Y-68728034D01*
X45618744Y-68727680D01*
X45627324Y-68727578D01*
X45635874Y-68727737D01*
G37*
X45635874Y-68727737D02*
X45638715Y-68727850D01*
X45641552Y-68727993D01*
X45644383Y-68728168D01*
X45647207Y-68728373D01*
X45650023Y-68728610D01*
X45652830Y-68728878D01*
X45655626Y-68729178D01*
X45658410Y-68729509D01*
X45690833Y-68733322D01*
X45722803Y-68737869D01*
X45754300Y-68743235D01*
X45785307Y-68749505D01*
X45815803Y-68756762D01*
X45845771Y-68765091D01*
X45875190Y-68774575D01*
X45904043Y-68785300D01*
X45932309Y-68797348D01*
X45959971Y-68810804D01*
X45987008Y-68825753D01*
X46013403Y-68842278D01*
X46039135Y-68860463D01*
X46064187Y-68880393D01*
X46088538Y-68902152D01*
X46112171Y-68925823D01*
X46126374Y-68942238D01*
X46139803Y-68959498D01*
X46152444Y-68977547D01*
X46164282Y-68996329D01*
X46175304Y-69015787D01*
X46185495Y-69035867D01*
X46203328Y-69077665D01*
X46217666Y-69121275D01*
X46228396Y-69166250D01*
X46235404Y-69212142D01*
X46238575Y-69258503D01*
X46238687Y-69281720D01*
X46237796Y-69304886D01*
X46235890Y-69327946D01*
X46232954Y-69350844D01*
X46228973Y-69373522D01*
X46223933Y-69395927D01*
X46217820Y-69418001D01*
X46210620Y-69439689D01*
X46202319Y-69460935D01*
X46192902Y-69481683D01*
X46182354Y-69501876D01*
X46170663Y-69521460D01*
X46157813Y-69540377D01*
X46143791Y-69558572D01*
X46128581Y-69575990D01*
X46112171Y-69592573D01*
X46092591Y-69611017D01*
X46072738Y-69628826D01*
X46052598Y-69645973D01*
X46032156Y-69662431D01*
X46011400Y-69678173D01*
X45990315Y-69693171D01*
X45968889Y-69707399D01*
X45947107Y-69720830D01*
X45924957Y-69733435D01*
X45902423Y-69745189D01*
X45879494Y-69756064D01*
X45856155Y-69766032D01*
X45832393Y-69775067D01*
X45808193Y-69783142D01*
X45783544Y-69790230D01*
X45758430Y-69796302D01*
X45738183Y-69800028D01*
X45717738Y-69802926D01*
X45697113Y-69805081D01*
X45676327Y-69806577D01*
X45655401Y-69807497D01*
X45634352Y-69807927D01*
X45591963Y-69807650D01*
X45506557Y-69804903D01*
X45463845Y-69803779D01*
X45421329Y-69803718D01*
X45399708Y-69803423D01*
X45378587Y-69801884D01*
X45357943Y-69799156D01*
X45337755Y-69795297D01*
X45318001Y-69790364D01*
X45298660Y-69784414D01*
X45279709Y-69777503D01*
X45261127Y-69769689D01*
X45242893Y-69761028D01*
X45224984Y-69751578D01*
X45207379Y-69741396D01*
X45190056Y-69730537D01*
X45172994Y-69719060D01*
X45156170Y-69707022D01*
X45139563Y-69694478D01*
X45123151Y-69681487D01*
X45104571Y-69665884D01*
X45087028Y-69649644D01*
X45070516Y-69632781D01*
X45055029Y-69615307D01*
X45040562Y-69597236D01*
X45027110Y-69578582D01*
X45014667Y-69559358D01*
X45003228Y-69539579D01*
X44992788Y-69519257D01*
X44983340Y-69498405D01*
X44974880Y-69477038D01*
X44967402Y-69455169D01*
X44960901Y-69432812D01*
X44955371Y-69409979D01*
X44950807Y-69386686D01*
X44947203Y-69362944D01*
X44944298Y-69337030D01*
X44942543Y-69311382D01*
X44941961Y-69286005D01*
X44942571Y-69260905D01*
X44944398Y-69236088D01*
X44947461Y-69211558D01*
X44951783Y-69187320D01*
X44957386Y-69163382D01*
X44964290Y-69139747D01*
X44972519Y-69116421D01*
X44982094Y-69093410D01*
X44993036Y-69070719D01*
X45005367Y-69048354D01*
X45019109Y-69026320D01*
X45034283Y-69004622D01*
X45050912Y-68983266D01*
X45064649Y-68967268D01*
X45078766Y-68951906D01*
X45093251Y-68937168D01*
X45108095Y-68923040D01*
X45123286Y-68909509D01*
X45138814Y-68896560D01*
X45154667Y-68884181D01*
X45170835Y-68872358D01*
X45187306Y-68861078D01*
X45204071Y-68850327D01*
X45221118Y-68840092D01*
X45238436Y-68830358D01*
X45256014Y-68821114D01*
X45273842Y-68812344D01*
X45291909Y-68804037D01*
X45310204Y-68796177D01*
X45325568Y-68790485D01*
X45341093Y-68785193D01*
X45356764Y-68780264D01*
X45372568Y-68775664D01*
X45404521Y-68767309D01*
X45436844Y-68759845D01*
X45567651Y-68733235D01*
X45576030Y-68731770D01*
X45584488Y-68730508D01*
X45593007Y-68729458D01*
X45601567Y-68728630D01*
X45610152Y-68728034D01*
X45618744Y-68727680D01*
X45627324Y-68727578D01*
X45635874Y-68727737D01*
G36*
X56428156Y-69966283D02*
G01*
X56442562Y-69966568D01*
X56457023Y-69967135D01*
X56471537Y-69967982D01*
X56486106Y-69969107D01*
X56500729Y-69970508D01*
X56515407Y-69972183D01*
X56530138Y-69974131D01*
X56534305Y-69974742D01*
X56538469Y-69975201D01*
X56542633Y-69975529D01*
X56546797Y-69975748D01*
X56550960Y-69975880D01*
X56555124Y-69975948D01*
X56563455Y-69975976D01*
X56582239Y-69976986D01*
X56599046Y-69978675D01*
X56606728Y-69979795D01*
X56613938Y-69981112D01*
X56620686Y-69982634D01*
X56626978Y-69984369D01*
X56632822Y-69986327D01*
X56638226Y-69988516D01*
X56643199Y-69990946D01*
X56647747Y-69993624D01*
X56651879Y-69996560D01*
X56655602Y-69999762D01*
X56658924Y-70003240D01*
X56661854Y-70007002D01*
X56664398Y-70011057D01*
X56666564Y-70015414D01*
X56668361Y-70020081D01*
X56669796Y-70025068D01*
X56670877Y-70030384D01*
X56671612Y-70036036D01*
X56672008Y-70042034D01*
X56672074Y-70048387D01*
X56671817Y-70055103D01*
X56671244Y-70062192D01*
X56669185Y-70077522D01*
X56665960Y-70094447D01*
X56661630Y-70113037D01*
X56646061Y-70175545D01*
X56631188Y-70238053D01*
X56602833Y-70363068D01*
X56575172Y-70488084D01*
X56546815Y-70613099D01*
X56504669Y-70785340D01*
X56482726Y-70871459D01*
X56459745Y-70957580D01*
X56458243Y-70963347D01*
X56456497Y-70968816D01*
X56454481Y-70973948D01*
X56452165Y-70978707D01*
X56450888Y-70980933D01*
X56449525Y-70983053D01*
X56448074Y-70985059D01*
X56446532Y-70986948D01*
X56444895Y-70988715D01*
X56443159Y-70990355D01*
X56441322Y-70991864D01*
X56439379Y-70993236D01*
X56437329Y-70994468D01*
X56435166Y-70995553D01*
X56432888Y-70996488D01*
X56430491Y-70997267D01*
X56427972Y-70997887D01*
X56425327Y-70998341D01*
X56422554Y-70998627D01*
X56419648Y-70998737D01*
X56416607Y-70998669D01*
X56413426Y-70998417D01*
X56410103Y-70997976D01*
X56406634Y-70997342D01*
X56403016Y-70996510D01*
X56399245Y-70995475D01*
X56395318Y-70994232D01*
X56391232Y-70992777D01*
X56367166Y-70984245D01*
X56342904Y-70976694D01*
X56318469Y-70970110D01*
X56293881Y-70964475D01*
X56269163Y-70959773D01*
X56244337Y-70955988D01*
X56219424Y-70953104D01*
X56194445Y-70951105D01*
X56169423Y-70949974D01*
X56144379Y-70949694D01*
X56119336Y-70950250D01*
X56094314Y-70951626D01*
X56069336Y-70953804D01*
X56044423Y-70956770D01*
X56019596Y-70960505D01*
X55994879Y-70964995D01*
X55968054Y-70971114D01*
X55941752Y-70978347D01*
X55915977Y-70986681D01*
X55890731Y-70996104D01*
X55866017Y-71006600D01*
X55841838Y-71018158D01*
X55818196Y-71030762D01*
X55795093Y-71044400D01*
X55772534Y-71059058D01*
X55750519Y-71074723D01*
X55729053Y-71091381D01*
X55708137Y-71109018D01*
X55687775Y-71127621D01*
X55667968Y-71147176D01*
X55648720Y-71167671D01*
X55630033Y-71189090D01*
X55606500Y-71219011D01*
X55585102Y-71249699D01*
X55565674Y-71281097D01*
X55548050Y-71313150D01*
X55532064Y-71345799D01*
X55517552Y-71378988D01*
X55504347Y-71412660D01*
X55492284Y-71446758D01*
X55481199Y-71481225D01*
X55470924Y-71516004D01*
X55452146Y-71586269D01*
X55417044Y-71728039D01*
X55380810Y-71876696D01*
X55346658Y-72025523D01*
X55281828Y-72324396D01*
X55260499Y-72429678D01*
X55240384Y-72534618D01*
X55200328Y-72744840D01*
X55199570Y-72748664D01*
X55198687Y-72752512D01*
X55196570Y-72760378D01*
X55194019Y-72768634D01*
X55191079Y-72777476D01*
X55184199Y-72797699D01*
X55180345Y-72809472D01*
X55176273Y-72822613D01*
X54811391Y-72822613D01*
X54776929Y-72821955D01*
X54743009Y-72819951D01*
X54709654Y-72816558D01*
X54676884Y-72811733D01*
X54644723Y-72805432D01*
X54613191Y-72797612D01*
X54582310Y-72788230D01*
X54552103Y-72777241D01*
X54522589Y-72764602D01*
X54493792Y-72750271D01*
X54465733Y-72734203D01*
X54438433Y-72716356D01*
X54411915Y-72696685D01*
X54386200Y-72675148D01*
X54361309Y-72651700D01*
X54337265Y-72626300D01*
X54313503Y-72598604D01*
X54291549Y-72570376D01*
X54271428Y-72541606D01*
X54253169Y-72512283D01*
X54236798Y-72482396D01*
X54222342Y-72451934D01*
X54209829Y-72420885D01*
X54199285Y-72389240D01*
X54190738Y-72356988D01*
X54184215Y-72324116D01*
X54179743Y-72290615D01*
X54177349Y-72256474D01*
X54177060Y-72221681D01*
X54178904Y-72186227D01*
X54182908Y-72150099D01*
X54189098Y-72113287D01*
X54200503Y-72053398D01*
X54211236Y-71993249D01*
X54231465Y-71872516D01*
X54251346Y-71751784D01*
X54272442Y-71631745D01*
X54280404Y-71590767D01*
X54288910Y-71549787D01*
X54306944Y-71467825D01*
X54325325Y-71385863D01*
X54342836Y-71303905D01*
X54420609Y-70883497D01*
X54487276Y-70568642D01*
X54501948Y-70496119D01*
X54515752Y-70423243D01*
X54542839Y-70277844D01*
X54549613Y-70237303D01*
X54553066Y-70216936D01*
X54556736Y-70196591D01*
X54560754Y-70176333D01*
X54565249Y-70156226D01*
X54570352Y-70136336D01*
X54576191Y-70116727D01*
X54579496Y-70106594D01*
X54583179Y-70097038D01*
X54587275Y-70088074D01*
X54591815Y-70079715D01*
X54596832Y-70071975D01*
X54599530Y-70068341D01*
X54602359Y-70064867D01*
X54605324Y-70061555D01*
X54608429Y-70058405D01*
X54611678Y-70055420D01*
X54615074Y-70052602D01*
X54618622Y-70049952D01*
X54622326Y-70047472D01*
X54626191Y-70045164D01*
X54630219Y-70043028D01*
X54634416Y-70041068D01*
X54638785Y-70039285D01*
X54643331Y-70037679D01*
X54648057Y-70036254D01*
X54652967Y-70035011D01*
X54658066Y-70033951D01*
X54663358Y-70033076D01*
X54668847Y-70032388D01*
X54674536Y-70031889D01*
X54680431Y-70031580D01*
X54692851Y-70031538D01*
X54930383Y-70033389D01*
X55167917Y-70033850D01*
X55642983Y-70033383D01*
X55720757Y-70033383D01*
X55695533Y-70262586D01*
X55682489Y-70373542D01*
X55668920Y-70483454D01*
X55685596Y-70492714D01*
X55716154Y-70454889D01*
X55746711Y-70416540D01*
X55807826Y-70338977D01*
X55869466Y-70260580D01*
X55900612Y-70221803D01*
X55916551Y-70202777D01*
X55932842Y-70184089D01*
X55949568Y-70165815D01*
X55966809Y-70148025D01*
X55984647Y-70130795D01*
X56003163Y-70114197D01*
X56022439Y-70098305D01*
X56042556Y-70083191D01*
X56063596Y-70068930D01*
X56085639Y-70055593D01*
X56105234Y-70044760D01*
X56124950Y-70034653D01*
X56144789Y-70025268D01*
X56164750Y-70016599D01*
X56184833Y-70008639D01*
X56205039Y-70001384D01*
X56225366Y-69994827D01*
X56245815Y-69988962D01*
X56266387Y-69983784D01*
X56287080Y-69979287D01*
X56307896Y-69975465D01*
X56328833Y-69972313D01*
X56349893Y-69969824D01*
X56371075Y-69967993D01*
X56392379Y-69966814D01*
X56413805Y-69966281D01*
X56428156Y-69966283D01*
G37*
X56428156Y-69966283D02*
X56442562Y-69966568D01*
X56457023Y-69967135D01*
X56471537Y-69967982D01*
X56486106Y-69969107D01*
X56500729Y-69970508D01*
X56515407Y-69972183D01*
X56530138Y-69974131D01*
X56534305Y-69974742D01*
X56538469Y-69975201D01*
X56542633Y-69975529D01*
X56546797Y-69975748D01*
X56550960Y-69975880D01*
X56555124Y-69975948D01*
X56563455Y-69975976D01*
X56582239Y-69976986D01*
X56599046Y-69978675D01*
X56606728Y-69979795D01*
X56613938Y-69981112D01*
X56620686Y-69982634D01*
X56626978Y-69984369D01*
X56632822Y-69986327D01*
X56638226Y-69988516D01*
X56643199Y-69990946D01*
X56647747Y-69993624D01*
X56651879Y-69996560D01*
X56655602Y-69999762D01*
X56658924Y-70003240D01*
X56661854Y-70007002D01*
X56664398Y-70011057D01*
X56666564Y-70015414D01*
X56668361Y-70020081D01*
X56669796Y-70025068D01*
X56670877Y-70030384D01*
X56671612Y-70036036D01*
X56672008Y-70042034D01*
X56672074Y-70048387D01*
X56671817Y-70055103D01*
X56671244Y-70062192D01*
X56669185Y-70077522D01*
X56665960Y-70094447D01*
X56661630Y-70113037D01*
X56646061Y-70175545D01*
X56631188Y-70238053D01*
X56602833Y-70363068D01*
X56575172Y-70488084D01*
X56546815Y-70613099D01*
X56504669Y-70785340D01*
X56482726Y-70871459D01*
X56459745Y-70957580D01*
X56458243Y-70963347D01*
X56456497Y-70968816D01*
X56454481Y-70973948D01*
X56452165Y-70978707D01*
X56450888Y-70980933D01*
X56449525Y-70983053D01*
X56448074Y-70985059D01*
X56446532Y-70986948D01*
X56444895Y-70988715D01*
X56443159Y-70990355D01*
X56441322Y-70991864D01*
X56439379Y-70993236D01*
X56437329Y-70994468D01*
X56435166Y-70995553D01*
X56432888Y-70996488D01*
X56430491Y-70997267D01*
X56427972Y-70997887D01*
X56425327Y-70998341D01*
X56422554Y-70998627D01*
X56419648Y-70998737D01*
X56416607Y-70998669D01*
X56413426Y-70998417D01*
X56410103Y-70997976D01*
X56406634Y-70997342D01*
X56403016Y-70996510D01*
X56399245Y-70995475D01*
X56395318Y-70994232D01*
X56391232Y-70992777D01*
X56367166Y-70984245D01*
X56342904Y-70976694D01*
X56318469Y-70970110D01*
X56293881Y-70964475D01*
X56269163Y-70959773D01*
X56244337Y-70955988D01*
X56219424Y-70953104D01*
X56194445Y-70951105D01*
X56169423Y-70949974D01*
X56144379Y-70949694D01*
X56119336Y-70950250D01*
X56094314Y-70951626D01*
X56069336Y-70953804D01*
X56044423Y-70956770D01*
X56019596Y-70960505D01*
X55994879Y-70964995D01*
X55968054Y-70971114D01*
X55941752Y-70978347D01*
X55915977Y-70986681D01*
X55890731Y-70996104D01*
X55866017Y-71006600D01*
X55841838Y-71018158D01*
X55818196Y-71030762D01*
X55795093Y-71044400D01*
X55772534Y-71059058D01*
X55750519Y-71074723D01*
X55729053Y-71091381D01*
X55708137Y-71109018D01*
X55687775Y-71127621D01*
X55667968Y-71147176D01*
X55648720Y-71167671D01*
X55630033Y-71189090D01*
X55606500Y-71219011D01*
X55585102Y-71249699D01*
X55565674Y-71281097D01*
X55548050Y-71313150D01*
X55532064Y-71345799D01*
X55517552Y-71378988D01*
X55504347Y-71412660D01*
X55492284Y-71446758D01*
X55481199Y-71481225D01*
X55470924Y-71516004D01*
X55452146Y-71586269D01*
X55417044Y-71728039D01*
X55380810Y-71876696D01*
X55346658Y-72025523D01*
X55281828Y-72324396D01*
X55260499Y-72429678D01*
X55240384Y-72534618D01*
X55200328Y-72744840D01*
X55199570Y-72748664D01*
X55198687Y-72752512D01*
X55196570Y-72760378D01*
X55194019Y-72768634D01*
X55191079Y-72777476D01*
X55184199Y-72797699D01*
X55180345Y-72809472D01*
X55176273Y-72822613D01*
X54811391Y-72822613D01*
X54776929Y-72821955D01*
X54743009Y-72819951D01*
X54709654Y-72816558D01*
X54676884Y-72811733D01*
X54644723Y-72805432D01*
X54613191Y-72797612D01*
X54582310Y-72788230D01*
X54552103Y-72777241D01*
X54522589Y-72764602D01*
X54493792Y-72750271D01*
X54465733Y-72734203D01*
X54438433Y-72716356D01*
X54411915Y-72696685D01*
X54386200Y-72675148D01*
X54361309Y-72651700D01*
X54337265Y-72626300D01*
X54313503Y-72598604D01*
X54291549Y-72570376D01*
X54271428Y-72541606D01*
X54253169Y-72512283D01*
X54236798Y-72482396D01*
X54222342Y-72451934D01*
X54209829Y-72420885D01*
X54199285Y-72389240D01*
X54190738Y-72356988D01*
X54184215Y-72324116D01*
X54179743Y-72290615D01*
X54177349Y-72256474D01*
X54177060Y-72221681D01*
X54178904Y-72186227D01*
X54182908Y-72150099D01*
X54189098Y-72113287D01*
X54200503Y-72053398D01*
X54211236Y-71993249D01*
X54231465Y-71872516D01*
X54251346Y-71751784D01*
X54272442Y-71631745D01*
X54280404Y-71590767D01*
X54288910Y-71549787D01*
X54306944Y-71467825D01*
X54325325Y-71385863D01*
X54342836Y-71303905D01*
X54420609Y-70883497D01*
X54487276Y-70568642D01*
X54501948Y-70496119D01*
X54515752Y-70423243D01*
X54542839Y-70277844D01*
X54549613Y-70237303D01*
X54553066Y-70216936D01*
X54556736Y-70196591D01*
X54560754Y-70176333D01*
X54565249Y-70156226D01*
X54570352Y-70136336D01*
X54576191Y-70116727D01*
X54579496Y-70106594D01*
X54583179Y-70097038D01*
X54587275Y-70088074D01*
X54591815Y-70079715D01*
X54596832Y-70071975D01*
X54599530Y-70068341D01*
X54602359Y-70064867D01*
X54605324Y-70061555D01*
X54608429Y-70058405D01*
X54611678Y-70055420D01*
X54615074Y-70052602D01*
X54618622Y-70049952D01*
X54622326Y-70047472D01*
X54626191Y-70045164D01*
X54630219Y-70043028D01*
X54634416Y-70041068D01*
X54638785Y-70039285D01*
X54643331Y-70037679D01*
X54648057Y-70036254D01*
X54652967Y-70035011D01*
X54658066Y-70033951D01*
X54663358Y-70033076D01*
X54668847Y-70032388D01*
X54674536Y-70031889D01*
X54680431Y-70031580D01*
X54692851Y-70031538D01*
X54930383Y-70033389D01*
X55167917Y-70033850D01*
X55642983Y-70033383D01*
X55720757Y-70033383D01*
X55695533Y-70262586D01*
X55682489Y-70373542D01*
X55668920Y-70483454D01*
X55685596Y-70492714D01*
X55716154Y-70454889D01*
X55746711Y-70416540D01*
X55807826Y-70338977D01*
X55869466Y-70260580D01*
X55900612Y-70221803D01*
X55916551Y-70202777D01*
X55932842Y-70184089D01*
X55949568Y-70165815D01*
X55966809Y-70148025D01*
X55984647Y-70130795D01*
X56003163Y-70114197D01*
X56022439Y-70098305D01*
X56042556Y-70083191D01*
X56063596Y-70068930D01*
X56085639Y-70055593D01*
X56105234Y-70044760D01*
X56124950Y-70034653D01*
X56144789Y-70025268D01*
X56164750Y-70016599D01*
X56184833Y-70008639D01*
X56205039Y-70001384D01*
X56225366Y-69994827D01*
X56245815Y-69988962D01*
X56266387Y-69983784D01*
X56287080Y-69979287D01*
X56307896Y-69975465D01*
X56328833Y-69972313D01*
X56349893Y-69969824D01*
X56371075Y-69967993D01*
X56392379Y-69966814D01*
X56413805Y-69966281D01*
X56428156Y-69966283D01*
G36*
X45225256Y-70032419D02*
G01*
X45270976Y-70034345D01*
X45316584Y-70037733D01*
X45339336Y-70040075D01*
X45362048Y-70042902D01*
X45384716Y-70046253D01*
X45407336Y-70050169D01*
X45429904Y-70054689D01*
X45452416Y-70059852D01*
X45474869Y-70065699D01*
X45497257Y-70072269D01*
X45538228Y-70086273D01*
X45576470Y-70101913D01*
X45612074Y-70119219D01*
X45645134Y-70138220D01*
X45675742Y-70158946D01*
X45703989Y-70181428D01*
X45729967Y-70205695D01*
X45753771Y-70231777D01*
X45775490Y-70259703D01*
X45795218Y-70289505D01*
X45813047Y-70321211D01*
X45829069Y-70354851D01*
X45843377Y-70390456D01*
X45856062Y-70428054D01*
X45867217Y-70467677D01*
X45876934Y-70509354D01*
X45881749Y-70535030D01*
X45885157Y-70560663D01*
X45887267Y-70586252D01*
X45888192Y-70611799D01*
X45888043Y-70637301D01*
X45886931Y-70662761D01*
X45884967Y-70688177D01*
X45882262Y-70713550D01*
X45875076Y-70764165D01*
X45866262Y-70814607D01*
X45847308Y-70914968D01*
X45826616Y-71029945D01*
X45804012Y-71144405D01*
X45756549Y-71372454D01*
X45676931Y-71731729D01*
X45541714Y-72383684D01*
X45524957Y-72462832D01*
X45507679Y-72541806D01*
X45489358Y-72620432D01*
X45479645Y-72659561D01*
X45469476Y-72698538D01*
X45463208Y-72720381D01*
X45457439Y-72739497D01*
X45451931Y-72756068D01*
X45446445Y-72770275D01*
X45443636Y-72776549D01*
X45440743Y-72782301D01*
X45437736Y-72787553D01*
X45434585Y-72792328D01*
X45431261Y-72796648D01*
X45427733Y-72800536D01*
X45423972Y-72804016D01*
X45419947Y-72807109D01*
X45415630Y-72809839D01*
X45410990Y-72812228D01*
X45405997Y-72814299D01*
X45400621Y-72816074D01*
X45394834Y-72817577D01*
X45388603Y-72818830D01*
X45374697Y-72820677D01*
X45358663Y-72821797D01*
X45340263Y-72822372D01*
X45295409Y-72822613D01*
X45193545Y-72822613D01*
X45093644Y-72822588D01*
X45043910Y-72821351D01*
X45019134Y-72820074D01*
X44994435Y-72818226D01*
X44969822Y-72815704D01*
X44945307Y-72812409D01*
X44920901Y-72808241D01*
X44896614Y-72803098D01*
X44872458Y-72796881D01*
X44848443Y-72789488D01*
X44824581Y-72780820D01*
X44800881Y-72770777D01*
X44765288Y-72753147D01*
X44731440Y-72734270D01*
X44699344Y-72714111D01*
X44669009Y-72692640D01*
X44640444Y-72669822D01*
X44613655Y-72645626D01*
X44588652Y-72620019D01*
X44565442Y-72592969D01*
X44544034Y-72564443D01*
X44524435Y-72534409D01*
X44506654Y-72502834D01*
X44490698Y-72469685D01*
X44476577Y-72434930D01*
X44464297Y-72398537D01*
X44453867Y-72360473D01*
X44445296Y-72320706D01*
X44440849Y-72292704D01*
X44437851Y-72264940D01*
X44436187Y-72237394D01*
X44435745Y-72210042D01*
X44436409Y-72182864D01*
X44438066Y-72155837D01*
X44440602Y-72128941D01*
X44443903Y-72102153D01*
X44452344Y-72048816D01*
X44462479Y-71995653D01*
X44484182Y-71889156D01*
X44526082Y-71681965D01*
X44569371Y-71476163D01*
X44632349Y-71187246D01*
X44674249Y-70980037D01*
X44717537Y-70774217D01*
X44780516Y-70485299D01*
X44839768Y-70188965D01*
X44843093Y-70172915D01*
X44846226Y-70156756D01*
X44852515Y-70124371D01*
X44855975Y-70108276D01*
X44859847Y-70092333D01*
X44861984Y-70084439D01*
X44864281Y-70076607D01*
X44866757Y-70068846D01*
X44869430Y-70061164D01*
X44869841Y-70059944D01*
X44870376Y-70058716D01*
X44871030Y-70057483D01*
X44871794Y-70056248D01*
X44872665Y-70055015D01*
X44873635Y-70053786D01*
X44875850Y-70051354D01*
X44878390Y-70048976D01*
X44881206Y-70046677D01*
X44884250Y-70044481D01*
X44887474Y-70042412D01*
X44890827Y-70040495D01*
X44894262Y-70038755D01*
X44897729Y-70037215D01*
X44901181Y-70035901D01*
X44904567Y-70034836D01*
X44907840Y-70034045D01*
X44910951Y-70033553D01*
X44913851Y-70033383D01*
X44941221Y-70033732D01*
X44968634Y-70033783D01*
X45023557Y-70033266D01*
X45133605Y-70031683D01*
X45179455Y-70031638D01*
X45225256Y-70032419D01*
G37*
X45225256Y-70032419D02*
X45270976Y-70034345D01*
X45316584Y-70037733D01*
X45339336Y-70040075D01*
X45362048Y-70042902D01*
X45384716Y-70046253D01*
X45407336Y-70050169D01*
X45429904Y-70054689D01*
X45452416Y-70059852D01*
X45474869Y-70065699D01*
X45497257Y-70072269D01*
X45538228Y-70086273D01*
X45576470Y-70101913D01*
X45612074Y-70119219D01*
X45645134Y-70138220D01*
X45675742Y-70158946D01*
X45703989Y-70181428D01*
X45729967Y-70205695D01*
X45753771Y-70231777D01*
X45775490Y-70259703D01*
X45795218Y-70289505D01*
X45813047Y-70321211D01*
X45829069Y-70354851D01*
X45843377Y-70390456D01*
X45856062Y-70428054D01*
X45867217Y-70467677D01*
X45876934Y-70509354D01*
X45881749Y-70535030D01*
X45885157Y-70560663D01*
X45887267Y-70586252D01*
X45888192Y-70611799D01*
X45888043Y-70637301D01*
X45886931Y-70662761D01*
X45884967Y-70688177D01*
X45882262Y-70713550D01*
X45875076Y-70764165D01*
X45866262Y-70814607D01*
X45847308Y-70914968D01*
X45826616Y-71029945D01*
X45804012Y-71144405D01*
X45756549Y-71372454D01*
X45676931Y-71731729D01*
X45541714Y-72383684D01*
X45524957Y-72462832D01*
X45507679Y-72541806D01*
X45489358Y-72620432D01*
X45479645Y-72659561D01*
X45469476Y-72698538D01*
X45463208Y-72720381D01*
X45457439Y-72739497D01*
X45451931Y-72756068D01*
X45446445Y-72770275D01*
X45443636Y-72776549D01*
X45440743Y-72782301D01*
X45437736Y-72787553D01*
X45434585Y-72792328D01*
X45431261Y-72796648D01*
X45427733Y-72800536D01*
X45423972Y-72804016D01*
X45419947Y-72807109D01*
X45415630Y-72809839D01*
X45410990Y-72812228D01*
X45405997Y-72814299D01*
X45400621Y-72816074D01*
X45394834Y-72817577D01*
X45388603Y-72818830D01*
X45374697Y-72820677D01*
X45358663Y-72821797D01*
X45340263Y-72822372D01*
X45295409Y-72822613D01*
X45193545Y-72822613D01*
X45093644Y-72822588D01*
X45043910Y-72821351D01*
X45019134Y-72820074D01*
X44994435Y-72818226D01*
X44969822Y-72815704D01*
X44945307Y-72812409D01*
X44920901Y-72808241D01*
X44896614Y-72803098D01*
X44872458Y-72796881D01*
X44848443Y-72789488D01*
X44824581Y-72780820D01*
X44800881Y-72770777D01*
X44765288Y-72753147D01*
X44731440Y-72734270D01*
X44699344Y-72714111D01*
X44669009Y-72692640D01*
X44640444Y-72669822D01*
X44613655Y-72645626D01*
X44588652Y-72620019D01*
X44565442Y-72592969D01*
X44544034Y-72564443D01*
X44524435Y-72534409D01*
X44506654Y-72502834D01*
X44490698Y-72469685D01*
X44476577Y-72434930D01*
X44464297Y-72398537D01*
X44453867Y-72360473D01*
X44445296Y-72320706D01*
X44440849Y-72292704D01*
X44437851Y-72264940D01*
X44436187Y-72237394D01*
X44435745Y-72210042D01*
X44436409Y-72182864D01*
X44438066Y-72155837D01*
X44440602Y-72128941D01*
X44443903Y-72102153D01*
X44452344Y-72048816D01*
X44462479Y-71995653D01*
X44484182Y-71889156D01*
X44526082Y-71681965D01*
X44569371Y-71476163D01*
X44632349Y-71187246D01*
X44674249Y-70980037D01*
X44717537Y-70774217D01*
X44780516Y-70485299D01*
X44839768Y-70188965D01*
X44843093Y-70172915D01*
X44846226Y-70156756D01*
X44852515Y-70124371D01*
X44855975Y-70108276D01*
X44859847Y-70092333D01*
X44861984Y-70084439D01*
X44864281Y-70076607D01*
X44866757Y-70068846D01*
X44869430Y-70061164D01*
X44869841Y-70059944D01*
X44870376Y-70058716D01*
X44871030Y-70057483D01*
X44871794Y-70056248D01*
X44872665Y-70055015D01*
X44873635Y-70053786D01*
X44875850Y-70051354D01*
X44878390Y-70048976D01*
X44881206Y-70046677D01*
X44884250Y-70044481D01*
X44887474Y-70042412D01*
X44890827Y-70040495D01*
X44894262Y-70038755D01*
X44897729Y-70037215D01*
X44901181Y-70035901D01*
X44904567Y-70034836D01*
X44907840Y-70034045D01*
X44910951Y-70033553D01*
X44913851Y-70033383D01*
X44941221Y-70033732D01*
X44968634Y-70033783D01*
X45023557Y-70033266D01*
X45133605Y-70031683D01*
X45179455Y-70031638D01*
X45225256Y-70032419D01*
G36*
X48127689Y-68856630D02*
G01*
X48201392Y-68862827D01*
X48275270Y-68870260D01*
X48349321Y-68879387D01*
X48423548Y-68890662D01*
X48496225Y-68904317D01*
X48568446Y-68920031D01*
X48640277Y-68937436D01*
X48711782Y-68956165D01*
X48854077Y-68996120D01*
X48995850Y-69036948D01*
X48997954Y-69037549D01*
X49000095Y-69038306D01*
X49002266Y-69039210D01*
X49004460Y-69040255D01*
X49008890Y-69042737D01*
X49013331Y-69045691D01*
X49017729Y-69049058D01*
X49022030Y-69052777D01*
X49026178Y-69056790D01*
X49030120Y-69061036D01*
X49033802Y-69065456D01*
X49037169Y-69069989D01*
X49040168Y-69074577D01*
X49042742Y-69079159D01*
X49044839Y-69083676D01*
X49045692Y-69085891D01*
X49046405Y-69088067D01*
X49046971Y-69090198D01*
X49047384Y-69092274D01*
X49047636Y-69094290D01*
X49047722Y-69096236D01*
X49045651Y-69138155D01*
X49042788Y-69179819D01*
X49038948Y-69221145D01*
X49033947Y-69262055D01*
X49027601Y-69302464D01*
X49019724Y-69342293D01*
X49010133Y-69381461D01*
X48998642Y-69419884D01*
X48985068Y-69457483D01*
X48969226Y-69494176D01*
X48950931Y-69529881D01*
X48929999Y-69564518D01*
X48918487Y-69581410D01*
X48906246Y-69598004D01*
X48893254Y-69614291D01*
X48879487Y-69630259D01*
X48864922Y-69645899D01*
X48849537Y-69661200D01*
X48833308Y-69676154D01*
X48816212Y-69690748D01*
X48796918Y-69705588D01*
X48777239Y-69719524D01*
X48757180Y-69732522D01*
X48736746Y-69744546D01*
X48715944Y-69755561D01*
X48694777Y-69765531D01*
X48673253Y-69774422D01*
X48651377Y-69782198D01*
X48629152Y-69788823D01*
X48606587Y-69794263D01*
X48583684Y-69798482D01*
X48560451Y-69801445D01*
X48536892Y-69803116D01*
X48513013Y-69803460D01*
X48488819Y-69802443D01*
X48464316Y-69800028D01*
X48201298Y-69744465D01*
X48077414Y-69729182D01*
X48015375Y-69722451D01*
X47984360Y-69719882D01*
X47953358Y-69718062D01*
X47922379Y-69717154D01*
X47891428Y-69717321D01*
X47860516Y-69718724D01*
X47829650Y-69721528D01*
X47798838Y-69725894D01*
X47768088Y-69731986D01*
X47737408Y-69739967D01*
X47706807Y-69750000D01*
X47689219Y-69756438D01*
X47671936Y-69763305D01*
X47655043Y-69770682D01*
X47638628Y-69778652D01*
X47622778Y-69787294D01*
X47607578Y-69796690D01*
X47593117Y-69806922D01*
X47579480Y-69818071D01*
X47572998Y-69824015D01*
X47566755Y-69830219D01*
X47560761Y-69836692D01*
X47555028Y-69843446D01*
X47549566Y-69850490D01*
X47544386Y-69857834D01*
X47539499Y-69865489D01*
X47534916Y-69873465D01*
X47530648Y-69881772D01*
X47526706Y-69890420D01*
X47523099Y-69899419D01*
X47519840Y-69908779D01*
X47516939Y-69918512D01*
X47514407Y-69928626D01*
X47512255Y-69939132D01*
X47510493Y-69950040D01*
X47507458Y-69975919D01*
X47506533Y-69988483D01*
X47506007Y-70000806D01*
X47505882Y-70012892D01*
X47506161Y-70024748D01*
X47506847Y-70036381D01*
X47507943Y-70047796D01*
X47509451Y-70058999D01*
X47511374Y-70069997D01*
X47513715Y-70080795D01*
X47516477Y-70091400D01*
X47519661Y-70101818D01*
X47523272Y-70112055D01*
X47527311Y-70122117D01*
X47531781Y-70132010D01*
X47536686Y-70141740D01*
X47542027Y-70151314D01*
X47547808Y-70160737D01*
X47554031Y-70170015D01*
X47560699Y-70179155D01*
X47567815Y-70188163D01*
X47575381Y-70197045D01*
X47583401Y-70205807D01*
X47591876Y-70214454D01*
X47600810Y-70222994D01*
X47610205Y-70231432D01*
X47620064Y-70239774D01*
X47641185Y-70256197D01*
X47664194Y-70272309D01*
X47734050Y-70317584D01*
X47804581Y-70361905D01*
X47946883Y-70448724D01*
X48089533Y-70534848D01*
X48160497Y-70578300D01*
X48230961Y-70622360D01*
X48263683Y-70643484D01*
X48295841Y-70665210D01*
X48327390Y-70687576D01*
X48358288Y-70710620D01*
X48388492Y-70734380D01*
X48417957Y-70758894D01*
X48446641Y-70784200D01*
X48474499Y-70810336D01*
X48501490Y-70837340D01*
X48527569Y-70865250D01*
X48552693Y-70894105D01*
X48576819Y-70923942D01*
X48599904Y-70954799D01*
X48621904Y-70986715D01*
X48642775Y-71019727D01*
X48662475Y-71053874D01*
X48674630Y-71076595D01*
X48686097Y-71099604D01*
X48696880Y-71122885D01*
X48706986Y-71146420D01*
X48716419Y-71170194D01*
X48725185Y-71194191D01*
X48733289Y-71218394D01*
X48740736Y-71242786D01*
X48747532Y-71267353D01*
X48753683Y-71292076D01*
X48759193Y-71316941D01*
X48764068Y-71341931D01*
X48768314Y-71367029D01*
X48771935Y-71392219D01*
X48774937Y-71417485D01*
X48777325Y-71442811D01*
X48780440Y-71487341D01*
X48782795Y-71532003D01*
X48784325Y-71576752D01*
X48784965Y-71621545D01*
X48784651Y-71666337D01*
X48783316Y-71711086D01*
X48780896Y-71755748D01*
X48777325Y-71800278D01*
X48774486Y-71825909D01*
X48770843Y-71851402D01*
X48766419Y-71876748D01*
X48761235Y-71901940D01*
X48755314Y-71926969D01*
X48748676Y-71951827D01*
X48741344Y-71976506D01*
X48733338Y-72000997D01*
X48724682Y-72025294D01*
X48715396Y-72049387D01*
X48705503Y-72073268D01*
X48695023Y-72096929D01*
X48683980Y-72120363D01*
X48672393Y-72143561D01*
X48660286Y-72166514D01*
X48647680Y-72189215D01*
X48618687Y-72237858D01*
X48587979Y-72284488D01*
X48555579Y-72329131D01*
X48521507Y-72371816D01*
X48485785Y-72412568D01*
X48448436Y-72451415D01*
X48409481Y-72488386D01*
X48368941Y-72523505D01*
X48326839Y-72556802D01*
X48283196Y-72588303D01*
X48238033Y-72618035D01*
X48191373Y-72646025D01*
X48143237Y-72672301D01*
X48093647Y-72696890D01*
X48042624Y-72719818D01*
X47990191Y-72741115D01*
X47927501Y-72764443D01*
X47864420Y-72785709D01*
X47800904Y-72804762D01*
X47736911Y-72821448D01*
X47672396Y-72835618D01*
X47639930Y-72841710D01*
X47607318Y-72847117D01*
X47574554Y-72851818D01*
X47541632Y-72855795D01*
X47508548Y-72859029D01*
X47475297Y-72861500D01*
X47244936Y-72881185D01*
X47187508Y-72884968D01*
X47130189Y-72887296D01*
X47073001Y-72887671D01*
X47044463Y-72886969D01*
X47015965Y-72885592D01*
X46947135Y-72880646D01*
X46878218Y-72874159D01*
X46809301Y-72866153D01*
X46740472Y-72856649D01*
X46671816Y-72845669D01*
X46603420Y-72833235D01*
X46535371Y-72819369D01*
X46467756Y-72804093D01*
X46398014Y-72786122D01*
X46328967Y-72765895D01*
X46260441Y-72743931D01*
X46192262Y-72720752D01*
X46056252Y-72672832D01*
X45988073Y-72649132D01*
X45919547Y-72626300D01*
X45914814Y-72624846D01*
X45910337Y-72623266D01*
X45906109Y-72621562D01*
X45902125Y-72619738D01*
X45898380Y-72617797D01*
X45894868Y-72615743D01*
X45891584Y-72613580D01*
X45888522Y-72611309D01*
X45885678Y-72608936D01*
X45883044Y-72606463D01*
X45880618Y-72603894D01*
X45878391Y-72601232D01*
X45876360Y-72598480D01*
X45874519Y-72595642D01*
X45872863Y-72592721D01*
X45871385Y-72589721D01*
X45870082Y-72586645D01*
X45868946Y-72583497D01*
X45867973Y-72580279D01*
X45867158Y-72576995D01*
X45865977Y-72570244D01*
X45865361Y-72563271D01*
X45865266Y-72556102D01*
X45865649Y-72548766D01*
X45866466Y-72541288D01*
X45867674Y-72533696D01*
X45883882Y-72451743D01*
X45901482Y-72369793D01*
X45938067Y-72205891D01*
X46026982Y-71815073D01*
X46028617Y-71808026D01*
X46030081Y-71800803D01*
X46032681Y-71785989D01*
X46035149Y-71770959D01*
X46037856Y-71756038D01*
X46039414Y-71748719D01*
X46041170Y-71741550D01*
X46043171Y-71734571D01*
X46045462Y-71727822D01*
X46048089Y-71721345D01*
X46051099Y-71715180D01*
X46054539Y-71709367D01*
X46056434Y-71706606D01*
X46058453Y-71703948D01*
X46060122Y-71702250D01*
X46061996Y-71700629D01*
X46064064Y-71699085D01*
X46066313Y-71697621D01*
X46071307Y-71694934D01*
X46076885Y-71692576D01*
X46082950Y-71690554D01*
X46089409Y-71688877D01*
X46096166Y-71687552D01*
X46103127Y-71686588D01*
X46110196Y-71685993D01*
X46117279Y-71685776D01*
X46124281Y-71685943D01*
X46131106Y-71686504D01*
X46137660Y-71687466D01*
X46143848Y-71688838D01*
X46149575Y-71690627D01*
X46154747Y-71692843D01*
X46200355Y-71717079D01*
X46245618Y-71742269D01*
X46335799Y-71793777D01*
X46381063Y-71819228D01*
X46426674Y-71843897D01*
X46472805Y-71867351D01*
X46496119Y-71878487D01*
X46519629Y-71889156D01*
X46571378Y-71910947D01*
X46623865Y-71931522D01*
X46677133Y-71950362D01*
X46704074Y-71958967D01*
X46731226Y-71966944D01*
X46758595Y-71974225D01*
X46786187Y-71980747D01*
X46814006Y-71986445D01*
X46842059Y-71991252D01*
X46870351Y-71995105D01*
X46898887Y-71997937D01*
X46927672Y-71999684D01*
X46956713Y-72000281D01*
X47098405Y-72001670D01*
X47169252Y-72001844D01*
X47204675Y-72001345D01*
X47240097Y-72000281D01*
X47258634Y-71999003D01*
X47276732Y-71996919D01*
X47294374Y-71994045D01*
X47311542Y-71990399D01*
X47328220Y-71985999D01*
X47344392Y-71980862D01*
X47360041Y-71975006D01*
X47375150Y-71968449D01*
X47389704Y-71961209D01*
X47403684Y-71953302D01*
X47417075Y-71944747D01*
X47429859Y-71935562D01*
X47442021Y-71925763D01*
X47453544Y-71915368D01*
X47464411Y-71904396D01*
X47474606Y-71892864D01*
X47484111Y-71880789D01*
X47492910Y-71868189D01*
X47500988Y-71855081D01*
X47508326Y-71841484D01*
X47514909Y-71827415D01*
X47520720Y-71812892D01*
X47525741Y-71797931D01*
X47529958Y-71782552D01*
X47533353Y-71766770D01*
X47535909Y-71750605D01*
X47537609Y-71734074D01*
X47538438Y-71717194D01*
X47538379Y-71699983D01*
X47537414Y-71682459D01*
X47535528Y-71664639D01*
X47532704Y-71646540D01*
X47530996Y-71637924D01*
X47529002Y-71629438D01*
X47526730Y-71621081D01*
X47524186Y-71612855D01*
X47518311Y-71596794D01*
X47511436Y-71581253D01*
X47503617Y-71566234D01*
X47494911Y-71551735D01*
X47485375Y-71537757D01*
X47475065Y-71524299D01*
X47464039Y-71511363D01*
X47452354Y-71498948D01*
X47440067Y-71487053D01*
X47427234Y-71475680D01*
X47413913Y-71464827D01*
X47400160Y-71454496D01*
X47386032Y-71444685D01*
X47371587Y-71435396D01*
X47331832Y-71412111D01*
X47291774Y-71389412D01*
X47210919Y-71345338D01*
X47047473Y-71259448D01*
X46979481Y-71223303D01*
X46911922Y-71186638D01*
X46845231Y-71148757D01*
X46812347Y-71129144D01*
X46779843Y-71108966D01*
X46747772Y-71088137D01*
X46716191Y-71066571D01*
X46685151Y-71044179D01*
X46654709Y-71020876D01*
X46624918Y-70996575D01*
X46595832Y-70971189D01*
X46567506Y-70944630D01*
X46539995Y-70916813D01*
X46513741Y-70888420D01*
X46488495Y-70859486D01*
X46464306Y-70829987D01*
X46441228Y-70799902D01*
X46419310Y-70769210D01*
X46398606Y-70737889D01*
X46379165Y-70705916D01*
X46361041Y-70673271D01*
X46344283Y-70639931D01*
X46328945Y-70605875D01*
X46315077Y-70571081D01*
X46302731Y-70535527D01*
X46291959Y-70499192D01*
X46282811Y-70462053D01*
X46275340Y-70424089D01*
X46269597Y-70385279D01*
X46262700Y-70324931D01*
X46257473Y-70264692D01*
X46254201Y-70204497D01*
X46253164Y-70144280D01*
X46253572Y-70114143D01*
X46254645Y-70083977D01*
X46256418Y-70053772D01*
X46258925Y-70023521D01*
X46262204Y-69993216D01*
X46266288Y-69962848D01*
X46271212Y-69932409D01*
X46277013Y-69901892D01*
X46283922Y-69868382D01*
X46291478Y-69835228D01*
X46299722Y-69802437D01*
X46308697Y-69770017D01*
X46318441Y-69737977D01*
X46328996Y-69706325D01*
X46340403Y-69675069D01*
X46352702Y-69644218D01*
X46365935Y-69613778D01*
X46380142Y-69583760D01*
X46395363Y-69554169D01*
X46411641Y-69525016D01*
X46429014Y-69496308D01*
X46447525Y-69468053D01*
X46467214Y-69440259D01*
X46488122Y-69412935D01*
X46516295Y-69378425D01*
X46545255Y-69345042D01*
X46575009Y-69312781D01*
X46605560Y-69281641D01*
X46636914Y-69251619D01*
X46669078Y-69222712D01*
X46702055Y-69194917D01*
X46735852Y-69168233D01*
X46770474Y-69142654D01*
X46805926Y-69118181D01*
X46842213Y-69094808D01*
X46879341Y-69072534D01*
X46917315Y-69051356D01*
X46956141Y-69031272D01*
X46995823Y-69012278D01*
X47036367Y-68994372D01*
X47084399Y-68974881D01*
X47132654Y-68956686D01*
X47181136Y-68939784D01*
X47229851Y-68924167D01*
X47278805Y-68909831D01*
X47328003Y-68896771D01*
X47377451Y-68884980D01*
X47427153Y-68874453D01*
X47477116Y-68865185D01*
X47527345Y-68857171D01*
X47577846Y-68850404D01*
X47628623Y-68844880D01*
X47679682Y-68840593D01*
X47731029Y-68837538D01*
X47782669Y-68835708D01*
X47834608Y-68835100D01*
X48127689Y-68856630D01*
G37*
X48127689Y-68856630D02*
X48201392Y-68862827D01*
X48275270Y-68870260D01*
X48349321Y-68879387D01*
X48423548Y-68890662D01*
X48496225Y-68904317D01*
X48568446Y-68920031D01*
X48640277Y-68937436D01*
X48711782Y-68956165D01*
X48854077Y-68996120D01*
X48995850Y-69036948D01*
X48997954Y-69037549D01*
X49000095Y-69038306D01*
X49002266Y-69039210D01*
X49004460Y-69040255D01*
X49008890Y-69042737D01*
X49013331Y-69045691D01*
X49017729Y-69049058D01*
X49022030Y-69052777D01*
X49026178Y-69056790D01*
X49030120Y-69061036D01*
X49033802Y-69065456D01*
X49037169Y-69069989D01*
X49040168Y-69074577D01*
X49042742Y-69079159D01*
X49044839Y-69083676D01*
X49045692Y-69085891D01*
X49046405Y-69088067D01*
X49046971Y-69090198D01*
X49047384Y-69092274D01*
X49047636Y-69094290D01*
X49047722Y-69096236D01*
X49045651Y-69138155D01*
X49042788Y-69179819D01*
X49038948Y-69221145D01*
X49033947Y-69262055D01*
X49027601Y-69302464D01*
X49019724Y-69342293D01*
X49010133Y-69381461D01*
X48998642Y-69419884D01*
X48985068Y-69457483D01*
X48969226Y-69494176D01*
X48950931Y-69529881D01*
X48929999Y-69564518D01*
X48918487Y-69581410D01*
X48906246Y-69598004D01*
X48893254Y-69614291D01*
X48879487Y-69630259D01*
X48864922Y-69645899D01*
X48849537Y-69661200D01*
X48833308Y-69676154D01*
X48816212Y-69690748D01*
X48796918Y-69705588D01*
X48777239Y-69719524D01*
X48757180Y-69732522D01*
X48736746Y-69744546D01*
X48715944Y-69755561D01*
X48694777Y-69765531D01*
X48673253Y-69774422D01*
X48651377Y-69782198D01*
X48629152Y-69788823D01*
X48606587Y-69794263D01*
X48583684Y-69798482D01*
X48560451Y-69801445D01*
X48536892Y-69803116D01*
X48513013Y-69803460D01*
X48488819Y-69802443D01*
X48464316Y-69800028D01*
X48201298Y-69744465D01*
X48077414Y-69729182D01*
X48015375Y-69722451D01*
X47984360Y-69719882D01*
X47953358Y-69718062D01*
X47922379Y-69717154D01*
X47891428Y-69717321D01*
X47860516Y-69718724D01*
X47829650Y-69721528D01*
X47798838Y-69725894D01*
X47768088Y-69731986D01*
X47737408Y-69739967D01*
X47706807Y-69750000D01*
X47689219Y-69756438D01*
X47671936Y-69763305D01*
X47655043Y-69770682D01*
X47638628Y-69778652D01*
X47622778Y-69787294D01*
X47607578Y-69796690D01*
X47593117Y-69806922D01*
X47579480Y-69818071D01*
X47572998Y-69824015D01*
X47566755Y-69830219D01*
X47560761Y-69836692D01*
X47555028Y-69843446D01*
X47549566Y-69850490D01*
X47544386Y-69857834D01*
X47539499Y-69865489D01*
X47534916Y-69873465D01*
X47530648Y-69881772D01*
X47526706Y-69890420D01*
X47523099Y-69899419D01*
X47519840Y-69908779D01*
X47516939Y-69918512D01*
X47514407Y-69928626D01*
X47512255Y-69939132D01*
X47510493Y-69950040D01*
X47507458Y-69975919D01*
X47506533Y-69988483D01*
X47506007Y-70000806D01*
X47505882Y-70012892D01*
X47506161Y-70024748D01*
X47506847Y-70036381D01*
X47507943Y-70047796D01*
X47509451Y-70058999D01*
X47511374Y-70069997D01*
X47513715Y-70080795D01*
X47516477Y-70091400D01*
X47519661Y-70101818D01*
X47523272Y-70112055D01*
X47527311Y-70122117D01*
X47531781Y-70132010D01*
X47536686Y-70141740D01*
X47542027Y-70151314D01*
X47547808Y-70160737D01*
X47554031Y-70170015D01*
X47560699Y-70179155D01*
X47567815Y-70188163D01*
X47575381Y-70197045D01*
X47583401Y-70205807D01*
X47591876Y-70214454D01*
X47600810Y-70222994D01*
X47610205Y-70231432D01*
X47620064Y-70239774D01*
X47641185Y-70256197D01*
X47664194Y-70272309D01*
X47734050Y-70317584D01*
X47804581Y-70361905D01*
X47946883Y-70448724D01*
X48089533Y-70534848D01*
X48160497Y-70578300D01*
X48230961Y-70622360D01*
X48263683Y-70643484D01*
X48295841Y-70665210D01*
X48327390Y-70687576D01*
X48358288Y-70710620D01*
X48388492Y-70734380D01*
X48417957Y-70758894D01*
X48446641Y-70784200D01*
X48474499Y-70810336D01*
X48501490Y-70837340D01*
X48527569Y-70865250D01*
X48552693Y-70894105D01*
X48576819Y-70923942D01*
X48599904Y-70954799D01*
X48621904Y-70986715D01*
X48642775Y-71019727D01*
X48662475Y-71053874D01*
X48674630Y-71076595D01*
X48686097Y-71099604D01*
X48696880Y-71122885D01*
X48706986Y-71146420D01*
X48716419Y-71170194D01*
X48725185Y-71194191D01*
X48733289Y-71218394D01*
X48740736Y-71242786D01*
X48747532Y-71267353D01*
X48753683Y-71292076D01*
X48759193Y-71316941D01*
X48764068Y-71341931D01*
X48768314Y-71367029D01*
X48771935Y-71392219D01*
X48774937Y-71417485D01*
X48777325Y-71442811D01*
X48780440Y-71487341D01*
X48782795Y-71532003D01*
X48784325Y-71576752D01*
X48784965Y-71621545D01*
X48784651Y-71666337D01*
X48783316Y-71711086D01*
X48780896Y-71755748D01*
X48777325Y-71800278D01*
X48774486Y-71825909D01*
X48770843Y-71851402D01*
X48766419Y-71876748D01*
X48761235Y-71901940D01*
X48755314Y-71926969D01*
X48748676Y-71951827D01*
X48741344Y-71976506D01*
X48733338Y-72000997D01*
X48724682Y-72025294D01*
X48715396Y-72049387D01*
X48705503Y-72073268D01*
X48695023Y-72096929D01*
X48683980Y-72120363D01*
X48672393Y-72143561D01*
X48660286Y-72166514D01*
X48647680Y-72189215D01*
X48618687Y-72237858D01*
X48587979Y-72284488D01*
X48555579Y-72329131D01*
X48521507Y-72371816D01*
X48485785Y-72412568D01*
X48448436Y-72451415D01*
X48409481Y-72488386D01*
X48368941Y-72523505D01*
X48326839Y-72556802D01*
X48283196Y-72588303D01*
X48238033Y-72618035D01*
X48191373Y-72646025D01*
X48143237Y-72672301D01*
X48093647Y-72696890D01*
X48042624Y-72719818D01*
X47990191Y-72741115D01*
X47927501Y-72764443D01*
X47864420Y-72785709D01*
X47800904Y-72804762D01*
X47736911Y-72821448D01*
X47672396Y-72835618D01*
X47639930Y-72841710D01*
X47607318Y-72847117D01*
X47574554Y-72851818D01*
X47541632Y-72855795D01*
X47508548Y-72859029D01*
X47475297Y-72861500D01*
X47244936Y-72881185D01*
X47187508Y-72884968D01*
X47130189Y-72887296D01*
X47073001Y-72887671D01*
X47044463Y-72886969D01*
X47015965Y-72885592D01*
X46947135Y-72880646D01*
X46878218Y-72874159D01*
X46809301Y-72866153D01*
X46740472Y-72856649D01*
X46671816Y-72845669D01*
X46603420Y-72833235D01*
X46535371Y-72819369D01*
X46467756Y-72804093D01*
X46398014Y-72786122D01*
X46328967Y-72765895D01*
X46260441Y-72743931D01*
X46192262Y-72720752D01*
X46056252Y-72672832D01*
X45988073Y-72649132D01*
X45919547Y-72626300D01*
X45914814Y-72624846D01*
X45910337Y-72623266D01*
X45906109Y-72621562D01*
X45902125Y-72619738D01*
X45898380Y-72617797D01*
X45894868Y-72615743D01*
X45891584Y-72613580D01*
X45888522Y-72611309D01*
X45885678Y-72608936D01*
X45883044Y-72606463D01*
X45880618Y-72603894D01*
X45878391Y-72601232D01*
X45876360Y-72598480D01*
X45874519Y-72595642D01*
X45872863Y-72592721D01*
X45871385Y-72589721D01*
X45870082Y-72586645D01*
X45868946Y-72583497D01*
X45867973Y-72580279D01*
X45867158Y-72576995D01*
X45865977Y-72570244D01*
X45865361Y-72563271D01*
X45865266Y-72556102D01*
X45865649Y-72548766D01*
X45866466Y-72541288D01*
X45867674Y-72533696D01*
X45883882Y-72451743D01*
X45901482Y-72369793D01*
X45938067Y-72205891D01*
X46026982Y-71815073D01*
X46028617Y-71808026D01*
X46030081Y-71800803D01*
X46032681Y-71785989D01*
X46035149Y-71770959D01*
X46037856Y-71756038D01*
X46039414Y-71748719D01*
X46041170Y-71741550D01*
X46043171Y-71734571D01*
X46045462Y-71727822D01*
X46048089Y-71721345D01*
X46051099Y-71715180D01*
X46054539Y-71709367D01*
X46056434Y-71706606D01*
X46058453Y-71703948D01*
X46060122Y-71702250D01*
X46061996Y-71700629D01*
X46064064Y-71699085D01*
X46066313Y-71697621D01*
X46071307Y-71694934D01*
X46076885Y-71692576D01*
X46082950Y-71690554D01*
X46089409Y-71688877D01*
X46096166Y-71687552D01*
X46103127Y-71686588D01*
X46110196Y-71685993D01*
X46117279Y-71685776D01*
X46124281Y-71685943D01*
X46131106Y-71686504D01*
X46137660Y-71687466D01*
X46143848Y-71688838D01*
X46149575Y-71690627D01*
X46154747Y-71692843D01*
X46200355Y-71717079D01*
X46245618Y-71742269D01*
X46335799Y-71793777D01*
X46381063Y-71819228D01*
X46426674Y-71843897D01*
X46472805Y-71867351D01*
X46496119Y-71878487D01*
X46519629Y-71889156D01*
X46571378Y-71910947D01*
X46623865Y-71931522D01*
X46677133Y-71950362D01*
X46704074Y-71958967D01*
X46731226Y-71966944D01*
X46758595Y-71974225D01*
X46786187Y-71980747D01*
X46814006Y-71986445D01*
X46842059Y-71991252D01*
X46870351Y-71995105D01*
X46898887Y-71997937D01*
X46927672Y-71999684D01*
X46956713Y-72000281D01*
X47098405Y-72001670D01*
X47169252Y-72001844D01*
X47204675Y-72001345D01*
X47240097Y-72000281D01*
X47258634Y-71999003D01*
X47276732Y-71996919D01*
X47294374Y-71994045D01*
X47311542Y-71990399D01*
X47328220Y-71985999D01*
X47344392Y-71980862D01*
X47360041Y-71975006D01*
X47375150Y-71968449D01*
X47389704Y-71961209D01*
X47403684Y-71953302D01*
X47417075Y-71944747D01*
X47429859Y-71935562D01*
X47442021Y-71925763D01*
X47453544Y-71915368D01*
X47464411Y-71904396D01*
X47474606Y-71892864D01*
X47484111Y-71880789D01*
X47492910Y-71868189D01*
X47500988Y-71855081D01*
X47508326Y-71841484D01*
X47514909Y-71827415D01*
X47520720Y-71812892D01*
X47525741Y-71797931D01*
X47529958Y-71782552D01*
X47533353Y-71766770D01*
X47535909Y-71750605D01*
X47537609Y-71734074D01*
X47538438Y-71717194D01*
X47538379Y-71699983D01*
X47537414Y-71682459D01*
X47535528Y-71664639D01*
X47532704Y-71646540D01*
X47530996Y-71637924D01*
X47529002Y-71629438D01*
X47526730Y-71621081D01*
X47524186Y-71612855D01*
X47518311Y-71596794D01*
X47511436Y-71581253D01*
X47503617Y-71566234D01*
X47494911Y-71551735D01*
X47485375Y-71537757D01*
X47475065Y-71524299D01*
X47464039Y-71511363D01*
X47452354Y-71498948D01*
X47440067Y-71487053D01*
X47427234Y-71475680D01*
X47413913Y-71464827D01*
X47400160Y-71454496D01*
X47386032Y-71444685D01*
X47371587Y-71435396D01*
X47331832Y-71412111D01*
X47291774Y-71389412D01*
X47210919Y-71345338D01*
X47047473Y-71259448D01*
X46979481Y-71223303D01*
X46911922Y-71186638D01*
X46845231Y-71148757D01*
X46812347Y-71129144D01*
X46779843Y-71108966D01*
X46747772Y-71088137D01*
X46716191Y-71066571D01*
X46685151Y-71044179D01*
X46654709Y-71020876D01*
X46624918Y-70996575D01*
X46595832Y-70971189D01*
X46567506Y-70944630D01*
X46539995Y-70916813D01*
X46513741Y-70888420D01*
X46488495Y-70859486D01*
X46464306Y-70829987D01*
X46441228Y-70799902D01*
X46419310Y-70769210D01*
X46398606Y-70737889D01*
X46379165Y-70705916D01*
X46361041Y-70673271D01*
X46344283Y-70639931D01*
X46328945Y-70605875D01*
X46315077Y-70571081D01*
X46302731Y-70535527D01*
X46291959Y-70499192D01*
X46282811Y-70462053D01*
X46275340Y-70424089D01*
X46269597Y-70385279D01*
X46262700Y-70324931D01*
X46257473Y-70264692D01*
X46254201Y-70204497D01*
X46253164Y-70144280D01*
X46253572Y-70114143D01*
X46254645Y-70083977D01*
X46256418Y-70053772D01*
X46258925Y-70023521D01*
X46262204Y-69993216D01*
X46266288Y-69962848D01*
X46271212Y-69932409D01*
X46277013Y-69901892D01*
X46283922Y-69868382D01*
X46291478Y-69835228D01*
X46299722Y-69802437D01*
X46308697Y-69770017D01*
X46318441Y-69737977D01*
X46328996Y-69706325D01*
X46340403Y-69675069D01*
X46352702Y-69644218D01*
X46365935Y-69613778D01*
X46380142Y-69583760D01*
X46395363Y-69554169D01*
X46411641Y-69525016D01*
X46429014Y-69496308D01*
X46447525Y-69468053D01*
X46467214Y-69440259D01*
X46488122Y-69412935D01*
X46516295Y-69378425D01*
X46545255Y-69345042D01*
X46575009Y-69312781D01*
X46605560Y-69281641D01*
X46636914Y-69251619D01*
X46669078Y-69222712D01*
X46702055Y-69194917D01*
X46735852Y-69168233D01*
X46770474Y-69142654D01*
X46805926Y-69118181D01*
X46842213Y-69094808D01*
X46879341Y-69072534D01*
X46917315Y-69051356D01*
X46956141Y-69031272D01*
X46995823Y-69012278D01*
X47036367Y-68994372D01*
X47084399Y-68974881D01*
X47132654Y-68956686D01*
X47181136Y-68939784D01*
X47229851Y-68924167D01*
X47278805Y-68909831D01*
X47328003Y-68896771D01*
X47377451Y-68884980D01*
X47427153Y-68874453D01*
X47477116Y-68865185D01*
X47527345Y-68857171D01*
X47577846Y-68850404D01*
X47628623Y-68844880D01*
X47679682Y-68840593D01*
X47731029Y-68837538D01*
X47782669Y-68835708D01*
X47834608Y-68835100D01*
X48127689Y-68856630D01*
G36*
X51475332Y-71033042D02*
G01*
X51493051Y-70992877D01*
X51511757Y-70953075D01*
X51531402Y-70913634D01*
X51551937Y-70874551D01*
X51573313Y-70835823D01*
X51618392Y-70759422D01*
X51644159Y-70718534D01*
X51670778Y-70678534D01*
X51698276Y-70639440D01*
X51726680Y-70601271D01*
X51756017Y-70564046D01*
X51786315Y-70527785D01*
X51817600Y-70492505D01*
X51849899Y-70458227D01*
X51883241Y-70424968D01*
X51917651Y-70392749D01*
X51953157Y-70361588D01*
X51989787Y-70331504D01*
X52027567Y-70302515D01*
X52066525Y-70274642D01*
X52106687Y-70247903D01*
X52148081Y-70222317D01*
X52184717Y-70200957D01*
X52221695Y-70180620D01*
X52259010Y-70161286D01*
X52296656Y-70142937D01*
X52334629Y-70125554D01*
X52372921Y-70109117D01*
X52411528Y-70093609D01*
X52450445Y-70079009D01*
X52489665Y-70065299D01*
X52529184Y-70052460D01*
X52568996Y-70040473D01*
X52609095Y-70029319D01*
X52690133Y-70009433D01*
X52772255Y-69992652D01*
X52818237Y-69984852D01*
X52864177Y-69977978D01*
X52910101Y-69972070D01*
X52956036Y-69967171D01*
X53002010Y-69963322D01*
X53048049Y-69960567D01*
X53094179Y-69958947D01*
X53140429Y-69958504D01*
X53168247Y-69958823D01*
X53196124Y-69959591D01*
X53224065Y-69960816D01*
X53252076Y-69962509D01*
X53280162Y-69964677D01*
X53308328Y-69967331D01*
X53336579Y-69970479D01*
X53364921Y-69974131D01*
X53416829Y-69982075D01*
X53468346Y-69990801D01*
X53519428Y-70000569D01*
X53570032Y-70011639D01*
X53620115Y-70024273D01*
X53669634Y-70038729D01*
X53694169Y-70046722D01*
X53718546Y-70055268D01*
X53742762Y-70064400D01*
X53766809Y-70074151D01*
X53809832Y-70093281D01*
X53851325Y-70113901D01*
X53891191Y-70136066D01*
X53929331Y-70159834D01*
X53965648Y-70185262D01*
X54000045Y-70212407D01*
X54032424Y-70241327D01*
X54062686Y-70272077D01*
X54090734Y-70304716D01*
X54116471Y-70339301D01*
X54139799Y-70375887D01*
X54160620Y-70414533D01*
X54178836Y-70455296D01*
X54194350Y-70498232D01*
X54201063Y-70520533D01*
X54207063Y-70543398D01*
X54212340Y-70566836D01*
X54216879Y-70590853D01*
X54227075Y-70655676D01*
X54231336Y-70688228D01*
X54234904Y-70720846D01*
X54237679Y-70753507D01*
X54239562Y-70786190D01*
X54240451Y-70818873D01*
X54240247Y-70851534D01*
X54238850Y-70884151D01*
X54236158Y-70916704D01*
X54232072Y-70949170D01*
X54226491Y-70981527D01*
X54219316Y-71013754D01*
X54210445Y-71045829D01*
X54199779Y-71077731D01*
X54187217Y-71109437D01*
X54171163Y-71145146D01*
X54153591Y-71179375D01*
X54134544Y-71212160D01*
X54114064Y-71243540D01*
X54092196Y-71273553D01*
X54068982Y-71302236D01*
X54044466Y-71329628D01*
X54018692Y-71355767D01*
X53991702Y-71380690D01*
X53963540Y-71404436D01*
X53934249Y-71427043D01*
X53903873Y-71448547D01*
X53872454Y-71468989D01*
X53840037Y-71488404D01*
X53806664Y-71506832D01*
X53772379Y-71524310D01*
X53736808Y-71540855D01*
X53700950Y-71556483D01*
X53664819Y-71571232D01*
X53628433Y-71585139D01*
X53554960Y-71610584D01*
X53480662Y-71633120D01*
X53405669Y-71653052D01*
X53330112Y-71670683D01*
X53254123Y-71686317D01*
X53177832Y-71700258D01*
X53107443Y-71710929D01*
X53036642Y-71719646D01*
X52965538Y-71726887D01*
X52894239Y-71733129D01*
X52751489Y-71744528D01*
X52680254Y-71750641D01*
X52609257Y-71757666D01*
X52589886Y-71760075D01*
X52570623Y-71763048D01*
X52551402Y-71766455D01*
X52532160Y-71770167D01*
X52493351Y-71777980D01*
X52473653Y-71781822D01*
X52453674Y-71785447D01*
X52453369Y-71797802D01*
X52453491Y-71809868D01*
X52454033Y-71821645D01*
X52454987Y-71833138D01*
X52456348Y-71844349D01*
X52458106Y-71855281D01*
X52460256Y-71865936D01*
X52462790Y-71876317D01*
X52465701Y-71886426D01*
X52468983Y-71896267D01*
X52472627Y-71905843D01*
X52476627Y-71915155D01*
X52480975Y-71924206D01*
X52485665Y-71933000D01*
X52490690Y-71941539D01*
X52496041Y-71949826D01*
X52501713Y-71957863D01*
X52507698Y-71965653D01*
X52513988Y-71973199D01*
X52520578Y-71980504D01*
X52527459Y-71987570D01*
X52534624Y-71994399D01*
X52542067Y-72000996D01*
X52549781Y-72007361D01*
X52565990Y-72019412D01*
X52583194Y-72030572D01*
X52601337Y-72040864D01*
X52620362Y-72050309D01*
X52635116Y-72057406D01*
X52650188Y-72064116D01*
X52665547Y-72070440D01*
X52681164Y-72076381D01*
X52697009Y-72081942D01*
X52713052Y-72087126D01*
X52729263Y-72091935D01*
X52745613Y-72096373D01*
X52762071Y-72100441D01*
X52778608Y-72104144D01*
X52811798Y-72110461D01*
X52844945Y-72115346D01*
X52877809Y-72118822D01*
X52918006Y-72121669D01*
X52958035Y-72123283D01*
X52997901Y-72123687D01*
X53037611Y-72122905D01*
X53077169Y-72120963D01*
X53116580Y-72117884D01*
X53155850Y-72113693D01*
X53194985Y-72108415D01*
X53233989Y-72102072D01*
X53272869Y-72094691D01*
X53311629Y-72086294D01*
X53350276Y-72076908D01*
X53388813Y-72066555D01*
X53427247Y-72055260D01*
X53465583Y-72043049D01*
X53503827Y-72029944D01*
X53538636Y-72017846D01*
X53573597Y-72006442D01*
X53643884Y-71985020D01*
X53714519Y-71964292D01*
X53785330Y-71942874D01*
X53797882Y-71939082D01*
X53809172Y-71936069D01*
X53819241Y-71933876D01*
X53823831Y-71933099D01*
X53828131Y-71932542D01*
X53832146Y-71932211D01*
X53835881Y-71932110D01*
X53839342Y-71932244D01*
X53842533Y-71932618D01*
X53845459Y-71933238D01*
X53848126Y-71934109D01*
X53850539Y-71935236D01*
X53852702Y-71936623D01*
X53854622Y-71938276D01*
X53856302Y-71940200D01*
X53857748Y-71942400D01*
X53858965Y-71944881D01*
X53859959Y-71947649D01*
X53860733Y-71950707D01*
X53861294Y-71954063D01*
X53861647Y-71957719D01*
X53861796Y-71961682D01*
X53861746Y-71965957D01*
X53861504Y-71970549D01*
X53861073Y-71975462D01*
X53859666Y-71986275D01*
X53857568Y-71998436D01*
X53837485Y-72106756D01*
X53816362Y-72214906D01*
X53772379Y-72429986D01*
X53753623Y-72520272D01*
X53748337Y-72542734D01*
X53742422Y-72564893D01*
X53739167Y-72575818D01*
X53735682Y-72586618D01*
X53731941Y-72597277D01*
X53727922Y-72607779D01*
X53724110Y-72616404D01*
X53719974Y-72624578D01*
X53715528Y-72632319D01*
X53710786Y-72639642D01*
X53705760Y-72646563D01*
X53700463Y-72653099D01*
X53694909Y-72659266D01*
X53689112Y-72665081D01*
X53683083Y-72670560D01*
X53676838Y-72675718D01*
X53663747Y-72685139D01*
X53649945Y-72693476D01*
X53635538Y-72700857D01*
X53620632Y-72707414D01*
X53605333Y-72713276D01*
X53589746Y-72718574D01*
X53573978Y-72723437D01*
X53511207Y-72741151D01*
X53395858Y-72774717D01*
X53338076Y-72791152D01*
X53280163Y-72806892D01*
X53222077Y-72821590D01*
X53163774Y-72834900D01*
X53105210Y-72846474D01*
X53046342Y-72855965D01*
X52965070Y-72866701D01*
X52883733Y-72876220D01*
X52802266Y-72883829D01*
X52720603Y-72888833D01*
X52679677Y-72890141D01*
X52638679Y-72890537D01*
X52597599Y-72889936D01*
X52556430Y-72888249D01*
X52515163Y-72885390D01*
X52473791Y-72881273D01*
X52432304Y-72875810D01*
X52390696Y-72868916D01*
X52288052Y-72849907D01*
X52237003Y-72840047D01*
X52186280Y-72829342D01*
X52135990Y-72817334D01*
X52086243Y-72803567D01*
X52061607Y-72795882D01*
X52037147Y-72787585D01*
X52012876Y-72778621D01*
X51988809Y-72768932D01*
X51930468Y-72742797D01*
X51874906Y-72714386D01*
X51822121Y-72683679D01*
X51772114Y-72650658D01*
X51724885Y-72615304D01*
X51680435Y-72577597D01*
X51638762Y-72537519D01*
X51599868Y-72495051D01*
X51563751Y-72450174D01*
X51530413Y-72402869D01*
X51499853Y-72353117D01*
X51472072Y-72300898D01*
X51447068Y-72246195D01*
X51424843Y-72188987D01*
X51405396Y-72129257D01*
X51388727Y-72066985D01*
X51379322Y-72025987D01*
X51371216Y-71984954D01*
X51364363Y-71943894D01*
X51358718Y-71902814D01*
X51354235Y-71861724D01*
X51350866Y-71820630D01*
X51348567Y-71779542D01*
X51347290Y-71738468D01*
X51346990Y-71697415D01*
X51347620Y-71656393D01*
X51351489Y-71574469D01*
X51358525Y-71492764D01*
X51368361Y-71411340D01*
X51374995Y-71367780D01*
X51383055Y-71324608D01*
X51392493Y-71281821D01*
X51403261Y-71239417D01*
X51415310Y-71197393D01*
X51428590Y-71155746D01*
X51443053Y-71114474D01*
X51449566Y-71097395D01*
X52515120Y-71097395D01*
X52515275Y-71105512D01*
X52515820Y-71113519D01*
X52516766Y-71121334D01*
X52518125Y-71128872D01*
X52519907Y-71136050D01*
X52522123Y-71142781D01*
X52524784Y-71148984D01*
X52526285Y-71151861D01*
X52527900Y-71154573D01*
X52529633Y-71157111D01*
X52531483Y-71159464D01*
X52537295Y-71165492D01*
X52543594Y-71171050D01*
X52550349Y-71176104D01*
X52557526Y-71180617D01*
X52565095Y-71184556D01*
X52573021Y-71187883D01*
X52581273Y-71190565D01*
X52589817Y-71192567D01*
X52598622Y-71193851D01*
X52607655Y-71194385D01*
X52616884Y-71194132D01*
X52626275Y-71193056D01*
X52631022Y-71192199D01*
X52635797Y-71191124D01*
X52640597Y-71189825D01*
X52645417Y-71188299D01*
X52650253Y-71186540D01*
X52655102Y-71184546D01*
X52659958Y-71182311D01*
X52664819Y-71179830D01*
X52682049Y-71174266D01*
X52717921Y-71164837D01*
X52825716Y-71136299D01*
X52887698Y-71118144D01*
X52948443Y-71098037D01*
X52976798Y-71087400D01*
X53002981Y-71076454D01*
X53026369Y-71065259D01*
X53046342Y-71053874D01*
X53062331Y-71043476D01*
X53077628Y-71032416D01*
X53092192Y-71020684D01*
X53105983Y-71008267D01*
X53118961Y-70995157D01*
X53131083Y-70981341D01*
X53142310Y-70966809D01*
X53152601Y-70951550D01*
X53161916Y-70935553D01*
X53170213Y-70918807D01*
X53177452Y-70901301D01*
X53183592Y-70883025D01*
X53188593Y-70863968D01*
X53192414Y-70844118D01*
X53195014Y-70823465D01*
X53196353Y-70801998D01*
X53197301Y-70795816D01*
X53197727Y-70789441D01*
X53197651Y-70782896D01*
X53197096Y-70776206D01*
X53196080Y-70769394D01*
X53194626Y-70762483D01*
X53192753Y-70755497D01*
X53190482Y-70748461D01*
X53187834Y-70741398D01*
X53184830Y-70734331D01*
X53181490Y-70727284D01*
X53177835Y-70720282D01*
X53173886Y-70713347D01*
X53169664Y-70706504D01*
X53160480Y-70693188D01*
X53150449Y-70680523D01*
X53139738Y-70668698D01*
X53134179Y-70663161D01*
X53128511Y-70657905D01*
X53122756Y-70652955D01*
X53116934Y-70648333D01*
X53111066Y-70644064D01*
X53105172Y-70640171D01*
X53099274Y-70636679D01*
X53093391Y-70633610D01*
X53087545Y-70630989D01*
X53081756Y-70628840D01*
X53076045Y-70627185D01*
X53070433Y-70626050D01*
X53061251Y-70624911D01*
X53052110Y-70623922D01*
X53043010Y-70623083D01*
X53033952Y-70622395D01*
X53024934Y-70621858D01*
X53015956Y-70621474D01*
X53007019Y-70621244D01*
X52998122Y-70621166D01*
X52984849Y-70621410D01*
X52971659Y-70622050D01*
X52958551Y-70623100D01*
X52945522Y-70624573D01*
X52932569Y-70626480D01*
X52919690Y-70628835D01*
X52906882Y-70631650D01*
X52894145Y-70634938D01*
X52881474Y-70638711D01*
X52868869Y-70642982D01*
X52856325Y-70647763D01*
X52843842Y-70653067D01*
X52831417Y-70658907D01*
X52819047Y-70665296D01*
X52806731Y-70672245D01*
X52794465Y-70679767D01*
X52769168Y-70696928D01*
X52745320Y-70715043D01*
X52722850Y-70734070D01*
X52701688Y-70753964D01*
X52681764Y-70774683D01*
X52663005Y-70796184D01*
X52645343Y-70818422D01*
X52628707Y-70841354D01*
X52613025Y-70864938D01*
X52598228Y-70889130D01*
X52584245Y-70913886D01*
X52571006Y-70939163D01*
X52558438Y-70964917D01*
X52546474Y-70991106D01*
X52535041Y-71017686D01*
X52524068Y-71044613D01*
X52521791Y-71051132D01*
X52519829Y-71058132D01*
X52518193Y-71065528D01*
X52516893Y-71073237D01*
X52515940Y-71081174D01*
X52515346Y-71089255D01*
X52515120Y-71097395D01*
X51449566Y-71097395D01*
X51458650Y-71073574D01*
X51475332Y-71033042D01*
G37*
X51475332Y-71033042D02*
X51493051Y-70992877D01*
X51511757Y-70953075D01*
X51531402Y-70913634D01*
X51551937Y-70874551D01*
X51573313Y-70835823D01*
X51618392Y-70759422D01*
X51644159Y-70718534D01*
X51670778Y-70678534D01*
X51698276Y-70639440D01*
X51726680Y-70601271D01*
X51756017Y-70564046D01*
X51786315Y-70527785D01*
X51817600Y-70492505D01*
X51849899Y-70458227D01*
X51883241Y-70424968D01*
X51917651Y-70392749D01*
X51953157Y-70361588D01*
X51989787Y-70331504D01*
X52027567Y-70302515D01*
X52066525Y-70274642D01*
X52106687Y-70247903D01*
X52148081Y-70222317D01*
X52184717Y-70200957D01*
X52221695Y-70180620D01*
X52259010Y-70161286D01*
X52296656Y-70142937D01*
X52334629Y-70125554D01*
X52372921Y-70109117D01*
X52411528Y-70093609D01*
X52450445Y-70079009D01*
X52489665Y-70065299D01*
X52529184Y-70052460D01*
X52568996Y-70040473D01*
X52609095Y-70029319D01*
X52690133Y-70009433D01*
X52772255Y-69992652D01*
X52818237Y-69984852D01*
X52864177Y-69977978D01*
X52910101Y-69972070D01*
X52956036Y-69967171D01*
X53002010Y-69963322D01*
X53048049Y-69960567D01*
X53094179Y-69958947D01*
X53140429Y-69958504D01*
X53168247Y-69958823D01*
X53196124Y-69959591D01*
X53224065Y-69960816D01*
X53252076Y-69962509D01*
X53280162Y-69964677D01*
X53308328Y-69967331D01*
X53336579Y-69970479D01*
X53364921Y-69974131D01*
X53416829Y-69982075D01*
X53468346Y-69990801D01*
X53519428Y-70000569D01*
X53570032Y-70011639D01*
X53620115Y-70024273D01*
X53669634Y-70038729D01*
X53694169Y-70046722D01*
X53718546Y-70055268D01*
X53742762Y-70064400D01*
X53766809Y-70074151D01*
X53809832Y-70093281D01*
X53851325Y-70113901D01*
X53891191Y-70136066D01*
X53929331Y-70159834D01*
X53965648Y-70185262D01*
X54000045Y-70212407D01*
X54032424Y-70241327D01*
X54062686Y-70272077D01*
X54090734Y-70304716D01*
X54116471Y-70339301D01*
X54139799Y-70375887D01*
X54160620Y-70414533D01*
X54178836Y-70455296D01*
X54194350Y-70498232D01*
X54201063Y-70520533D01*
X54207063Y-70543398D01*
X54212340Y-70566836D01*
X54216879Y-70590853D01*
X54227075Y-70655676D01*
X54231336Y-70688228D01*
X54234904Y-70720846D01*
X54237679Y-70753507D01*
X54239562Y-70786190D01*
X54240451Y-70818873D01*
X54240247Y-70851534D01*
X54238850Y-70884151D01*
X54236158Y-70916704D01*
X54232072Y-70949170D01*
X54226491Y-70981527D01*
X54219316Y-71013754D01*
X54210445Y-71045829D01*
X54199779Y-71077731D01*
X54187217Y-71109437D01*
X54171163Y-71145146D01*
X54153591Y-71179375D01*
X54134544Y-71212160D01*
X54114064Y-71243540D01*
X54092196Y-71273553D01*
X54068982Y-71302236D01*
X54044466Y-71329628D01*
X54018692Y-71355767D01*
X53991702Y-71380690D01*
X53963540Y-71404436D01*
X53934249Y-71427043D01*
X53903873Y-71448547D01*
X53872454Y-71468989D01*
X53840037Y-71488404D01*
X53806664Y-71506832D01*
X53772379Y-71524310D01*
X53736808Y-71540855D01*
X53700950Y-71556483D01*
X53664819Y-71571232D01*
X53628433Y-71585139D01*
X53554960Y-71610584D01*
X53480662Y-71633120D01*
X53405669Y-71653052D01*
X53330112Y-71670683D01*
X53254123Y-71686317D01*
X53177832Y-71700258D01*
X53107443Y-71710929D01*
X53036642Y-71719646D01*
X52965538Y-71726887D01*
X52894239Y-71733129D01*
X52751489Y-71744528D01*
X52680254Y-71750641D01*
X52609257Y-71757666D01*
X52589886Y-71760075D01*
X52570623Y-71763048D01*
X52551402Y-71766455D01*
X52532160Y-71770167D01*
X52493351Y-71777980D01*
X52473653Y-71781822D01*
X52453674Y-71785447D01*
X52453369Y-71797802D01*
X52453491Y-71809868D01*
X52454033Y-71821645D01*
X52454987Y-71833138D01*
X52456348Y-71844349D01*
X52458106Y-71855281D01*
X52460256Y-71865936D01*
X52462790Y-71876317D01*
X52465701Y-71886426D01*
X52468983Y-71896267D01*
X52472627Y-71905843D01*
X52476627Y-71915155D01*
X52480975Y-71924206D01*
X52485665Y-71933000D01*
X52490690Y-71941539D01*
X52496041Y-71949826D01*
X52501713Y-71957863D01*
X52507698Y-71965653D01*
X52513988Y-71973199D01*
X52520578Y-71980504D01*
X52527459Y-71987570D01*
X52534624Y-71994399D01*
X52542067Y-72000996D01*
X52549781Y-72007361D01*
X52565990Y-72019412D01*
X52583194Y-72030572D01*
X52601337Y-72040864D01*
X52620362Y-72050309D01*
X52635116Y-72057406D01*
X52650188Y-72064116D01*
X52665547Y-72070440D01*
X52681164Y-72076381D01*
X52697009Y-72081942D01*
X52713052Y-72087126D01*
X52729263Y-72091935D01*
X52745613Y-72096373D01*
X52762071Y-72100441D01*
X52778608Y-72104144D01*
X52811798Y-72110461D01*
X52844945Y-72115346D01*
X52877809Y-72118822D01*
X52918006Y-72121669D01*
X52958035Y-72123283D01*
X52997901Y-72123687D01*
X53037611Y-72122905D01*
X53077169Y-72120963D01*
X53116580Y-72117884D01*
X53155850Y-72113693D01*
X53194985Y-72108415D01*
X53233989Y-72102072D01*
X53272869Y-72094691D01*
X53311629Y-72086294D01*
X53350276Y-72076908D01*
X53388813Y-72066555D01*
X53427247Y-72055260D01*
X53465583Y-72043049D01*
X53503827Y-72029944D01*
X53538636Y-72017846D01*
X53573597Y-72006442D01*
X53643884Y-71985020D01*
X53714519Y-71964292D01*
X53785330Y-71942874D01*
X53797882Y-71939082D01*
X53809172Y-71936069D01*
X53819241Y-71933876D01*
X53823831Y-71933099D01*
X53828131Y-71932542D01*
X53832146Y-71932211D01*
X53835881Y-71932110D01*
X53839342Y-71932244D01*
X53842533Y-71932618D01*
X53845459Y-71933238D01*
X53848126Y-71934109D01*
X53850539Y-71935236D01*
X53852702Y-71936623D01*
X53854622Y-71938276D01*
X53856302Y-71940200D01*
X53857748Y-71942400D01*
X53858965Y-71944881D01*
X53859959Y-71947649D01*
X53860733Y-71950707D01*
X53861294Y-71954063D01*
X53861647Y-71957719D01*
X53861796Y-71961682D01*
X53861746Y-71965957D01*
X53861504Y-71970549D01*
X53861073Y-71975462D01*
X53859666Y-71986275D01*
X53857568Y-71998436D01*
X53837485Y-72106756D01*
X53816362Y-72214906D01*
X53772379Y-72429986D01*
X53753623Y-72520272D01*
X53748337Y-72542734D01*
X53742422Y-72564893D01*
X53739167Y-72575818D01*
X53735682Y-72586618D01*
X53731941Y-72597277D01*
X53727922Y-72607779D01*
X53724110Y-72616404D01*
X53719974Y-72624578D01*
X53715528Y-72632319D01*
X53710786Y-72639642D01*
X53705760Y-72646563D01*
X53700463Y-72653099D01*
X53694909Y-72659266D01*
X53689112Y-72665081D01*
X53683083Y-72670560D01*
X53676838Y-72675718D01*
X53663747Y-72685139D01*
X53649945Y-72693476D01*
X53635538Y-72700857D01*
X53620632Y-72707414D01*
X53605333Y-72713276D01*
X53589746Y-72718574D01*
X53573978Y-72723437D01*
X53511207Y-72741151D01*
X53395858Y-72774717D01*
X53338076Y-72791152D01*
X53280163Y-72806892D01*
X53222077Y-72821590D01*
X53163774Y-72834900D01*
X53105210Y-72846474D01*
X53046342Y-72855965D01*
X52965070Y-72866701D01*
X52883733Y-72876220D01*
X52802266Y-72883829D01*
X52720603Y-72888833D01*
X52679677Y-72890141D01*
X52638679Y-72890537D01*
X52597599Y-72889936D01*
X52556430Y-72888249D01*
X52515163Y-72885390D01*
X52473791Y-72881273D01*
X52432304Y-72875810D01*
X52390696Y-72868916D01*
X52288052Y-72849907D01*
X52237003Y-72840047D01*
X52186280Y-72829342D01*
X52135990Y-72817334D01*
X52086243Y-72803567D01*
X52061607Y-72795882D01*
X52037147Y-72787585D01*
X52012876Y-72778621D01*
X51988809Y-72768932D01*
X51930468Y-72742797D01*
X51874906Y-72714386D01*
X51822121Y-72683679D01*
X51772114Y-72650658D01*
X51724885Y-72615304D01*
X51680435Y-72577597D01*
X51638762Y-72537519D01*
X51599868Y-72495051D01*
X51563751Y-72450174D01*
X51530413Y-72402869D01*
X51499853Y-72353117D01*
X51472072Y-72300898D01*
X51447068Y-72246195D01*
X51424843Y-72188987D01*
X51405396Y-72129257D01*
X51388727Y-72066985D01*
X51379322Y-72025987D01*
X51371216Y-71984954D01*
X51364363Y-71943894D01*
X51358718Y-71902814D01*
X51354235Y-71861724D01*
X51350866Y-71820630D01*
X51348567Y-71779542D01*
X51347290Y-71738468D01*
X51346990Y-71697415D01*
X51347620Y-71656393D01*
X51351489Y-71574469D01*
X51358525Y-71492764D01*
X51368361Y-71411340D01*
X51374995Y-71367780D01*
X51383055Y-71324608D01*
X51392493Y-71281821D01*
X51403261Y-71239417D01*
X51415310Y-71197393D01*
X51428590Y-71155746D01*
X51443053Y-71114474D01*
X51449566Y-71097395D01*
X52515120Y-71097395D01*
X52515275Y-71105512D01*
X52515820Y-71113519D01*
X52516766Y-71121334D01*
X52518125Y-71128872D01*
X52519907Y-71136050D01*
X52522123Y-71142781D01*
X52524784Y-71148984D01*
X52526285Y-71151861D01*
X52527900Y-71154573D01*
X52529633Y-71157111D01*
X52531483Y-71159464D01*
X52537295Y-71165492D01*
X52543594Y-71171050D01*
X52550349Y-71176104D01*
X52557526Y-71180617D01*
X52565095Y-71184556D01*
X52573021Y-71187883D01*
X52581273Y-71190565D01*
X52589817Y-71192567D01*
X52598622Y-71193851D01*
X52607655Y-71194385D01*
X52616884Y-71194132D01*
X52626275Y-71193056D01*
X52631022Y-71192199D01*
X52635797Y-71191124D01*
X52640597Y-71189825D01*
X52645417Y-71188299D01*
X52650253Y-71186540D01*
X52655102Y-71184546D01*
X52659958Y-71182311D01*
X52664819Y-71179830D01*
X52682049Y-71174266D01*
X52717921Y-71164837D01*
X52825716Y-71136299D01*
X52887698Y-71118144D01*
X52948443Y-71098037D01*
X52976798Y-71087400D01*
X53002981Y-71076454D01*
X53026369Y-71065259D01*
X53046342Y-71053874D01*
X53062331Y-71043476D01*
X53077628Y-71032416D01*
X53092192Y-71020684D01*
X53105983Y-71008267D01*
X53118961Y-70995157D01*
X53131083Y-70981341D01*
X53142310Y-70966809D01*
X53152601Y-70951550D01*
X53161916Y-70935553D01*
X53170213Y-70918807D01*
X53177452Y-70901301D01*
X53183592Y-70883025D01*
X53188593Y-70863968D01*
X53192414Y-70844118D01*
X53195014Y-70823465D01*
X53196353Y-70801998D01*
X53197301Y-70795816D01*
X53197727Y-70789441D01*
X53197651Y-70782896D01*
X53197096Y-70776206D01*
X53196080Y-70769394D01*
X53194626Y-70762483D01*
X53192753Y-70755497D01*
X53190482Y-70748461D01*
X53187834Y-70741398D01*
X53184830Y-70734331D01*
X53181490Y-70727284D01*
X53177835Y-70720282D01*
X53173886Y-70713347D01*
X53169664Y-70706504D01*
X53160480Y-70693188D01*
X53150449Y-70680523D01*
X53139738Y-70668698D01*
X53134179Y-70663161D01*
X53128511Y-70657905D01*
X53122756Y-70652955D01*
X53116934Y-70648333D01*
X53111066Y-70644064D01*
X53105172Y-70640171D01*
X53099274Y-70636679D01*
X53093391Y-70633610D01*
X53087545Y-70630989D01*
X53081756Y-70628840D01*
X53076045Y-70627185D01*
X53070433Y-70626050D01*
X53061251Y-70624911D01*
X53052110Y-70623922D01*
X53043010Y-70623083D01*
X53033952Y-70622395D01*
X53024934Y-70621858D01*
X53015956Y-70621474D01*
X53007019Y-70621244D01*
X52998122Y-70621166D01*
X52984849Y-70621410D01*
X52971659Y-70622050D01*
X52958551Y-70623100D01*
X52945522Y-70624573D01*
X52932569Y-70626480D01*
X52919690Y-70628835D01*
X52906882Y-70631650D01*
X52894145Y-70634938D01*
X52881474Y-70638711D01*
X52868869Y-70642982D01*
X52856325Y-70647763D01*
X52843842Y-70653067D01*
X52831417Y-70658907D01*
X52819047Y-70665296D01*
X52806731Y-70672245D01*
X52794465Y-70679767D01*
X52769168Y-70696928D01*
X52745320Y-70715043D01*
X52722850Y-70734070D01*
X52701688Y-70753964D01*
X52681764Y-70774683D01*
X52663005Y-70796184D01*
X52645343Y-70818422D01*
X52628707Y-70841354D01*
X52613025Y-70864938D01*
X52598228Y-70889130D01*
X52584245Y-70913886D01*
X52571006Y-70939163D01*
X52558438Y-70964917D01*
X52546474Y-70991106D01*
X52535041Y-71017686D01*
X52524068Y-71044613D01*
X52521791Y-71051132D01*
X52519829Y-71058132D01*
X52518193Y-71065528D01*
X52516893Y-71073237D01*
X52515940Y-71081174D01*
X52515346Y-71089255D01*
X52515120Y-71097395D01*
X51449566Y-71097395D01*
X51458650Y-71073574D01*
X51475332Y-71033042D01*
G36*
X56274862Y-73195067D02*
G01*
X56305005Y-73195970D01*
X56332736Y-73197476D01*
X56358055Y-73199583D01*
X56369811Y-73200863D01*
X56380963Y-73202294D01*
X56391513Y-73203876D01*
X56401459Y-73205608D01*
X56410803Y-73207491D01*
X56419545Y-73209525D01*
X56427683Y-73211710D01*
X56435219Y-73214047D01*
X56232648Y-74137701D01*
X56216229Y-74131276D01*
X56199527Y-74125266D01*
X56182542Y-74119670D01*
X56165275Y-74114488D01*
X56147725Y-74109720D01*
X56129892Y-74105367D01*
X56111777Y-74101428D01*
X56093380Y-74097904D01*
X56074700Y-74094794D01*
X56055737Y-74092099D01*
X56036491Y-74089818D01*
X56016963Y-74087952D01*
X55997153Y-74086500D01*
X55977059Y-74085464D01*
X55956683Y-74084842D01*
X55936025Y-74084634D01*
X55905362Y-74085303D01*
X55875472Y-74087309D01*
X55846354Y-74090653D01*
X55818009Y-74095334D01*
X55790436Y-74101352D01*
X55763636Y-74108708D01*
X55737608Y-74117402D01*
X55712352Y-74127434D01*
X55687869Y-74138803D01*
X55664159Y-74151509D01*
X55641221Y-74165554D01*
X55619055Y-74180936D01*
X55597662Y-74197656D01*
X55577041Y-74215714D01*
X55557193Y-74235110D01*
X55538117Y-74255843D01*
X55520002Y-74277652D01*
X55502433Y-74300873D01*
X55485410Y-74325508D01*
X55468934Y-74351557D01*
X55453005Y-74379018D01*
X55437622Y-74407893D01*
X55422785Y-74438181D01*
X55408494Y-74469883D01*
X55394750Y-74502997D01*
X55381553Y-74537524D01*
X55368902Y-74573464D01*
X55356797Y-74610817D01*
X55345238Y-74649582D01*
X55334226Y-74689760D01*
X55323761Y-74731351D01*
X55313841Y-74774355D01*
X55058203Y-75975315D01*
X54124926Y-75975315D01*
X54701315Y-73242986D01*
X55446489Y-73242986D01*
X55403081Y-73698771D01*
X55422362Y-73698771D01*
X55442059Y-73665612D01*
X55461964Y-73633660D01*
X55482076Y-73602914D01*
X55502395Y-73573374D01*
X55522922Y-73545040D01*
X55543655Y-73517912D01*
X55564596Y-73491989D01*
X55585745Y-73467273D01*
X55607100Y-73443763D01*
X55628663Y-73421458D01*
X55650433Y-73400359D01*
X55672410Y-73380465D01*
X55694595Y-73361777D01*
X55716987Y-73344294D01*
X55739586Y-73328017D01*
X55762392Y-73312945D01*
X55785745Y-73298636D01*
X55809983Y-73285249D01*
X55835108Y-73272786D01*
X55861117Y-73261245D01*
X55888013Y-73250628D01*
X55915794Y-73240933D01*
X55944461Y-73232162D01*
X55974013Y-73224314D01*
X56004451Y-73217389D01*
X56035774Y-73211387D01*
X56067983Y-73206309D01*
X56101077Y-73202154D01*
X56135056Y-73198922D01*
X56169921Y-73196613D01*
X56205671Y-73195228D01*
X56242306Y-73194767D01*
X56274862Y-73195067D01*
G37*
X56274862Y-73195067D02*
X56305005Y-73195970D01*
X56332736Y-73197476D01*
X56358055Y-73199583D01*
X56369811Y-73200863D01*
X56380963Y-73202294D01*
X56391513Y-73203876D01*
X56401459Y-73205608D01*
X56410803Y-73207491D01*
X56419545Y-73209525D01*
X56427683Y-73211710D01*
X56435219Y-73214047D01*
X56232648Y-74137701D01*
X56216229Y-74131276D01*
X56199527Y-74125266D01*
X56182542Y-74119670D01*
X56165275Y-74114488D01*
X56147725Y-74109720D01*
X56129892Y-74105367D01*
X56111777Y-74101428D01*
X56093380Y-74097904D01*
X56074700Y-74094794D01*
X56055737Y-74092099D01*
X56036491Y-74089818D01*
X56016963Y-74087952D01*
X55997153Y-74086500D01*
X55977059Y-74085464D01*
X55956683Y-74084842D01*
X55936025Y-74084634D01*
X55905362Y-74085303D01*
X55875472Y-74087309D01*
X55846354Y-74090653D01*
X55818009Y-74095334D01*
X55790436Y-74101352D01*
X55763636Y-74108708D01*
X55737608Y-74117402D01*
X55712352Y-74127434D01*
X55687869Y-74138803D01*
X55664159Y-74151509D01*
X55641221Y-74165554D01*
X55619055Y-74180936D01*
X55597662Y-74197656D01*
X55577041Y-74215714D01*
X55557193Y-74235110D01*
X55538117Y-74255843D01*
X55520002Y-74277652D01*
X55502433Y-74300873D01*
X55485410Y-74325508D01*
X55468934Y-74351557D01*
X55453005Y-74379018D01*
X55437622Y-74407893D01*
X55422785Y-74438181D01*
X55408494Y-74469883D01*
X55394750Y-74502997D01*
X55381553Y-74537524D01*
X55368902Y-74573464D01*
X55356797Y-74610817D01*
X55345238Y-74649582D01*
X55334226Y-74689760D01*
X55323761Y-74731351D01*
X55313841Y-74774355D01*
X55058203Y-75975315D01*
X54124926Y-75975315D01*
X54701315Y-73242986D01*
X55446489Y-73242986D01*
X55403081Y-73698771D01*
X55422362Y-73698771D01*
X55442059Y-73665612D01*
X55461964Y-73633660D01*
X55482076Y-73602914D01*
X55502395Y-73573374D01*
X55522922Y-73545040D01*
X55543655Y-73517912D01*
X55564596Y-73491989D01*
X55585745Y-73467273D01*
X55607100Y-73443763D01*
X55628663Y-73421458D01*
X55650433Y-73400359D01*
X55672410Y-73380465D01*
X55694595Y-73361777D01*
X55716987Y-73344294D01*
X55739586Y-73328017D01*
X55762392Y-73312945D01*
X55785745Y-73298636D01*
X55809983Y-73285249D01*
X55835108Y-73272786D01*
X55861117Y-73261245D01*
X55888013Y-73250628D01*
X55915794Y-73240933D01*
X55944461Y-73232162D01*
X55974013Y-73224314D01*
X56004451Y-73217389D01*
X56035774Y-73211387D01*
X56067983Y-73206309D01*
X56101077Y-73202154D01*
X56135056Y-73198922D01*
X56169921Y-73196613D01*
X56205671Y-73195228D01*
X56242306Y-73194767D01*
X56274862Y-73195067D01*
G36*
X43024835Y-74873556D02*
G01*
X43028272Y-74819268D01*
X43033084Y-74764848D01*
X43039272Y-74710297D01*
X43046834Y-74655614D01*
X43055772Y-74600799D01*
X43066084Y-74545852D01*
X43077773Y-74490774D01*
X43090836Y-74435563D01*
X43105275Y-74380220D01*
X43121090Y-74324746D01*
X43138280Y-74269139D01*
X43156846Y-74213401D01*
X43176788Y-74157530D01*
X43198106Y-74101527D01*
X43220469Y-74046315D01*
X43243549Y-73992817D01*
X43267345Y-73941033D01*
X43291857Y-73890964D01*
X43317085Y-73842608D01*
X43343029Y-73795967D01*
X43369690Y-73751040D01*
X43397066Y-73707827D01*
X43425158Y-73666329D01*
X43453966Y-73626545D01*
X43483490Y-73588476D01*
X43513730Y-73552122D01*
X43544685Y-73517483D01*
X43576356Y-73484558D01*
X43608743Y-73453348D01*
X43641846Y-73423853D01*
X43675825Y-73396111D01*
X43710237Y-73370159D01*
X43745083Y-73345997D01*
X43780362Y-73323624D01*
X43816075Y-73303042D01*
X43852221Y-73284250D01*
X43888801Y-73267248D01*
X43925814Y-73252035D01*
X43963260Y-73238613D01*
X44001140Y-73226980D01*
X44039453Y-73217137D01*
X44078199Y-73209083D01*
X44117378Y-73202820D01*
X44156991Y-73198346D01*
X44197036Y-73195661D01*
X44237515Y-73194767D01*
X44262648Y-73195124D01*
X44287403Y-73196198D01*
X44311781Y-73197987D01*
X44335782Y-73200492D01*
X44359406Y-73203713D01*
X44382653Y-73207649D01*
X44405523Y-73212302D01*
X44428016Y-73217670D01*
X44450133Y-73223755D01*
X44471872Y-73230555D01*
X44493235Y-73238071D01*
X44514222Y-73246303D01*
X44534832Y-73255252D01*
X44555065Y-73264916D01*
X44574922Y-73275297D01*
X44594403Y-73286394D01*
X44613564Y-73298000D01*
X44632460Y-73310510D01*
X44651094Y-73323926D01*
X44669463Y-73338246D01*
X44687569Y-73353471D01*
X44705410Y-73369600D01*
X44722988Y-73386634D01*
X44740303Y-73404572D01*
X44757353Y-73423415D01*
X44774140Y-73443162D01*
X44790663Y-73463813D01*
X44806922Y-73485368D01*
X44822918Y-73507828D01*
X44838649Y-73531191D01*
X44854117Y-73555458D01*
X44869321Y-73580629D01*
X44888638Y-73580629D01*
X45016439Y-73242986D01*
X45764037Y-73242986D01*
X45185261Y-75975315D01*
X44440086Y-75975315D01*
X44464178Y-75678693D01*
X44444898Y-75678693D01*
X44427932Y-75701781D01*
X44410796Y-75724022D01*
X44393491Y-75745416D01*
X44376015Y-75765961D01*
X44358370Y-75785658D01*
X44340556Y-75804508D01*
X44322572Y-75822510D01*
X44304418Y-75839664D01*
X44286094Y-75855971D01*
X44267602Y-75871429D01*
X44248939Y-75886040D01*
X44230107Y-75899803D01*
X44211106Y-75912718D01*
X44191935Y-75924785D01*
X44172595Y-75936005D01*
X44153086Y-75946376D01*
X44133332Y-75955721D01*
X44113257Y-75964462D01*
X44092863Y-75972601D01*
X44072148Y-75980136D01*
X44051113Y-75987068D01*
X44029757Y-75993398D01*
X44008081Y-75999124D01*
X43986085Y-76004247D01*
X43963769Y-76008768D01*
X43941132Y-76012686D01*
X43918175Y-76016000D01*
X43894898Y-76018712D01*
X43871300Y-76020822D01*
X43847382Y-76022328D01*
X43823144Y-76023232D01*
X43798586Y-76023534D01*
X43751673Y-76022488D01*
X43706193Y-76019351D01*
X43662144Y-76014123D01*
X43619527Y-76006803D01*
X43578342Y-75997393D01*
X43538589Y-75985891D01*
X43500267Y-75972297D01*
X43463378Y-75956613D01*
X43427920Y-75938837D01*
X43393895Y-75918970D01*
X43361301Y-75897012D01*
X43330139Y-75872962D01*
X43300409Y-75846821D01*
X43272110Y-75818589D01*
X43245244Y-75788265D01*
X43219810Y-75755850D01*
X43195864Y-75721174D01*
X43173463Y-75684671D01*
X43152608Y-75646340D01*
X43133299Y-75606182D01*
X43115534Y-75564196D01*
X43099314Y-75520383D01*
X43084640Y-75474743D01*
X43071510Y-75427274D01*
X43059926Y-75377978D01*
X43049886Y-75326855D01*
X43041391Y-75273904D01*
X43034441Y-75219126D01*
X43029035Y-75162520D01*
X43025174Y-75104086D01*
X43022858Y-75043825D01*
X43022085Y-74981737D01*
X43022761Y-74928671D01*
X43974642Y-74928671D01*
X43974845Y-74949887D01*
X43975452Y-74970431D01*
X43976465Y-74990301D01*
X43977882Y-75009497D01*
X43979705Y-75028020D01*
X43981932Y-75045870D01*
X43984565Y-75063046D01*
X43987603Y-75079548D01*
X43991045Y-75095377D01*
X43994893Y-75110533D01*
X43999146Y-75125015D01*
X44003803Y-75138824D01*
X44008866Y-75151959D01*
X44014334Y-75164421D01*
X44020207Y-75176209D01*
X44026485Y-75187324D01*
X44033168Y-75197765D01*
X44040256Y-75207532D01*
X44047749Y-75216626D01*
X44055648Y-75225046D01*
X44063951Y-75232793D01*
X44072659Y-75239866D01*
X44081773Y-75246266D01*
X44091292Y-75251992D01*
X44101215Y-75257044D01*
X44111544Y-75261423D01*
X44122278Y-75265128D01*
X44133417Y-75268160D01*
X44144962Y-75270517D01*
X44156911Y-75272202D01*
X44169265Y-75273212D01*
X44182025Y-75273549D01*
X44197050Y-75273002D01*
X44211982Y-75271363D01*
X44226820Y-75268630D01*
X44241564Y-75264805D01*
X44256214Y-75259887D01*
X44270771Y-75253876D01*
X44285233Y-75246772D01*
X44299601Y-75238575D01*
X44313875Y-75229286D01*
X44328054Y-75218903D01*
X44342139Y-75207428D01*
X44356130Y-75194861D01*
X44370027Y-75181201D01*
X44383828Y-75166448D01*
X44397535Y-75150603D01*
X44411148Y-75133665D01*
X44424835Y-75115513D01*
X44438164Y-75096625D01*
X44451134Y-75077002D01*
X44463746Y-75056645D01*
X44476000Y-75035552D01*
X44487896Y-75013724D01*
X44499433Y-74991162D01*
X44510613Y-74967865D01*
X44521434Y-74943833D01*
X44531898Y-74919066D01*
X44542004Y-74893564D01*
X44551752Y-74867328D01*
X44561142Y-74840357D01*
X44570175Y-74812652D01*
X44587168Y-74755038D01*
X44602429Y-74696105D01*
X44615655Y-74637474D01*
X44626846Y-74579144D01*
X44636002Y-74521116D01*
X44643124Y-74463389D01*
X44648211Y-74405964D01*
X44651263Y-74348840D01*
X44652280Y-74292017D01*
X44652092Y-74272668D01*
X44651527Y-74253810D01*
X44650586Y-74235441D01*
X44649268Y-74217562D01*
X44647573Y-74200173D01*
X44645502Y-74183274D01*
X44643053Y-74166865D01*
X44640229Y-74150946D01*
X44637027Y-74135517D01*
X44633448Y-74120578D01*
X44629493Y-74106128D01*
X44625161Y-74092168D01*
X44620451Y-74078698D01*
X44615365Y-74065718D01*
X44609902Y-74053227D01*
X44604061Y-74041226D01*
X44597825Y-74029545D01*
X44591175Y-74018617D01*
X44584110Y-74008443D01*
X44576632Y-73999022D01*
X44568738Y-73990354D01*
X44560431Y-73982441D01*
X44551709Y-73975280D01*
X44542572Y-73968873D01*
X44533021Y-73963220D01*
X44523056Y-73958321D01*
X44512676Y-73954175D01*
X44501881Y-73950782D01*
X44490672Y-73948144D01*
X44479048Y-73946259D01*
X44467010Y-73945129D01*
X44454556Y-73944752D01*
X44431778Y-73945948D01*
X44409264Y-73949538D01*
X44387013Y-73955520D01*
X44365027Y-73963895D01*
X44343304Y-73974663D01*
X44321844Y-73987824D01*
X44300649Y-74003378D01*
X44279717Y-74021325D01*
X44259049Y-74041664D01*
X44238645Y-74064396D01*
X44218505Y-74089521D01*
X44198628Y-74117038D01*
X44179016Y-74146948D01*
X44159667Y-74179250D01*
X44140581Y-74213945D01*
X44121760Y-74251033D01*
X44103946Y-74289288D01*
X44087281Y-74328089D01*
X44071766Y-74367437D01*
X44057399Y-74407330D01*
X44044182Y-74447770D01*
X44032114Y-74488757D01*
X44021195Y-74530289D01*
X44011425Y-74572368D01*
X44002804Y-74614993D01*
X43995333Y-74658165D01*
X43989011Y-74701883D01*
X43983838Y-74746147D01*
X43979815Y-74790958D01*
X43976941Y-74836316D01*
X43975217Y-74882220D01*
X43974642Y-74928671D01*
X43022761Y-74928671D01*
X43022773Y-74927712D01*
X43024835Y-74873556D01*
G37*
X43024835Y-74873556D02*
X43028272Y-74819268D01*
X43033084Y-74764848D01*
X43039272Y-74710297D01*
X43046834Y-74655614D01*
X43055772Y-74600799D01*
X43066084Y-74545852D01*
X43077773Y-74490774D01*
X43090836Y-74435563D01*
X43105275Y-74380220D01*
X43121090Y-74324746D01*
X43138280Y-74269139D01*
X43156846Y-74213401D01*
X43176788Y-74157530D01*
X43198106Y-74101527D01*
X43220469Y-74046315D01*
X43243549Y-73992817D01*
X43267345Y-73941033D01*
X43291857Y-73890964D01*
X43317085Y-73842608D01*
X43343029Y-73795967D01*
X43369690Y-73751040D01*
X43397066Y-73707827D01*
X43425158Y-73666329D01*
X43453966Y-73626545D01*
X43483490Y-73588476D01*
X43513730Y-73552122D01*
X43544685Y-73517483D01*
X43576356Y-73484558D01*
X43608743Y-73453348D01*
X43641846Y-73423853D01*
X43675825Y-73396111D01*
X43710237Y-73370159D01*
X43745083Y-73345997D01*
X43780362Y-73323624D01*
X43816075Y-73303042D01*
X43852221Y-73284250D01*
X43888801Y-73267248D01*
X43925814Y-73252035D01*
X43963260Y-73238613D01*
X44001140Y-73226980D01*
X44039453Y-73217137D01*
X44078199Y-73209083D01*
X44117378Y-73202820D01*
X44156991Y-73198346D01*
X44197036Y-73195661D01*
X44237515Y-73194767D01*
X44262648Y-73195124D01*
X44287403Y-73196198D01*
X44311781Y-73197987D01*
X44335782Y-73200492D01*
X44359406Y-73203713D01*
X44382653Y-73207649D01*
X44405523Y-73212302D01*
X44428016Y-73217670D01*
X44450133Y-73223755D01*
X44471872Y-73230555D01*
X44493235Y-73238071D01*
X44514222Y-73246303D01*
X44534832Y-73255252D01*
X44555065Y-73264916D01*
X44574922Y-73275297D01*
X44594403Y-73286394D01*
X44613564Y-73298000D01*
X44632460Y-73310510D01*
X44651094Y-73323926D01*
X44669463Y-73338246D01*
X44687569Y-73353471D01*
X44705410Y-73369600D01*
X44722988Y-73386634D01*
X44740303Y-73404572D01*
X44757353Y-73423415D01*
X44774140Y-73443162D01*
X44790663Y-73463813D01*
X44806922Y-73485368D01*
X44822918Y-73507828D01*
X44838649Y-73531191D01*
X44854117Y-73555458D01*
X44869321Y-73580629D01*
X44888638Y-73580629D01*
X45016439Y-73242986D01*
X45764037Y-73242986D01*
X45185261Y-75975315D01*
X44440086Y-75975315D01*
X44464178Y-75678693D01*
X44444898Y-75678693D01*
X44427932Y-75701781D01*
X44410796Y-75724022D01*
X44393491Y-75745416D01*
X44376015Y-75765961D01*
X44358370Y-75785658D01*
X44340556Y-75804508D01*
X44322572Y-75822510D01*
X44304418Y-75839664D01*
X44286094Y-75855971D01*
X44267602Y-75871429D01*
X44248939Y-75886040D01*
X44230107Y-75899803D01*
X44211106Y-75912718D01*
X44191935Y-75924785D01*
X44172595Y-75936005D01*
X44153086Y-75946376D01*
X44133332Y-75955721D01*
X44113257Y-75964462D01*
X44092863Y-75972601D01*
X44072148Y-75980136D01*
X44051113Y-75987068D01*
X44029757Y-75993398D01*
X44008081Y-75999124D01*
X43986085Y-76004247D01*
X43963769Y-76008768D01*
X43941132Y-76012686D01*
X43918175Y-76016000D01*
X43894898Y-76018712D01*
X43871300Y-76020822D01*
X43847382Y-76022328D01*
X43823144Y-76023232D01*
X43798586Y-76023534D01*
X43751673Y-76022488D01*
X43706193Y-76019351D01*
X43662144Y-76014123D01*
X43619527Y-76006803D01*
X43578342Y-75997393D01*
X43538589Y-75985891D01*
X43500267Y-75972297D01*
X43463378Y-75956613D01*
X43427920Y-75938837D01*
X43393895Y-75918970D01*
X43361301Y-75897012D01*
X43330139Y-75872962D01*
X43300409Y-75846821D01*
X43272110Y-75818589D01*
X43245244Y-75788265D01*
X43219810Y-75755850D01*
X43195864Y-75721174D01*
X43173463Y-75684671D01*
X43152608Y-75646340D01*
X43133299Y-75606182D01*
X43115534Y-75564196D01*
X43099314Y-75520383D01*
X43084640Y-75474743D01*
X43071510Y-75427274D01*
X43059926Y-75377978D01*
X43049886Y-75326855D01*
X43041391Y-75273904D01*
X43034441Y-75219126D01*
X43029035Y-75162520D01*
X43025174Y-75104086D01*
X43022858Y-75043825D01*
X43022085Y-74981737D01*
X43022761Y-74928671D01*
X43974642Y-74928671D01*
X43974845Y-74949887D01*
X43975452Y-74970431D01*
X43976465Y-74990301D01*
X43977882Y-75009497D01*
X43979705Y-75028020D01*
X43981932Y-75045870D01*
X43984565Y-75063046D01*
X43987603Y-75079548D01*
X43991045Y-75095377D01*
X43994893Y-75110533D01*
X43999146Y-75125015D01*
X44003803Y-75138824D01*
X44008866Y-75151959D01*
X44014334Y-75164421D01*
X44020207Y-75176209D01*
X44026485Y-75187324D01*
X44033168Y-75197765D01*
X44040256Y-75207532D01*
X44047749Y-75216626D01*
X44055648Y-75225046D01*
X44063951Y-75232793D01*
X44072659Y-75239866D01*
X44081773Y-75246266D01*
X44091292Y-75251992D01*
X44101215Y-75257044D01*
X44111544Y-75261423D01*
X44122278Y-75265128D01*
X44133417Y-75268160D01*
X44144962Y-75270517D01*
X44156911Y-75272202D01*
X44169265Y-75273212D01*
X44182025Y-75273549D01*
X44197050Y-75273002D01*
X44211982Y-75271363D01*
X44226820Y-75268630D01*
X44241564Y-75264805D01*
X44256214Y-75259887D01*
X44270771Y-75253876D01*
X44285233Y-75246772D01*
X44299601Y-75238575D01*
X44313875Y-75229286D01*
X44328054Y-75218903D01*
X44342139Y-75207428D01*
X44356130Y-75194861D01*
X44370027Y-75181201D01*
X44383828Y-75166448D01*
X44397535Y-75150603D01*
X44411148Y-75133665D01*
X44424835Y-75115513D01*
X44438164Y-75096625D01*
X44451134Y-75077002D01*
X44463746Y-75056645D01*
X44476000Y-75035552D01*
X44487896Y-75013724D01*
X44499433Y-74991162D01*
X44510613Y-74967865D01*
X44521434Y-74943833D01*
X44531898Y-74919066D01*
X44542004Y-74893564D01*
X44551752Y-74867328D01*
X44561142Y-74840357D01*
X44570175Y-74812652D01*
X44587168Y-74755038D01*
X44602429Y-74696105D01*
X44615655Y-74637474D01*
X44626846Y-74579144D01*
X44636002Y-74521116D01*
X44643124Y-74463389D01*
X44648211Y-74405964D01*
X44651263Y-74348840D01*
X44652280Y-74292017D01*
X44652092Y-74272668D01*
X44651527Y-74253810D01*
X44650586Y-74235441D01*
X44649268Y-74217562D01*
X44647573Y-74200173D01*
X44645502Y-74183274D01*
X44643053Y-74166865D01*
X44640229Y-74150946D01*
X44637027Y-74135517D01*
X44633448Y-74120578D01*
X44629493Y-74106128D01*
X44625161Y-74092168D01*
X44620451Y-74078698D01*
X44615365Y-74065718D01*
X44609902Y-74053227D01*
X44604061Y-74041226D01*
X44597825Y-74029545D01*
X44591175Y-74018617D01*
X44584110Y-74008443D01*
X44576632Y-73999022D01*
X44568738Y-73990354D01*
X44560431Y-73982441D01*
X44551709Y-73975280D01*
X44542572Y-73968873D01*
X44533021Y-73963220D01*
X44523056Y-73958321D01*
X44512676Y-73954175D01*
X44501881Y-73950782D01*
X44490672Y-73948144D01*
X44479048Y-73946259D01*
X44467010Y-73945129D01*
X44454556Y-73944752D01*
X44431778Y-73945948D01*
X44409264Y-73949538D01*
X44387013Y-73955520D01*
X44365027Y-73963895D01*
X44343304Y-73974663D01*
X44321844Y-73987824D01*
X44300649Y-74003378D01*
X44279717Y-74021325D01*
X44259049Y-74041664D01*
X44238645Y-74064396D01*
X44218505Y-74089521D01*
X44198628Y-74117038D01*
X44179016Y-74146948D01*
X44159667Y-74179250D01*
X44140581Y-74213945D01*
X44121760Y-74251033D01*
X44103946Y-74289288D01*
X44087281Y-74328089D01*
X44071766Y-74367437D01*
X44057399Y-74407330D01*
X44044182Y-74447770D01*
X44032114Y-74488757D01*
X44021195Y-74530289D01*
X44011425Y-74572368D01*
X44002804Y-74614993D01*
X43995333Y-74658165D01*
X43989011Y-74701883D01*
X43983838Y-74746147D01*
X43979815Y-74790958D01*
X43976941Y-74836316D01*
X43975217Y-74882220D01*
X43974642Y-74928671D01*
X43022761Y-74928671D01*
X43022773Y-74927712D01*
X43024835Y-74873556D01*
G36*
X40041640Y-74874158D02*
G01*
X40044984Y-74820171D01*
X40049665Y-74766052D01*
X40055683Y-74711801D01*
X40063039Y-74657419D01*
X40071733Y-74602904D01*
X40081765Y-74548258D01*
X40093134Y-74493479D01*
X40105840Y-74438569D01*
X40119885Y-74383527D01*
X40135267Y-74328353D01*
X40151987Y-74273047D01*
X40170045Y-74217609D01*
X40189441Y-74162040D01*
X40210175Y-74106338D01*
X40232256Y-74051409D01*
X40255090Y-73998158D01*
X40278679Y-73946583D01*
X40303022Y-73896685D01*
X40328118Y-73848464D01*
X40353968Y-73801920D01*
X40380572Y-73757053D01*
X40407929Y-73713862D01*
X40436040Y-73672349D01*
X40464904Y-73632512D01*
X40494522Y-73594352D01*
X40524894Y-73557868D01*
X40556019Y-73523061D01*
X40587898Y-73489931D01*
X40620529Y-73458477D01*
X40653915Y-73428700D01*
X40687893Y-73400374D01*
X40722306Y-73373874D01*
X40757152Y-73349202D01*
X40792431Y-73326358D01*
X40828144Y-73305340D01*
X40864290Y-73286150D01*
X40900870Y-73268788D01*
X40937883Y-73253253D01*
X40975329Y-73239545D01*
X41013209Y-73227666D01*
X41051522Y-73217613D01*
X41090268Y-73209389D01*
X41129447Y-73202991D01*
X41169060Y-73198422D01*
X41209105Y-73195680D01*
X41249584Y-73194767D01*
X41271966Y-73195059D01*
X41293896Y-73195935D01*
X41315374Y-73197396D01*
X41336400Y-73199441D01*
X41356974Y-73202070D01*
X41377095Y-73205283D01*
X41396765Y-73209081D01*
X41415982Y-73213462D01*
X41434747Y-73218428D01*
X41453060Y-73223977D01*
X41470920Y-73230111D01*
X41488329Y-73236828D01*
X41505285Y-73244130D01*
X41521789Y-73252015D01*
X41537841Y-73260484D01*
X41553441Y-73269537D01*
X41568900Y-73279154D01*
X41584528Y-73289921D01*
X41600325Y-73301836D01*
X41616293Y-73314901D01*
X41632429Y-73329114D01*
X41648736Y-73344476D01*
X41665212Y-73360988D01*
X41681857Y-73378648D01*
X41698672Y-73397458D01*
X41715657Y-73417417D01*
X41732811Y-73438526D01*
X41750135Y-73460784D01*
X41767628Y-73484192D01*
X41785291Y-73508749D01*
X41803123Y-73534456D01*
X41821125Y-73561312D01*
X41840406Y-73561312D01*
X41845217Y-73472109D01*
X41849852Y-73391132D01*
X41855317Y-73314601D01*
X41861611Y-73242516D01*
X41868735Y-73174877D01*
X41876688Y-73111684D01*
X41885470Y-73052938D01*
X41895080Y-72998639D01*
X41905518Y-72948787D01*
X41930550Y-72827280D01*
X41758098Y-72826046D01*
X41585372Y-72825843D01*
X41239347Y-72826339D01*
X41221914Y-72825816D01*
X41213663Y-72825161D01*
X41205719Y-72824240D01*
X41198078Y-72823054D01*
X41190738Y-72821600D01*
X41183697Y-72819877D01*
X41176951Y-72817885D01*
X41170498Y-72815621D01*
X41164336Y-72813084D01*
X41158461Y-72810273D01*
X41152871Y-72807187D01*
X41147563Y-72803824D01*
X41142534Y-72800183D01*
X41137782Y-72796262D01*
X41133304Y-72792061D01*
X41129097Y-72787578D01*
X41125159Y-72782811D01*
X41121487Y-72777759D01*
X41118078Y-72772421D01*
X41114930Y-72766795D01*
X41112039Y-72760881D01*
X41109403Y-72754676D01*
X41107020Y-72748180D01*
X41104887Y-72741391D01*
X41103000Y-72734307D01*
X41101358Y-72726928D01*
X41099957Y-72719252D01*
X41097869Y-72703004D01*
X41096715Y-72685552D01*
X41084213Y-72394095D01*
X41068933Y-72104027D01*
X41059993Y-71962632D01*
X41050185Y-71821584D01*
X41030047Y-71539141D01*
X41022320Y-71417191D01*
X41015462Y-71295585D01*
X41002266Y-71052029D01*
X40961534Y-70413060D01*
X40946703Y-70146353D01*
X40945759Y-70132434D01*
X40944358Y-70118343D01*
X40942566Y-70103907D01*
X40940449Y-70088949D01*
X40930027Y-70020433D01*
X40926600Y-70024473D01*
X40923273Y-70028267D01*
X40920060Y-70031833D01*
X40916975Y-70035187D01*
X40911240Y-70041325D01*
X40906178Y-70046811D01*
X40903933Y-70049350D01*
X40901897Y-70051776D01*
X40900084Y-70054104D01*
X40898507Y-70056351D01*
X40897811Y-70057449D01*
X40897179Y-70058533D01*
X40896613Y-70059605D01*
X40896115Y-70060666D01*
X40895686Y-70061720D01*
X40895327Y-70062768D01*
X40895042Y-70063812D01*
X40894830Y-70064854D01*
X40772600Y-70685302D01*
X40711713Y-70985343D01*
X40652215Y-71285384D01*
X40528140Y-71952134D01*
X40504986Y-72068497D01*
X40480441Y-72184339D01*
X40429965Y-72415155D01*
X40411795Y-72500150D01*
X40392934Y-72585322D01*
X40383026Y-72627811D01*
X40372684Y-72670147D01*
X40361820Y-72712265D01*
X40350347Y-72754101D01*
X40349669Y-72756388D01*
X40348849Y-72758704D01*
X40346809Y-72763400D01*
X40344269Y-72768151D01*
X40341276Y-72772917D01*
X40337871Y-72777659D01*
X40334100Y-72782337D01*
X40330006Y-72786914D01*
X40325634Y-72791349D01*
X40321028Y-72795603D01*
X40316231Y-72799638D01*
X40311288Y-72803414D01*
X40306243Y-72806892D01*
X40301140Y-72810033D01*
X40296022Y-72812798D01*
X40290935Y-72815147D01*
X40285922Y-72817043D01*
X40014838Y-73722900D01*
X39397464Y-73722900D01*
X39558762Y-72539954D01*
X39548407Y-72522880D01*
X39538496Y-72505396D01*
X39529042Y-72487489D01*
X39520060Y-72469144D01*
X39511563Y-72450347D01*
X39503566Y-72431083D01*
X39496083Y-72411339D01*
X39489128Y-72391100D01*
X39480382Y-72362013D01*
X39473507Y-72333083D01*
X39468380Y-72304294D01*
X39464874Y-72275629D01*
X39462866Y-72247073D01*
X39462230Y-72218608D01*
X39462842Y-72190219D01*
X39464577Y-72161890D01*
X39467311Y-72133604D01*
X39470918Y-72105345D01*
X39475274Y-72077098D01*
X39480255Y-72048845D01*
X39491589Y-71992259D01*
X39503923Y-71935458D01*
X39525252Y-71838257D01*
X39545367Y-71741235D01*
X39565135Y-71644561D01*
X39585422Y-71548401D01*
X39630574Y-71349303D01*
X39652891Y-71249927D01*
X39674336Y-71150204D01*
X39696009Y-71042926D01*
X39717159Y-70935124D01*
X39738655Y-70826974D01*
X39761370Y-70718654D01*
X39874340Y-70211176D01*
X39976204Y-69729634D01*
X40052132Y-69396259D01*
X40124371Y-69035103D01*
X40128803Y-69015744D01*
X40133176Y-68998557D01*
X40137648Y-68983416D01*
X40142374Y-68970193D01*
X40144882Y-68964262D01*
X40147513Y-68958761D01*
X40150287Y-68953677D01*
X40153223Y-68948992D01*
X40156340Y-68944691D01*
X40159659Y-68940759D01*
X40163199Y-68937178D01*
X40166980Y-68933933D01*
X40171021Y-68931009D01*
X40175342Y-68928388D01*
X40179964Y-68926056D01*
X40184904Y-68923996D01*
X40190184Y-68922193D01*
X40195822Y-68920630D01*
X40201839Y-68919291D01*
X40208254Y-68918161D01*
X40222357Y-68916464D01*
X40238288Y-68915409D01*
X40256204Y-68914869D01*
X40276263Y-68914718D01*
X40767988Y-68913557D01*
X41013850Y-68913930D01*
X41259712Y-68916563D01*
X41278330Y-68917335D01*
X41297008Y-68918943D01*
X41315718Y-68921363D01*
X41334436Y-68924576D01*
X41353133Y-68928557D01*
X41371782Y-68933286D01*
X41390358Y-68938739D01*
X41408833Y-68944896D01*
X41427180Y-68951734D01*
X41445373Y-68959230D01*
X41481190Y-68976112D01*
X41516067Y-68995366D01*
X41549791Y-69016814D01*
X41582148Y-69040281D01*
X41612924Y-69065589D01*
X41641903Y-69092564D01*
X41668872Y-69121027D01*
X41693616Y-69150804D01*
X41705088Y-69166130D01*
X41715922Y-69181717D01*
X41726093Y-69197545D01*
X41735574Y-69213591D01*
X41744339Y-69229832D01*
X41752359Y-69246248D01*
X41763570Y-69272420D01*
X41773637Y-69298833D01*
X41782629Y-69325468D01*
X41790617Y-69352307D01*
X41797673Y-69379331D01*
X41803865Y-69406519D01*
X41809266Y-69433854D01*
X41813945Y-69461317D01*
X41821420Y-69516549D01*
X41826854Y-69572064D01*
X41830812Y-69627709D01*
X41833858Y-69683332D01*
X41842366Y-69876731D01*
X41849138Y-70070653D01*
X41861639Y-70459362D01*
X41887576Y-71087226D01*
X41902371Y-71542831D01*
X41902845Y-71545956D01*
X41903555Y-71549081D01*
X41904477Y-71552206D01*
X41905587Y-71555330D01*
X41906859Y-71558455D01*
X41908270Y-71561579D01*
X41909796Y-71564703D01*
X41911411Y-71567827D01*
X41918277Y-71580324D01*
X41921611Y-71586573D01*
X41923167Y-71589698D01*
X41924618Y-71592823D01*
X41928857Y-71587347D01*
X41933181Y-71582003D01*
X41941742Y-71571535D01*
X41945805Y-71566322D01*
X41947745Y-71563703D01*
X41949609Y-71561066D01*
X41951386Y-71558408D01*
X41953065Y-71555722D01*
X41954636Y-71553004D01*
X41956089Y-71550247D01*
X42139452Y-71122423D01*
X42224413Y-70927954D01*
X42307984Y-70733485D01*
X42449430Y-70405663D01*
X42589487Y-70077840D01*
X42780019Y-69627788D01*
X42969164Y-69177735D01*
X43061768Y-68974006D01*
X43065373Y-68965994D01*
X43069253Y-68958617D01*
X43073420Y-68951858D01*
X43077889Y-68945702D01*
X43082673Y-68940131D01*
X43087785Y-68935129D01*
X43090468Y-68932837D01*
X43093239Y-68930681D01*
X43096098Y-68928660D01*
X43099048Y-68926771D01*
X43105227Y-68923381D01*
X43111787Y-68920496D01*
X43118744Y-68918099D01*
X43126111Y-68916174D01*
X43133900Y-68914705D01*
X43142126Y-68913676D01*
X43150803Y-68913071D01*
X43159943Y-68912873D01*
X43651667Y-68913101D01*
X43897529Y-68913127D01*
X44143392Y-68914718D01*
X44178378Y-68916058D01*
X44212494Y-68919359D01*
X44245736Y-68924588D01*
X44278102Y-68931707D01*
X44309589Y-68940682D01*
X44340194Y-68951478D01*
X44369914Y-68964059D01*
X44398748Y-68978390D01*
X44426691Y-68994436D01*
X44453742Y-69012161D01*
X44479898Y-69031530D01*
X44505155Y-69052508D01*
X44529512Y-69075059D01*
X44552966Y-69099148D01*
X44575513Y-69124739D01*
X44597152Y-69151799D01*
X44620210Y-69183964D01*
X44640802Y-69216560D01*
X44658980Y-69249585D01*
X44674795Y-69283036D01*
X44688298Y-69316910D01*
X44699541Y-69351205D01*
X44708576Y-69385918D01*
X44715454Y-69421045D01*
X44720227Y-69456585D01*
X44722946Y-69492535D01*
X44723662Y-69528892D01*
X44722428Y-69565653D01*
X44719295Y-69602815D01*
X44714315Y-69640376D01*
X44707538Y-69678334D01*
X44699017Y-69716684D01*
X44680991Y-69793325D01*
X44664202Y-69870379D01*
X44633032Y-70025291D01*
X44602905Y-70180550D01*
X44571216Y-70335287D01*
X44456401Y-70842729D01*
X44430615Y-70966647D01*
X44405696Y-71090915D01*
X44356381Y-71339102D01*
X44287869Y-71653956D01*
X44208215Y-72033633D01*
X44148963Y-72322551D01*
X44103344Y-72525358D01*
X44081487Y-72626762D01*
X44071331Y-72677463D01*
X44061892Y-72728164D01*
X44060954Y-72733308D01*
X44059877Y-72738320D01*
X44058663Y-72743198D01*
X44057314Y-72747941D01*
X44055832Y-72752547D01*
X44054219Y-72757014D01*
X44052478Y-72761341D01*
X44050610Y-72765525D01*
X44048617Y-72769566D01*
X44046501Y-72773462D01*
X44044265Y-72777210D01*
X44041910Y-72780810D01*
X44039438Y-72784259D01*
X44036852Y-72787556D01*
X44034153Y-72790698D01*
X44031344Y-72793685D01*
X44028426Y-72796515D01*
X44025402Y-72799186D01*
X44022273Y-72801696D01*
X44019042Y-72804043D01*
X44015710Y-72806226D01*
X44012280Y-72808244D01*
X44008754Y-72810094D01*
X44005133Y-72811775D01*
X44001420Y-72813284D01*
X43997617Y-72814621D01*
X43993725Y-72815784D01*
X43989747Y-72816771D01*
X43985685Y-72817580D01*
X43981541Y-72818209D01*
X43977317Y-72818658D01*
X43973015Y-72818924D01*
X43832834Y-72823348D01*
X43762960Y-72824093D01*
X43728115Y-72823615D01*
X43693346Y-72822385D01*
X43658664Y-72820266D01*
X43624080Y-72817118D01*
X43589604Y-72812804D01*
X43555248Y-72807185D01*
X43521022Y-72800123D01*
X43486937Y-72791480D01*
X43453004Y-72781117D01*
X43419234Y-72768896D01*
X43379974Y-72752463D01*
X43342771Y-72734405D01*
X43307641Y-72714704D01*
X43274599Y-72693340D01*
X43243663Y-72670294D01*
X43214849Y-72645547D01*
X43188173Y-72619080D01*
X43163650Y-72590875D01*
X43141299Y-72560911D01*
X43121133Y-72529170D01*
X43103171Y-72495634D01*
X43087428Y-72460281D01*
X43073920Y-72423095D01*
X43062665Y-72384056D01*
X43053677Y-72343144D01*
X43046973Y-72300340D01*
X43043526Y-72270233D01*
X43041452Y-72240324D01*
X43040647Y-72210594D01*
X43041008Y-72181023D01*
X43042432Y-72151594D01*
X43044817Y-72122286D01*
X43048059Y-72093082D01*
X43052055Y-72063961D01*
X43061897Y-72005896D01*
X43073520Y-71947940D01*
X43098809Y-71831749D01*
X43127372Y-71696723D01*
X43155066Y-71561352D01*
X43209934Y-71290955D01*
X43274757Y-70996466D01*
X43384038Y-70448257D01*
X43454431Y-70120417D01*
X43455410Y-70115535D01*
X43456273Y-70110615D01*
X43457701Y-70100684D01*
X43458826Y-70090667D01*
X43459756Y-70080608D01*
X43461463Y-70060532D01*
X43462458Y-70050601D01*
X43463691Y-70040799D01*
X43462629Y-70040473D01*
X43461528Y-70040187D01*
X43460395Y-70039941D01*
X43459235Y-70039729D01*
X43458053Y-70039550D01*
X43456855Y-70039401D01*
X43454431Y-70039182D01*
X43452007Y-70039049D01*
X43449627Y-70038982D01*
X43445171Y-70038954D01*
X43255321Y-70448713D01*
X43161784Y-70654631D01*
X43071028Y-70861250D01*
X42702493Y-71687308D01*
X42577842Y-71955804D01*
X42452823Y-72222893D01*
X42997958Y-72222893D01*
X42202141Y-75975315D01*
X41456967Y-75975315D01*
X41481094Y-75678693D01*
X41461778Y-75678693D01*
X41444539Y-75702064D01*
X41427187Y-75724550D01*
X41409722Y-75746151D01*
X41392144Y-75766866D01*
X41374452Y-75786695D01*
X41356648Y-75805639D01*
X41338731Y-75823697D01*
X41320701Y-75840870D01*
X41302558Y-75857158D01*
X41284301Y-75872560D01*
X41265932Y-75887076D01*
X41247450Y-75900707D01*
X41228854Y-75913453D01*
X41210146Y-75925313D01*
X41191324Y-75936287D01*
X41172390Y-75946376D01*
X41153192Y-75955721D01*
X41133580Y-75964462D01*
X41113553Y-75972601D01*
X41093113Y-75980136D01*
X41072259Y-75987068D01*
X41050990Y-75993398D01*
X41029307Y-75999124D01*
X41007209Y-76004247D01*
X40984697Y-76008768D01*
X40961771Y-76012686D01*
X40938430Y-76016000D01*
X40914674Y-76018712D01*
X40890503Y-76020822D01*
X40865918Y-76022328D01*
X40840917Y-76023232D01*
X40815502Y-76023534D01*
X40768589Y-76022488D01*
X40723109Y-76019351D01*
X40679060Y-76014123D01*
X40636443Y-76006803D01*
X40595258Y-75997393D01*
X40555505Y-75985891D01*
X40517183Y-75972297D01*
X40480294Y-75956613D01*
X40444836Y-75938837D01*
X40410811Y-75918970D01*
X40378217Y-75897012D01*
X40347055Y-75872962D01*
X40317325Y-75846821D01*
X40289027Y-75818589D01*
X40262160Y-75788265D01*
X40236726Y-75755850D01*
X40212780Y-75721174D01*
X40190378Y-75684671D01*
X40169521Y-75646340D01*
X40150209Y-75606182D01*
X40132442Y-75564196D01*
X40116219Y-75520383D01*
X40101541Y-75474743D01*
X40088408Y-75427274D01*
X40076820Y-75377978D01*
X40066777Y-75326855D01*
X40058279Y-75273904D01*
X40051326Y-75219126D01*
X40045918Y-75162520D01*
X40042056Y-75104086D01*
X40039738Y-75043825D01*
X40038965Y-74981737D01*
X40039626Y-74928671D01*
X40991522Y-74928671D01*
X40991725Y-74949887D01*
X40992332Y-74970431D01*
X40993345Y-74990301D01*
X40994764Y-75009497D01*
X40996587Y-75028020D01*
X40998815Y-75045870D01*
X41001449Y-75063046D01*
X41004488Y-75079548D01*
X41007932Y-75095377D01*
X41011781Y-75110533D01*
X41016035Y-75125015D01*
X41020695Y-75138824D01*
X41025759Y-75151959D01*
X41031228Y-75164421D01*
X41037103Y-75176209D01*
X41043383Y-75187324D01*
X41050068Y-75197765D01*
X41057157Y-75207532D01*
X41064652Y-75216626D01*
X41072552Y-75225046D01*
X41080857Y-75232793D01*
X41089567Y-75239866D01*
X41098682Y-75246266D01*
X41108202Y-75251992D01*
X41118127Y-75257044D01*
X41128457Y-75261423D01*
X41139192Y-75265128D01*
X41150332Y-75268160D01*
X41161877Y-75270517D01*
X41173826Y-75272202D01*
X41186181Y-75273212D01*
X41198941Y-75273549D01*
X41213966Y-75273002D01*
X41228897Y-75271363D01*
X41243733Y-75268630D01*
X41258475Y-75264805D01*
X41273122Y-75259887D01*
X41287675Y-75253876D01*
X41302134Y-75246772D01*
X41316499Y-75238575D01*
X41330769Y-75229286D01*
X41344946Y-75218903D01*
X41359028Y-75207428D01*
X41373016Y-75194861D01*
X41386910Y-75181201D01*
X41400710Y-75166448D01*
X41414416Y-75150603D01*
X41428028Y-75133665D01*
X41441715Y-75115513D01*
X41455045Y-75096625D01*
X41468018Y-75077002D01*
X41480632Y-75056645D01*
X41492889Y-75035552D01*
X41504787Y-75013724D01*
X41516328Y-74991162D01*
X41527511Y-74967865D01*
X41538336Y-74943833D01*
X41548803Y-74919066D01*
X41558912Y-74893564D01*
X41568662Y-74867328D01*
X41578055Y-74840357D01*
X41587090Y-74812652D01*
X41604084Y-74755038D01*
X41619345Y-74696105D01*
X41632571Y-74637474D01*
X41643762Y-74579144D01*
X41652918Y-74521116D01*
X41660040Y-74463389D01*
X41665127Y-74405964D01*
X41668179Y-74348840D01*
X41669197Y-74292017D01*
X41669008Y-74270652D01*
X41668443Y-74249966D01*
X41667500Y-74229957D01*
X41666181Y-74210627D01*
X41664485Y-74191975D01*
X41662412Y-74174001D01*
X41659962Y-74156706D01*
X41657135Y-74140088D01*
X41653931Y-74124149D01*
X41650351Y-74108889D01*
X41646393Y-74094306D01*
X41642059Y-74080402D01*
X41637348Y-74067176D01*
X41632260Y-74054629D01*
X41626795Y-74042759D01*
X41620953Y-74031568D01*
X41614735Y-74021055D01*
X41608139Y-74011220D01*
X41601167Y-74002064D01*
X41593819Y-73993586D01*
X41586093Y-73985786D01*
X41577991Y-73978664D01*
X41569511Y-73972221D01*
X41560656Y-73966456D01*
X41551423Y-73961369D01*
X41541814Y-73956960D01*
X41531828Y-73953230D01*
X41521465Y-73950178D01*
X41510725Y-73947804D01*
X41499609Y-73946108D01*
X41488116Y-73945091D01*
X41476247Y-73944752D01*
X41461495Y-73945308D01*
X41446781Y-73946976D01*
X41432104Y-73949756D01*
X41417465Y-73953648D01*
X41402864Y-73958652D01*
X41388300Y-73964768D01*
X41373774Y-73971995D01*
X41359286Y-73980334D01*
X41344836Y-73989785D01*
X41330423Y-74000347D01*
X41316047Y-74012020D01*
X41301710Y-74024805D01*
X41287410Y-74038702D01*
X41273148Y-74053709D01*
X41258923Y-74069828D01*
X41244737Y-74087058D01*
X41230739Y-74105201D01*
X41217080Y-74124060D01*
X41203761Y-74143635D01*
X41190782Y-74163927D01*
X41178141Y-74184934D01*
X41165841Y-74206657D01*
X41153879Y-74229096D01*
X41142257Y-74252250D01*
X41130974Y-74276121D01*
X41120030Y-74300708D01*
X41109425Y-74326011D01*
X41099158Y-74352029D01*
X41079643Y-74406214D01*
X41061481Y-74463263D01*
X41045089Y-74521177D01*
X41030881Y-74579165D01*
X41018857Y-74637227D01*
X41009018Y-74695364D01*
X41001364Y-74753576D01*
X40995897Y-74811864D01*
X40992616Y-74870229D01*
X40991522Y-74928671D01*
X40039626Y-74928671D01*
X40039634Y-74928013D01*
X40041640Y-74874158D01*
G37*
X40041640Y-74874158D02*
X40044984Y-74820171D01*
X40049665Y-74766052D01*
X40055683Y-74711801D01*
X40063039Y-74657419D01*
X40071733Y-74602904D01*
X40081765Y-74548258D01*
X40093134Y-74493479D01*
X40105840Y-74438569D01*
X40119885Y-74383527D01*
X40135267Y-74328353D01*
X40151987Y-74273047D01*
X40170045Y-74217609D01*
X40189441Y-74162040D01*
X40210175Y-74106338D01*
X40232256Y-74051409D01*
X40255090Y-73998158D01*
X40278679Y-73946583D01*
X40303022Y-73896685D01*
X40328118Y-73848464D01*
X40353968Y-73801920D01*
X40380572Y-73757053D01*
X40407929Y-73713862D01*
X40436040Y-73672349D01*
X40464904Y-73632512D01*
X40494522Y-73594352D01*
X40524894Y-73557868D01*
X40556019Y-73523061D01*
X40587898Y-73489931D01*
X40620529Y-73458477D01*
X40653915Y-73428700D01*
X40687893Y-73400374D01*
X40722306Y-73373874D01*
X40757152Y-73349202D01*
X40792431Y-73326358D01*
X40828144Y-73305340D01*
X40864290Y-73286150D01*
X40900870Y-73268788D01*
X40937883Y-73253253D01*
X40975329Y-73239545D01*
X41013209Y-73227666D01*
X41051522Y-73217613D01*
X41090268Y-73209389D01*
X41129447Y-73202991D01*
X41169060Y-73198422D01*
X41209105Y-73195680D01*
X41249584Y-73194767D01*
X41271966Y-73195059D01*
X41293896Y-73195935D01*
X41315374Y-73197396D01*
X41336400Y-73199441D01*
X41356974Y-73202070D01*
X41377095Y-73205283D01*
X41396765Y-73209081D01*
X41415982Y-73213462D01*
X41434747Y-73218428D01*
X41453060Y-73223977D01*
X41470920Y-73230111D01*
X41488329Y-73236828D01*
X41505285Y-73244130D01*
X41521789Y-73252015D01*
X41537841Y-73260484D01*
X41553441Y-73269537D01*
X41568900Y-73279154D01*
X41584528Y-73289921D01*
X41600325Y-73301836D01*
X41616293Y-73314901D01*
X41632429Y-73329114D01*
X41648736Y-73344476D01*
X41665212Y-73360988D01*
X41681857Y-73378648D01*
X41698672Y-73397458D01*
X41715657Y-73417417D01*
X41732811Y-73438526D01*
X41750135Y-73460784D01*
X41767628Y-73484192D01*
X41785291Y-73508749D01*
X41803123Y-73534456D01*
X41821125Y-73561312D01*
X41840406Y-73561312D01*
X41845217Y-73472109D01*
X41849852Y-73391132D01*
X41855317Y-73314601D01*
X41861611Y-73242516D01*
X41868735Y-73174877D01*
X41876688Y-73111684D01*
X41885470Y-73052938D01*
X41895080Y-72998639D01*
X41905518Y-72948787D01*
X41930550Y-72827280D01*
X41758098Y-72826046D01*
X41585372Y-72825843D01*
X41239347Y-72826339D01*
X41221914Y-72825816D01*
X41213663Y-72825161D01*
X41205719Y-72824240D01*
X41198078Y-72823054D01*
X41190738Y-72821600D01*
X41183697Y-72819877D01*
X41176951Y-72817885D01*
X41170498Y-72815621D01*
X41164336Y-72813084D01*
X41158461Y-72810273D01*
X41152871Y-72807187D01*
X41147563Y-72803824D01*
X41142534Y-72800183D01*
X41137782Y-72796262D01*
X41133304Y-72792061D01*
X41129097Y-72787578D01*
X41125159Y-72782811D01*
X41121487Y-72777759D01*
X41118078Y-72772421D01*
X41114930Y-72766795D01*
X41112039Y-72760881D01*
X41109403Y-72754676D01*
X41107020Y-72748180D01*
X41104887Y-72741391D01*
X41103000Y-72734307D01*
X41101358Y-72726928D01*
X41099957Y-72719252D01*
X41097869Y-72703004D01*
X41096715Y-72685552D01*
X41084213Y-72394095D01*
X41068933Y-72104027D01*
X41059993Y-71962632D01*
X41050185Y-71821584D01*
X41030047Y-71539141D01*
X41022320Y-71417191D01*
X41015462Y-71295585D01*
X41002266Y-71052029D01*
X40961534Y-70413060D01*
X40946703Y-70146353D01*
X40945759Y-70132434D01*
X40944358Y-70118343D01*
X40942566Y-70103907D01*
X40940449Y-70088949D01*
X40930027Y-70020433D01*
X40926600Y-70024473D01*
X40923273Y-70028267D01*
X40920060Y-70031833D01*
X40916975Y-70035187D01*
X40911240Y-70041325D01*
X40906178Y-70046811D01*
X40903933Y-70049350D01*
X40901897Y-70051776D01*
X40900084Y-70054104D01*
X40898507Y-70056351D01*
X40897811Y-70057449D01*
X40897179Y-70058533D01*
X40896613Y-70059605D01*
X40896115Y-70060666D01*
X40895686Y-70061720D01*
X40895327Y-70062768D01*
X40895042Y-70063812D01*
X40894830Y-70064854D01*
X40772600Y-70685302D01*
X40711713Y-70985343D01*
X40652215Y-71285384D01*
X40528140Y-71952134D01*
X40504986Y-72068497D01*
X40480441Y-72184339D01*
X40429965Y-72415155D01*
X40411795Y-72500150D01*
X40392934Y-72585322D01*
X40383026Y-72627811D01*
X40372684Y-72670147D01*
X40361820Y-72712265D01*
X40350347Y-72754101D01*
X40349669Y-72756388D01*
X40348849Y-72758704D01*
X40346809Y-72763400D01*
X40344269Y-72768151D01*
X40341276Y-72772917D01*
X40337871Y-72777659D01*
X40334100Y-72782337D01*
X40330006Y-72786914D01*
X40325634Y-72791349D01*
X40321028Y-72795603D01*
X40316231Y-72799638D01*
X40311288Y-72803414D01*
X40306243Y-72806892D01*
X40301140Y-72810033D01*
X40296022Y-72812798D01*
X40290935Y-72815147D01*
X40285922Y-72817043D01*
X40014838Y-73722900D01*
X39397464Y-73722900D01*
X39558762Y-72539954D01*
X39548407Y-72522880D01*
X39538496Y-72505396D01*
X39529042Y-72487489D01*
X39520060Y-72469144D01*
X39511563Y-72450347D01*
X39503566Y-72431083D01*
X39496083Y-72411339D01*
X39489128Y-72391100D01*
X39480382Y-72362013D01*
X39473507Y-72333083D01*
X39468380Y-72304294D01*
X39464874Y-72275629D01*
X39462866Y-72247073D01*
X39462230Y-72218608D01*
X39462842Y-72190219D01*
X39464577Y-72161890D01*
X39467311Y-72133604D01*
X39470918Y-72105345D01*
X39475274Y-72077098D01*
X39480255Y-72048845D01*
X39491589Y-71992259D01*
X39503923Y-71935458D01*
X39525252Y-71838257D01*
X39545367Y-71741235D01*
X39565135Y-71644561D01*
X39585422Y-71548401D01*
X39630574Y-71349303D01*
X39652891Y-71249927D01*
X39674336Y-71150204D01*
X39696009Y-71042926D01*
X39717159Y-70935124D01*
X39738655Y-70826974D01*
X39761370Y-70718654D01*
X39874340Y-70211176D01*
X39976204Y-69729634D01*
X40052132Y-69396259D01*
X40124371Y-69035103D01*
X40128803Y-69015744D01*
X40133176Y-68998557D01*
X40137648Y-68983416D01*
X40142374Y-68970193D01*
X40144882Y-68964262D01*
X40147513Y-68958761D01*
X40150287Y-68953677D01*
X40153223Y-68948992D01*
X40156340Y-68944691D01*
X40159659Y-68940759D01*
X40163199Y-68937178D01*
X40166980Y-68933933D01*
X40171021Y-68931009D01*
X40175342Y-68928388D01*
X40179964Y-68926056D01*
X40184904Y-68923996D01*
X40190184Y-68922193D01*
X40195822Y-68920630D01*
X40201839Y-68919291D01*
X40208254Y-68918161D01*
X40222357Y-68916464D01*
X40238288Y-68915409D01*
X40256204Y-68914869D01*
X40276263Y-68914718D01*
X40767988Y-68913557D01*
X41013850Y-68913930D01*
X41259712Y-68916563D01*
X41278330Y-68917335D01*
X41297008Y-68918943D01*
X41315718Y-68921363D01*
X41334436Y-68924576D01*
X41353133Y-68928557D01*
X41371782Y-68933286D01*
X41390358Y-68938739D01*
X41408833Y-68944896D01*
X41427180Y-68951734D01*
X41445373Y-68959230D01*
X41481190Y-68976112D01*
X41516067Y-68995366D01*
X41549791Y-69016814D01*
X41582148Y-69040281D01*
X41612924Y-69065589D01*
X41641903Y-69092564D01*
X41668872Y-69121027D01*
X41693616Y-69150804D01*
X41705088Y-69166130D01*
X41715922Y-69181717D01*
X41726093Y-69197545D01*
X41735574Y-69213591D01*
X41744339Y-69229832D01*
X41752359Y-69246248D01*
X41763570Y-69272420D01*
X41773637Y-69298833D01*
X41782629Y-69325468D01*
X41790617Y-69352307D01*
X41797673Y-69379331D01*
X41803865Y-69406519D01*
X41809266Y-69433854D01*
X41813945Y-69461317D01*
X41821420Y-69516549D01*
X41826854Y-69572064D01*
X41830812Y-69627709D01*
X41833858Y-69683332D01*
X41842366Y-69876731D01*
X41849138Y-70070653D01*
X41861639Y-70459362D01*
X41887576Y-71087226D01*
X41902371Y-71542831D01*
X41902845Y-71545956D01*
X41903555Y-71549081D01*
X41904477Y-71552206D01*
X41905587Y-71555330D01*
X41906859Y-71558455D01*
X41908270Y-71561579D01*
X41909796Y-71564703D01*
X41911411Y-71567827D01*
X41918277Y-71580324D01*
X41921611Y-71586573D01*
X41923167Y-71589698D01*
X41924618Y-71592823D01*
X41928857Y-71587347D01*
X41933181Y-71582003D01*
X41941742Y-71571535D01*
X41945805Y-71566322D01*
X41947745Y-71563703D01*
X41949609Y-71561066D01*
X41951386Y-71558408D01*
X41953065Y-71555722D01*
X41954636Y-71553004D01*
X41956089Y-71550247D01*
X42139452Y-71122423D01*
X42224413Y-70927954D01*
X42307984Y-70733485D01*
X42449430Y-70405663D01*
X42589487Y-70077840D01*
X42780019Y-69627788D01*
X42969164Y-69177735D01*
X43061768Y-68974006D01*
X43065373Y-68965994D01*
X43069253Y-68958617D01*
X43073420Y-68951858D01*
X43077889Y-68945702D01*
X43082673Y-68940131D01*
X43087785Y-68935129D01*
X43090468Y-68932837D01*
X43093239Y-68930681D01*
X43096098Y-68928660D01*
X43099048Y-68926771D01*
X43105227Y-68923381D01*
X43111787Y-68920496D01*
X43118744Y-68918099D01*
X43126111Y-68916174D01*
X43133900Y-68914705D01*
X43142126Y-68913676D01*
X43150803Y-68913071D01*
X43159943Y-68912873D01*
X43651667Y-68913101D01*
X43897529Y-68913127D01*
X44143392Y-68914718D01*
X44178378Y-68916058D01*
X44212494Y-68919359D01*
X44245736Y-68924588D01*
X44278102Y-68931707D01*
X44309589Y-68940682D01*
X44340194Y-68951478D01*
X44369914Y-68964059D01*
X44398748Y-68978390D01*
X44426691Y-68994436D01*
X44453742Y-69012161D01*
X44479898Y-69031530D01*
X44505155Y-69052508D01*
X44529512Y-69075059D01*
X44552966Y-69099148D01*
X44575513Y-69124739D01*
X44597152Y-69151799D01*
X44620210Y-69183964D01*
X44640802Y-69216560D01*
X44658980Y-69249585D01*
X44674795Y-69283036D01*
X44688298Y-69316910D01*
X44699541Y-69351205D01*
X44708576Y-69385918D01*
X44715454Y-69421045D01*
X44720227Y-69456585D01*
X44722946Y-69492535D01*
X44723662Y-69528892D01*
X44722428Y-69565653D01*
X44719295Y-69602815D01*
X44714315Y-69640376D01*
X44707538Y-69678334D01*
X44699017Y-69716684D01*
X44680991Y-69793325D01*
X44664202Y-69870379D01*
X44633032Y-70025291D01*
X44602905Y-70180550D01*
X44571216Y-70335287D01*
X44456401Y-70842729D01*
X44430615Y-70966647D01*
X44405696Y-71090915D01*
X44356381Y-71339102D01*
X44287869Y-71653956D01*
X44208215Y-72033633D01*
X44148963Y-72322551D01*
X44103344Y-72525358D01*
X44081487Y-72626762D01*
X44071331Y-72677463D01*
X44061892Y-72728164D01*
X44060954Y-72733308D01*
X44059877Y-72738320D01*
X44058663Y-72743198D01*
X44057314Y-72747941D01*
X44055832Y-72752547D01*
X44054219Y-72757014D01*
X44052478Y-72761341D01*
X44050610Y-72765525D01*
X44048617Y-72769566D01*
X44046501Y-72773462D01*
X44044265Y-72777210D01*
X44041910Y-72780810D01*
X44039438Y-72784259D01*
X44036852Y-72787556D01*
X44034153Y-72790698D01*
X44031344Y-72793685D01*
X44028426Y-72796515D01*
X44025402Y-72799186D01*
X44022273Y-72801696D01*
X44019042Y-72804043D01*
X44015710Y-72806226D01*
X44012280Y-72808244D01*
X44008754Y-72810094D01*
X44005133Y-72811775D01*
X44001420Y-72813284D01*
X43997617Y-72814621D01*
X43993725Y-72815784D01*
X43989747Y-72816771D01*
X43985685Y-72817580D01*
X43981541Y-72818209D01*
X43977317Y-72818658D01*
X43973015Y-72818924D01*
X43832834Y-72823348D01*
X43762960Y-72824093D01*
X43728115Y-72823615D01*
X43693346Y-72822385D01*
X43658664Y-72820266D01*
X43624080Y-72817118D01*
X43589604Y-72812804D01*
X43555248Y-72807185D01*
X43521022Y-72800123D01*
X43486937Y-72791480D01*
X43453004Y-72781117D01*
X43419234Y-72768896D01*
X43379974Y-72752463D01*
X43342771Y-72734405D01*
X43307641Y-72714704D01*
X43274599Y-72693340D01*
X43243663Y-72670294D01*
X43214849Y-72645547D01*
X43188173Y-72619080D01*
X43163650Y-72590875D01*
X43141299Y-72560911D01*
X43121133Y-72529170D01*
X43103171Y-72495634D01*
X43087428Y-72460281D01*
X43073920Y-72423095D01*
X43062665Y-72384056D01*
X43053677Y-72343144D01*
X43046973Y-72300340D01*
X43043526Y-72270233D01*
X43041452Y-72240324D01*
X43040647Y-72210594D01*
X43041008Y-72181023D01*
X43042432Y-72151594D01*
X43044817Y-72122286D01*
X43048059Y-72093082D01*
X43052055Y-72063961D01*
X43061897Y-72005896D01*
X43073520Y-71947940D01*
X43098809Y-71831749D01*
X43127372Y-71696723D01*
X43155066Y-71561352D01*
X43209934Y-71290955D01*
X43274757Y-70996466D01*
X43384038Y-70448257D01*
X43454431Y-70120417D01*
X43455410Y-70115535D01*
X43456273Y-70110615D01*
X43457701Y-70100684D01*
X43458826Y-70090667D01*
X43459756Y-70080608D01*
X43461463Y-70060532D01*
X43462458Y-70050601D01*
X43463691Y-70040799D01*
X43462629Y-70040473D01*
X43461528Y-70040187D01*
X43460395Y-70039941D01*
X43459235Y-70039729D01*
X43458053Y-70039550D01*
X43456855Y-70039401D01*
X43454431Y-70039182D01*
X43452007Y-70039049D01*
X43449627Y-70038982D01*
X43445171Y-70038954D01*
X43255321Y-70448713D01*
X43161784Y-70654631D01*
X43071028Y-70861250D01*
X42702493Y-71687308D01*
X42577842Y-71955804D01*
X42452823Y-72222893D01*
X42997958Y-72222893D01*
X42202141Y-75975315D01*
X41456967Y-75975315D01*
X41481094Y-75678693D01*
X41461778Y-75678693D01*
X41444539Y-75702064D01*
X41427187Y-75724550D01*
X41409722Y-75746151D01*
X41392144Y-75766866D01*
X41374452Y-75786695D01*
X41356648Y-75805639D01*
X41338731Y-75823697D01*
X41320701Y-75840870D01*
X41302558Y-75857158D01*
X41284301Y-75872560D01*
X41265932Y-75887076D01*
X41247450Y-75900707D01*
X41228854Y-75913453D01*
X41210146Y-75925313D01*
X41191324Y-75936287D01*
X41172390Y-75946376D01*
X41153192Y-75955721D01*
X41133580Y-75964462D01*
X41113553Y-75972601D01*
X41093113Y-75980136D01*
X41072259Y-75987068D01*
X41050990Y-75993398D01*
X41029307Y-75999124D01*
X41007209Y-76004247D01*
X40984697Y-76008768D01*
X40961771Y-76012686D01*
X40938430Y-76016000D01*
X40914674Y-76018712D01*
X40890503Y-76020822D01*
X40865918Y-76022328D01*
X40840917Y-76023232D01*
X40815502Y-76023534D01*
X40768589Y-76022488D01*
X40723109Y-76019351D01*
X40679060Y-76014123D01*
X40636443Y-76006803D01*
X40595258Y-75997393D01*
X40555505Y-75985891D01*
X40517183Y-75972297D01*
X40480294Y-75956613D01*
X40444836Y-75938837D01*
X40410811Y-75918970D01*
X40378217Y-75897012D01*
X40347055Y-75872962D01*
X40317325Y-75846821D01*
X40289027Y-75818589D01*
X40262160Y-75788265D01*
X40236726Y-75755850D01*
X40212780Y-75721174D01*
X40190378Y-75684671D01*
X40169521Y-75646340D01*
X40150209Y-75606182D01*
X40132442Y-75564196D01*
X40116219Y-75520383D01*
X40101541Y-75474743D01*
X40088408Y-75427274D01*
X40076820Y-75377978D01*
X40066777Y-75326855D01*
X40058279Y-75273904D01*
X40051326Y-75219126D01*
X40045918Y-75162520D01*
X40042056Y-75104086D01*
X40039738Y-75043825D01*
X40038965Y-74981737D01*
X40039626Y-74928671D01*
X40991522Y-74928671D01*
X40991725Y-74949887D01*
X40992332Y-74970431D01*
X40993345Y-74990301D01*
X40994764Y-75009497D01*
X40996587Y-75028020D01*
X40998815Y-75045870D01*
X41001449Y-75063046D01*
X41004488Y-75079548D01*
X41007932Y-75095377D01*
X41011781Y-75110533D01*
X41016035Y-75125015D01*
X41020695Y-75138824D01*
X41025759Y-75151959D01*
X41031228Y-75164421D01*
X41037103Y-75176209D01*
X41043383Y-75187324D01*
X41050068Y-75197765D01*
X41057157Y-75207532D01*
X41064652Y-75216626D01*
X41072552Y-75225046D01*
X41080857Y-75232793D01*
X41089567Y-75239866D01*
X41098682Y-75246266D01*
X41108202Y-75251992D01*
X41118127Y-75257044D01*
X41128457Y-75261423D01*
X41139192Y-75265128D01*
X41150332Y-75268160D01*
X41161877Y-75270517D01*
X41173826Y-75272202D01*
X41186181Y-75273212D01*
X41198941Y-75273549D01*
X41213966Y-75273002D01*
X41228897Y-75271363D01*
X41243733Y-75268630D01*
X41258475Y-75264805D01*
X41273122Y-75259887D01*
X41287675Y-75253876D01*
X41302134Y-75246772D01*
X41316499Y-75238575D01*
X41330769Y-75229286D01*
X41344946Y-75218903D01*
X41359028Y-75207428D01*
X41373016Y-75194861D01*
X41386910Y-75181201D01*
X41400710Y-75166448D01*
X41414416Y-75150603D01*
X41428028Y-75133665D01*
X41441715Y-75115513D01*
X41455045Y-75096625D01*
X41468018Y-75077002D01*
X41480632Y-75056645D01*
X41492889Y-75035552D01*
X41504787Y-75013724D01*
X41516328Y-74991162D01*
X41527511Y-74967865D01*
X41538336Y-74943833D01*
X41548803Y-74919066D01*
X41558912Y-74893564D01*
X41568662Y-74867328D01*
X41578055Y-74840357D01*
X41587090Y-74812652D01*
X41604084Y-74755038D01*
X41619345Y-74696105D01*
X41632571Y-74637474D01*
X41643762Y-74579144D01*
X41652918Y-74521116D01*
X41660040Y-74463389D01*
X41665127Y-74405964D01*
X41668179Y-74348840D01*
X41669197Y-74292017D01*
X41669008Y-74270652D01*
X41668443Y-74249966D01*
X41667500Y-74229957D01*
X41666181Y-74210627D01*
X41664485Y-74191975D01*
X41662412Y-74174001D01*
X41659962Y-74156706D01*
X41657135Y-74140088D01*
X41653931Y-74124149D01*
X41650351Y-74108889D01*
X41646393Y-74094306D01*
X41642059Y-74080402D01*
X41637348Y-74067176D01*
X41632260Y-74054629D01*
X41626795Y-74042759D01*
X41620953Y-74031568D01*
X41614735Y-74021055D01*
X41608139Y-74011220D01*
X41601167Y-74002064D01*
X41593819Y-73993586D01*
X41586093Y-73985786D01*
X41577991Y-73978664D01*
X41569511Y-73972221D01*
X41560656Y-73966456D01*
X41551423Y-73961369D01*
X41541814Y-73956960D01*
X41531828Y-73953230D01*
X41521465Y-73950178D01*
X41510725Y-73947804D01*
X41499609Y-73946108D01*
X41488116Y-73945091D01*
X41476247Y-73944752D01*
X41461495Y-73945308D01*
X41446781Y-73946976D01*
X41432104Y-73949756D01*
X41417465Y-73953648D01*
X41402864Y-73958652D01*
X41388300Y-73964768D01*
X41373774Y-73971995D01*
X41359286Y-73980334D01*
X41344836Y-73989785D01*
X41330423Y-74000347D01*
X41316047Y-74012020D01*
X41301710Y-74024805D01*
X41287410Y-74038702D01*
X41273148Y-74053709D01*
X41258923Y-74069828D01*
X41244737Y-74087058D01*
X41230739Y-74105201D01*
X41217080Y-74124060D01*
X41203761Y-74143635D01*
X41190782Y-74163927D01*
X41178141Y-74184934D01*
X41165841Y-74206657D01*
X41153879Y-74229096D01*
X41142257Y-74252250D01*
X41130974Y-74276121D01*
X41120030Y-74300708D01*
X41109425Y-74326011D01*
X41099158Y-74352029D01*
X41079643Y-74406214D01*
X41061481Y-74463263D01*
X41045089Y-74521177D01*
X41030881Y-74579165D01*
X41018857Y-74637227D01*
X41009018Y-74695364D01*
X41001364Y-74753576D01*
X40995897Y-74811864D01*
X40992616Y-74870229D01*
X40991522Y-74928671D01*
X40039626Y-74928671D01*
X40039634Y-74928013D01*
X40041640Y-74874158D01*
G36*
X51275199Y-74909162D02*
G01*
X51277432Y-74847017D01*
X51281154Y-74785646D01*
X51286364Y-74725048D01*
X51293062Y-74665222D01*
X51301249Y-74606169D01*
X51310925Y-74547889D01*
X51322089Y-74490381D01*
X51334741Y-74433645D01*
X51348882Y-74377682D01*
X51364511Y-74322491D01*
X51381629Y-74268073D01*
X51400234Y-74214426D01*
X51420328Y-74161552D01*
X51441911Y-74109450D01*
X51464981Y-74058119D01*
X51489699Y-74007589D01*
X51515623Y-73958491D01*
X51542753Y-73910825D01*
X51571088Y-73864591D01*
X51600629Y-73819788D01*
X51631375Y-73776418D01*
X51663327Y-73734479D01*
X51696485Y-73693972D01*
X51730849Y-73654898D01*
X51766418Y-73617255D01*
X51803194Y-73581043D01*
X51841175Y-73546264D01*
X51880362Y-73512917D01*
X51920755Y-73481001D01*
X51962354Y-73450517D01*
X52005159Y-73421465D01*
X52049019Y-73394015D01*
X52093784Y-73368335D01*
X52139453Y-73344426D01*
X52186027Y-73322288D01*
X52233504Y-73301921D01*
X52281886Y-73283324D01*
X52331173Y-73266499D01*
X52381364Y-73251444D01*
X52432459Y-73238161D01*
X52484458Y-73226648D01*
X52537362Y-73216907D01*
X52591170Y-73208936D01*
X52645883Y-73202737D01*
X52701499Y-73198309D01*
X52758021Y-73195652D01*
X52815446Y-73194767D01*
X52877544Y-73195831D01*
X52937834Y-73199024D01*
X52996315Y-73204346D01*
X53052987Y-73211796D01*
X53107851Y-73221376D01*
X53160907Y-73233084D01*
X53212154Y-73246921D01*
X53261592Y-73262887D01*
X53309222Y-73280982D01*
X53355042Y-73301206D01*
X53399054Y-73323559D01*
X53441258Y-73348041D01*
X53481652Y-73374653D01*
X53520238Y-73403393D01*
X53557014Y-73434263D01*
X53591982Y-73467261D01*
X53625273Y-73502239D01*
X53656416Y-73539044D01*
X53685411Y-73577677D01*
X53712259Y-73618139D01*
X53736958Y-73660428D01*
X53759510Y-73704544D01*
X53779915Y-73750489D01*
X53798171Y-73798261D01*
X53814280Y-73847860D01*
X53828240Y-73899287D01*
X53840053Y-73952542D01*
X53849718Y-74007624D01*
X53857236Y-74064532D01*
X53862605Y-74123269D01*
X53865827Y-74183832D01*
X53866901Y-74246222D01*
X53866147Y-74309149D01*
X53863887Y-74371321D01*
X53860119Y-74432740D01*
X53854845Y-74493405D01*
X53848063Y-74553317D01*
X53839775Y-74612475D01*
X53829979Y-74670879D01*
X53818676Y-74728529D01*
X53805865Y-74785426D01*
X53791548Y-74841569D01*
X53775723Y-74896958D01*
X53758391Y-74951595D01*
X53739551Y-75005477D01*
X53719204Y-75058606D01*
X53697349Y-75110982D01*
X53673987Y-75162605D01*
X53649561Y-75212843D01*
X53623909Y-75261667D01*
X53597033Y-75309079D01*
X53568932Y-75355077D01*
X53539606Y-75399661D01*
X53509055Y-75442833D01*
X53477280Y-75484592D01*
X53444280Y-75524937D01*
X53410055Y-75563870D01*
X53374606Y-75601389D01*
X53337932Y-75637495D01*
X53300034Y-75672189D01*
X53260911Y-75705470D01*
X53220563Y-75737337D01*
X53178992Y-75767792D01*
X53136196Y-75796835D01*
X53092335Y-75824285D01*
X53047571Y-75849965D01*
X53001902Y-75873874D01*
X52955329Y-75896012D01*
X52907851Y-75916380D01*
X52859469Y-75934976D01*
X52810183Y-75951802D01*
X52759992Y-75966856D01*
X52708897Y-75980140D01*
X52656897Y-75991652D01*
X52603994Y-76001394D01*
X52550186Y-76009364D01*
X52495473Y-76015563D01*
X52439856Y-76019991D01*
X52383335Y-76022648D01*
X52325910Y-76023534D01*
X52263802Y-76022469D01*
X52203485Y-76019276D01*
X52144958Y-76013954D01*
X52088221Y-76006504D01*
X52033274Y-75996925D01*
X51980117Y-75985216D01*
X51928750Y-75971379D01*
X51879173Y-75955413D01*
X51831385Y-75937318D01*
X51785388Y-75917094D01*
X51741180Y-75894741D01*
X51698762Y-75870259D01*
X51658133Y-75843648D01*
X51619294Y-75814908D01*
X51582245Y-75784038D01*
X51546986Y-75751039D01*
X51513986Y-75716062D01*
X51483116Y-75679256D01*
X51454373Y-75640623D01*
X51427760Y-75600162D01*
X51403275Y-75557873D01*
X51380919Y-75513756D01*
X51360692Y-75467812D01*
X51342593Y-75420040D01*
X51326624Y-75370440D01*
X51312784Y-75319013D01*
X51301072Y-75265759D01*
X51291490Y-75210677D01*
X51284037Y-75153768D01*
X51278714Y-75095032D01*
X51275520Y-75034469D01*
X51274990Y-75003441D01*
X52227048Y-75003441D01*
X52227246Y-75023174D01*
X52227839Y-75042281D01*
X52228828Y-75060761D01*
X52230213Y-75078615D01*
X52231994Y-75095842D01*
X52234170Y-75112443D01*
X52236741Y-75128418D01*
X52239709Y-75143766D01*
X52243072Y-75158488D01*
X52246830Y-75172584D01*
X52250985Y-75186053D01*
X52255534Y-75198895D01*
X52260480Y-75211111D01*
X52265821Y-75222701D01*
X52271558Y-75233664D01*
X52277691Y-75244001D01*
X52284219Y-75253712D01*
X52291143Y-75262796D01*
X52298462Y-75271253D01*
X52306177Y-75279084D01*
X52314288Y-75286289D01*
X52322794Y-75292867D01*
X52331696Y-75298818D01*
X52340994Y-75304144D01*
X52350687Y-75308842D01*
X52360776Y-75312915D01*
X52371261Y-75316360D01*
X52382141Y-75319180D01*
X52393417Y-75321372D01*
X52405089Y-75322939D01*
X52417156Y-75323878D01*
X52429619Y-75324192D01*
X52453839Y-75322882D01*
X52477662Y-75318953D01*
X52501090Y-75312406D01*
X52524123Y-75303239D01*
X52546759Y-75291454D01*
X52569001Y-75277049D01*
X52590846Y-75260026D01*
X52612296Y-75240384D01*
X52633350Y-75218123D01*
X52654008Y-75193243D01*
X52674271Y-75165745D01*
X52694138Y-75135627D01*
X52713610Y-75102892D01*
X52732686Y-75067537D01*
X52751366Y-75029564D01*
X52769651Y-74988972D01*
X52787172Y-74946676D01*
X52803563Y-74903588D01*
X52818823Y-74859709D01*
X52832954Y-74815040D01*
X52845953Y-74769579D01*
X52857823Y-74723327D01*
X52868562Y-74676283D01*
X52878170Y-74628449D01*
X52886648Y-74579823D01*
X52893996Y-74530406D01*
X52900214Y-74480197D01*
X52905300Y-74429197D01*
X52909257Y-74377406D01*
X52912083Y-74324823D01*
X52913779Y-74271448D01*
X52914344Y-74217282D01*
X52914127Y-74197698D01*
X52913476Y-74178735D01*
X52912392Y-74160394D01*
X52910874Y-74142675D01*
X52908922Y-74125577D01*
X52906536Y-74109101D01*
X52903718Y-74093247D01*
X52900465Y-74078015D01*
X52896780Y-74063404D01*
X52892661Y-74049415D01*
X52888109Y-74036048D01*
X52883124Y-74023302D01*
X52877706Y-74011179D01*
X52871855Y-73999676D01*
X52865571Y-73988796D01*
X52858854Y-73978537D01*
X52851761Y-73968608D01*
X52844347Y-73959320D01*
X52836613Y-73950671D01*
X52828559Y-73942664D01*
X52820184Y-73935296D01*
X52811490Y-73928569D01*
X52802474Y-73922483D01*
X52793139Y-73917037D01*
X52783483Y-73912231D01*
X52773507Y-73908067D01*
X52763211Y-73904543D01*
X52752594Y-73901659D01*
X52741658Y-73899416D01*
X52730401Y-73897814D01*
X52718823Y-73896853D01*
X52706926Y-73896533D01*
X52682424Y-73897851D01*
X52658355Y-73901807D01*
X52634720Y-73908401D01*
X52611518Y-73917632D01*
X52588749Y-73929500D01*
X52566414Y-73944006D01*
X52544512Y-73961150D01*
X52523044Y-73980931D01*
X52502008Y-74003350D01*
X52481406Y-74028407D01*
X52461238Y-74056101D01*
X52441502Y-74086433D01*
X52422200Y-74119403D01*
X52403332Y-74155010D01*
X52384896Y-74193256D01*
X52366894Y-74234139D01*
X52349957Y-74276427D01*
X52334113Y-74319487D01*
X52319362Y-74363320D01*
X52305705Y-74407925D01*
X52293140Y-74453303D01*
X52281668Y-74499453D01*
X52271289Y-74546376D01*
X52262003Y-74594072D01*
X52253810Y-74642540D01*
X52246710Y-74691780D01*
X52240702Y-74741793D01*
X52235786Y-74792578D01*
X52231963Y-74844135D01*
X52229232Y-74896465D01*
X52227594Y-74949567D01*
X52227048Y-75003441D01*
X51274990Y-75003441D01*
X51274455Y-74972079D01*
X51275199Y-74909162D01*
G37*
X51275199Y-74909162D02*
X51277432Y-74847017D01*
X51281154Y-74785646D01*
X51286364Y-74725048D01*
X51293062Y-74665222D01*
X51301249Y-74606169D01*
X51310925Y-74547889D01*
X51322089Y-74490381D01*
X51334741Y-74433645D01*
X51348882Y-74377682D01*
X51364511Y-74322491D01*
X51381629Y-74268073D01*
X51400234Y-74214426D01*
X51420328Y-74161552D01*
X51441911Y-74109450D01*
X51464981Y-74058119D01*
X51489699Y-74007589D01*
X51515623Y-73958491D01*
X51542753Y-73910825D01*
X51571088Y-73864591D01*
X51600629Y-73819788D01*
X51631375Y-73776418D01*
X51663327Y-73734479D01*
X51696485Y-73693972D01*
X51730849Y-73654898D01*
X51766418Y-73617255D01*
X51803194Y-73581043D01*
X51841175Y-73546264D01*
X51880362Y-73512917D01*
X51920755Y-73481001D01*
X51962354Y-73450517D01*
X52005159Y-73421465D01*
X52049019Y-73394015D01*
X52093784Y-73368335D01*
X52139453Y-73344426D01*
X52186027Y-73322288D01*
X52233504Y-73301921D01*
X52281886Y-73283324D01*
X52331173Y-73266499D01*
X52381364Y-73251444D01*
X52432459Y-73238161D01*
X52484458Y-73226648D01*
X52537362Y-73216907D01*
X52591170Y-73208936D01*
X52645883Y-73202737D01*
X52701499Y-73198309D01*
X52758021Y-73195652D01*
X52815446Y-73194767D01*
X52877544Y-73195831D01*
X52937834Y-73199024D01*
X52996315Y-73204346D01*
X53052987Y-73211796D01*
X53107851Y-73221376D01*
X53160907Y-73233084D01*
X53212154Y-73246921D01*
X53261592Y-73262887D01*
X53309222Y-73280982D01*
X53355042Y-73301206D01*
X53399054Y-73323559D01*
X53441258Y-73348041D01*
X53481652Y-73374653D01*
X53520238Y-73403393D01*
X53557014Y-73434263D01*
X53591982Y-73467261D01*
X53625273Y-73502239D01*
X53656416Y-73539044D01*
X53685411Y-73577677D01*
X53712259Y-73618139D01*
X53736958Y-73660428D01*
X53759510Y-73704544D01*
X53779915Y-73750489D01*
X53798171Y-73798261D01*
X53814280Y-73847860D01*
X53828240Y-73899287D01*
X53840053Y-73952542D01*
X53849718Y-74007624D01*
X53857236Y-74064532D01*
X53862605Y-74123269D01*
X53865827Y-74183832D01*
X53866901Y-74246222D01*
X53866147Y-74309149D01*
X53863887Y-74371321D01*
X53860119Y-74432740D01*
X53854845Y-74493405D01*
X53848063Y-74553317D01*
X53839775Y-74612475D01*
X53829979Y-74670879D01*
X53818676Y-74728529D01*
X53805865Y-74785426D01*
X53791548Y-74841569D01*
X53775723Y-74896958D01*
X53758391Y-74951595D01*
X53739551Y-75005477D01*
X53719204Y-75058606D01*
X53697349Y-75110982D01*
X53673987Y-75162605D01*
X53649561Y-75212843D01*
X53623909Y-75261667D01*
X53597033Y-75309079D01*
X53568932Y-75355077D01*
X53539606Y-75399661D01*
X53509055Y-75442833D01*
X53477280Y-75484592D01*
X53444280Y-75524937D01*
X53410055Y-75563870D01*
X53374606Y-75601389D01*
X53337932Y-75637495D01*
X53300034Y-75672189D01*
X53260911Y-75705470D01*
X53220563Y-75737337D01*
X53178992Y-75767792D01*
X53136196Y-75796835D01*
X53092335Y-75824285D01*
X53047571Y-75849965D01*
X53001902Y-75873874D01*
X52955329Y-75896012D01*
X52907851Y-75916380D01*
X52859469Y-75934976D01*
X52810183Y-75951802D01*
X52759992Y-75966856D01*
X52708897Y-75980140D01*
X52656897Y-75991652D01*
X52603994Y-76001394D01*
X52550186Y-76009364D01*
X52495473Y-76015563D01*
X52439856Y-76019991D01*
X52383335Y-76022648D01*
X52325910Y-76023534D01*
X52263802Y-76022469D01*
X52203485Y-76019276D01*
X52144958Y-76013954D01*
X52088221Y-76006504D01*
X52033274Y-75996925D01*
X51980117Y-75985216D01*
X51928750Y-75971379D01*
X51879173Y-75955413D01*
X51831385Y-75937318D01*
X51785388Y-75917094D01*
X51741180Y-75894741D01*
X51698762Y-75870259D01*
X51658133Y-75843648D01*
X51619294Y-75814908D01*
X51582245Y-75784038D01*
X51546986Y-75751039D01*
X51513986Y-75716062D01*
X51483116Y-75679256D01*
X51454373Y-75640623D01*
X51427760Y-75600162D01*
X51403275Y-75557873D01*
X51380919Y-75513756D01*
X51360692Y-75467812D01*
X51342593Y-75420040D01*
X51326624Y-75370440D01*
X51312784Y-75319013D01*
X51301072Y-75265759D01*
X51291490Y-75210677D01*
X51284037Y-75153768D01*
X51278714Y-75095032D01*
X51275520Y-75034469D01*
X51274990Y-75003441D01*
X52227048Y-75003441D01*
X52227246Y-75023174D01*
X52227839Y-75042281D01*
X52228828Y-75060761D01*
X52230213Y-75078615D01*
X52231994Y-75095842D01*
X52234170Y-75112443D01*
X52236741Y-75128418D01*
X52239709Y-75143766D01*
X52243072Y-75158488D01*
X52246830Y-75172584D01*
X52250985Y-75186053D01*
X52255534Y-75198895D01*
X52260480Y-75211111D01*
X52265821Y-75222701D01*
X52271558Y-75233664D01*
X52277691Y-75244001D01*
X52284219Y-75253712D01*
X52291143Y-75262796D01*
X52298462Y-75271253D01*
X52306177Y-75279084D01*
X52314288Y-75286289D01*
X52322794Y-75292867D01*
X52331696Y-75298818D01*
X52340994Y-75304144D01*
X52350687Y-75308842D01*
X52360776Y-75312915D01*
X52371261Y-75316360D01*
X52382141Y-75319180D01*
X52393417Y-75321372D01*
X52405089Y-75322939D01*
X52417156Y-75323878D01*
X52429619Y-75324192D01*
X52453839Y-75322882D01*
X52477662Y-75318953D01*
X52501090Y-75312406D01*
X52524123Y-75303239D01*
X52546759Y-75291454D01*
X52569001Y-75277049D01*
X52590846Y-75260026D01*
X52612296Y-75240384D01*
X52633350Y-75218123D01*
X52654008Y-75193243D01*
X52674271Y-75165745D01*
X52694138Y-75135627D01*
X52713610Y-75102892D01*
X52732686Y-75067537D01*
X52751366Y-75029564D01*
X52769651Y-74988972D01*
X52787172Y-74946676D01*
X52803563Y-74903588D01*
X52818823Y-74859709D01*
X52832954Y-74815040D01*
X52845953Y-74769579D01*
X52857823Y-74723327D01*
X52868562Y-74676283D01*
X52878170Y-74628449D01*
X52886648Y-74579823D01*
X52893996Y-74530406D01*
X52900214Y-74480197D01*
X52905300Y-74429197D01*
X52909257Y-74377406D01*
X52912083Y-74324823D01*
X52913779Y-74271448D01*
X52914344Y-74217282D01*
X52914127Y-74197698D01*
X52913476Y-74178735D01*
X52912392Y-74160394D01*
X52910874Y-74142675D01*
X52908922Y-74125577D01*
X52906536Y-74109101D01*
X52903718Y-74093247D01*
X52900465Y-74078015D01*
X52896780Y-74063404D01*
X52892661Y-74049415D01*
X52888109Y-74036048D01*
X52883124Y-74023302D01*
X52877706Y-74011179D01*
X52871855Y-73999676D01*
X52865571Y-73988796D01*
X52858854Y-73978537D01*
X52851761Y-73968608D01*
X52844347Y-73959320D01*
X52836613Y-73950671D01*
X52828559Y-73942664D01*
X52820184Y-73935296D01*
X52811490Y-73928569D01*
X52802474Y-73922483D01*
X52793139Y-73917037D01*
X52783483Y-73912231D01*
X52773507Y-73908067D01*
X52763211Y-73904543D01*
X52752594Y-73901659D01*
X52741658Y-73899416D01*
X52730401Y-73897814D01*
X52718823Y-73896853D01*
X52706926Y-73896533D01*
X52682424Y-73897851D01*
X52658355Y-73901807D01*
X52634720Y-73908401D01*
X52611518Y-73917632D01*
X52588749Y-73929500D01*
X52566414Y-73944006D01*
X52544512Y-73961150D01*
X52523044Y-73980931D01*
X52502008Y-74003350D01*
X52481406Y-74028407D01*
X52461238Y-74056101D01*
X52441502Y-74086433D01*
X52422200Y-74119403D01*
X52403332Y-74155010D01*
X52384896Y-74193256D01*
X52366894Y-74234139D01*
X52349957Y-74276427D01*
X52334113Y-74319487D01*
X52319362Y-74363320D01*
X52305705Y-74407925D01*
X52293140Y-74453303D01*
X52281668Y-74499453D01*
X52271289Y-74546376D01*
X52262003Y-74594072D01*
X52253810Y-74642540D01*
X52246710Y-74691780D01*
X52240702Y-74741793D01*
X52235786Y-74792578D01*
X52231963Y-74844135D01*
X52229232Y-74896465D01*
X52227594Y-74949567D01*
X52227048Y-75003441D01*
X51274990Y-75003441D01*
X51274455Y-74972079D01*
X51275199Y-74909162D01*
G36*
X51961008Y-68911780D02*
G01*
X51988043Y-68914004D01*
X52014362Y-68917655D01*
X52039977Y-68922687D01*
X52064897Y-68929053D01*
X52089134Y-68936708D01*
X52112698Y-68945605D01*
X52135601Y-68955699D01*
X52157852Y-68966942D01*
X52179463Y-68979291D01*
X52200444Y-68992697D01*
X52220807Y-69007115D01*
X52240561Y-69022500D01*
X52259718Y-69038805D01*
X52278289Y-69055983D01*
X52296283Y-69073990D01*
X52320830Y-69100464D01*
X52343771Y-69127780D01*
X52365105Y-69155909D01*
X52384833Y-69184825D01*
X52402954Y-69214501D01*
X52419469Y-69244909D01*
X52434378Y-69276023D01*
X52447680Y-69307815D01*
X52459377Y-69340258D01*
X52469467Y-69373325D01*
X52477952Y-69406989D01*
X52484830Y-69441223D01*
X52490103Y-69475999D01*
X52493770Y-69511291D01*
X52495831Y-69547071D01*
X52496287Y-69583312D01*
X52495791Y-69595140D01*
X52495011Y-69607003D01*
X52492672Y-69630804D01*
X52489423Y-69654650D01*
X52485414Y-69678474D01*
X52480797Y-69702211D01*
X52475724Y-69725796D01*
X52464816Y-69772247D01*
X52462494Y-69779932D01*
X52461156Y-69783551D01*
X52459701Y-69787023D01*
X52458129Y-69790350D01*
X52456440Y-69793533D01*
X52454637Y-69796574D01*
X52452719Y-69799476D01*
X52450687Y-69802239D01*
X52448541Y-69804865D01*
X52446283Y-69807356D01*
X52443913Y-69809714D01*
X52441432Y-69811940D01*
X52438840Y-69814037D01*
X52436138Y-69816005D01*
X52433327Y-69817847D01*
X52430408Y-69819564D01*
X52427381Y-69821158D01*
X52421005Y-69823983D01*
X52414207Y-69826336D01*
X52406990Y-69828231D01*
X52399362Y-69829681D01*
X52391327Y-69830700D01*
X52382890Y-69831301D01*
X52374057Y-69831499D01*
X52146542Y-69829648D01*
X51919374Y-69829187D01*
X51464692Y-69829654D01*
X51443594Y-69829952D01*
X51424658Y-69830913D01*
X51407746Y-69832633D01*
X51400006Y-69833808D01*
X51392720Y-69835210D01*
X51385870Y-69836851D01*
X51379440Y-69838743D01*
X51373412Y-69840898D01*
X51367770Y-69843328D01*
X51362494Y-69846045D01*
X51357569Y-69849063D01*
X51352977Y-69852393D01*
X51348701Y-69856046D01*
X51344723Y-69860037D01*
X51341027Y-69864375D01*
X51337594Y-69869075D01*
X51334408Y-69874148D01*
X51331451Y-69879605D01*
X51328705Y-69885461D01*
X51326155Y-69891726D01*
X51323782Y-69898413D01*
X51319499Y-69913101D01*
X51315718Y-69929623D01*
X51312301Y-69948077D01*
X51309109Y-69968560D01*
X51300362Y-70022734D01*
X51290877Y-70076908D01*
X51270215Y-70185258D01*
X51225765Y-70401955D01*
X51120210Y-70911278D01*
X51103859Y-70985969D01*
X51088027Y-71060139D01*
X51057232Y-71207611D01*
X51014392Y-71421295D01*
X50992883Y-71527703D01*
X50970163Y-71633590D01*
X50894235Y-71952134D01*
X50875394Y-72042423D01*
X50857421Y-72132712D01*
X50821997Y-72313291D01*
X50784727Y-72489238D01*
X50746068Y-72665186D01*
X50742379Y-72711488D01*
X50740335Y-72725270D01*
X50737661Y-72738138D01*
X50734337Y-72750088D01*
X50732424Y-72755719D01*
X50730340Y-72761119D01*
X50728082Y-72766289D01*
X50725648Y-72771228D01*
X50723035Y-72775936D01*
X50720240Y-72780412D01*
X50717261Y-72784656D01*
X50714094Y-72788668D01*
X50710738Y-72792447D01*
X50707189Y-72795993D01*
X50703444Y-72799306D01*
X50699502Y-72802385D01*
X50695359Y-72805231D01*
X50691012Y-72807842D01*
X50686459Y-72810218D01*
X50681697Y-72812359D01*
X50676724Y-72814265D01*
X50671536Y-72815935D01*
X50666131Y-72817369D01*
X50660507Y-72818566D01*
X50654660Y-72819527D01*
X50648588Y-72820251D01*
X50642288Y-72820737D01*
X50635757Y-72820986D01*
X50628993Y-72820997D01*
X50621993Y-72820769D01*
X50517524Y-72817115D01*
X50425608Y-73242986D01*
X51120139Y-73242986D01*
X50968210Y-73944752D01*
X50271255Y-73944752D01*
X50068683Y-74868405D01*
X50059639Y-74912982D01*
X50051800Y-74953865D01*
X50045167Y-74991056D01*
X50039739Y-75024554D01*
X50035516Y-75054360D01*
X50032500Y-75080473D01*
X50030690Y-75102893D01*
X50030238Y-75112718D01*
X50030087Y-75121620D01*
X50030235Y-75130967D01*
X50030680Y-75140018D01*
X50031422Y-75148772D01*
X50032461Y-75157229D01*
X50033796Y-75165389D01*
X50035428Y-75173252D01*
X50037357Y-75180819D01*
X50039582Y-75188089D01*
X50042104Y-75195063D01*
X50044923Y-75201739D01*
X50048039Y-75208119D01*
X50051452Y-75214202D01*
X50055161Y-75219988D01*
X50059167Y-75225478D01*
X50063469Y-75230671D01*
X50068069Y-75235567D01*
X50072965Y-75240166D01*
X50078158Y-75244469D01*
X50083647Y-75248475D01*
X50089434Y-75252184D01*
X50095517Y-75255597D01*
X50101897Y-75258712D01*
X50108573Y-75261531D01*
X50115546Y-75264053D01*
X50122816Y-75266279D01*
X50130383Y-75268208D01*
X50138247Y-75269840D01*
X50146407Y-75271175D01*
X50154864Y-75272214D01*
X50163618Y-75272956D01*
X50172668Y-75273401D01*
X50182015Y-75273549D01*
X50202391Y-75273106D01*
X50223728Y-75271777D01*
X50246025Y-75269562D01*
X50269284Y-75266461D01*
X50293503Y-75262475D01*
X50318683Y-75257602D01*
X50371926Y-75245201D01*
X50429012Y-75229257D01*
X50489942Y-75209773D01*
X50554715Y-75186747D01*
X50623332Y-75160181D01*
X50623332Y-75861947D01*
X50581694Y-75881513D01*
X50538776Y-75899817D01*
X50494576Y-75916859D01*
X50449094Y-75932638D01*
X50402332Y-75947155D01*
X50354288Y-75960411D01*
X50304962Y-75972404D01*
X50254356Y-75983134D01*
X50202469Y-75992603D01*
X50149300Y-76000809D01*
X50094850Y-76007752D01*
X50039119Y-76013433D01*
X49982108Y-76017852D01*
X49923815Y-76021008D01*
X49864241Y-76022902D01*
X49803387Y-76023534D01*
X49759442Y-76022940D01*
X49716834Y-76021160D01*
X49675564Y-76018192D01*
X49635632Y-76014038D01*
X49597038Y-76008697D01*
X49559781Y-76002169D01*
X49523862Y-75994454D01*
X49489280Y-75985552D01*
X49456036Y-75975463D01*
X49424130Y-75964187D01*
X49393562Y-75951724D01*
X49364331Y-75938074D01*
X49336438Y-75923237D01*
X49309882Y-75907213D01*
X49284664Y-75890003D01*
X49260784Y-75871605D01*
X49238591Y-75851550D01*
X49217829Y-75829968D01*
X49198500Y-75806861D01*
X49180603Y-75782228D01*
X49164139Y-75756070D01*
X49149106Y-75728385D01*
X49135506Y-75699174D01*
X49123337Y-75668437D01*
X49112601Y-75636174D01*
X49103296Y-75602385D01*
X49095422Y-75567069D01*
X49088981Y-75530228D01*
X49083971Y-75491860D01*
X49080392Y-75451966D01*
X49078245Y-75410546D01*
X49077530Y-75367600D01*
X49078434Y-75320422D01*
X49081147Y-75270530D01*
X49085669Y-75217924D01*
X49091999Y-75162605D01*
X49100138Y-75104572D01*
X49110086Y-75043826D01*
X49121842Y-74980369D01*
X49135407Y-74914201D01*
X49337979Y-73944752D01*
X48966586Y-73944752D01*
X49065447Y-73486578D01*
X49591193Y-73274348D01*
X49921566Y-72695572D01*
X49921855Y-72695572D01*
X49903683Y-72681503D01*
X49886020Y-72666935D01*
X49868900Y-72651872D01*
X49852362Y-72636319D01*
X49836441Y-72620282D01*
X49821176Y-72603765D01*
X49806602Y-72586774D01*
X49792756Y-72569312D01*
X49779675Y-72551387D01*
X49767397Y-72533001D01*
X49755957Y-72514160D01*
X49745393Y-72494870D01*
X49735741Y-72475135D01*
X49727038Y-72454960D01*
X49719322Y-72434350D01*
X49712628Y-72413310D01*
X49707679Y-72394738D01*
X49703251Y-72375859D01*
X49699344Y-72356714D01*
X49695958Y-72337344D01*
X49693092Y-72317788D01*
X49690747Y-72298089D01*
X49688924Y-72278287D01*
X49687621Y-72258422D01*
X49686839Y-72238536D01*
X49686577Y-72218669D01*
X49686837Y-72198861D01*
X49687618Y-72179154D01*
X49688920Y-72159588D01*
X49690743Y-72140204D01*
X49693087Y-72121043D01*
X49695951Y-72102146D01*
X49712588Y-72003526D01*
X49730418Y-71904928D01*
X49768881Y-71707884D01*
X49851534Y-71315010D01*
X49994130Y-70661247D01*
X50026573Y-70504570D01*
X50057803Y-70348237D01*
X50120086Y-70035228D01*
X50123706Y-70019949D01*
X50127519Y-70004670D01*
X50135120Y-69974113D01*
X50138605Y-69958835D01*
X50141678Y-69943556D01*
X50144189Y-69928277D01*
X50145186Y-69920638D01*
X50145986Y-69912998D01*
X50146678Y-69903211D01*
X50146760Y-69898531D01*
X50146664Y-69893996D01*
X50146386Y-69889606D01*
X50145927Y-69885362D01*
X50145285Y-69881265D01*
X50144457Y-69877316D01*
X50143441Y-69873517D01*
X50142237Y-69869868D01*
X50140843Y-69866370D01*
X50139256Y-69863024D01*
X50137475Y-69859832D01*
X50135499Y-69856794D01*
X50133325Y-69853911D01*
X50130952Y-69851184D01*
X50128379Y-69848615D01*
X50125603Y-69846205D01*
X50122623Y-69843953D01*
X50119437Y-69841863D01*
X50116043Y-69839933D01*
X50112440Y-69838166D01*
X50108626Y-69836563D01*
X50104599Y-69835123D01*
X50100358Y-69833850D01*
X50095901Y-69832743D01*
X50091226Y-69831803D01*
X50086332Y-69831032D01*
X50081216Y-69830431D01*
X50075877Y-69830000D01*
X50070314Y-69829741D01*
X50064524Y-69829654D01*
X49862815Y-69831505D01*
X49660754Y-69831965D01*
X49256986Y-69831499D01*
X49231557Y-69831132D01*
X49208695Y-69829954D01*
X49188319Y-69827849D01*
X49179037Y-69826412D01*
X49170347Y-69824699D01*
X49162237Y-69822696D01*
X49154697Y-69820388D01*
X49147718Y-69817761D01*
X49141288Y-69814800D01*
X49135399Y-69811490D01*
X49130039Y-69807817D01*
X49125199Y-69803766D01*
X49120869Y-69799322D01*
X49117037Y-69794472D01*
X49113695Y-69789200D01*
X49110831Y-69783493D01*
X49108436Y-69777334D01*
X49106500Y-69770710D01*
X49105012Y-69763606D01*
X49103962Y-69756008D01*
X49103340Y-69747901D01*
X49103135Y-69739270D01*
X49103338Y-69730101D01*
X49103939Y-69720379D01*
X49104927Y-69710090D01*
X49108023Y-69687750D01*
X49112546Y-69662967D01*
X49148397Y-69492399D01*
X49185460Y-69322176D01*
X49222176Y-69151953D01*
X49256986Y-68981385D01*
X49258077Y-68976143D01*
X49259266Y-68971175D01*
X49260555Y-68966475D01*
X49261943Y-68962037D01*
X49263431Y-68957851D01*
X49265021Y-68953913D01*
X49266713Y-68950214D01*
X49268507Y-68946747D01*
X49270404Y-68943505D01*
X49272406Y-68940482D01*
X49274511Y-68937669D01*
X49276722Y-68935060D01*
X49279039Y-68932648D01*
X49281462Y-68930426D01*
X49283992Y-68928386D01*
X49286630Y-68926521D01*
X49289377Y-68924825D01*
X49292233Y-68923289D01*
X49295199Y-68921908D01*
X49298275Y-68920673D01*
X49301462Y-68919578D01*
X49304762Y-68918616D01*
X49311699Y-68917061D01*
X49319091Y-68915950D01*
X49326945Y-68915227D01*
X49335264Y-68914836D01*
X49344056Y-68914718D01*
X50670140Y-68914718D01*
X51300998Y-68914956D01*
X51616861Y-68913949D01*
X51933246Y-68911028D01*
X51961008Y-68911780D01*
G37*
X51961008Y-68911780D02*
X51988043Y-68914004D01*
X52014362Y-68917655D01*
X52039977Y-68922687D01*
X52064897Y-68929053D01*
X52089134Y-68936708D01*
X52112698Y-68945605D01*
X52135601Y-68955699D01*
X52157852Y-68966942D01*
X52179463Y-68979291D01*
X52200444Y-68992697D01*
X52220807Y-69007115D01*
X52240561Y-69022500D01*
X52259718Y-69038805D01*
X52278289Y-69055983D01*
X52296283Y-69073990D01*
X52320830Y-69100464D01*
X52343771Y-69127780D01*
X52365105Y-69155909D01*
X52384833Y-69184825D01*
X52402954Y-69214501D01*
X52419469Y-69244909D01*
X52434378Y-69276023D01*
X52447680Y-69307815D01*
X52459377Y-69340258D01*
X52469467Y-69373325D01*
X52477952Y-69406989D01*
X52484830Y-69441223D01*
X52490103Y-69475999D01*
X52493770Y-69511291D01*
X52495831Y-69547071D01*
X52496287Y-69583312D01*
X52495791Y-69595140D01*
X52495011Y-69607003D01*
X52492672Y-69630804D01*
X52489423Y-69654650D01*
X52485414Y-69678474D01*
X52480797Y-69702211D01*
X52475724Y-69725796D01*
X52464816Y-69772247D01*
X52462494Y-69779932D01*
X52461156Y-69783551D01*
X52459701Y-69787023D01*
X52458129Y-69790350D01*
X52456440Y-69793533D01*
X52454637Y-69796574D01*
X52452719Y-69799476D01*
X52450687Y-69802239D01*
X52448541Y-69804865D01*
X52446283Y-69807356D01*
X52443913Y-69809714D01*
X52441432Y-69811940D01*
X52438840Y-69814037D01*
X52436138Y-69816005D01*
X52433327Y-69817847D01*
X52430408Y-69819564D01*
X52427381Y-69821158D01*
X52421005Y-69823983D01*
X52414207Y-69826336D01*
X52406990Y-69828231D01*
X52399362Y-69829681D01*
X52391327Y-69830700D01*
X52382890Y-69831301D01*
X52374057Y-69831499D01*
X52146542Y-69829648D01*
X51919374Y-69829187D01*
X51464692Y-69829654D01*
X51443594Y-69829952D01*
X51424658Y-69830913D01*
X51407746Y-69832633D01*
X51400006Y-69833808D01*
X51392720Y-69835210D01*
X51385870Y-69836851D01*
X51379440Y-69838743D01*
X51373412Y-69840898D01*
X51367770Y-69843328D01*
X51362494Y-69846045D01*
X51357569Y-69849063D01*
X51352977Y-69852393D01*
X51348701Y-69856046D01*
X51344723Y-69860037D01*
X51341027Y-69864375D01*
X51337594Y-69869075D01*
X51334408Y-69874148D01*
X51331451Y-69879605D01*
X51328705Y-69885461D01*
X51326155Y-69891726D01*
X51323782Y-69898413D01*
X51319499Y-69913101D01*
X51315718Y-69929623D01*
X51312301Y-69948077D01*
X51309109Y-69968560D01*
X51300362Y-70022734D01*
X51290877Y-70076908D01*
X51270215Y-70185258D01*
X51225765Y-70401955D01*
X51120210Y-70911278D01*
X51103859Y-70985969D01*
X51088027Y-71060139D01*
X51057232Y-71207611D01*
X51014392Y-71421295D01*
X50992883Y-71527703D01*
X50970163Y-71633590D01*
X50894235Y-71952134D01*
X50875394Y-72042423D01*
X50857421Y-72132712D01*
X50821997Y-72313291D01*
X50784727Y-72489238D01*
X50746068Y-72665186D01*
X50742379Y-72711488D01*
X50740335Y-72725270D01*
X50737661Y-72738138D01*
X50734337Y-72750088D01*
X50732424Y-72755719D01*
X50730340Y-72761119D01*
X50728082Y-72766289D01*
X50725648Y-72771228D01*
X50723035Y-72775936D01*
X50720240Y-72780412D01*
X50717261Y-72784656D01*
X50714094Y-72788668D01*
X50710738Y-72792447D01*
X50707189Y-72795993D01*
X50703444Y-72799306D01*
X50699502Y-72802385D01*
X50695359Y-72805231D01*
X50691012Y-72807842D01*
X50686459Y-72810218D01*
X50681697Y-72812359D01*
X50676724Y-72814265D01*
X50671536Y-72815935D01*
X50666131Y-72817369D01*
X50660507Y-72818566D01*
X50654660Y-72819527D01*
X50648588Y-72820251D01*
X50642288Y-72820737D01*
X50635757Y-72820986D01*
X50628993Y-72820997D01*
X50621993Y-72820769D01*
X50517524Y-72817115D01*
X50425608Y-73242986D01*
X51120139Y-73242986D01*
X50968210Y-73944752D01*
X50271255Y-73944752D01*
X50068683Y-74868405D01*
X50059639Y-74912982D01*
X50051800Y-74953865D01*
X50045167Y-74991056D01*
X50039739Y-75024554D01*
X50035516Y-75054360D01*
X50032500Y-75080473D01*
X50030690Y-75102893D01*
X50030238Y-75112718D01*
X50030087Y-75121620D01*
X50030235Y-75130967D01*
X50030680Y-75140018D01*
X50031422Y-75148772D01*
X50032461Y-75157229D01*
X50033796Y-75165389D01*
X50035428Y-75173252D01*
X50037357Y-75180819D01*
X50039582Y-75188089D01*
X50042104Y-75195063D01*
X50044923Y-75201739D01*
X50048039Y-75208119D01*
X50051452Y-75214202D01*
X50055161Y-75219988D01*
X50059167Y-75225478D01*
X50063469Y-75230671D01*
X50068069Y-75235567D01*
X50072965Y-75240166D01*
X50078158Y-75244469D01*
X50083647Y-75248475D01*
X50089434Y-75252184D01*
X50095517Y-75255597D01*
X50101897Y-75258712D01*
X50108573Y-75261531D01*
X50115546Y-75264053D01*
X50122816Y-75266279D01*
X50130383Y-75268208D01*
X50138247Y-75269840D01*
X50146407Y-75271175D01*
X50154864Y-75272214D01*
X50163618Y-75272956D01*
X50172668Y-75273401D01*
X50182015Y-75273549D01*
X50202391Y-75273106D01*
X50223728Y-75271777D01*
X50246025Y-75269562D01*
X50269284Y-75266461D01*
X50293503Y-75262475D01*
X50318683Y-75257602D01*
X50371926Y-75245201D01*
X50429012Y-75229257D01*
X50489942Y-75209773D01*
X50554715Y-75186747D01*
X50623332Y-75160181D01*
X50623332Y-75861947D01*
X50581694Y-75881513D01*
X50538776Y-75899817D01*
X50494576Y-75916859D01*
X50449094Y-75932638D01*
X50402332Y-75947155D01*
X50354288Y-75960411D01*
X50304962Y-75972404D01*
X50254356Y-75983134D01*
X50202469Y-75992603D01*
X50149300Y-76000809D01*
X50094850Y-76007752D01*
X50039119Y-76013433D01*
X49982108Y-76017852D01*
X49923815Y-76021008D01*
X49864241Y-76022902D01*
X49803387Y-76023534D01*
X49759442Y-76022940D01*
X49716834Y-76021160D01*
X49675564Y-76018192D01*
X49635632Y-76014038D01*
X49597038Y-76008697D01*
X49559781Y-76002169D01*
X49523862Y-75994454D01*
X49489280Y-75985552D01*
X49456036Y-75975463D01*
X49424130Y-75964187D01*
X49393562Y-75951724D01*
X49364331Y-75938074D01*
X49336438Y-75923237D01*
X49309882Y-75907213D01*
X49284664Y-75890003D01*
X49260784Y-75871605D01*
X49238591Y-75851550D01*
X49217829Y-75829968D01*
X49198500Y-75806861D01*
X49180603Y-75782228D01*
X49164139Y-75756070D01*
X49149106Y-75728385D01*
X49135506Y-75699174D01*
X49123337Y-75668437D01*
X49112601Y-75636174D01*
X49103296Y-75602385D01*
X49095422Y-75567069D01*
X49088981Y-75530228D01*
X49083971Y-75491860D01*
X49080392Y-75451966D01*
X49078245Y-75410546D01*
X49077530Y-75367600D01*
X49078434Y-75320422D01*
X49081147Y-75270530D01*
X49085669Y-75217924D01*
X49091999Y-75162605D01*
X49100138Y-75104572D01*
X49110086Y-75043826D01*
X49121842Y-74980369D01*
X49135407Y-74914201D01*
X49337979Y-73944752D01*
X48966586Y-73944752D01*
X49065447Y-73486578D01*
X49591193Y-73274348D01*
X49921566Y-72695572D01*
X49921855Y-72695572D01*
X49903683Y-72681503D01*
X49886020Y-72666935D01*
X49868900Y-72651872D01*
X49852362Y-72636319D01*
X49836441Y-72620282D01*
X49821176Y-72603765D01*
X49806602Y-72586774D01*
X49792756Y-72569312D01*
X49779675Y-72551387D01*
X49767397Y-72533001D01*
X49755957Y-72514160D01*
X49745393Y-72494870D01*
X49735741Y-72475135D01*
X49727038Y-72454960D01*
X49719322Y-72434350D01*
X49712628Y-72413310D01*
X49707679Y-72394738D01*
X49703251Y-72375859D01*
X49699344Y-72356714D01*
X49695958Y-72337344D01*
X49693092Y-72317788D01*
X49690747Y-72298089D01*
X49688924Y-72278287D01*
X49687621Y-72258422D01*
X49686839Y-72238536D01*
X49686577Y-72218669D01*
X49686837Y-72198861D01*
X49687618Y-72179154D01*
X49688920Y-72159588D01*
X49690743Y-72140204D01*
X49693087Y-72121043D01*
X49695951Y-72102146D01*
X49712588Y-72003526D01*
X49730418Y-71904928D01*
X49768881Y-71707884D01*
X49851534Y-71315010D01*
X49994130Y-70661247D01*
X50026573Y-70504570D01*
X50057803Y-70348237D01*
X50120086Y-70035228D01*
X50123706Y-70019949D01*
X50127519Y-70004670D01*
X50135120Y-69974113D01*
X50138605Y-69958835D01*
X50141678Y-69943556D01*
X50144189Y-69928277D01*
X50145186Y-69920638D01*
X50145986Y-69912998D01*
X50146678Y-69903211D01*
X50146760Y-69898531D01*
X50146664Y-69893996D01*
X50146386Y-69889606D01*
X50145927Y-69885362D01*
X50145285Y-69881265D01*
X50144457Y-69877316D01*
X50143441Y-69873517D01*
X50142237Y-69869868D01*
X50140843Y-69866370D01*
X50139256Y-69863024D01*
X50137475Y-69859832D01*
X50135499Y-69856794D01*
X50133325Y-69853911D01*
X50130952Y-69851184D01*
X50128379Y-69848615D01*
X50125603Y-69846205D01*
X50122623Y-69843953D01*
X50119437Y-69841863D01*
X50116043Y-69839933D01*
X50112440Y-69838166D01*
X50108626Y-69836563D01*
X50104599Y-69835123D01*
X50100358Y-69833850D01*
X50095901Y-69832743D01*
X50091226Y-69831803D01*
X50086332Y-69831032D01*
X50081216Y-69830431D01*
X50075877Y-69830000D01*
X50070314Y-69829741D01*
X50064524Y-69829654D01*
X49862815Y-69831505D01*
X49660754Y-69831965D01*
X49256986Y-69831499D01*
X49231557Y-69831132D01*
X49208695Y-69829954D01*
X49188319Y-69827849D01*
X49179037Y-69826412D01*
X49170347Y-69824699D01*
X49162237Y-69822696D01*
X49154697Y-69820388D01*
X49147718Y-69817761D01*
X49141288Y-69814800D01*
X49135399Y-69811490D01*
X49130039Y-69807817D01*
X49125199Y-69803766D01*
X49120869Y-69799322D01*
X49117037Y-69794472D01*
X49113695Y-69789200D01*
X49110831Y-69783493D01*
X49108436Y-69777334D01*
X49106500Y-69770710D01*
X49105012Y-69763606D01*
X49103962Y-69756008D01*
X49103340Y-69747901D01*
X49103135Y-69739270D01*
X49103338Y-69730101D01*
X49103939Y-69720379D01*
X49104927Y-69710090D01*
X49108023Y-69687750D01*
X49112546Y-69662967D01*
X49148397Y-69492399D01*
X49185460Y-69322176D01*
X49222176Y-69151953D01*
X49256986Y-68981385D01*
X49258077Y-68976143D01*
X49259266Y-68971175D01*
X49260555Y-68966475D01*
X49261943Y-68962037D01*
X49263431Y-68957851D01*
X49265021Y-68953913D01*
X49266713Y-68950214D01*
X49268507Y-68946747D01*
X49270404Y-68943505D01*
X49272406Y-68940482D01*
X49274511Y-68937669D01*
X49276722Y-68935060D01*
X49279039Y-68932648D01*
X49281462Y-68930426D01*
X49283992Y-68928386D01*
X49286630Y-68926521D01*
X49289377Y-68924825D01*
X49292233Y-68923289D01*
X49295199Y-68921908D01*
X49298275Y-68920673D01*
X49301462Y-68919578D01*
X49304762Y-68918616D01*
X49311699Y-68917061D01*
X49319091Y-68915950D01*
X49326945Y-68915227D01*
X49335264Y-68914836D01*
X49344056Y-68914718D01*
X50670140Y-68914718D01*
X51300998Y-68914956D01*
X51616861Y-68913949D01*
X51933246Y-68911028D01*
X51961008Y-68911780D01*
G36*
X47194084Y-73242986D02*
G01*
X47165145Y-73549267D01*
X47184425Y-73549267D01*
X47213986Y-73506339D01*
X47244790Y-73466180D01*
X47276837Y-73428792D01*
X47310128Y-73394173D01*
X47344663Y-73362323D01*
X47380441Y-73333243D01*
X47417462Y-73306932D01*
X47455727Y-73283391D01*
X47495235Y-73262620D01*
X47535986Y-73244618D01*
X47577982Y-73229386D01*
X47621220Y-73216923D01*
X47665702Y-73207229D01*
X47711428Y-73200306D01*
X47758397Y-73196151D01*
X47806609Y-73194767D01*
X47853004Y-73195822D01*
X47898137Y-73198987D01*
X47942008Y-73204263D01*
X47984617Y-73211649D01*
X48025964Y-73221146D01*
X48066049Y-73232752D01*
X48104872Y-73246469D01*
X48142432Y-73262296D01*
X48178731Y-73280233D01*
X48213766Y-73300281D01*
X48247540Y-73322438D01*
X48280051Y-73346705D01*
X48311299Y-73373082D01*
X48341284Y-73401570D01*
X48370007Y-73432167D01*
X48397467Y-73464874D01*
X48423457Y-73499125D01*
X48447771Y-73534960D01*
X48470407Y-73572377D01*
X48491366Y-73611376D01*
X48510648Y-73651958D01*
X48528254Y-73694123D01*
X48544182Y-73737870D01*
X48558434Y-73783200D01*
X48571008Y-73830113D01*
X48581906Y-73878608D01*
X48591128Y-73928686D01*
X48598672Y-73980346D01*
X48604540Y-74033589D01*
X48608732Y-74088415D01*
X48611246Y-74144823D01*
X48612085Y-74202814D01*
X48611425Y-74263790D01*
X48609447Y-74324333D01*
X48606149Y-74384443D01*
X48601532Y-74444119D01*
X48595597Y-74503361D01*
X48588342Y-74562171D01*
X48579769Y-74620546D01*
X48569877Y-74678489D01*
X48558666Y-74735998D01*
X48546136Y-74793074D01*
X48532287Y-74849716D01*
X48517120Y-74905925D01*
X48500634Y-74961702D01*
X48482829Y-75017045D01*
X48463706Y-75071954D01*
X48443264Y-75126431D01*
X48421729Y-75179618D01*
X48399328Y-75231259D01*
X48376060Y-75281356D01*
X48351925Y-75329907D01*
X48326924Y-75376914D01*
X48301056Y-75422376D01*
X48274321Y-75466293D01*
X48246720Y-75508665D01*
X48218252Y-75549492D01*
X48188918Y-75588774D01*
X48158717Y-75626511D01*
X48127649Y-75662704D01*
X48095715Y-75697351D01*
X48062914Y-75730454D01*
X48029246Y-75762011D01*
X47994712Y-75792024D01*
X47959838Y-75820058D01*
X47924551Y-75846284D01*
X47888848Y-75870701D01*
X47852731Y-75893309D01*
X47816200Y-75914109D01*
X47779254Y-75933100D01*
X47741893Y-75950282D01*
X47704118Y-75965656D01*
X47665929Y-75979221D01*
X47627325Y-75990977D01*
X47588307Y-76000925D01*
X47548874Y-76009064D01*
X47509026Y-76015395D01*
X47468764Y-76019916D01*
X47428088Y-76022629D01*
X47386997Y-76023534D01*
X47344408Y-76022168D01*
X47323503Y-76020460D01*
X47302856Y-76018069D01*
X47282468Y-76014996D01*
X47262340Y-76011239D01*
X47242470Y-76006800D01*
X47222860Y-76001677D01*
X47203508Y-75995871D01*
X47184416Y-75989383D01*
X47165583Y-75982211D01*
X47147008Y-75974356D01*
X47128693Y-75965819D01*
X47110637Y-75956598D01*
X47092840Y-75946695D01*
X47075302Y-75936108D01*
X47058023Y-75924839D01*
X47041003Y-75912886D01*
X47007740Y-75886933D01*
X46975514Y-75858247D01*
X46944324Y-75826830D01*
X46914170Y-75792681D01*
X46885052Y-75755801D01*
X46856971Y-75716188D01*
X46829925Y-75673844D01*
X46810645Y-75673844D01*
X46802205Y-75775395D01*
X46791354Y-75879886D01*
X46778093Y-75987318D01*
X46762420Y-76097689D01*
X46744335Y-76211000D01*
X46723839Y-76327249D01*
X46700930Y-76446435D01*
X46675609Y-76568560D01*
X46552619Y-77161806D01*
X45619343Y-77161806D01*
X46092070Y-74928671D01*
X46986701Y-74928671D01*
X46986918Y-74948020D01*
X46987567Y-74966880D01*
X46988650Y-74985251D01*
X46990166Y-75003132D01*
X46992115Y-75020523D01*
X46994497Y-75037425D01*
X46997313Y-75053837D01*
X47000562Y-75069760D01*
X47004244Y-75085192D01*
X47008359Y-75100135D01*
X47012908Y-75114587D01*
X47017891Y-75128550D01*
X47023306Y-75142022D01*
X47029156Y-75155004D01*
X47035439Y-75167497D01*
X47042155Y-75179498D01*
X47049267Y-75190887D01*
X47056737Y-75201541D01*
X47064564Y-75211461D01*
X47072750Y-75220645D01*
X47081293Y-75229095D01*
X47090194Y-75236810D01*
X47099453Y-75243791D01*
X47109070Y-75250036D01*
X47119045Y-75255547D01*
X47129378Y-75260323D01*
X47140069Y-75264364D01*
X47151118Y-75267671D01*
X47162525Y-75270242D01*
X47174290Y-75272079D01*
X47186413Y-75273182D01*
X47198895Y-75273549D01*
X47213327Y-75273012D01*
X47227684Y-75271401D01*
X47241966Y-75268716D01*
X47256173Y-75264958D01*
X47270305Y-75260125D01*
X47284362Y-75254219D01*
X47298344Y-75247238D01*
X47312251Y-75239184D01*
X47326082Y-75230056D01*
X47339837Y-75219854D01*
X47353518Y-75208578D01*
X47367122Y-75196228D01*
X47380651Y-75182804D01*
X47394104Y-75168307D01*
X47407482Y-75152735D01*
X47420783Y-75136090D01*
X47433887Y-75118540D01*
X47446669Y-75100255D01*
X47459132Y-75081236D01*
X47471274Y-75061482D01*
X47483095Y-75040993D01*
X47494596Y-75019769D01*
X47505777Y-74997811D01*
X47516637Y-74975117D01*
X47527177Y-74951689D01*
X47537397Y-74927527D01*
X47547297Y-74902629D01*
X47556876Y-74876997D01*
X47575074Y-74823528D01*
X47591992Y-74767120D01*
X47607819Y-74709053D01*
X47621536Y-74650608D01*
X47633144Y-74591784D01*
X47642641Y-74532583D01*
X47650029Y-74473006D01*
X47655306Y-74413052D01*
X47658473Y-74352722D01*
X47659528Y-74292017D01*
X47659326Y-74270652D01*
X47658718Y-74249966D01*
X47657705Y-74229957D01*
X47656287Y-74210627D01*
X47654463Y-74191975D01*
X47652235Y-74174001D01*
X47649601Y-74156706D01*
X47646562Y-74140088D01*
X47643118Y-74124149D01*
X47639269Y-74108889D01*
X47635015Y-74094306D01*
X47630356Y-74080402D01*
X47625291Y-74067176D01*
X47619822Y-74054629D01*
X47613947Y-74042759D01*
X47607667Y-74031568D01*
X47600983Y-74021055D01*
X47593893Y-74011220D01*
X47586398Y-74002064D01*
X47578498Y-73993586D01*
X47570193Y-73985786D01*
X47561483Y-73978664D01*
X47552368Y-73972221D01*
X47542848Y-73966456D01*
X47532923Y-73961369D01*
X47522593Y-73956960D01*
X47511858Y-73953230D01*
X47500718Y-73950178D01*
X47489174Y-73947804D01*
X47477224Y-73946108D01*
X47464869Y-73945091D01*
X47452109Y-73944752D01*
X47437084Y-73945289D01*
X47422154Y-73946899D01*
X47407318Y-73949584D01*
X47392576Y-73953343D01*
X47377928Y-73958175D01*
X47363375Y-73964082D01*
X47348916Y-73971062D01*
X47334552Y-73979117D01*
X47320281Y-73988245D01*
X47306105Y-73998447D01*
X47292023Y-74009723D01*
X47278035Y-74022072D01*
X47264141Y-74035496D01*
X47250341Y-74049994D01*
X47236635Y-74065565D01*
X47223023Y-74082211D01*
X47209627Y-74099770D01*
X47196571Y-74118083D01*
X47183854Y-74137150D01*
X47171475Y-74156971D01*
X47159436Y-74177546D01*
X47147737Y-74198874D01*
X47136376Y-74220956D01*
X47125354Y-74243792D01*
X47114672Y-74267381D01*
X47104328Y-74291724D01*
X47094324Y-74316820D01*
X47084659Y-74342670D01*
X47075333Y-74369273D01*
X47066346Y-74396630D01*
X47049390Y-74453604D01*
X47034695Y-74512197D01*
X47021960Y-74571016D01*
X47011185Y-74630060D01*
X47002370Y-74689329D01*
X46995515Y-74748825D01*
X46990618Y-74808547D01*
X46987680Y-74868495D01*
X46986701Y-74928671D01*
X46092070Y-74928671D01*
X46448909Y-73242986D01*
X47194084Y-73242986D01*
G37*
X47194084Y-73242986D02*
X47165145Y-73549267D01*
X47184425Y-73549267D01*
X47213986Y-73506339D01*
X47244790Y-73466180D01*
X47276837Y-73428792D01*
X47310128Y-73394173D01*
X47344663Y-73362323D01*
X47380441Y-73333243D01*
X47417462Y-73306932D01*
X47455727Y-73283391D01*
X47495235Y-73262620D01*
X47535986Y-73244618D01*
X47577982Y-73229386D01*
X47621220Y-73216923D01*
X47665702Y-73207229D01*
X47711428Y-73200306D01*
X47758397Y-73196151D01*
X47806609Y-73194767D01*
X47853004Y-73195822D01*
X47898137Y-73198987D01*
X47942008Y-73204263D01*
X47984617Y-73211649D01*
X48025964Y-73221146D01*
X48066049Y-73232752D01*
X48104872Y-73246469D01*
X48142432Y-73262296D01*
X48178731Y-73280233D01*
X48213766Y-73300281D01*
X48247540Y-73322438D01*
X48280051Y-73346705D01*
X48311299Y-73373082D01*
X48341284Y-73401570D01*
X48370007Y-73432167D01*
X48397467Y-73464874D01*
X48423457Y-73499125D01*
X48447771Y-73534960D01*
X48470407Y-73572377D01*
X48491366Y-73611376D01*
X48510648Y-73651958D01*
X48528254Y-73694123D01*
X48544182Y-73737870D01*
X48558434Y-73783200D01*
X48571008Y-73830113D01*
X48581906Y-73878608D01*
X48591128Y-73928686D01*
X48598672Y-73980346D01*
X48604540Y-74033589D01*
X48608732Y-74088415D01*
X48611246Y-74144823D01*
X48612085Y-74202814D01*
X48611425Y-74263790D01*
X48609447Y-74324333D01*
X48606149Y-74384443D01*
X48601532Y-74444119D01*
X48595597Y-74503361D01*
X48588342Y-74562171D01*
X48579769Y-74620546D01*
X48569877Y-74678489D01*
X48558666Y-74735998D01*
X48546136Y-74793074D01*
X48532287Y-74849716D01*
X48517120Y-74905925D01*
X48500634Y-74961702D01*
X48482829Y-75017045D01*
X48463706Y-75071954D01*
X48443264Y-75126431D01*
X48421729Y-75179618D01*
X48399328Y-75231259D01*
X48376060Y-75281356D01*
X48351925Y-75329907D01*
X48326924Y-75376914D01*
X48301056Y-75422376D01*
X48274321Y-75466293D01*
X48246720Y-75508665D01*
X48218252Y-75549492D01*
X48188918Y-75588774D01*
X48158717Y-75626511D01*
X48127649Y-75662704D01*
X48095715Y-75697351D01*
X48062914Y-75730454D01*
X48029246Y-75762011D01*
X47994712Y-75792024D01*
X47959838Y-75820058D01*
X47924551Y-75846284D01*
X47888848Y-75870701D01*
X47852731Y-75893309D01*
X47816200Y-75914109D01*
X47779254Y-75933100D01*
X47741893Y-75950282D01*
X47704118Y-75965656D01*
X47665929Y-75979221D01*
X47627325Y-75990977D01*
X47588307Y-76000925D01*
X47548874Y-76009064D01*
X47509026Y-76015395D01*
X47468764Y-76019916D01*
X47428088Y-76022629D01*
X47386997Y-76023534D01*
X47344408Y-76022168D01*
X47323503Y-76020460D01*
X47302856Y-76018069D01*
X47282468Y-76014996D01*
X47262340Y-76011239D01*
X47242470Y-76006800D01*
X47222860Y-76001677D01*
X47203508Y-75995871D01*
X47184416Y-75989383D01*
X47165583Y-75982211D01*
X47147008Y-75974356D01*
X47128693Y-75965819D01*
X47110637Y-75956598D01*
X47092840Y-75946695D01*
X47075302Y-75936108D01*
X47058023Y-75924839D01*
X47041003Y-75912886D01*
X47007740Y-75886933D01*
X46975514Y-75858247D01*
X46944324Y-75826830D01*
X46914170Y-75792681D01*
X46885052Y-75755801D01*
X46856971Y-75716188D01*
X46829925Y-75673844D01*
X46810645Y-75673844D01*
X46802205Y-75775395D01*
X46791354Y-75879886D01*
X46778093Y-75987318D01*
X46762420Y-76097689D01*
X46744335Y-76211000D01*
X46723839Y-76327249D01*
X46700930Y-76446435D01*
X46675609Y-76568560D01*
X46552619Y-77161806D01*
X45619343Y-77161806D01*
X46092070Y-74928671D01*
X46986701Y-74928671D01*
X46986918Y-74948020D01*
X46987567Y-74966880D01*
X46988650Y-74985251D01*
X46990166Y-75003132D01*
X46992115Y-75020523D01*
X46994497Y-75037425D01*
X46997313Y-75053837D01*
X47000562Y-75069760D01*
X47004244Y-75085192D01*
X47008359Y-75100135D01*
X47012908Y-75114587D01*
X47017891Y-75128550D01*
X47023306Y-75142022D01*
X47029156Y-75155004D01*
X47035439Y-75167497D01*
X47042155Y-75179498D01*
X47049267Y-75190887D01*
X47056737Y-75201541D01*
X47064564Y-75211461D01*
X47072750Y-75220645D01*
X47081293Y-75229095D01*
X47090194Y-75236810D01*
X47099453Y-75243791D01*
X47109070Y-75250036D01*
X47119045Y-75255547D01*
X47129378Y-75260323D01*
X47140069Y-75264364D01*
X47151118Y-75267671D01*
X47162525Y-75270242D01*
X47174290Y-75272079D01*
X47186413Y-75273182D01*
X47198895Y-75273549D01*
X47213327Y-75273012D01*
X47227684Y-75271401D01*
X47241966Y-75268716D01*
X47256173Y-75264958D01*
X47270305Y-75260125D01*
X47284362Y-75254219D01*
X47298344Y-75247238D01*
X47312251Y-75239184D01*
X47326082Y-75230056D01*
X47339837Y-75219854D01*
X47353518Y-75208578D01*
X47367122Y-75196228D01*
X47380651Y-75182804D01*
X47394104Y-75168307D01*
X47407482Y-75152735D01*
X47420783Y-75136090D01*
X47433887Y-75118540D01*
X47446669Y-75100255D01*
X47459132Y-75081236D01*
X47471274Y-75061482D01*
X47483095Y-75040993D01*
X47494596Y-75019769D01*
X47505777Y-74997811D01*
X47516637Y-74975117D01*
X47527177Y-74951689D01*
X47537397Y-74927527D01*
X47547297Y-74902629D01*
X47556876Y-74876997D01*
X47575074Y-74823528D01*
X47591992Y-74767120D01*
X47607819Y-74709053D01*
X47621536Y-74650608D01*
X47633144Y-74591784D01*
X47642641Y-74532583D01*
X47650029Y-74473006D01*
X47655306Y-74413052D01*
X47658473Y-74352722D01*
X47659528Y-74292017D01*
X47659326Y-74270652D01*
X47658718Y-74249966D01*
X47657705Y-74229957D01*
X47656287Y-74210627D01*
X47654463Y-74191975D01*
X47652235Y-74174001D01*
X47649601Y-74156706D01*
X47646562Y-74140088D01*
X47643118Y-74124149D01*
X47639269Y-74108889D01*
X47635015Y-74094306D01*
X47630356Y-74080402D01*
X47625291Y-74067176D01*
X47619822Y-74054629D01*
X47613947Y-74042759D01*
X47607667Y-74031568D01*
X47600983Y-74021055D01*
X47593893Y-74011220D01*
X47586398Y-74002064D01*
X47578498Y-73993586D01*
X47570193Y-73985786D01*
X47561483Y-73978664D01*
X47552368Y-73972221D01*
X47542848Y-73966456D01*
X47532923Y-73961369D01*
X47522593Y-73956960D01*
X47511858Y-73953230D01*
X47500718Y-73950178D01*
X47489174Y-73947804D01*
X47477224Y-73946108D01*
X47464869Y-73945091D01*
X47452109Y-73944752D01*
X47437084Y-73945289D01*
X47422154Y-73946899D01*
X47407318Y-73949584D01*
X47392576Y-73953343D01*
X47377928Y-73958175D01*
X47363375Y-73964082D01*
X47348916Y-73971062D01*
X47334552Y-73979117D01*
X47320281Y-73988245D01*
X47306105Y-73998447D01*
X47292023Y-74009723D01*
X47278035Y-74022072D01*
X47264141Y-74035496D01*
X47250341Y-74049994D01*
X47236635Y-74065565D01*
X47223023Y-74082211D01*
X47209627Y-74099770D01*
X47196571Y-74118083D01*
X47183854Y-74137150D01*
X47171475Y-74156971D01*
X47159436Y-74177546D01*
X47147737Y-74198874D01*
X47136376Y-74220956D01*
X47125354Y-74243792D01*
X47114672Y-74267381D01*
X47104328Y-74291724D01*
X47094324Y-74316820D01*
X47084659Y-74342670D01*
X47075333Y-74369273D01*
X47066346Y-74396630D01*
X47049390Y-74453604D01*
X47034695Y-74512197D01*
X47021960Y-74571016D01*
X47011185Y-74630060D01*
X47002370Y-74689329D01*
X46995515Y-74748825D01*
X46990618Y-74808547D01*
X46987680Y-74868495D01*
X46986701Y-74928671D01*
X46092070Y-74928671D01*
X46448909Y-73242986D01*
X47194084Y-73242986D01*
D10*
%TO.C,J5*%
X52714693Y-18303150D02*
X53429980Y-18303150D01*
X53573037Y-18350836D01*
X53668409Y-18446208D01*
X53716095Y-18589265D01*
X53716095Y-18684637D01*
X52714693Y-17349434D02*
X52714693Y-17826292D01*
X53191551Y-17873978D01*
X53143865Y-17826292D01*
X53096179Y-17730920D01*
X53096179Y-17492491D01*
X53143865Y-17397120D01*
X53191551Y-17349434D01*
X53286922Y-17301748D01*
X53525351Y-17301748D01*
X53620723Y-17349434D01*
X53668409Y-17397120D01*
X53716095Y-17492491D01*
X53716095Y-17730920D01*
X53668409Y-17826292D01*
X53620723Y-17873978D01*
%TO.C,L1*%
X48413333Y-59832380D02*
X47937142Y-59832380D01*
X47937142Y-58832380D01*
X49270476Y-59832380D02*
X48699047Y-59832380D01*
X48984761Y-59832380D02*
X48984761Y-58832380D01*
X48889523Y-58975238D01*
X48794285Y-59070476D01*
X48699047Y-59118095D01*
%TO.C,C1*%
X48333333Y-64607142D02*
X48285714Y-64654761D01*
X48142857Y-64702380D01*
X48047619Y-64702380D01*
X47904761Y-64654761D01*
X47809523Y-64559523D01*
X47761904Y-64464285D01*
X47714285Y-64273809D01*
X47714285Y-64130952D01*
X47761904Y-63940476D01*
X47809523Y-63845238D01*
X47904761Y-63750000D01*
X48047619Y-63702380D01*
X48142857Y-63702380D01*
X48285714Y-63750000D01*
X48333333Y-63797619D01*
X49285714Y-64702380D02*
X48714285Y-64702380D01*
X49000000Y-64702380D02*
X49000000Y-63702380D01*
X48904761Y-63845238D01*
X48809523Y-63940476D01*
X48714285Y-63988095D01*
D12*
%TO.C,J8*%
X40988095Y-38714285D02*
X40892857Y-38809523D01*
X40607142Y-38904761D01*
X40416666Y-38904761D01*
X40130952Y-38809523D01*
X39940476Y-38619047D01*
X39845238Y-38428571D01*
X39750000Y-38047619D01*
X39750000Y-37761904D01*
X39845238Y-37380952D01*
X39940476Y-37190476D01*
X40130952Y-37000000D01*
X40416666Y-36904761D01*
X40607142Y-36904761D01*
X40892857Y-37000000D01*
X40988095Y-37095238D01*
X42130952Y-38904761D02*
X41940476Y-38809523D01*
X41845238Y-38714285D01*
X41750000Y-38523809D01*
X41750000Y-37952380D01*
X41845238Y-37761904D01*
X41940476Y-37666666D01*
X42130952Y-37571428D01*
X42416666Y-37571428D01*
X42607142Y-37666666D01*
X42702380Y-37761904D01*
X42797619Y-37952380D01*
X42797619Y-38523809D01*
X42702380Y-38714285D01*
X42607142Y-38809523D01*
X42416666Y-38904761D01*
X42130952Y-38904761D01*
X43654761Y-38904761D02*
X43654761Y-37571428D01*
X43654761Y-37761904D02*
X43750000Y-37666666D01*
X43940476Y-37571428D01*
X44226190Y-37571428D01*
X44416666Y-37666666D01*
X44511904Y-37857142D01*
X44511904Y-38904761D01*
X44511904Y-37857142D02*
X44607142Y-37666666D01*
X44797619Y-37571428D01*
X45083333Y-37571428D01*
X45273809Y-37666666D01*
X45369047Y-37857142D01*
X45369047Y-38904761D01*
X46321428Y-37571428D02*
X46321428Y-39571428D01*
X46321428Y-37666666D02*
X46511904Y-37571428D01*
X46892857Y-37571428D01*
X47083333Y-37666666D01*
X47178571Y-37761904D01*
X47273809Y-37952380D01*
X47273809Y-38523809D01*
X47178571Y-38714285D01*
X47083333Y-38809523D01*
X46892857Y-38904761D01*
X46511904Y-38904761D01*
X46321428Y-38809523D01*
X49559523Y-38809523D02*
X49845238Y-38904761D01*
X50321428Y-38904761D01*
X50511904Y-38809523D01*
X50607142Y-38714285D01*
X50702380Y-38523809D01*
X50702380Y-38333333D01*
X50607142Y-38142857D01*
X50511904Y-38047619D01*
X50321428Y-37952380D01*
X49940476Y-37857142D01*
X49750000Y-37761904D01*
X49654761Y-37666666D01*
X49559523Y-37476190D01*
X49559523Y-37285714D01*
X49654761Y-37095238D01*
X49750000Y-37000000D01*
X49940476Y-36904761D01*
X50416666Y-36904761D01*
X50702380Y-37000000D01*
X51369047Y-37571428D02*
X51845238Y-38904761D01*
X52321428Y-37571428D02*
X51845238Y-38904761D01*
X51654761Y-39380952D01*
X51559523Y-39476190D01*
X51369047Y-39571428D01*
X53083333Y-37571428D02*
X53083333Y-38904761D01*
X53083333Y-37761904D02*
X53178571Y-37666666D01*
X53369047Y-37571428D01*
X53654761Y-37571428D01*
X53845238Y-37666666D01*
X53940476Y-37857142D01*
X53940476Y-38904761D01*
X55750000Y-38809523D02*
X55559523Y-38904761D01*
X55178571Y-38904761D01*
X54988095Y-38809523D01*
X54892857Y-38714285D01*
X54797619Y-38523809D01*
X54797619Y-37952380D01*
X54892857Y-37761904D01*
X54988095Y-37666666D01*
X55178571Y-37571428D01*
X55559523Y-37571428D01*
X55750000Y-37666666D01*
D10*
%TO.C,R2*%
X61893333Y-59832380D02*
X61560000Y-59356190D01*
X61321904Y-59832380D02*
X61321904Y-58832380D01*
X61702857Y-58832380D01*
X61798095Y-58880000D01*
X61845714Y-58927619D01*
X61893333Y-59022857D01*
X61893333Y-59165714D01*
X61845714Y-59260952D01*
X61798095Y-59308571D01*
X61702857Y-59356190D01*
X61321904Y-59356190D01*
X62274285Y-58927619D02*
X62321904Y-58880000D01*
X62417142Y-58832380D01*
X62655238Y-58832380D01*
X62750476Y-58880000D01*
X62798095Y-58927619D01*
X62845714Y-59022857D01*
X62845714Y-59118095D01*
X62798095Y-59260952D01*
X62226666Y-59832380D01*
X62845714Y-59832380D01*
D13*
%TO.C,J5*%
X51650000Y-14750000D02*
X43350000Y-14750000D01*
D14*
%TO.C,L1*%
X45160000Y-60380000D02*
X45160000Y-63320000D01*
X45160000Y-63320000D02*
X52000000Y-63320000D01*
X52000000Y-60380000D02*
X45160000Y-60380000D01*
X44540000Y-61850000D02*
X45160000Y-61850000D01*
X52000000Y-63320000D02*
X52000000Y-60380000D01*
X52620000Y-61850000D02*
X52000000Y-61850000D01*
%TO.C,C1*%
X45380000Y-68120000D02*
X51620000Y-68120000D01*
X45380000Y-65380000D02*
X51620000Y-65380000D01*
X51620000Y-67675000D02*
X51620000Y-68120000D01*
X45380000Y-67675000D02*
X45380000Y-68120000D01*
X45380000Y-65380000D02*
X45380000Y-65825000D01*
X51620000Y-65380000D02*
X51620000Y-65825000D01*
%TO.C,J8*%
X52355000Y-39895000D02*
X52355000Y-41225000D01*
X52355000Y-42495000D02*
X52355000Y-45095000D01*
X49755000Y-42495000D02*
X52355000Y-42495000D01*
X49755000Y-39895000D02*
X49755000Y-42495000D01*
X49755000Y-39895000D02*
X44615000Y-39895000D01*
X44615000Y-39895000D02*
X44615000Y-45095000D01*
X51025000Y-39895000D02*
X52355000Y-39895000D01*
X52355000Y-45095000D02*
X44615000Y-45095000D01*
D15*
%TO.C,J4*%
X31897000Y-24949000D02*
X28849000Y-24949000D01*
X31897000Y-28632000D02*
X39009000Y-28632000D01*
X28849000Y-79051000D02*
X28849000Y-24949000D01*
X31897000Y-79051000D02*
X28849000Y-79051000D01*
X31897000Y-24949000D02*
X31897000Y-79051000D01*
X21991000Y-28632000D02*
X28849000Y-28632000D01*
X21991000Y-28632000D02*
X21991000Y-75876000D01*
X21991000Y-75876000D02*
X28849000Y-75876000D01*
X39009000Y-28632000D02*
X39009000Y-75876000D01*
X31897000Y-26600000D02*
X28849000Y-26600000D01*
X31897000Y-77400000D02*
X28849000Y-77400000D01*
X39009000Y-75876000D02*
X31897000Y-75876000D01*
D14*
%TO.C,J7*%
X65000000Y-65792500D02*
X65500000Y-66342500D01*
D10*
X71300000Y-66842500D02*
X71300000Y-78642500D01*
X56800000Y-78642500D02*
X56800000Y-66842500D01*
X74900000Y-75542500D02*
X74900000Y-69342500D01*
X71300000Y-78642500D02*
X63550000Y-78642500D01*
X59200000Y-78642500D02*
X56800000Y-78642500D01*
X59500000Y-66842500D02*
X63250000Y-66842500D01*
D14*
X66000000Y-65792500D02*
X65000000Y-65792500D01*
D10*
X56800000Y-66842500D02*
X56900000Y-66842500D01*
X74900000Y-69342500D02*
X71300000Y-69342500D01*
D14*
X65500000Y-66342500D02*
X66000000Y-65792500D01*
D10*
X67750000Y-66842500D02*
X71300000Y-66842500D01*
X71300000Y-75542500D02*
X74900000Y-75542500D01*
D14*
%TO.C,J6*%
X57019669Y-55500000D02*
X57019669Y-24530000D01*
X56558344Y-35700000D02*
X56125331Y-35950000D01*
X56125331Y-35450000D02*
X56558344Y-35700000D01*
X56125331Y-35950000D02*
X56125331Y-35450000D01*
X70909669Y-55500000D02*
X57019669Y-55500000D01*
X57019669Y-24530000D02*
X70909669Y-24530000D01*
%TO.C,R2*%
X58790000Y-60380000D02*
X65330000Y-60380000D01*
X58790000Y-62790000D02*
X58790000Y-63120000D01*
X65330000Y-63120000D02*
X65330000Y-62790000D01*
X58790000Y-63120000D02*
X65330000Y-63120000D01*
X65330000Y-60380000D02*
X65330000Y-60710000D01*
X58790000Y-60710000D02*
X58790000Y-60380000D01*
%TD*%
D16*
%TO.C,J4*%
X30700660Y-25500180D03*
X30700660Y-78499820D03*
%TD*%
%LPC*%
D17*
%TO.C,J5*%
X47500000Y-23450000D03*
X53000000Y-32200000D03*
X42000000Y-32200000D03*
X47500000Y-32200000D03*
%TD*%
D18*
%TO.C,L1*%
X43500000Y-61850000D03*
D19*
X53660000Y-61850000D03*
%TD*%
D20*
%TO.C,REF\u002A\u002A*%
X48500000Y-52000000D03*
%TD*%
D18*
%TO.C,C1*%
X46000000Y-66750000D03*
X51000000Y-66750000D03*
%TD*%
D21*
%TO.C,J8*%
X51025000Y-41225000D03*
D22*
X51025000Y-43765000D03*
X48485000Y-41225000D03*
X48485000Y-43765000D03*
X45945000Y-41225000D03*
X45945000Y-43765000D03*
%TD*%
D16*
%TO.C,J4*%
X30700660Y-25500180D03*
X30700660Y-78499820D03*
D23*
X37779640Y-71050000D03*
X32699640Y-69145000D03*
X37779640Y-67240000D03*
X32699640Y-65335000D03*
X37779640Y-63430000D03*
X32699640Y-61525000D03*
X37779640Y-59620000D03*
X32699640Y-57715000D03*
X37779640Y-55810000D03*
X32699640Y-53905000D03*
X37779640Y-52000000D03*
X32699640Y-50095000D03*
X37779640Y-48190000D03*
X32699640Y-46285000D03*
X37779640Y-44380000D03*
X32699640Y-42475000D03*
X37779640Y-40570000D03*
X32699640Y-38665000D03*
X37779640Y-36760000D03*
X32699640Y-34855000D03*
X37779640Y-32950000D03*
%TD*%
D24*
%TO.C,J7*%
X61400000Y-77642500D03*
X62600000Y-74942500D03*
D25*
X69400000Y-72442500D03*
D26*
X65500000Y-67842500D03*
D25*
X58200000Y-68342500D03*
%TD*%
D27*
%TO.C,J6*%
X60079669Y-27515000D03*
X60079669Y-52515000D03*
D28*
X58659669Y-35700000D03*
D18*
X58659669Y-37990000D03*
X58659669Y-40280000D03*
X58659669Y-42570000D03*
X58659669Y-44860000D03*
X60639669Y-34555000D03*
X60639669Y-36845000D03*
X60639669Y-39135000D03*
X60639669Y-41425000D03*
X60639669Y-43715000D03*
X62619669Y-35700000D03*
X62619669Y-37990000D03*
X62619669Y-40280000D03*
X62619669Y-42570000D03*
X62619669Y-44860000D03*
%TD*%
%TO.C,R2*%
X58250000Y-61750000D03*
D19*
X65870000Y-61750000D03*
%TD*%
M02*
